<?xml version="1.0" encoding="utf-8"?>
<!-- Generator: Adobe Illustrator 21.0.0, SVG Export Plug-In . SVG Version: 6.00 Build 0)  -->
<svg version="1.1" id="Calque_1" xmlns="http://www.w3.org/2000/svg" xmlns:xlink="http://www.w3.org/1999/xlink" x="0px" y="0px"
	 viewBox="0 0 841.9 595.3" style="enable-background:new 0 0 841.9 595.3;" xml:space="preserve">
<style type="text/css">
	.st0{fill:#400080;}
	.st1{font-family:'CenturyGothic';}
	.st2{font-size:13.2283px;}
	
		.st3{fill:none;stroke:#400080;stroke-width:0.51;stroke-linecap:round;stroke-linejoin:round;stroke-miterlimit:10;stroke-dasharray:43.2,3.6,3.6,3.6;}
	.st4{fill:none;stroke:#400080;stroke-width:0.51;stroke-linecap:round;stroke-linejoin:round;stroke-miterlimit:10;}
	.st5{fill:none;stroke:#400080;stroke-width:0.709;stroke-linecap:round;stroke-linejoin:round;stroke-miterlimit:10;}
</style>
<text transform="matrix(1.0001 0 0 1 590.6963 113.9362)" class="st0 st1 st2">ATK FreeRaider 12-14 2020</text>
<line class="st3" x1="258" y1="218.5" x2="258" y2="211.4"/>
<line class="st3" x1="243.8" y1="232.7" x2="236.7" y2="232.7"/>
<line class="st3" x1="258" y1="246.9" x2="258" y2="253.9"/>
<line class="st3" x1="272.1" y1="232.7" x2="279.2" y2="232.7"/>
<line class="st3" x1="382.7" y1="218.5" x2="382.7" y2="211.4"/>
<line class="st3" x1="368.5" y1="232.7" x2="361.4" y2="232.7"/>
<line class="st3" x1="382.7" y1="246.9" x2="382.7" y2="253.9"/>
<line class="st3" x1="396.9" y1="232.7" x2="403.9" y2="232.7"/>
<line class="st3" x1="382.7" y1="346.1" x2="382.7" y2="339"/>
<line class="st3" x1="368.5" y1="360.2" x2="361.4" y2="360.2"/>
<line class="st3" x1="382.7" y1="374.4" x2="382.7" y2="381.5"/>
<line class="st3" x1="396.9" y1="360.2" x2="403.9" y2="360.2"/>
<line class="st3" x1="258" y1="346.1" x2="258" y2="339"/>
<line class="st3" x1="243.8" y1="360.2" x2="236.7" y2="360.2"/>
<line class="st3" x1="258" y1="374.4" x2="258" y2="381.5"/>
<line class="st3" x1="272.1" y1="360.2" x2="279.2" y2="360.2"/>
<path class="st4" d="M257.9,360.3h7.1 M257.9,360.3v7.1 M257.9,360.3h-7.1 M257.9,360.3v-7.1 M382.6,360.3h7.1 M382.6,360.3v7.1
	 M382.6,360.3h-7.1 M382.6,360.3v-7.1 M382.6,232.8h7.1 M382.6,232.8v7 M382.6,232.8h-7.1 M382.6,232.8v-7.1 M257.9,232.8h7.1
	 M257.9,232.8v7 M257.9,232.8h-7.1 M257.9,232.8v-7.1"/>
<path class="st5" d="M351.7,303.6h-0.5 M351.7,296.8v6.8 M354,289.5h0.6 M354.6,289.5v6.8 M354,289.5v6.8 M354,296.8v6.8
	 M354.6,303.6H354 M354.6,296.8v6.8 M356.8,289.5h0.6 M357.4,289.5v6.8 M356.8,289.5v6.8 M356.8,296.8v6.8 M357.4,303.6h-0.6
	 M357.4,296.8v6.8 M359.7,289.5h0.5 M360.2,289.5v6.8 M447.5,296.8h-2.2 M447.5,296.3h-2.2 M444.7,296.8h-2.3 M444.7,296.3h-2.3
	 M441.9,296.8h-2.3 M441.9,296.3h-2.3 M439,296.8h-2.2 M439,296.3h-2.2 M436.2,296.8h-2.3 M436.2,296.3h-2.3 M433.4,296.8h-2.3
	 M433.4,296.3h-2.3 M430.5,296.8h-2.2 M430.5,296.3h-2.2 M427.7,296.8h-2.3 M427.7,296.3h-2.3 M424.9,296.8h-2.3 M424.9,296.3h-2.3
	 M422,296.8h-2.2 M422,296.3h-2.2 M419.2,296.8h-2.3 M419.2,296.3h-2.3 M416.4,296.8h-2.3 M416.4,296.3h-2.3 M413.5,296.8h-2.2
	 M413.5,296.3h-2.2 M410.7,296.8h-2.3 M410.7,296.3h-2.3 M407.9,296.8h-2.3 M407.9,296.3h-2.3 M405,296.8h-2.2 M405,296.3h-2.2
	 M402.2,296.8h-2.3 M402.2,296.3h-2.3 M399.4,296.8h-2.3 M399.4,296.3h-2.3 M396.5,296.8h-2.2 M396.5,296.3h-2.2 M393.7,296.8h-2.3
	 M393.7,296.3h-2.3 M390.9,296.8h-2.3 M390.9,296.3h-2.3 M388,296.8h-2.2 M388,296.3h-2.2 M385.2,296.8h-2.3 M385.2,296.3h-2.3
	 M382.4,296.8h-2.3 M382.4,296.3h-2.3 M379.5,296.8h-2.2 M379.5,296.3h-2.2 M376.7,296.8h-2.3 M376.7,296.3h-2.3 M373.8,296.8h-2.2
	 M373.8,296.3h-2.2 M371,296.8h-2.3 M371,296.3h-2.3 M368.2,296.8h-2.3 M368.2,296.3h-2.3 M365.3,296.8h-2.2 M365.3,296.3h-2.2
	 M362.5,296.8h-2.3 M362.5,296.3h-2.3 M359.7,296.8h-2.3 M359.7,296.3h-2.3 M356.8,296.8h-2.2 M356.8,296.3h-2.2 M354,296.8h-2.3
	 M354,296.3h-2.3 M351.2,296.8h-2.3 M351.2,296.3h-2.3 M348.3,296.8h-2.2 M348.3,296.3h-2.2 M345.5,296.8h-2.3 M345.5,296.3h-2.3
	 M342.7,296.8h-2.3 M342.7,296.3h-2.3 M339.8,296.8h-2.2 M339.8,296.3h-2.2 M337,296.8h-2.3 M337,296.3h-2.3 M334.2,296.8h-2.3
	 M334.2,296.3h-2.3 M331.3,296.8h-2.2 M331.3,296.3h-2.2 M328.5,296.8h-2.3 M328.5,296.3h-2.3 M325.7,296.8h-2.3 M325.7,296.3h-2.3
	 M322.8,296.8h-2.2 M322.8,296.3h-2.2 M320,296.8h-2.3 M320,296.3h-2.3 M317.2,296.8h-2.3 M317.2,296.3h-2.3 M314.3,296.8h-2.2
	 M314.3,296.3h-2.2 M311.5,296.8h-2.3 M311.5,296.3h-2.3 M308.7,296.8h-2.3 M308.7,296.3h-2.3 M305.8,296.8h-2.3 M305.8,296.3h-2.3
	 M303,296.8h-2.3 M303,296.3h-2.3 M300.1,296.8h-2.2 M300.1,296.3h-2.2 M297.3,296.8H295 M297.3,296.3H295 M294.5,296.8h-2.3
	 M294.5,296.3h-2.3 M291.6,296.8h-2.2 M291.6,296.3h-2.2 M288.8,296.8h-2.3 M288.8,296.3h-2.3 M286,296.8h-2.3 M286,296.3h-2.3
	 M283.1,296.8h-2.2 M283.1,296.3h-2.2 M280.3,296.8H278 M280.3,296.3H278 M447.5,296.8v6.8 M448.1,303.6h-0.6 M448.1,289.5v14.1
	 M447.5,289.5h0.6 M447.5,289.5v6.8 M445.3,289.5v6.8 M444.7,289.5h0.6 M444.7,289.5v6.8 M442.4,289.5v6.8 M441.9,289.5h0.5
	 M441.9,289.5v6.8 M439.6,289.5v6.8 M439,289.5h0.6 M439,289.5v6.8 M436.8,289.5v6.8 M436.2,289.5h0.6 M436.2,289.5v6.8
	 M433.9,289.5v6.8 M433.4,289.5h0.5 M433.4,289.5v6.8 M431.1,289.5v6.8 M430.5,289.5h0.6 M430.5,289.5v6.8 M428.3,289.5v6.8
	 M427.7,289.5h0.6 M427.7,289.5v6.8 M425.4,289.5v6.8 M424.9,289.5h0.5 M424.9,289.5v6.8 M422.6,289.5v6.8 M422,289.5h0.6
	 M422,289.5v6.8 M419.8,289.5v6.8 M419.2,289.5h0.6 M419.2,289.5v6.8 M416.9,289.5v6.8 M416.4,289.5h0.5 M416.4,289.5v6.8
	 M414.1,289.5v6.8 M413.5,289.5h0.6 M413.5,289.5v6.8 M411.3,289.5v6.8 M410.7,289.5h0.6 M410.7,289.5v6.8 M408.4,289.5v6.8
	 M407.9,289.5h0.5 M407.9,289.5v6.8 M405.6,289.5v6.8 M405,289.5h0.6 M405,289.5v6.8 M402.8,289.5v6.8 M402.2,289.5h0.6
	 M402.2,289.5v6.8 M399.9,289.5v6.8 M399.4,289.5h0.5 M399.4,289.5v6.8 M397.1,289.5v6.8 M396.5,289.5h0.6 M396.5,289.5v6.8
	 M394.3,289.5v6.8 M393.7,289.5h0.6 M393.7,289.5v6.8 M391.4,289.5v6.8 M390.9,289.5h0.5 M390.9,289.5v6.8 M388.6,289.5v6.8
	 M388,289.5h0.6 M388,289.5v6.8 M385.8,289.5v6.8 M385.2,289.5h0.6 M385.2,289.5v6.8 M382.9,289.5v6.8 M382.4,289.5h0.5
	 M382.4,289.5v6.8 M380.1,289.5v6.8 M379.5,289.5h0.6 M379.5,289.5v6.8 M377.3,289.5v6.8 M376.7,289.5h0.6 M376.7,289.5v6.8
	 M374.4,289.5v6.8 M373.8,289.5h0.6 M373.8,289.5v6.8 M371.6,289.5v6.8 M371,289.5h0.6 M371,289.5v6.8 M368.7,289.5v6.8
	 M368.2,289.5h0.5 M368.2,289.5v6.8 M365.9,289.5v6.8 M365.3,289.5h0.6 M365.3,289.5v6.8 M363.1,289.5v6.8 M362.5,289.5h0.6
	 M362.5,289.5v6.8 M359.7,289.5v6.8 M351.7,289.5v6.8 M351.2,289.5h0.5 M351.2,289.5v6.8 M348.9,289.5v6.8 M348.3,289.5h0.6
	 M348.3,289.5v6.8 M346.1,289.5v6.8 M345.5,289.5h0.6 M345.5,289.5v6.8 M343.2,289.5v6.8 M342.7,289.5h0.5 M342.7,289.5v6.8
	 M340.4,289.5v6.8 M339.8,289.5h0.6 M339.8,289.5v6.8 M337.6,289.5v6.8 M337,289.5h0.6 M337,289.5v6.8 M334.7,289.5v6.8
	 M334.2,289.5h0.5 M334.2,289.5v6.8 M331.9,289.5v6.8 M331.3,289.5h0.6 M331.3,289.5v6.8 M329.1,289.5v6.8 M328.5,289.5h0.6
	 M328.5,289.5v6.8 M326.2,289.5v6.8 M325.7,289.5h0.5 M325.7,289.5v6.8 M323.4,289.5v6.8 M322.8,289.5h0.6 M322.8,289.5v6.8
	 M320.6,289.5v6.8 M320,289.5h0.6 M320,289.5v6.8 M317.7,289.5v6.8 M317.2,289.5h0.5 M317.2,289.5v6.8 M314.9,289.5v6.8
	 M314.3,289.5h0.6 M314.3,289.5v6.8 M312.1,289.5v6.8 M311.5,289.5h0.6 M311.5,289.5v6.8 M309.2,289.5v6.8 M308.7,289.5h0.5
	 M308.7,289.5v6.8 M306.4,289.5v6.8 M305.8,289.5h0.6 M305.8,289.5v6.8 M303.5,289.5v6.8 M303,289.5h0.5 M303,289.5v6.8
	 M300.7,289.5v6.8 M300.1,289.5h0.6 M300.1,289.5v6.8 M297.9,289.5v6.8 M297.3,289.5h0.6 M297.3,289.5v6.8 M295,289.5v6.8
	 M294.5,289.5h0.5 M294.5,289.5v6.8 M292.2,289.5v6.8 M291.6,289.5h0.6 M291.6,289.5v6.8 M289.4,289.5v6.8 M288.8,289.5h0.6
	 M288.8,289.5v6.8 M286.5,289.5v6.8 M286,289.5h0.5 M286,289.5v6.8 M283.7,289.5v6.8 M283.1,289.5h0.6 M283.1,289.5v6.8
	 M280.9,289.5v6.8 M280.3,289.5h0.6 M280.3,289.5v6.8 M278,282.4v13.9 M277.5,282.4h0.5 M277.5,282.4v28.3 M278,310.7h-0.5
	 M278,296.8v13.9 M280.3,296.8v6.8 M280.9,303.6h-0.6 M280.9,296.8v6.8 M283.1,296.8v6.8 M283.7,303.6h-0.6 M283.7,296.8v6.8
	 M286,296.8v6.8 M286.5,303.6H286 M286.5,296.8v6.8 M288.8,296.8v6.8 M289.4,303.6h-0.6 M289.4,296.8v6.8 M291.6,296.8v6.8
	 M292.2,303.6h-0.6 M292.2,296.8v6.8 M294.5,296.8v6.8 M295,303.6h-0.5 M295,296.8v6.8 M297.3,296.8v6.8 M297.9,303.6h-0.6
	 M297.9,296.8v6.8 M300.1,296.8v6.8 M300.7,303.6h-0.6 M300.7,296.8v6.8 M303,296.8v6.8 M303.5,303.6H303 M303.5,296.8v6.8
	 M305.8,296.8v6.8 M306.4,303.6h-0.6 M306.4,296.8v6.8 M308.7,296.8v6.8 M309.2,303.6h-0.5 M309.2,296.8v6.8 M311.5,296.8v6.8
	 M312.1,303.6h-0.6 M312.1,296.8v6.8 M314.3,296.8v6.8 M314.9,303.6h-0.6 M314.9,296.8v6.8 M317.2,296.8v6.8 M317.7,303.6h-0.5
	 M317.7,296.8v6.8 M320,296.8v6.8 M320.6,303.6H320 M320.6,296.8v6.8 M322.8,296.8v6.8 M323.4,303.6h-0.6 M323.4,296.8v6.8
	 M325.7,296.8v6.8 M326.2,303.6h-0.5 M326.2,296.8v6.8 M328.5,296.8v6.8 M329.1,303.6h-0.6 M329.1,296.8v6.8 M331.3,296.8v6.8
	 M331.9,303.6h-0.6 M331.9,296.8v6.8 M334.2,296.8v6.8 M334.7,303.6h-0.5 M334.7,296.8v6.8 M337,296.8v6.8 M337.6,303.6H337
	 M337.6,296.8v6.8 M339.8,296.8v6.8 M340.4,303.6h-0.6 M340.4,296.8v6.8 M342.7,296.8v6.8 M343.2,303.6h-0.5 M343.2,296.8v6.8
	 M345.5,296.8v6.8 M346.1,303.6h-0.6 M346.1,296.8v6.8 M348.3,296.8v6.8 M348.9,303.6h-0.6 M348.9,296.8v6.8 M351.2,296.8v6.8
	 M359.7,296.8v6.8 M360.2,303.6h-0.5 M360.2,296.8v6.8 M362.5,296.8v6.8 M363.1,303.6h-0.6 M363.1,296.8v6.8 M365.3,296.8v6.8
	 M365.9,303.6h-0.6 M365.9,296.8v6.8 M368.2,296.8v6.8 M368.7,303.6h-0.5 M368.7,296.8v6.8 M371,296.8v6.8 M371.6,303.6H371
	 M371.6,296.8v6.8 M373.8,296.8v6.8 M374.4,303.6h-0.6 M374.4,296.8v6.8 M376.7,296.8v6.8 M377.3,303.6h-0.6 M377.3,296.8v6.8
	 M379.5,296.8v6.8 M380.1,303.6h-0.6 M380.1,296.8v6.8 M382.4,296.8v6.8 M382.9,303.6h-0.5 M382.9,296.8v6.8 M385.2,296.8v6.8
	 M385.8,303.6h-0.6 M385.8,296.8v6.8 M388,296.8v6.8 M388.6,303.6H388 M388.6,296.8v6.8 M390.9,296.8v6.8 M391.4,303.6h-0.5
	 M391.4,296.8v6.8 M393.7,296.8v6.8 M394.3,303.6h-0.6 M394.3,296.8v6.8 M396.5,296.8v6.8 M397.1,303.6h-0.6 M397.1,296.8v6.8
	 M399.4,296.8v6.8 M399.9,303.6h-0.5 M399.9,296.8v6.8 M402.2,296.8v6.8 M402.8,303.6h-0.6 M402.8,296.8v6.8 M405,296.8v6.8
	 M405.6,303.6H405 M405.6,296.8v6.8 M407.9,296.8v6.8 M408.4,303.6h-0.5 M408.4,296.8v6.8 M410.7,296.8v6.8 M411.3,303.6h-0.6
	 M411.3,296.8v6.8 M413.5,296.8v6.8 M414.1,303.6h-0.6 M414.1,296.8v6.8 M416.4,296.8v6.8 M416.9,303.6h-0.5 M416.9,296.8v6.8
	 M419.2,296.8v6.8 M419.8,303.6h-0.6 M419.8,296.8v6.8 M422,296.8v6.8 M422.6,303.6H422 M422.6,296.8v6.8 M424.9,296.8v6.8
	 M425.4,303.6h-0.5 M425.4,296.8v6.8 M427.7,296.8v6.8 M428.3,303.6h-0.6 M428.3,296.8v6.8 M430.5,296.8v6.8 M431.1,303.6h-0.6
	 M431.1,296.8v6.8 M433.4,296.8v6.8 M433.9,303.6h-0.5 M433.9,296.8v6.8 M436.2,296.8v6.8 M436.8,303.6h-0.6 M436.8,296.8v6.8
	 M439,296.8v6.8 M439.6,303.6H439 M439.6,296.8v6.8 M441.9,296.8v6.8 M442.4,303.6h-0.5 M442.4,296.8v6.8 M444.7,296.8v6.8
	 M445.3,303.6h-0.6 M445.3,296.8v6.8 M243.7,360.3l0.3,3l1,2.8l1.4,2.6l2,2.2l2.4,1.7l2.7,1.2l2.9,0.6h3l2.9-0.6l2.7-1.2l2.4-1.7
	l2-2.2l1.5-2.6l0.9-2.8l0.3-3l-0.3-2.9l-0.9-2.8l-1.5-2.6l-2-2.2L265,348l-2.7-1.2l-2.9-0.6h-3l-2.9,0.6l-2.7,1.2l-2.4,1.8l-2,2.2
	l-1.4,2.6l-1,2.8L243.7,360.3 M250.8,360.3l0.3,2.1l1,1.9l1.4,1.6l1.8,1l2.1,0.5l2.1-0.2l2-0.7l1.6-1.4l1.2-1.7l0.6-2v-2.1l-0.6-2.1
	l-1.2-1.7l-1.6-1.3l-2-0.8l-2.1-0.1l-2.1,0.4l-1.8,1.1l-1.4,1.5l-1,1.9L250.8,360.3 M368.5,360.3l0.3,3l0.9,2.8l1.5,2.6l2,2.2
	l2.3,1.7l2.8,1.2l2.9,0.6h2.9l2.9-0.6l2.7-1.2l2.4-1.7l2-2.2l1.5-2.6l0.9-2.8l0.3-3l-0.3-2.9l-0.9-2.8l-1.5-2.6l-2-2.2l-2.4-1.8
	l-2.7-1.2l-2.9-0.6h-2.9l-2.9,0.6l-2.8,1.2l-2.3,1.8l-2,2.2l-1.5,2.6l-0.9,2.8L368.5,360.3 M375.5,360.3l0.4,2.1l0.9,1.9l1.4,1.6
	l1.8,1l2.1,0.5l2.1-0.2l2-0.7l1.6-1.4l1.2-1.7l0.6-2v-2.1l-0.6-2.1l-1.2-1.7l-1.6-1.3l-2-0.8l-2.1-0.1l-2.1,0.4l-1.8,1.1l-1.4,1.5
	l-0.9,1.9L375.5,360.3 M396.8,232.8l-0.3-3l-0.9-2.8l-1.5-2.6l-2-2.2l-2.4-1.7l-2.7-1.2l-2.9-0.6h-2.9l-2.9,0.6l-2.8,1.2l-2.3,1.7
	l-2,2.2l-1.5,2.6l-0.9,2.8l-0.3,3l0.3,2.9l0.9,2.8l1.5,2.6l2,2.2l2.3,1.7l2.8,1.2l2.9,0.7h2.9l2.9-0.7l2.7-1.2l2.4-1.7l2-2.2
	l1.5-2.6l0.9-2.8L396.8,232.8 M389.7,232.8l-0.3-2.1l-0.9-1.9l-1.4-1.6l-1.9-1l-2-0.5l-2.1,0.2l-2,0.7l-1.7,1.3l-1.1,1.8l-0.7,2v2.1
	l0.7,2l1.1,1.8l1.7,1.3l2,0.8l2.1,0.1l2-0.4l1.9-1.1l1.4-1.5l0.9-2L389.7,232.8 M265,232.8l-0.3-2.1l-0.9-1.9l-1.5-1.6l-1.8-1
	l-2.1-0.5l-2.1,0.2l-1.9,0.7l-1.7,1.3l-1.2,1.8l-0.6,2v2.1l0.6,2l1.2,1.8l1.7,1.3l1.9,0.8l2.1,0.1l2.1-0.4l1.8-1.1l1.5-1.5l0.9-2
	L265,232.8 M272.1,232.8l-0.3-3l-0.9-2.8l-1.5-2.6l-2-2.2l-2.4-1.7l-2.7-1.2l-2.9-0.6h-3l-2.9,0.6l-2.7,1.2l-2.4,1.7l-2,2.2L245,227
	l-1,2.8l-0.3,3l0.3,2.9l1,2.8l1.4,2.6l2,2.2l2.4,1.7l2.7,1.2l2.9,0.7h3l2.9-0.7l2.7-1.2l2.4-1.7l2-2.2l1.5-2.6l0.9-2.8L272.1,232.8"
	/>
</svg>
