<?xml version="1.0" encoding="utf-8"?>
<!-- Generator: Adobe Illustrator 21.0.0, SVG Export Plug-In . SVG Version: 6.00 Build 0)  -->
<svg version="1.1" id="Calque_1" xmlns="http://www.w3.org/2000/svg" xmlns:xlink="http://www.w3.org/1999/xlink" x="0px" y="0px"
	 viewBox="0 0 841.9 595.3" style="enable-background:new 0 0 841.9 595.3;" xml:space="preserve">
<style type="text/css">
	.st0{font-family:'CenturyGothic';}
	.st1{font-size:13.2283px;}
	.st2{font-size:10px;}
	.st3{font-size:9.9986px;}
	.st4{font-size:9.9969px;}
	.st5{font-size:9.997px;}
	.st6{font-size:9.9963px;}
	.st7{font-size:9.9975px;}
	.st8{fill:none;stroke:#000000;stroke-width:0.51;stroke-miterlimit:10;}
	
		.st9{fill:none;stroke:#000000;stroke-width:0.51;stroke-linecap:round;stroke-linejoin:round;stroke-miterlimit:10;stroke-dasharray:43.2,3.6,3.6,3.6;stroke-dashoffset:10;}
	.st10{fill:none;stroke:#000000;stroke-width:0.51;stroke-linecap:round;stroke-linejoin:round;stroke-miterlimit:10;}
	.st11{fill:none;stroke:#000000;stroke-width:0.709;stroke-linecap:round;stroke-linejoin:round;stroke-miterlimit:10;}
	.st12{fill:#FF0000;}
	.st13{font-size:9.9974px;}
	
		.st14{fill:none;stroke:#FF0000;stroke-width:0.51;stroke-linecap:round;stroke-linejoin:round;stroke-miterlimit:10;stroke-dasharray:43.2,3.6,3.6,3.6;}
	.st15{fill:none;stroke:#FF0000;stroke-width:0.51;stroke-linecap:round;stroke-linejoin:round;stroke-miterlimit:10;}
	.st16{fill:none;stroke:#FF0000;stroke-width:0.709;stroke-linecap:round;stroke-linejoin:round;stroke-miterlimit:10;}
</style>
<text transform="matrix(1.0003 0 0 1 288.3169 504.2965)" class="st0 st1"> 15 </text>
<text transform="matrix(1.0002 0 0 1 59.3877 56.6115)" class="st0 st1">&lt;------ SPATULE</text>
<text transform="matrix(-6.123271e-17 -1 1 -6.123234e-17 276.0485 167.1251)" class="st0 st2">Extrémité chaussure</text>
<text transform="matrix(-6.123234e-17 -1 1.0001 -6.124086e-17 286.0485 167.1251)" class="st0 st3">pour fix alpine</text>
<text transform="matrix(-6.123234e-17 -1 1.0003 -6.125120e-17 318.6486 150.4742)" class="st0 st4">Axe des inserts</text>
<text transform="matrix(-6.123234e-17 -1 1.0003 -6.125102e-17 328.6486 150.4742)" class="st0 st5">Fix à inserts</text>
<text transform="matrix(1 0 0 1.0004 93.4624 538.1285)" class="st0 st6">Pour les fixations à inserts basez-vous sur l&apos;axe des inserts. Il a été positionné sur ce template à 15mm de l&apos;extrêmité de la chaussure (qui est </text>
<text transform="matrix(1 0 0 1.0003 93.4624 548.1285)" class="st0 st7">une valeur médiane). Si ce n&apos;est pas le cas sur votre chaussure, procédez aux ajustements nécessaires.</text>
<path class="st8" d="M320.3,507.2l-9.4,1.4v-2.9L320.3,507.2 M277.8,507.2l9.4-1.4v2.9L277.8,507.2"/>
<line class="st9" x1="277.8" y1="69.7" x2="277.8" y2="523.2"/>
<line class="st9" x1="320.3" y1="69.7" x2="320.3" y2="523.2"/>
<line class="st10" x1="277.8" y1="507.2" x2="320.3" y2="507.2"/>
<path d="M320.3,507.2l-9.4,1.4v-2.9 M277.8,507.2l9.4-1.4v2.9"/>
<path class="st11" d="M717.5,523.2h-0.6 M802.2,154.5v0.6 M745.8,523.2h-0.6 M36.9,140.8v-0.6 M36.9,211.7v-0.6 M618.2,523.2h-0.6
	 M802.2,97.8v0.6 M787.8,69.7h0.6 M617.7,69.7h0.6 M36.9,155v-0.6 M646.6,523.2H646 M646,69.7h0.6 M745.2,69.7h0.6 M36.9,126.7v-0.6
	 M674.9,523.2h-0.6 M716.9,69.7h0.6 M36.9,112.5v-0.6 M703.3,523.2h-0.6 M688.5,69.7h0.6 M36.9,481v-0.6 M632.4,523.2h-0.6
	 M36.9,197.5V197 M36.9,466.8v-0.6 M767.1,523.2h-0.6 M631.9,69.7h0.6 M36.9,438.5v-0.6 M794.8,69.7h0.6 M36.9,381.8v-0.6
	 M774.2,523.2h-0.6 M802.2,466.3v0.6 M36.9,396v-0.6 M802.2,494.6v0.6 M788.3,523.2h-0.6 M752.9,523.2h-0.6 M36.9,424.3v-0.6
	 M802.2,126.1v0.6 M738.7,523.2h-0.6 M36.9,98.3v-0.6 M36.9,452.7v-0.6 M802.2,168.6v0.6 M724.5,523.2H724 M36.9,183.4v-0.6
	 M36.9,410.1v-0.6 M802.2,140.3v0.6 M710.4,523.2h-0.6 M731.1,69.7h0.6 M36.9,495.2v-0.6 M802.2,211.1v0.6 M731.6,523.2h-0.6
	 M36.9,169.2v-0.6 M802.2,182.8v0.6 M795.4,523.2h-0.6 M760,523.2h-0.6 M624.8,69.7h0.6 M802.2,423.7v0.6 M625.3,523.2h-0.6
	 M638.9,69.7h0.6 M682,523.2h-0.6 M802.2,452.1v0.6 M639.5,523.2h-0.6 M802.2,480.4v0.6 M802.2,381.2v0.6 M653.7,523.2h-0.6
	 M667.3,69.7h0.6 M674.4,69.7h0.6 M802.2,437.9v0.6 M667.9,523.2h-0.6 M702.7,69.7h0.6 M802.2,395.4v0.6 M660.8,523.2h-0.6
	 M695.6,69.7h0.6 M752.3,69.7h0.6 M802.2,409.6v0.6 M696.2,523.2h-0.6 M709.8,69.7h0.6 M759.4,69.7h0.6 M781.2,523.2h-0.6
	 M802.2,197v0.6 M738.2,69.7h0.6 M802.2,111.9v0.6 M766.5,69.7h0.6 M780.7,69.7h0.6 M773.6,69.7h0.6 M681.5,69.7h0.6 M660.2,69.7
	h0.6 M689.1,523.2h-0.6 M724,69.7h0.6 M653.1,69.7h0.6 M619.5,252.7v-2.7 M615.5,249.9l3.9,2.7 M619.5,249.9h-3.9 M761.2,252.7v-2.7
	 M757.3,249.9l3.9,2.7 M761.2,249.9h-3.9 M802.2,523.2v-28.1 M795.4,523.2h6.8 M788.3,523.2h6.5 M802.2,495.2h-13.9 M788.3,523.2
	v-28.1 M794.8,523.2v-14.2 M794.8,509.1h0.6 M795.4,523.2v-14.2 M802.2,97.8V69.7 M794.8,69.7h-6.5 M802.2,69.7h-6.8 M788.3,69.7
	v28.1 M802.2,97.8h-13.9 M795.4,69.7v14.2 M795.4,83.9h-0.6 M794.8,69.7v14.2 M422.8,473.6h5 M427.8,473.6l-0.4-0.9l-0.7-0.7
	l-0.7-0.3l-0.8-0.1 M425.3,471.7l-1,0.2l-0.7,0.4 M423.6,472.3l-0.5,0.7l-0.3,0.7 M703,241.9l-2.4,0.4l-1,0.7l-0.3,0.5l-0.1,0.6
	 M699.2,244.2l0.1,0.6l0.3,0.5l0.4,0.4l0.5,0.3l2.5,0.3 M706.8,244.2l-0.1-0.7l-0.4-0.6l-1-0.6 M703,246.5l2.5-0.3l1-0.7l0.3-0.5
	l0.1-0.6 M705.3,242.3L704,242l-1-0.1 M703,459.2l0.3,2.5l0.7,1l0.5,0.3l0.6,0.1 M707.5,459.2l-0.4-2.4l-0.7-1l-0.5-0.3l-0.6-0.1
	 M707.2,461.5l0.3-1.3l0.1-1 M705.2,463l0.7-0.1l0.6-0.4l0.6-1 M705.2,455.3l-0.6,0.1l-0.5,0.3l-0.4,0.4l-0.3,0.5l-0.3,2.5
	 M488,471.7l-1,0.2l-0.7,0.4 M485.5,473.6h5 M490.5,473.6l-0.4-0.9l-0.7-0.7l-0.7-0.3l-0.8-0.1 M486.3,472.3l-0.5,0.7l-0.3,0.7
	 M436.1,473.6h5 M441.1,473.6l-0.4-0.9l-0.7-0.7l-0.7-0.3l-0.8-0.1 M438.6,471.7l-1,0.2l-0.7,0.4 M436.9,472.3l-0.5,0.7l-0.3,0.7
	 M709.9,459.2l0.3,2.5l0.7,1l0.5,0.3l0.6,0.1 M714.1,461.5l0.3-1.3l0.1-1 M712.2,463l0.7-0.1l0.6-0.4l0.6-1 M714.5,459.2l-0.4-2.4
	l-0.7-1l-0.5-0.3l-0.6-0.1 M712.2,455.3l-0.6,0.1l-0.5,0.3l-0.4,0.4l-0.3,0.5l-0.3,2.5 M621.8,244.2l-0.1-0.7l-0.4-0.6l-1-0.6
	 M614.1,244.2l0.1,0.6l0.3,0.5l0.4,0.4l0.5,0.3l2.5,0.3 M618,241.9l-2.4,0.4l-1,0.7l-0.3,0.5l-0.1,0.6 M618,246.5l2.4-0.3l1-0.7
	l0.3-0.5l0.1-0.6 M620.2,242.3L619,242l-1-0.1 M359.8,471.7l-1,0.2l-0.7,0.4 M357.3,473.6h5 M362.4,473.6l-0.4-0.9l-0.7-0.7
	l-0.7-0.3l-0.8-0.1 M358.1,472.3l-0.5,0.7l-0.3,0.7 M152.3,461.5l0.3-1.3l0.1-1 M148.1,459.2l0.3,2.5l0.7,1l0.5,0.3l0.6,0.1
	 M150.3,455.3l-0.6,0.1l-0.5,0.3l-0.4,0.4l-0.3,0.5l-0.3,2.5 M150.3,463l0.7-0.1l0.6-0.4l0.6-1 M152.6,459.2l-0.4-2.4l-0.7-1
	l-0.5-0.3l-0.6-0.1 M727.5,244.2l0.1,0.6l0.3,0.5l0.4,0.4l0.5,0.3l2.5,0.3 M731.3,246.5l2.5-0.3l1-0.7l0.3-0.5l0.1-0.6 M735.2,244.2
	l-0.1-0.7l-0.4-0.6l-1-0.6 M733.6,242.3l-1.3-0.3l-1-0.1 M731.3,241.9l-2.4,0.4l-1,0.7l-0.3,0.5l-0.1,0.6 M398.8,473.6h5
	 M403.9,473.6l-0.4-0.9l-0.7-0.7l-0.7-0.3l-0.8-0.1 M401.3,471.7l-1,0.2l-0.7,0.4 M399.6,472.3l-0.5,0.7l-0.3,0.7 M646.3,246.5
	l2.5-0.3l1-0.7l0.3-0.5l0.1-0.6 M642.5,244.2l0.1,0.6l0.3,0.5l0.4,0.4l0.5,0.3l2.5,0.3 M650.1,244.2l-0.1-0.7l-0.4-0.6l-1-0.6
	 M648.6,242.3l-1.3-0.3l-1-0.1 M646.3,241.9l-2.4,0.4l-1,0.7l-0.3,0.5l-0.1,0.6 M670.8,244.2l0.1,0.6l0.3,0.5l0.4,0.4l0.5,0.3
	l2.5,0.3 M674.7,246.5l2.4-0.3l1-0.7l0.3-0.5l0.1-0.6 M678.5,244.2l-0.1-0.7l-0.4-0.6l-1-0.6 M676.9,242.3l-1.3-0.3l-1-0.1
	 M674.7,241.9l-2.4,0.4l-1,0.7l-0.3,0.5l-0.1,0.6 M790.1,249l-0.8,0.2l-0.6,0.6l-0.3,0.6l-0.1,0.7 M788.3,251.1l0.1,0.8l0.5,0.7
	l0.6,0.3l0.6,0.1 M790.1,253l0.8-0.2l0.6-0.6l0.3-0.6l0.1-0.6 M791.9,251l-0.2-0.8l-0.5-0.7l-0.5-0.4l-0.6-0.1 M755.9,244.2l0.1,0.6
	l0.3,0.5l0.4,0.4l0.5,0.3l2.5,0.3 M759.7,246.5l2.4-0.3l1-0.7l0.3-0.5l0.1-0.6 M763.5,244.2l-0.1-0.7l-0.4-0.6l-1-0.6 M762,242.3
	l-1.3-0.3l-1-0.1 M759.7,241.9l-2.4,0.4l-1,0.7l-0.3,0.5l-0.1,0.6 M447.6,474.3l0.3,1.1l0.7,0.9l0.8,0.4l0.9,0.2 M453,474.3
	l-0.2-1.1l-0.7-0.9l-0.8-0.4l-0.9-0.1 M450.3,471.7l-1.1,0.2l-0.9,0.7l-0.5,0.8l-0.2,0.9 M450.3,476.9l1.1-0.2l0.9-0.7l0.5-0.8
	l0.1-0.9 M648.3,253l0.8-0.2l0.6-0.6l0.3-0.6l0.1-0.6 M648.3,249l-0.8,0.2l-0.6,0.6l-0.3,0.6l-0.1,0.7 M646.5,251.1l0.1,0.8l0.5,0.7
	l0.6,0.3l0.6,0.1 M650.1,251l-0.2-0.8l-0.5-0.7l-0.5-0.4l-0.6-0.1 M511.2,474.3l-0.2-1.1l-0.7-0.9l-0.8-0.5l-0.9-0.2 M508.6,471.7
	l-1.1,0.2l-0.9,0.7l-0.5,0.8l-0.1,0.9 M506,474.3l0.2,1.1l0.7,0.9l0.8,0.4l0.9,0.1 M508.6,476.9l1.1-0.2l0.9-0.7l0.4-0.8l0.2-0.9
	 M784.2,244.2l0.1,0.6l0.3,0.5l0.4,0.4l0.5,0.3l2.5,0.3 M788,246.5l2.5-0.3l1-0.7l0.3-0.5l0.1-0.6 M791.9,244.2l-0.1-0.7l-0.4-0.6
	l-1-0.6 M790.3,242.3l-1.3-0.3l-1-0.1 M788,241.9l-2.4,0.4l-1,0.7l-0.3,0.5l-0.1,0.6 M672.2,249.4l-0.7,0.2l-0.5,0.5l-0.2,1.1
	 M670.8,251.2l0.1,0.7l0.3,0.6l0.4,0.4l0.5,0.1 M672.2,253l0.7-0.2l0.5-0.5l0.2-0.5l0.1-0.6 M673.7,251.1l-0.1-0.7l-0.4-0.6
	l-0.5-0.3l-0.5-0.1 M699.2,251.2l0.1,0.6l0.3,0.5l0.4,0.4l0.5,0.3l2.5,0.3 M703,253.4l2.5-0.3l1-0.7l0.3-0.5l0.1-0.6 M706.8,251.2
	l-0.1-0.7l-0.4-0.6l-1-0.6 M705.3,249.2L704,249l-1-0.1 M703,248.9l-2.4,0.4l-1,0.7l-0.3,0.5l-0.1,0.6 M383.5,473.6l-0.4-0.9
	l-0.7-0.7l-0.7-0.3l-0.8-0.1 M381,471.7l-1,0.2l-0.7,0.4 M378.5,473.6h5 M379.3,472.3l-0.5,0.7l-0.3,0.7 M676.6,248.9l-0.9,0.2
	l-0.6,0.6l-0.3,0.6l-0.1,0.7 M674.7,251.1l0.2,0.9l0.5,0.8l0.6,0.4l0.7,0.2 M676.6,253.4l0.9-0.2l0.6-0.6l0.3-1.4 M678.5,251.2
	l-0.1-0.9l-0.5-0.8l-0.6-0.4l-0.7-0.1 M476,471.7l-1.1,0.2l-0.9,0.7l-0.5,0.8l-0.1,0.9 M473.3,474.3l0.2,1.1l0.7,0.9l0.8,0.4
	l0.9,0.1 M478.7,474.3l-0.3-1.1l-0.7-0.9l-0.8-0.4l-0.9-0.1 M476,476.9l1.1-0.2l0.9-0.7l0.5-0.8l0.2-0.9 M616,256l-0.8,0.2l-0.6,0.5
	l-0.3,0.6l-0.1,0.6 M703.2,255.6l0.9-0.4l0.8-0.1 M672.7,256l-0.8,0.2l-0.6,0.5l-0.3,0.6l-0.1,0.6 M759.9,255.6l0.9-0.4l0.8-0.1
	 M789.9,255.1l1.3,0.3l1,0.9l0.5,0.9l0.1,1 M644.3,256l-0.8,0.2l-0.6,0.5l-0.3,0.6l-0.1,0.6 M39.7,296.2h237.8 M277.5,290.8v5.4
	 M277.5,290.8h0.6 M278.1,290.8v5.4 M278.1,296.2h2.3 M280.4,290.8v5.4 M280.4,290.8h0.6 M280.9,290.8v5.4 M280.9,296.2h2.3
	 M283.2,290.8v5.4 M283.2,290.8h0.6 M283.8,290.8v5.4 M283.8,296.2h2.3 M286,290.8v5.4 M286,290.8h0.6 M286.6,290.8v5.4
	 M286.6,296.2h2.3 M288.9,290.8v5.4 M288.9,290.8h0.6 M289.4,290.8v5.4 M289.4,296.2h2.3 M291.7,290.8v5.4 M291.7,290.8h0.6
	 M292.3,290.8v5.4 M292.3,296.2h2.3 M294.5,290.8v5.4 M294.5,290.8h0.6 M295.1,290.8v5.4 M295.1,296.2h2.3 M297.4,290.8v5.4
	 M297.4,290.8h0.6 M297.9,290.8v5.4 M297.9,296.2h2.3 M300.2,290.8v5.4 M300.2,290.8h0.6 M300.8,290.8v5.4 M300.8,296.2h2.3
	 M303,290.8v5.4 M303,290.8h0.6 M303.6,290.8v5.4 M303.6,296.2h2.3 M305.9,290.8v5.4 M305.9,290.8h0.6 M306.4,290.8v5.4
	 M306.4,296.2h2.3 M308.7,290.8v5.4 M308.7,290.8h0.6 M309.3,290.8v5.4 M309.3,296.2h2.3 M311.5,290.8v5.4 M311.5,290.8h0.6
	 M312.1,290.8v5.4 M312.1,296.2h2.3 M314.4,290.8v5.4 M314.4,290.8h0.6 M314.9,290.8v5.4 M314.9,296.2h2.3 M317.2,290.8v5.4
	 M317.2,290.8h0.6 M317.8,290.8v5.4 M317.8,296.2h2.3 M320,290.8v5.4 M320,290.8h0.6 M320.6,290.8v5.4 M320.6,296.2h2.3
	 M322.9,290.8v5.4 M322.9,290.8h0.6 M323.4,290.8v5.4 M323.4,296.2h2.3 M325.7,290.8v5.4 M325.7,290.8h0.6 M326.3,290.8v5.4
	 M326.3,296.2h2.3 M328.5,290.8v5.4 M328.5,290.8h0.6 M329.1,290.8v5.4 M329.1,296.2h2.3 M331.4,290.8v5.4 M331.4,290.8h0.6
	 M331.9,290.8v5.4 M331.9,296.2h2.3 M334.2,290.8v5.4 M334.2,290.8h0.6 M334.8,290.8v5.4 M334.8,296.2h2.3 M337,290.8v5.4
	 M337,290.8h0.6 M337.6,290.8v5.4 M337.6,296.2h2.3 M339.9,290.8v5.4 M339.9,290.8h0.6 M340.4,290.8v5.4 M340.4,296.2h2.3
	 M342.7,290.8v5.4 M342.7,290.8h0.6 M343.3,290.8v5.4 M343.3,296.2h2.3 M345.6,290.8v5.4 M345.6,290.8h0.6 M346.1,290.8v5.4
	 M346.1,296.2h2.3 M348.4,290.8v5.4 M348.4,290.8h0.6 M349,290.8v5.4 M349,296.2h2.3 M351.2,290.8v5.4 M351.2,290.8h0.6
	 M351.8,290.8v5.4 M351.8,296.2h2.3 M354.1,290.8v5.4 M354.1,290.8h0.6 M354.6,290.8v5.4 M354.6,296.2h2.3 M356.9,290.8v5.4
	 M356.9,290.8h0.6 M357.5,290.8v5.4 M357.5,296.2h2.3 M359.7,290.8v5.4 M359.7,290.8h0.6 M360.3,290.8v5.4 M360.3,296.2h2.3
	 M362.6,290.8v5.4 M362.6,290.8h0.6 M363.1,290.8v5.4 M363.1,296.2h2.3 M365.4,290.8v5.4 M365.4,290.8h0.6 M366,290.8v5.4
	 M366,296.2h2.3 M368.2,290.8v5.4 M368.2,290.8h0.6 M368.8,290.8v5.4 M368.8,296.2h2.3 M371.1,290.8v5.4 M371.1,290.8h0.6
	 M371.6,290.8v5.4 M371.6,296.2h2.3 M373.9,290.8v5.4 M373.9,290.8h0.6 M374.5,290.8v5.4 M374.5,296.2h2.3 M376.7,290.8v5.4
	 M376.7,290.8h0.6 M377.3,290.8v5.4 M377.3,296.2h2.3 M379.6,290.8v5.4 M379.6,290.8h0.6 M380.1,290.8v5.4 M380.1,296.2h2.3
	 M382.4,290.8v5.4 M382.4,290.8h0.6 M383,290.8v5.4 M383,296.2h2.3 M385.2,290.8v5.4 M385.2,290.8h0.6 M385.8,290.8v5.4
	 M385.8,296.2h2.3 M388.1,290.8v5.4 M388.1,290.8h0.6 M388.6,290.8v5.4 M388.6,296.2h2.3 M390.9,290.8v5.4 M390.9,290.8h0.6
	 M391.5,290.8v5.4 M391.5,296.2h2.3 M393.7,290.8v5.4 M393.7,290.8h0.6 M394.3,290.8v5.4 M394.3,296.2h2.3 M396.6,290.8v5.4
	 M396.6,290.8h0.6 M397.1,290.8v5.4 M397.1,296.2h2.3 M399.4,290.8v5.4 M399.4,290.8h0.6 M400,290.8v5.4 M400,296.2h2.3
	 M402.2,290.8v5.4 M402.2,290.8h0.6 M402.8,290.8v5.4 M402.8,296.2h2.3 M405.1,290.8v5.4 M405.1,290.8h0.6 M405.6,290.8v5.4
	 M405.6,296.2h2.3 M407.9,290.8v5.4 M407.9,290.8h0.6 M408.5,290.8v5.4 M408.5,296.2h2.3 M410.7,290.8v5.4 M410.7,290.8h0.6
	 M411.3,290.8v5.4 M411.3,296.2h2.3 M413.6,290.8v5.4 M413.6,290.8h0.6 M414.2,290.8v5.4 M414.2,296.2h2.3 M416.4,290.8v5.4
	 M416.4,290.8h0.6 M417,290.8v5.4 M417,296.2h2.3 M419.3,290.8v5.4 M419.3,290.8h0.6 M419.8,290.8v5.4 M419.8,296.2h2.3
	 M422.1,290.8v5.4 M422.1,290.8h0.6 M422.7,290.8v5.4 M422.7,296.2h2.3 M424.9,290.8v5.4 M424.9,290.8h0.6 M425.5,290.8v5.4
	 M425.5,296.2h2.3 M427.8,290.8v5.4 M427.8,290.8h0.6 M428.3,290.8v5.4 M428.3,296.2h2.3 M430.6,290.8v5.4 M430.6,290.8h0.6
	 M431.2,290.8v5.4 M431.2,296.2h2.3 M433.4,290.8v5.4 M433.4,290.8h0.6 M434,290.8v5.4 M434,296.2h2.3 M436.3,290.8v5.4
	 M436.3,290.8h0.6 M436.8,290.8v5.4 M436.8,296.2h2.3 M439.1,290.8v5.4 M439.1,290.8h0.6 M439.7,290.8v5.4 M439.7,296.2h2.3
	 M441.9,290.8v5.4 M441.9,290.8h0.6 M442.5,290.8v5.4 M442.5,296.2h2.3 M444.8,290.8v5.4 M444.8,290.8h0.6 M445.3,290.8v5.4
	 M445.3,296.2h2.3 M447.6,290.8v5.4 M447.6,290.8h0.6 M448.2,290.8v5.4 M448.2,296.2h2.3 M450.4,290.8v5.4 M450.4,290.8h0.6
	 M451,290.8v5.4 M451,296.2h2.3 M453.3,290.8v5.4 M453.3,290.8h0.6 M453.8,290.8v5.4 M453.8,296.2h2.3 M456.1,290.8v5.4
	 M456.1,290.8h0.6 M456.7,290.8v5.4 M456.7,296.2h2.3 M458.9,290.8v5.4 M458.9,290.8h0.6 M459.5,290.8v5.4 M459.5,296.2h158.2
	 M617.7,268.1v28.1 M617.7,268.1h0.6 M618.2,268.1v28.1 M618.2,296.2h6.5 M624.8,282.3v13.9 M624.8,282.3h0.6 M625.3,282.3v13.9
	 M625.3,296.2h6.5 M631.9,275.2v21 M631.9,275.2h0.6 M632.4,275.2v21 M632.4,296.2h6.5 M638.9,282.3v13.9 M638.9,282.3h0.6
	 M639.5,282.3v13.9 M639.5,296.2h6.5 M646,268.1v28.1 M646,268.1h0.6 M646.6,268.1v28.1 M646.6,296.2h6.5 M653.1,282.3v13.9
	 M653.1,282.3h0.6 M653.7,282.3v13.9 M653.7,296.2h6.5 M660.2,275.2v21 M660.2,275.2h0.6 M660.8,275.2v21 M660.8,296.2h6.5
	 M667.3,282.3v13.9 M667.3,282.3h0.6 M667.9,282.3v13.9 M667.9,296.2h6.5 M674.4,268.1v28.1 M674.4,268.1h0.6 M674.9,268.1v28.1
	 M674.9,296.2h6.5 M681.5,282.3v13.9 M681.5,282.3h0.6 M682,282.3v13.9 M682,296.2h6.5 M688.5,275.2v21 M688.5,275.2h0.6
	 M689.1,275.2v21 M689.1,296.2h6.5 M695.6,282.3v13.9 M695.6,282.3h0.6 M696.2,282.3v13.9 M696.2,296.2h6.5 M702.7,268.1v28.1
	 M702.7,268.1h0.6 M703.3,268.1v28.1 M703.3,296.2h6.5 M709.8,282.3v13.9 M709.8,282.3h0.6 M710.4,282.3v13.9 M710.4,296.2h6.5
	 M716.9,275.2v21 M716.9,275.2h0.6 M717.5,275.2v21 M717.5,296.2h6.5 M724,282.3v13.9 M724,282.3h0.6 M724.5,282.3v13.9
	 M724.5,296.2h6.5 M731.1,268.1v28.1 M731.1,268.1h0.6 M731.6,268.1v28.1 M731.6,296.2h6.5 M738.2,282.3v13.9 M738.2,282.3h0.6
	 M738.7,282.3v13.9 M738.7,296.2h6.5 M745.2,275.2v21 M745.2,275.2h0.6 M745.8,275.2v21 M745.8,296.2h6.5 M752.3,282.3v13.9
	 M752.3,282.3h0.6 M752.9,282.3v13.9 M752.9,296.2h6.5 M759.4,268.1v28.1 M759.4,268.1h0.6 M760,268.1v28.1 M760,296.2h6.5
	 M766.5,282.3v13.9 M766.5,282.3h0.6 M767.1,282.3v13.9 M767.1,296.2h6.5 M773.6,275.2v21 M773.6,275.2h0.6 M774.2,275.2v21
	 M774.2,296.2h6.5 M780.7,282.3v13.9 M780.7,282.3h0.6 M781.2,282.3v13.9 M781.2,296.2h6.5 M787.8,268.1v28.1 M787.8,268.1h0.6
	 M788.3,268.1v28.1 M788.3,296.2h6.5 M794.8,282.3v13.9 M794.8,282.3h0.6 M795.4,282.3v13.9 M795.4,296.2h4 M799.4,296.2v0.6
	 M795.4,296.7h4 M795.4,296.7v13.9 M795.4,310.6h-0.6 M794.8,296.7v13.9 M788.3,296.7h6.5 M788.3,296.7v28.1 M788.3,324.8h-0.6
	 M787.8,296.7v28.1 M781.2,296.7h6.5 M781.2,296.7v13.9 M781.2,310.6h-0.6 M780.7,296.7v13.9 M774.2,296.7h6.5 M774.2,296.7v21
	 M774.2,317.7h-0.6 M773.6,296.7v21 M767.1,296.7h6.5 M767.1,296.7v13.9 M767.1,310.6h-0.6 M766.5,296.7v13.9 M760,296.7h6.5
	 M760,296.7v28.1 M760,324.8h-0.6 M759.4,296.7v28.1 M752.9,296.7h6.5 M752.9,296.7v13.9 M752.9,310.6h-0.6 M752.3,296.7v13.9
	 M745.8,296.7h6.5 M745.8,296.7v21 M745.8,317.7h-0.6 M745.2,296.7v21 M738.7,296.7h6.5 M738.7,296.7v13.9 M738.7,310.6h-0.6
	 M738.2,296.7v13.9 M731.6,296.7h6.5 M731.6,296.7v28.1 M731.6,324.8h-0.6 M731.1,296.7v28.1 M724.5,296.7h6.5 M724.5,296.7v13.9
	 M724.5,310.6H724 M724,296.7v13.9 M717.5,296.7h6.5 M717.5,296.7v21 M717.5,317.7h-0.6 M716.9,296.7v21 M710.4,296.7h6.5
	 M710.4,296.7v13.9 M710.4,310.6h-0.6 M709.8,296.7v13.9 M703.3,296.7h6.5 M703.3,296.7v28.1 M703.3,324.8h-0.6 M702.7,296.7v28.1
	 M696.2,296.7h6.5 M696.2,296.7v13.9 M696.2,310.6h-0.6 M695.6,296.7v13.9 M689.1,296.7h6.5 M689.1,296.7v21 M689.1,317.7h-0.6
	 M688.5,296.7v21 M682,296.7h6.5 M682,296.7v13.9 M682,310.6h-0.6 M681.5,296.7v13.9 M674.9,296.7h6.5 M674.9,296.7v28.1
	 M674.9,324.8h-0.6 M674.4,296.7v28.1 M667.9,296.7h6.5 M667.9,296.7v13.9 M667.9,310.6h-0.6 M667.3,296.7v13.9 M660.8,296.7h6.5
	 M660.8,296.7v21 M660.8,317.7h-0.6 M660.2,296.7v21 M653.7,296.7h6.5 M653.7,296.7v13.9 M653.7,310.6h-0.6 M653.1,296.7v13.9
	 M646.6,296.7h6.5 M646.6,296.7v28.1 M646.6,324.8H646 M646,296.7v28.1 M639.5,296.7h6.5 M639.5,296.7v13.9 M639.5,310.6h-0.6
	 M638.9,296.7v13.9 M632.4,296.7h6.5 M632.4,296.7v21 M632.4,317.7h-0.6 M631.9,296.7v21 M625.3,296.7h6.5 M625.3,296.7v13.9
	 M625.3,310.6h-0.6 M624.8,296.7v13.9 M618.2,296.7h6.5 M618.2,296.7v28.1 M618.2,324.8h-0.6 M617.7,296.7v28.1 M459.5,296.7h158.2
	 M459.5,296.7v5.4 M459.5,302.1h-0.6 M458.9,296.7v5.4 M456.7,296.7h2.3 M456.7,296.7v5.4 M456.7,302.1h-0.6 M456.1,296.7v5.4
	 M453.8,296.7h2.3 M453.8,296.7v5.4 M453.8,302.1h-0.6 M453.3,296.7v5.4 M451,296.7h2.3 M451,296.7v5.4 M451,302.1h-0.6
	 M450.4,296.7v5.4 M448.2,296.7h2.3 M448.2,296.7v5.4 M448.2,302.1h-0.6 M447.6,296.7v5.4 M445.3,296.7h2.3 M445.3,296.7v5.4
	 M445.3,302.1h-0.6 M444.8,296.7v5.4 M442.5,296.7h2.3 M442.5,296.7v5.4 M442.5,302.1h-0.6 M441.9,296.7v5.4 M439.7,296.7h2.3
	 M439.7,296.7v5.4 M439.7,302.1h-0.6 M439.1,296.7v5.4 M436.8,296.7h2.3 M436.8,296.7v5.4 M436.8,302.1h-0.6 M436.3,296.7v5.4
	 M434,296.7h2.3 M434,296.7v5.4 M434,302.1h-0.6 M433.4,296.7v5.4 M431.2,296.7h2.3 M431.2,296.7v5.4 M431.2,302.1h-0.6
	 M430.6,296.7v5.4 M428.3,296.7h2.3 M428.3,296.7v5.4 M428.3,302.1h-0.6 M427.8,296.7v5.4 M425.5,296.7h2.3 M425.5,296.7v5.4
	 M425.5,302.1h-0.6 M424.9,296.7v5.4 M422.7,296.7h2.3 M422.7,296.7v5.4 M422.7,302.1h-0.6 M422.1,296.7v5.4 M419.8,296.7h2.3
	 M419.8,296.7v5.4 M419.8,302.1h-0.6 M419.3,296.7v5.4 M417,296.7h2.3 M417,296.7v5.4 M417,302.1h-0.6 M416.4,296.7v5.4
	 M414.2,296.7h2.3 M414.2,296.7v5.4 M414.2,302.1h-0.6 M413.6,296.7v5.4 M411.3,296.7h2.3 M411.3,296.7v5.4 M411.3,302.1h-0.6
	 M410.7,296.7v5.4 M408.5,296.7h2.3 M408.5,296.7v5.4 M408.5,302.1h-0.6 M407.9,296.7v5.4 M405.6,296.7h2.3 M405.6,296.7v5.4
	 M405.6,302.1h-0.6 M405.1,296.7v5.4 M402.8,296.7h2.3 M402.8,296.7v5.4 M402.8,302.1h-0.6 M402.2,296.7v5.4 M400,296.7h2.3
	 M400,296.7v5.4 M400,302.1h-0.6 M399.4,296.7v5.4 M397.1,296.7h2.3 M397.1,296.7v5.4 M397.1,302.1h-0.6 M396.6,296.7v5.4
	 M394.3,296.7h2.3 M394.3,296.7v5.4 M394.3,302.1h-0.6 M393.7,296.7v5.4 M391.5,296.7h2.3 M391.5,296.7v5.4 M391.5,302.1h-0.6
	 M390.9,296.7v5.4 M388.6,296.7h2.3 M388.6,296.7v5.4 M388.6,302.1h-0.6 M388.1,296.7v5.4 M385.8,296.7h2.3 M385.8,296.7v5.4
	 M385.8,302.1h-0.6 M385.2,296.7v5.4 M383,296.7h2.3 M383,296.7v5.4 M383,302.1h-0.6 M382.4,296.7v5.4 M380.1,296.7h2.3
	 M380.1,296.7v5.4 M380.1,302.1h-0.6 M379.6,296.7v5.4 M377.3,296.7h2.3 M377.3,296.7v5.4 M377.3,302.1h-0.6 M376.7,296.7v5.4
	 M374.5,296.7h2.3 M374.5,296.7v5.4 M374.5,302.1h-0.6 M373.9,296.7v5.4 M371.6,296.7h2.3 M371.6,296.7v5.4 M371.6,302.1h-0.6
	 M371.1,296.7v5.4 M368.8,296.7h2.3 M368.8,296.7v5.4 M368.8,302.1h-0.6 M368.2,296.7v5.4 M366,296.7h2.3 M366,296.7v5.4 M366,302.1
	h-0.6 M365.4,296.7v5.4 M363.1,296.7h2.3 M363.1,296.7v5.4 M363.1,302.1h-0.6 M362.6,296.7v5.4 M360.3,296.7h2.3 M360.3,296.7v5.4
	 M360.3,302.1h-0.6 M359.7,296.7v5.4 M357.5,296.7h2.3 M357.5,296.7v5.4 M357.5,302.1h-0.6 M356.9,296.7v5.4 M354.6,296.7h2.3
	 M354.6,296.7v5.4 M354.6,302.1h-0.6 M354.1,296.7v5.4 M351.8,296.7h2.3 M351.8,296.7v5.4 M351.8,302.1h-0.6 M351.2,296.7v5.4
	 M349,296.7h2.3 M349,296.7v5.4 M349,302.1h-0.6 M348.4,296.7v5.4 M346.1,296.7h2.3 M346.1,296.7v5.4 M346.1,302.1h-0.6
	 M345.6,296.7v5.4 M343.3,296.7h2.3 M343.3,296.7v5.4 M343.3,302.1h-0.6 M342.7,296.7v5.4 M340.4,296.7h2.3 M340.4,296.7v5.4
	 M340.4,302.1h-0.6 M339.9,296.7v5.4 M337.6,296.7h2.3 M337.6,296.7v5.4 M337.6,302.1H337 M337,296.7v5.4 M334.8,296.7h2.3
	 M334.8,296.7v5.4 M334.8,302.1h-0.6 M334.2,296.7v5.4 M331.9,296.7h2.3 M331.9,296.7v5.4 M331.9,302.1h-0.6 M331.4,296.7v5.4
	 M329.1,296.7h2.3 M329.1,296.7v5.4 M329.1,302.1h-0.6 M328.5,296.7v5.4 M326.3,296.7h2.3 M326.3,296.7v5.4 M326.3,302.1h-0.6
	 M325.7,296.7v5.4 M323.4,296.7h2.3 M323.4,296.7v5.4 M323.4,302.1h-0.6 M322.9,296.7v5.4 M320.6,296.7h2.3 M320.6,296.7v5.4
	 M320.6,302.1H320 M320,296.7v5.4 M317.8,296.7h2.3 M317.8,296.7v5.4 M317.8,302.1h-0.6 M317.2,296.7v5.4 M314.9,296.7h2.3
	 M314.9,296.7v5.4 M314.9,302.1h-0.6 M314.4,296.7v5.4 M312.1,296.7h2.3 M312.1,296.7v5.4 M312.1,302.1h-0.6 M311.5,296.7v5.4
	 M309.3,296.7h2.3 M309.3,296.7v5.4 M309.3,302.1h-0.6 M308.7,296.7v5.4 M306.4,296.7h2.3 M306.4,296.7v5.4 M306.4,302.1h-0.6
	 M305.9,296.7v5.4 M303.6,296.7h2.3 M303.6,296.7v5.4 M303.6,302.1H303 M303,296.7v5.4 M300.8,296.7h2.3 M300.8,296.7v5.4
	 M300.8,302.1h-0.6 M300.2,296.7v5.4 M297.9,296.7h2.3 M297.9,296.7v5.4 M297.9,302.1h-0.6 M297.4,296.7v5.4 M295.1,296.7h2.3
	 M295.1,296.7v5.4 M295.1,302.1h-0.6 M294.5,296.7v5.4 M292.3,296.7h2.3 M292.3,296.7v5.4 M292.3,302.1h-0.6 M291.7,296.7v5.4
	 M289.4,296.7h2.3 M289.4,296.7v5.4 M289.4,302.1h-0.6 M288.9,296.7v5.4 M286.6,296.7h2.3 M286.6,296.7v5.4 M286.6,302.1H286
	 M286,296.7v5.4 M283.8,296.7h2.3 M283.8,296.7v5.4 M283.8,302.1h-0.6 M283.2,296.7v5.4 M280.9,296.7h2.3 M280.9,296.7v5.4
	 M280.9,302.1h-0.6 M280.4,296.7v5.4 M278.1,296.7h2.3 M278.1,296.7v5.4 M278.1,302.1h-0.6 M277.5,296.7v5.4 M39.7,296.7h237.8
	 M39.7,296.7v-0.6 M65.2,97.8v0.6 M36.9,98.3h28.3 M36.9,98.3v13.6 M36.9,111.9H51 M51,111.9v0.6 M36.9,112.5H51 M36.9,112.5v13.6
	 M36.9,126.1h21.3 M58.1,126.1v0.6 M36.9,126.7h21.3 M36.9,126.7v13.6 M36.9,140.3H51 M51,140.3v0.6 M36.9,140.8H51 M36.9,140.8
	v13.6 M36.9,154.5h28.3 M65.2,154.5v0.6 M36.9,155h28.3 M36.9,155v13.6 M36.9,168.6H51 M51,168.6v0.6 M36.9,169.2H51 M36.9,169.2
	v13.6 M36.9,182.8h21.3 M58.1,182.8v0.6 M36.9,183.4h21.3 M36.9,183.4V197 M36.9,197H51 M51,197v0.6 M36.9,197.5H51 M36.9,197.5
	v13.6 M36.9,211.1h28.3 M65.2,211.1v0.6 M36.9,211.7h28.3 M36.9,211.7v169.5 M36.9,381.2h28.3 M65.2,381.2v0.6 M36.9,381.8h28.3
	 M36.9,381.8v13.6 M36.9,395.4H51 M51,395.4v0.6 M36.9,396H51 M36.9,396v13.6 M36.9,409.6h21.3 M58.1,409.6v0.6 M36.9,410.1h21.3
	 M36.9,410.1v13.6 M36.9,423.7H51 M51,423.7v0.6 M36.9,424.3H51 M36.9,424.3v13.6 M36.9,437.9h28.3 M65.2,437.9v0.6 M36.9,438.5
	h28.3 M36.9,438.5v13.6 M36.9,452.1H51 M51,452.1v0.6 M36.9,452.7H51 M36.9,452.7v13.6 M36.9,466.3h21.3 M58.1,466.3v0.6
	 M36.9,466.8h21.3 M36.9,466.8v13.6 M36.9,480.4H51 M51,480.4v0.6 M36.9,481H51 M36.9,481v13.6 M36.9,494.6h28.3 M65.2,494.6v0.6
	 M36.9,495.2h28.3 M36.9,495.2v13.9 M36.9,509.1l0.3,2.8l0.8,2.7l1.3,2.5l1.8,2.1l2.1,1.8l2.5,1.3l2.7,0.8l2.8,0.3 M51,523.2h566.6
	 M617.7,523.2v-28.3 M617.7,494.9h0.6 M618.2,523.2v-28.3 M618.2,523.2h6.5 M624.8,523.2v-14.2 M624.8,509.1h0.6 M625.3,523.2v-14.2
	 M625.3,523.2h6.5 M631.9,523.2V502 M631.9,502h0.6 M632.4,523.2V502 M632.4,523.2h6.5 M638.9,523.2v-14.2 M638.9,509.1h0.6
	 M639.5,523.2v-14.2 M639.5,523.2h6.5 M646,523.2v-28.3 M646,494.9h0.6 M646.6,523.2v-28.3 M646.6,523.2h6.5 M653.1,523.2v-14.2
	 M653.1,509.1h0.6 M653.7,523.2v-14.2 M653.7,523.2h6.5 M660.2,523.2V502 M660.2,502h0.6 M660.8,523.2V502 M660.8,523.2h6.5
	 M667.3,523.2v-14.2 M667.3,509.1h0.6 M667.9,523.2v-14.2 M667.9,523.2h6.5 M674.4,523.2v-28.3 M674.4,494.9h0.6 M674.9,523.2v-28.3
	 M674.9,523.2h6.5 M681.5,523.2v-14.2 M681.5,509.1h0.6 M682,523.2v-14.2 M682,523.2h6.5 M688.5,523.2V502 M688.5,502h0.6
	 M689.1,523.2V502 M689.1,523.2h6.5 M695.6,523.2v-14.2 M695.6,509.1h0.6 M696.2,523.2v-14.2 M696.2,523.2h6.5 M702.7,523.2v-28.3
	 M702.7,494.9h0.6 M703.3,523.2v-28.3 M703.3,523.2h6.5 M709.8,523.2v-14.2 M709.8,509.1h0.6 M710.4,523.2v-14.2 M710.4,523.2h6.5
	 M716.9,523.2V502 M716.9,502h0.6 M717.5,523.2V502 M717.5,523.2h6.5 M724,523.2v-14.2 M724,509.1h0.6 M724.5,523.2v-14.2
	 M724.5,523.2h6.5 M731.1,523.2v-28.3 M731.1,494.9h0.6 M731.6,523.2v-28.3 M731.6,523.2h6.5 M738.2,523.2v-14.2 M738.2,509.1h0.6
	 M738.7,523.2v-14.2 M738.7,523.2h6.5 M745.2,523.2V502 M745.2,502h0.6 M745.8,523.2V502 M745.8,523.2h6.5 M752.3,523.2v-14.2
	 M752.3,509.1h0.6 M752.9,523.2v-14.2 M752.9,523.2h6.5 M759.4,523.2v-28.3 M759.4,494.9h0.6 M760,523.2v-28.3 M760,523.2h6.5
	 M766.5,523.2v-14.2 M766.5,509.1h0.6 M767.1,523.2v-14.2 M767.1,523.2h6.5 M773.6,523.2V502 M773.6,502h0.6 M774.2,523.2V502
	 M774.2,523.2h6.5 M780.7,523.2v-14.2 M780.7,509.1h0.6 M781.2,523.2v-14.2 M781.2,523.2h6.5 M787.8,523.2v-28.1 M787.8,495.2h-13.9
	 M773.9,495.2v-0.6 M802.2,494.6h-28.3 M802.2,494.6V481 M802.2,481H788 M788,481v-0.6 M802.2,480.4H788 M802.2,480.4v-13.6
	 M802.2,466.8H781 M781,466.8v-0.6 M802.2,466.3H781 M802.2,466.3v-13.6 M802.2,452.7H788 M788,452.7v-0.6 M802.2,452.1H788
	 M802.2,452.1v-13.6 M802.2,438.5h-28.3 M773.9,438.5v-0.6 M802.2,437.9h-28.3 M802.2,437.9v-13.6 M802.2,424.3H788 M788,424.3v-0.6
	 M802.2,423.7H788 M802.2,423.7v-13.6 M802.2,410.1H781 M781,410.1v-0.6 M802.2,409.6H781 M802.2,409.6V396 M802.2,396H788 M788,396
	v-0.6 M802.2,395.4H788 M802.2,395.4v-13.6 M802.2,381.8h-28.3 M773.9,381.8v-0.6 M802.2,381.2h-28.3 M802.2,381.2V211.7
	 M802.2,211.7h-28.3 M773.9,211.7v-0.6 M802.2,211.1h-28.3 M802.2,211.1v-13.6 M802.2,197.5H788 M788,197.5V197 M802.2,197H788
	 M802.2,197v-13.6 M802.2,183.4H781 M781,183.4v-0.6 M802.2,182.8H781 M802.2,182.8v-13.6 M802.2,169.2H788 M788,169.2v-0.6
	 M802.2,168.6H788 M802.2,168.6V155 M802.2,155h-28.3 M773.9,155v-0.6 M802.2,154.5h-28.3 M802.2,154.5v-13.6 M802.2,140.8H788
	 M788,140.8v-0.6 M802.2,140.3H788 M802.2,140.3v-13.6 M802.2,126.7H781 M781,126.7v-0.6 M802.2,126.1H781 M802.2,126.1v-13.6
	 M802.2,112.5H788 M788,112.5v-0.6 M802.2,111.9H788 M802.2,111.9V98.3 M802.2,98.3h-28.3 M773.9,98.3v-0.6 M787.8,97.8h-13.9
	 M787.8,69.7v28.1 M787.8,69.7h-6.5 M781.2,69.7v14.2 M781.2,83.9h-0.6 M780.7,69.7v14.2 M780.7,69.7h-6.5 M774.2,69.7V91 M774.2,91
	h-0.6 M773.6,69.7V91 M773.6,69.7h-6.5 M767.1,69.7v14.2 M767.1,83.9h-0.6 M766.5,69.7v14.2 M766.5,69.7H760 M760,69.7V98 M760,98
	h-0.6 M759.4,69.7V98 M759.4,69.7h-6.5 M752.9,69.7v14.2 M752.9,83.9h-0.6 M752.3,69.7v14.2 M752.3,69.7h-6.5 M745.8,69.7V91
	 M745.8,91h-0.6 M745.2,69.7V91 M745.2,69.7h-6.5 M738.7,69.7v14.2 M738.7,83.9h-0.6 M738.2,69.7v14.2 M738.2,69.7h-6.5 M731.6,69.7
	V98 M731.6,98h-0.6 M731.1,69.7V98 M731.1,69.7h-6.5 M724.5,69.7v14.2 M724.5,83.9H724 M724,69.7v14.2 M724,69.7h-6.5 M717.5,69.7
	V91 M717.5,91h-0.6 M716.9,69.7V91 M716.9,69.7h-6.5 M710.4,69.7v14.2 M710.4,83.9h-0.6 M709.8,69.7v14.2 M709.8,69.7h-6.5
	 M703.3,69.7V98 M703.3,98h-0.6 M702.7,69.7V98 M702.7,69.7h-6.5 M696.2,69.7v14.2 M696.2,83.9h-0.6 M695.6,69.7v14.2 M695.6,69.7
	h-6.5 M689.1,69.7V91 M689.1,91h-0.6 M688.5,69.7V91 M688.5,69.7H682 M682,69.7v14.2 M682,83.9h-0.6 M681.5,69.7v14.2 M681.5,69.7
	h-6.5 M674.9,69.7V98 M674.9,98h-0.6 M674.4,69.7V98 M674.4,69.7h-6.5 M667.9,69.7v14.2 M667.9,83.9h-0.6 M667.3,69.7v14.2
	 M667.3,69.7h-6.5 M660.8,69.7V91 M660.8,91h-0.6 M660.2,69.7V91 M660.2,69.7h-6.5 M653.7,69.7v14.2 M653.7,83.9h-0.6 M653.1,69.7
	v14.2 M653.1,69.7h-6.5 M646.6,69.7V98 M646.6,98H646 M646,69.7V98 M646,69.7h-6.5 M639.5,69.7v14.2 M639.5,83.9h-0.6 M638.9,69.7
	v14.2 M638.9,69.7h-6.5 M632.4,69.7V91 M632.4,91h-0.6 M631.9,69.7V91 M631.9,69.7h-6.5 M625.3,69.7v14.2 M625.3,83.9h-0.6
	 M624.8,69.7v14.2 M624.8,69.7h-6.5 M618.2,69.7V98 M618.2,98h-0.6 M617.7,69.7V98 M617.7,69.7H51 M51,69.7L48.3,70l-2.7,0.8
	l-2.5,1.3L41,73.8L39.2,76l-1.3,2.5l-0.8,2.7l-0.3,2.8 M36.9,83.9v13.9 M36.9,97.8h28.3 M651.1,244.2L651,245l-0.3,0.7l-1.2,1
	l-1.5,0.4l-1.6,0.1 M646.3,247.3l-1.6-0.1l-1.5-0.4l-0.7-0.4l-0.5-0.6l-0.3-0.7l-0.1-0.8 M641.5,244.2l0.1-0.8l0.3-0.7l1.2-1
	l1.5-0.5l1.6-0.1 M646.3,241.1l1.6,0.1l1.5,0.5l1.2,1l0.3,0.7l0.1,0.8 M672.2,248.6l0.7,0.1l0.6,0.3l0.6,0.8 M674.1,249.8l1.1-1.4
	l0.6-0.3l0.7-0.1 M676.5,248.1l1.1,0.2l0.8,0.5 M678.4,248.8l0.8,1.2l0.2,1.2 M679.4,251.2l-0.2,1.3l-0.7,1.1l-0.9,0.5l-1,0.2
	 M676.6,254.3l-0.9-0.2l-0.8-0.5l-0.8-1.2 M674.1,252.5l-0.9,1l-0.5,0.2l-0.5,0.1 M672.2,253.8l-1-0.3l-0.8-0.7L670,252l-0.1-0.8
	 M669.9,251.1l0.2-1.1l0.6-0.9l0.7-0.5l0.8-0.2 M645.7,252.8l-4.1-2.7 M641.5,250.1l0.5-0.6 M642,249.4l3.7,2.4 M645.7,251.8
	l-0.1-0.5l0-0.4 M645.6,250.9l0.2-1.2l0.7-0.9l0.8-0.5l0.9-0.1 M648.3,248.2l1.2,0.3l1,0.8l0.5,0.9l0.2,1 M651.1,251l-0.3,1.2
	l-0.7,1l-0.8,0.5l-0.9,0.2 M648.3,253.8l-1.5-0.4l-1.1-0.6 M622.7,244.2l-0.1,0.8l-0.3,0.7l-1.2,1l-1.5,0.4l-1.6,0.1 M618,247.3
	l-1.6-0.1l-1.5-0.4l-0.7-0.4l-0.5-0.6l-0.3-0.7l-0.1-0.8 M613.2,244.2l0.1-0.8l0.3-0.7l1.2-1l1.5-0.5l1.6-0.1 M618,241.1l1.6,0.1
	l1.5,0.5l1.2,1l0.3,0.7l0.1,0.8 M762.1,254.3l-7.2-5 M754.9,249.3v-0.2 M754.9,249.1h6.3 M761.2,249.1v-1 M761.2,248.1h0.9
	 M762.1,248.1v1 M762.1,249.1h2.1 M764.2,249.1v0.8 M764.2,249.9h-2.1 M762.1,249.9v4.3 M736.1,244.2L736,245l-0.3,0.7l-1.2,1
	l-1.5,0.4l-1.6,0.1 M731.4,247.3l-1.6-0.1l-1.5-0.4l-0.7-0.4l-0.5-0.6l-0.3-0.7l-0.1-0.8 M726.6,244.2l0.1-0.8l0.3-0.7l1.2-1
	l1.5-0.5l1.6-0.1 M731.4,241.1l1.6,0.1l1.5,0.5l1.2,1l0.3,0.7l0.1,0.8 M699.2,258.2l0.1,0.7l0.4,0.6l0.9,0.6 M700.6,260.1v0.8
	 M700.6,260.9l-1-0.4l-0.8-0.7l-0.4-0.8l-0.1-0.8 M698.2,258.2l0.2-1.1l0.6-0.9l0.7-0.5l0.8-0.2 M700.6,255.5l0.6,0.1l0.6,0.3
	l0.7,0.7 M702.5,256.6l0.4-0.6l0.4-0.4 M704.8,255.1l1.3,0.3l1,0.9l0.5,0.9l0.1,1 M707.8,258.2l-0.2,1.2l-0.7,1L706,261l-0.9,0.3
	 M705.1,261.2v-0.8 M705.1,260.4l0.8-0.3l0.5-0.4 M706.3,259.7l0.4-0.8l0.1-0.7 M706.8,258.2l-0.1-0.9l-0.5-0.8l-0.6-0.4l-0.7-0.2
	 M704.9,255.9l-0.5,0.1l-0.4,0.2l-0.6,0.7l-0.4,1.8 M703,258.7h-0.9 M702.1,258.7l-0.3-1.5l-0.5-0.6l-0.3-0.2l-0.4-0.1 M700.6,256.3
	l-0.7,0.2l-0.5,0.5l-0.3,1.1 M707.8,244.2l-0.1,0.8l-0.3,0.7l-1.2,1l-1.5,0.4l-1.6,0.1 M703,247.3l-1.6-0.1l-1.5-0.4l-0.7-0.4
	l-0.5-0.6l-0.3-0.7l-0.1-0.8 M698.2,244.2l0.1-0.8l0.3-0.7l1.2-1l1.5-0.5l1.6-0.1 M703,241.1l1.6,0.1l1.5,0.5l1.2,1l0.3,0.7l0.1,0.8
	 M792.8,244.2l-0.1,0.8l-0.3,0.7l-1.2,1l-1.5,0.4l-1.6,0.1 M788,247.3l-1.6-0.1l-1.5-0.4l-0.7-0.4l-0.5-0.6l-0.3-0.7l-0.1-0.8
	 M783.3,244.2l0.1-0.8l0.3-0.7l1.2-1l1.5-0.5l1.6-0.1 M788,241.1l1.6,0.1l1.5,0.5l1.2,1l0.3,0.7l0.1,0.8 M784.2,258.2l0.1,0.7
	l0.4,0.6l0.9,0.6 M785.6,260.1v0.8 M785.6,260.9l-1-0.4l-0.8-0.7l-0.4-0.8l-0.1-0.8 M783.3,258.2l0.2-1.1l0.6-0.9l0.7-0.5l0.8-0.2
	 M785.6,255.5l0.6,0.1l0.6,0.3l0.7,0.7 M787.5,256.6l0.4-0.6l0.4-0.4 M788.3,255.6l0.9-0.4l0.8-0.1 M792.8,258.2l-0.2,1.2l-0.7,1
	l-0.8,0.5l-0.9,0.3 M790.1,261.2v-0.8 M790.1,260.4l0.8-0.3l0.5-0.4 M791.4,259.7l0.4-0.8l0.1-0.7 M791.9,258.2l-0.1-0.9l-0.5-0.8
	l-0.6-0.4l-0.7-0.2 M790,255.9l-0.5,0.1l-0.4,0.2l-0.6,0.7l-0.4,1.8 M788,258.7h-0.9 M787.1,258.7l-0.3-1.5l-0.5-0.6l-0.3-0.2
	l-0.4-0.1 M785.6,256.3l-0.7,0.2l-0.5,0.5l-0.3,1.1 M614.1,258l0.2,0.9l0.6,0.7l0.6,0.3l0.7,0.1 M616.2,260.1v0.8 M616.2,260.9
	l-1.3-0.3l-1.1-0.8l-0.5-0.9l-0.2-1 M613.2,257.9l0.2-1.2l0.7-0.9l0.8-0.5l0.9-0.2 M615.9,255.2l1.1,0.2l0.9,0.5l1.3,1.1 M619.1,257
	l2.4,2.3 M621.6,259.3v-4.2 M621.6,255.1h0.9 M622.5,255.1v6.2 M622.5,261.2l-3.8-3.5 M618.7,257.7l-1.4-1.2l-0.6-0.4L616,256
	 M456.2,468.3l-0.1,2.8 M456.1,471.1h-0.6 M455.5,471.1l-0.1-2.8 M455.4,468.3h0.8 M438.4,476.9l0.8-0.1l0.8-0.3l0.9-0.9
	 M440.8,475.5l0.7,0.4 M441.6,475.9l-0.6,0.9l-0.8,0.6l-1.6,0.4 M438.5,477.7l-1.5-0.3l-1.1-0.9l-0.6-1l-0.2-1.2 M435.2,474.3
	l0.2-1.3l0.5-0.9 M435.9,472.1l1.3-1l1.3-0.2 M438.5,470.9l1.7,0.4l1,0.9 M441.2,472.2l0.6,1.2l0.1,1.1 M441.9,474.5H436 M436,474.5
	l0.2,1l0.6,0.8l0.7,0.4l0.8,0.1 M430.2,477.6v-9.3 M430.2,468.3h0.8 M431,468.3v9.3 M431,477.6h-0.8 M414.5,477.6v-9.3 M414.5,468.3
	h0.8 M415.3,468.3v3.9 M415.3,472.2l1.3-1.1l1.3-0.3 M417.8,470.9l0.9,0.1l0.8,0.5l0.5,0.7l0.3,2.1 M420.3,474.2v3.4 M420.3,477.6
	h-0.8 M419.5,477.6v-3.1 M419.5,474.5l0-0.8l-0.1-0.7 M419.4,473l-0.3-0.6l-0.5-0.5l-1-0.2 M417.7,471.7l-0.8,0.2l-0.7,0.5l-0.4,0.5
	l-0.3,0.6 M415.4,473.4l-0.1,1l0,0.8 M415.3,475.2v2.4 M415.3,477.6h-0.8 M401.2,476.9l0.8-0.1l0.8-0.3l0.9-0.9 M403.6,475.5
	l0.7,0.4 M404.3,475.9l-0.6,0.9l-0.8,0.6l-1.6,0.4 M401.3,477.7l-1.5-0.3l-1.1-0.9l-0.6-1l-0.2-1.2 M397.9,474.3l0.2-1.3l0.5-0.9
	 M398.7,472.1l1.3-1l1.3-0.2 M401.3,470.9l1.7,0.4l1,0.9 M404,472.2l0.6,1.2l0.1,1.1 M404.7,474.5h-5.9 M398.8,474.5l0.2,1l0.6,0.8
	l0.7,0.4l0.8,0.1 M409.8,470.9l1.9,0.5l1.1,1.1 M412.8,472.4l-0.7,0.4 M412.2,472.8l-1.2-0.9l-1.2-0.2 M409.7,471.7l-1.2,0.2l-1,0.7
	l-0.5,0.8l-0.2,0.9 M406.9,474.3l0.3,1.2l0.8,0.9l0.8,0.4l0.9,0.1 M409.7,476.9l1.5-0.4l0.9-0.8 M412.2,475.7l0.7,0.4 M412.8,476.2
	l-0.7,0.7l-0.9,0.5l-1.6,0.3 M409.7,477.7l-1.5-0.3l-1.3-0.9l-0.6-1l-0.2-1.2 M406.1,474.3l0.4-1.5l1-1.2l1.1-0.6l1.2-0.2
	 M385.7,477.6V471 M385.7,471h0.8 M386.6,471v1 M386.6,471.9l0.8-0.8l0.4-0.2l0.4-0.1 M388.2,470.9l0.4,0.1l0.3,0.1 M388.9,471.1
	l-0.4,0.7 M388.4,471.8l-0.2-0.1l-0.2,0 M388,471.7l-0.5,0.2l-0.4,0.4l-0.4,0.8 M386.7,473.1l-0.1,1.3l0,1 M386.6,475.4v2.2
	 M386.6,477.6h-0.8 M375,477.6V471 M375,471h0.8 M375.9,471v6.6 M375.9,477.6H375 M373,468.2l0.6,0.1l0.4,0.1 M374,468.4v0.8
	 M374,469.2l-0.5-0.2l-0.4,0 M373.2,469l-0.4,0.1l-0.2,0.1l-0.1,0.1l-0.1,0.7 M372.5,470.1v0.9 M372.5,471h1.4 M373.9,471v0.8
	 M373.9,471.8h-1.4 M372.5,471.8l0,5.8 M372.5,477.6h-0.8 M371.7,477.6v-5.8 M371.7,471.8h-0.9 M370.7,471.8V471 M370.7,471h0.9
	 M371.7,471v-1.1 M371.7,469.9l0-0.7l0.3-0.6l0.5-0.3l0.5-0.1 M368.1,468.9l0.1-0.3l0.2-0.2l0.2-0.1l0.2,0 M368.8,468.2l0.3,0.1
	l0.3,0.2l0.1,0.2l0,0.2 M369.6,468.9l-0.1,0.3l-0.2,0.2l-0.2,0.1l-0.2,0 M368.8,469.6l-0.3-0.1l-0.3-0.2l-0.1-0.2l0-0.2
	 M359.7,476.9l0.8-0.1l0.8-0.3l0.9-0.9 M362.1,475.5l0.7,0.4 M362.8,475.9l-0.6,0.9l-0.8,0.6l-1.6,0.4 M359.8,477.7l-1.5-0.3
	l-1.1-0.9l-0.6-1l-0.2-1.2 M356.4,474.3l0.2-1.3l0.5-0.9 M357.2,472.1l1.3-1l1.3-0.2 M359.8,470.9l1.7,0.4l1,0.9 M362.5,472.2
	l0.6,1.2l0.1,1.1 M363.2,474.5h-5.9 M357.2,474.5l0.2,1l0.6,0.8l0.7,0.4l0.8,0.1 M364.6,477.6V471 M364.6,471h0.8 M365.4,471v1
	 M365.4,471.9l0.8-0.8l0.4-0.2l0.4-0.1 M367,470.9l0.4,0.1l0.3,0.1 M367.7,471.1l-0.4,0.7 M367.3,471.8l-0.2-0.1l-0.2,0
	 M366.8,471.7l-0.5,0.2l-0.4,0.4l-0.4,0.8 M365.5,473.1l-0.1,1.3l0,1 M365.4,475.4v2.2 M365.4,477.6h-0.8 M659.3,452.7l-0.1,2.8
	 M659.2,455.5h-0.6 M658.6,455.5l-0.1-2.8 M658.5,452.7h0.8 M150.3,463.9l-0.8-0.1l-0.7-0.3l-1-1.2l-0.4-1.5l-0.1-1.6 M147.2,459.2
	l0.1-1.6l0.4-1.5l0.4-0.7l0.6-0.5l0.7-0.3l0.8-0.1 M150.3,454.4l0.8,0.1l0.7,0.3l1,1.2l0.6,3.1 M153.4,459.2l-0.1,1.6l-0.5,1.5
	l-1,1.2l-0.7,0.3l-0.8,0.1 M716.7,463.7v-6.6 M716.7,457.1h0.8 M717.5,457.1v1.2 M717.5,458.2l0.5-0.6l0.5-0.4 M718.4,457.3l0.7-0.3
	l0.6-0.1 M719.8,457l0.8,0.1l0.7,0.4l0.6,1.1 M721.9,458.6l0.5-0.7l0.7-0.5l1.3-0.4 M724.3,457l0.8,0.1l0.7,0.4l0.5,0.7l0.3,1.9
	 M726.6,460.1v3.6 M726.6,463.7h-0.8 M725.8,463.7v-3.6 M725.8,460.1l-0.2-1.6l-0.2-0.3L725,458l-0.8-0.2 M724.2,457.8l-0.6,0.1
	l-0.5,0.2l-0.4,0.4l-0.3,0.5l-0.3,1.1l-0.1,1.1 M722,461.1v2.6 M722,463.7h-0.8 M721.2,463.7v-3.4 M721.2,460.3l-0.2-1.7l-0.2-0.4
	l-0.3-0.3l-0.8-0.2 M719.6,457.8l-0.8,0.2l-0.7,0.5l-0.4,0.7l-0.3,1.9 M717.5,460.9v2.8 M717.5,463.7h-0.8 M705.2,463.9l-0.8-0.1
	l-0.7-0.3l-1-1.2l-0.4-1.5l-0.1-1.6 M702.1,459.2l0.1-1.6l0.4-1.5l0.4-0.7l0.6-0.5l0.7-0.3l0.8-0.1 M705.2,454.4l0.8,0.1l0.7,0.3
	l1,1.2l0.6,3.1 M708.3,459.2l-0.1,1.6l-0.5,1.5l-1,1.2l-0.7,0.3l-0.8,0.1 M506.1,472l1.3-0.9l1.2-0.2 M508.6,470.9l1.5,0.3l1,0.8
	 M511.1,471.9l0.7,1.2l0.2,1.1 M512,474.3l-0.3,1.5l-0.9,1.2l-1,0.6l-1.2,0.2 M508.6,477.7l-1.5-0.3l-1.2-0.9l-0.6-1l-0.2-1.2
	 M505.2,474.3l0.3-1.4l0.6-0.9 M502.3,468.9l0.1-0.3l0.2-0.2l0.2-0.1l0.2,0 M503,468.2l0.3,0.1l0.3,0.2l0.1,0.2l0,0.2 M503.8,468.9
	l-0.1,0.3l-0.2,0.2l-0.2,0.1l-0.2,0 M503,469.6l-0.3-0.1l-0.3-0.2l-0.1-0.2l0-0.2 M494.4,470.9l0.5,0.1l0.5,0.3l0.7,0.6
	 M496.1,471.8l-0.6,0.6 M495.5,472.4l-0.6-0.5l-0.6-0.2 M494.4,471.7l-0.4,0.1l-0.3,0.2l-0.1,0.3l0,0.3 M493.5,472.6l0.1,0.4
	l0.1,0.2 M493.8,473.2l0.5,0.4l0.4,0.3 M494.7,473.8l0.7,0.5l0.5,0.5 M495.9,474.8l0.3,0.6l0.1,0.5 M496.2,475.8l-0.2,0.8l-0.5,0.7
	l-0.6,0.3l-0.7,0.1 M494.3,477.7l-1.2-0.3l-0.7-0.6 M492.4,476.8l0.5-0.6 M492.9,476.2l0.7,0.5l0.6,0.2 M494.2,476.9l0.5-0.1
	l0.4-0.3l0.2-0.3l0.1-0.4 M495.4,475.8l-0.1-0.4l-0.2-0.3 M495.2,475.2l-0.5-0.4l-0.5-0.3 M494.2,474.5l-0.7-0.4l-0.5-0.5
	 M493,473.6l-0.2-0.6l-0.1-0.5 M492.7,472.6l0.1-0.7l0.4-0.6l0.5-0.3l0.6-0.1 M480.9,477.6V471 M480.9,471h0.8 M481.7,471v1
	 M481.7,471.9l0.8-0.8l0.4-0.2l0.4-0.1 M483.3,470.9l0.4,0.1l0.3,0.1 M484,471.1l-0.4,0.7 M483.6,471.8l-0.2-0.1l-0.2,0
	 M483.1,471.7l-0.5,0.2l-0.4,0.4l-0.4,0.8 M481.8,473.1l-0.1,1.3l0,1 M481.7,475.4v2.2 M481.7,477.6h-0.8 M460.7,477.6V471
	 M460.7,471h0.8 M461.6,471v1.2 M461.6,472.1l0.5-0.6l0.4-0.4 M462.5,471.2l0.7-0.3l0.6-0.1 M463.8,470.9l0.8,0.1l0.7,0.4l0.6,1.1
	 M466,472.5l0.5-0.7l0.7-0.5l1.3-0.4 M468.4,470.9l0.8,0.1l0.7,0.4l0.5,0.7l0.3,1.9 M470.6,474v3.6 M470.6,477.6h-0.8 M469.8,477.6
	V474 M469.8,474l-0.2-1.6l-0.2-0.3l-0.3-0.2l-0.8-0.2 M468.2,471.7l-0.6,0.1l-0.5,0.2l-0.4,0.4l-0.3,0.5l-0.3,1.1l-0.1,1.1
	 M466.1,475v2.6 M466.1,477.6h-0.8 M465.3,477.6v-3.4 M465.3,474.2l-0.2-1.7l-0.2-0.4l-0.3-0.3l-0.8-0.2 M463.7,471.7l-0.8,0.2
	l-0.7,0.5l-0.4,0.7l-0.3,1.9 M461.6,474.8v2.8 M461.6,477.6h-0.8 M698.4,455.3l-0.9,0.2l-0.7,0.6l-0.3,0.6l-0.1,0.7 M696.3,457.4
	h-0.8 M695.5,457.4l0.3-1.3l0.8-1.1l0.9-0.5l1-0.2 M698.5,454.4l1.2,0.2l0.9,0.7l0.5,0.8l0.2,0.9 M701.2,457.1l-0.2,1.1l-0.5,0.9
	l-1.1,1.3 M699.4,460.4l-2.3,2.4 M697.1,462.8h4.2 M701.3,462.8v0.9 M701.3,463.7h-6.2 M695.2,463.7l3.5-3.8 M698.7,460l1.2-1.4
	l0.4-0.6l0.1-0.7 M700.4,457.2l-0.2-0.8l-0.5-0.6l-0.6-0.3l-0.6-0.1 M654,466.5h0.3 M654.2,480.4v-13.9 M654.2,480.4h62.6
	 M716.9,480.4v-13.9 M716.9,466.5h0.3 M717.2,480.7v-14.2 M150.2,480.7h566.9 M150.2,466.5v14.2 M150.2,466.5h0.3 M150.5,466.5v13.9
	 M150.5,480.4H654 M654,480.4v-13.9 M458,477.6V471 M458,471h0.8 M458.8,471v6.6 M458.8,477.6H458 M472.5,480V471 M472.5,471h0.8
	 M473.3,471v1.2 M473.3,472.2l1.3-1.1l1.3-0.3 M476,470.9l1.5,0.3l1.2,0.9l0.6,1l0.2,1.2 M479.5,474.3l-0.3,1.5l-0.9,1.2l-1,0.6
	l-1.2,0.2 M476,477.7l-1.7-0.4l-1-0.9 M473.3,476.4v3.6 M473.3,480h-0.8 M487.8,476.9l0.8-0.1l0.8-0.3l0.9-0.9 M490.3,475.5l0.7,0.4
	 M491,475.9l-0.6,0.9l-0.8,0.6l-1.6,0.4 M487.9,477.7l-1.5-0.3l-1.1-0.9l-0.6-1l-0.2-1.2 M484.6,474.3l0.2-1.3l0.5-0.9 M485.4,472.1
	l1.3-1l1.3-0.2 M487.9,470.9l1.7,0.4l1,0.9 M490.6,472.2l0.6,1.2l0.1,1.1 M491.3,474.5h-5.9 M485.4,474.5l0.2,1l0.6,0.8l0.7,0.4
	l0.8,0.1 M499.3,470.9l0.5,0.1l0.5,0.3l0.7,0.6 M501,471.8l-0.6,0.6 M500.4,472.4l-0.6-0.5l-0.6-0.2 M499.3,471.7l-0.4,0.1l-0.3,0.2
	l-0.1,0.3l0,0.3 M498.4,472.6l0.1,0.4l0.1,0.2 M498.7,473.2l0.5,0.4l0.4,0.3 M499.6,473.8l0.7,0.5l0.5,0.5 M500.8,474.8l0.3,0.6
	l0.1,0.5 M501.1,475.8l-0.2,0.8l-0.5,0.7l-0.6,0.3l-0.7,0.1 M499.2,477.7l-1.2-0.3l-0.7-0.6 M497.3,476.8l0.5-0.6 M497.8,476.2
	l0.7,0.5l0.6,0.2 M499.1,476.9l0.5-0.1l0.4-0.3l0.2-0.3l0.1-0.4 M500.3,475.8l-0.1-0.4l-0.2-0.3 M500.1,475.2l-0.5-0.4l-0.5-0.3
	 M499.1,474.5l-0.7-0.4l-0.5-0.5 M497.9,473.6l-0.2-0.6l-0.1-0.5 M497.6,472.6l0.1-0.7l0.4-0.6l0.5-0.3l0.6-0.1 M502.6,477.6V471
	 M502.6,471h0.8 M503.4,471v6.6 M503.4,477.6h-0.8 M513.7,477.6V471 M513.7,471h0.8 M514.5,471v1.2 M514.5,472.2l1.3-1l1.3-0.3
	 M517,470.9l0.9,0.1l0.8,0.5l0.5,0.7l0.3,2.1 M519.5,474.2v3.4 M519.5,477.6h-0.8 M518.7,477.6v-3.1 M518.7,474.5l0-0.8l-0.1-0.7
	 M518.6,473l-0.2-0.6l-0.5-0.5l-1-0.2 M516.9,471.7l-0.8,0.2l-0.7,0.5l-0.4,0.5l-0.3,0.6 M514.6,473.4l-0.1,1l0,0.8 M514.5,475.2
	v2.4 M514.5,477.6h-0.8 M712.2,463.9l-0.8-0.1l-0.7-0.3l-1-1.2l-0.4-1.5l-0.1-1.6 M709.1,459.2l0.1-1.6l0.4-1.5l0.4-0.7l0.6-0.5
	l0.7-0.3l0.8-0.1 M712.2,454.4l0.8,0.1l0.7,0.3l1,1.2l0.6,3.1 M715.3,459.2l-0.1,1.6l-0.5,1.5l-1,1.2l-0.7,0.3l-0.8,0.1
	 M728.4,463.7v-6.6 M728.4,457.1h0.8 M729.2,457.1v1.2 M729.2,458.2l0.5-0.6l0.5-0.4 M730.2,457.3l0.7-0.3l0.6-0.1 M731.5,457
	l0.8,0.1l0.7,0.4l0.6,1.1 M733.6,458.6l0.5-0.7l0.7-0.5l1.3-0.4 M736.1,457l0.8,0.1l0.7,0.4l0.5,0.7l0.3,1.9 M738.3,460.1v3.6
	 M738.3,463.7h-0.8 M737.5,463.7v-3.6 M737.5,460.1l-0.2-1.6l-0.2-0.3l-0.3-0.2l-0.8-0.2 M735.9,457.8l-0.6,0.1l-0.5,0.2l-0.4,0.4
	l-0.3,0.5l-0.3,1.1l0,1.1 M733.8,461.1v2.6 M733.8,463.7H733 M733,463.7v-3.4 M733,460.3l-0.2-1.7l-0.2-0.4l-0.3-0.3l-0.8-0.2
	 M731.4,457.8l-0.8,0.2l-0.7,0.5l-0.4,0.7l-0.3,1.9 M729.2,460.9v2.8 M729.2,463.7h-0.8 M649.6,453.9v-0.9 M649.6,452.9h5.6
	 M655.2,452.9l-4.8,9.3 M650.4,462.2l-0.7-0.4 M649.7,461.9l4.1-8 M653.8,453.9h-4.2 M656.8,452.7l-0.1,2.8 M656.7,455.5h-0.6
	 M656.1,455.5l-0.1-2.8 M656,452.7h0.8 M358.9,469.9l1.3-1.9 M360.2,468.1h1.3 M361.4,468.1l-1.7,1.9 M359.7,469.9h-0.8
	 M351.3,477.6l-3.8-9.1 M347.5,468.5h0.9 M348.4,468.5l3,7.1 M351.4,475.7l3-7.1 M354.4,468.5h0.9 M355.3,468.5l-3.8,9.1
	 M351.4,477.6h-0.1 M368.4,477.6V471 M368.4,471h0.8 M369.2,471v6.6 M369.2,477.6h-0.8 M374.7,468.9l0.1-0.3l0.2-0.2l0.2-0.1l0.2,0
	 M375.4,468.2l0.3,0.1l0.3,0.2l0.1,0.2l0,0.2 M376.2,468.9l-0.1,0.3l-0.2,0.2l-0.2,0.1l-0.2,0 M375.4,469.6l-0.3-0.1l-0.3-0.2
	l-0.1-0.2l0-0.2 M380.8,476.9l0.8-0.1l0.8-0.3l0.9-0.9 M383.3,475.5l0.7,0.4 M384,475.9l-0.6,0.9l-0.8,0.6l-1.6,0.4 M380.9,477.7
	l-1.5-0.3l-1.1-0.9l-0.6-1l-0.2-1.2 M377.6,474.3l0.2-1.3l0.5-0.9 M378.4,472.1l1.3-1l1.3-0.2 M381,470.9l1.7,0.4l1,0.9
	 M383.6,472.2l0.6,1.2l0.1,1.1 M384.3,474.5h-5.9 M378.4,474.5l0.2,1l0.6,0.8l0.7,0.4l0.8,0.1 M393.1,477.6v-9.3 M393.1,468.3h0.8
	 M393.9,468.3v9.3 M393.9,477.6h-0.8 M400.4,469.9l1.3-1.9 M401.7,468.1h1.3 M402.9,468.1l-1.7,1.9 M401.2,469.9h-0.8 M396.3,468.3
	l-0.1,2.8 M396.2,471.1h-0.6 M395.6,471.1l-0.1-2.8 M395.5,468.3h0.8 M425.1,476.9l0.8-0.1l0.8-0.3l0.9-0.9 M427.6,475.5l0.7,0.4
	 M428.3,475.9l-0.6,0.9l-0.8,0.6l-1.6,0.4 M425.2,477.7l-1.5-0.3l-1.1-0.9l-0.6-1l-0.2-1.2 M421.9,474.3l0.2-1.3l0.5-0.9
	 M422.7,472.1l1.3-1l1.3-0.2 M425.3,470.9l1.7,0.4l1,0.9 M427.9,472.2l0.6,1.2l0.1,1.1 M428.7,474.5h-5.9 M422.7,474.5l0.2,1
	l0.6,0.8l0.7,0.4l0.8,0.1 M432.7,477.6v-9.3 M432.7,468.3h0.8 M433.5,468.3v9.3 M433.5,477.6h-0.8 M453,468.3h0.8 M453.8,468.3v9.3
	 M453.8,477.6H453 M453,477.6v-1.1 M453,476.5l-1.4,1l-1.3,0.2 M450.2,477.7l-1.5-0.3l-1.2-0.9l-0.6-1l-0.2-1.2 M446.8,474.3
	l0.3-1.5l0.9-1.2l1-0.6l1.2-0.2 M450.3,470.9l1.7,0.5l1,0.9 M453,472.3v-4 M457.6,468.9l0.1-0.3l0.2-0.2l0.2-0.1l0.2,0 M458.4,468.2
	l0.3,0.1l0.3,0.2l0.1,0.2l0,0.2 M459.1,468.9l-0.1,0.3l-0.2,0.2l-0.2,0.1l-0.2,0 M458.4,469.6l-0.3-0.1l-0.3-0.2l-0.1-0.2l0-0.2
	 M764.5,244.2l-0.1,0.8l-0.3,0.7l-1.2,1l-1.5,0.4l-1.6,0.1 M759.7,247.3l-1.6-0.1l-1.5-0.4l-0.7-0.4l-0.5-0.6L755,245l-0.1-0.8
	 M754.9,244.2l0.1-0.8l0.3-0.7l1.2-1l1.5-0.5l1.6-0.1 M759.7,241.1l1.6,0.1l1.5,0.5l1.2,1l0.3,0.7l0.1,0.8 M787.4,252.8l-4.1-2.7
	 M783.3,250.1l0.5-0.6 M783.8,249.4l3.7,2.4 M787.4,251.8l-0.1-0.5l0-0.4 M787.3,250.9l0.2-1.2l0.7-0.9l0.8-0.5l0.9-0.1 M790,248.2
	l1.2,0.3l1,0.8l0.5,0.9l0.2,1 M792.8,251l-0.3,1.2l-0.7,1l-0.8,0.5l-0.9,0.2 M790,253.8l-1.5-0.4l-1.1-0.6 M727.5,258.2l0.1,0.7
	l0.4,0.6l0.9,0.6 M728.9,260.1v0.8 M728.9,260.9l-1-0.4l-0.8-0.7l-0.4-0.8l-0.1-0.8 M726.6,258.2l0.2-1.1l0.6-0.9l0.7-0.5l0.8-0.2
	 M728.9,255.5l0.6,0.1l0.6,0.3l0.7,0.7 M730.8,256.6l0.4-0.6l0.4-0.4 M731.6,255.6l0.9-0.4l0.8-0.1 M733.2,255.1l1.3,0.3l1,0.9
	l0.5,0.9l0.1,1 M736.1,258.2l-0.2,1.2l-0.7,1l-0.8,0.5l-0.9,0.3 M733.4,261.2v-0.8 M733.4,260.4l0.8-0.3l0.5-0.4 M734.7,259.7
	l0.4-0.8l0.1-0.7 M735.2,258.2l-0.1-0.9l-0.5-0.8L734,256l-0.7-0.2 M733.3,255.9l-0.5,0.1l-0.4,0.2l-0.6,0.7l-0.4,1.8 M731.3,258.7
	h-0.9 M730.4,258.7l-0.3-1.5l-0.5-0.6l-0.3-0.2l-0.4-0.1 M728.9,256.3l-0.7,0.2l-0.5,0.5l-0.3,1.1 M707.8,251.2l-0.1,0.8l-0.3,0.7
	l-1.2,1l-1.5,0.4l-1.6,0.1 M703,254.3l-1.6-0.1l-1.5-0.4l-0.7-0.4l-0.5-0.6l-0.3-0.7l-0.1-0.8 M698.2,251.2l0.1-0.8l0.3-0.7l1.2-1
	l1.5-0.5l1.6-0.1 M703,248.1l1.6,0.1l1.5,0.5l1.2,1l0.3,0.7l0.1,0.8 M727.5,251l0.2,0.9l0.6,0.7l0.6,0.3l0.7,0.1 M729.6,253.1v0.8
	 M729.6,253.9l-1.3-0.3l-1.1-0.8l-0.5-0.9l-0.2-1 M726.6,250.9l0.2-1.2l0.7-0.9l0.8-0.5l0.9-0.2 M729.3,248.2l1.1,0.2l0.9,0.5
	l1.3,1.1 M732.5,250l2.4,2.3 M735,252.3v-4.2 M735,248.1h0.9 M735.9,248.1v6.2 M735.9,254.3l-3.8-3.5 M732.1,250.7l-1.4-1.2
	l-0.6-0.4l-0.7-0.1 M729.3,249l-0.8,0.2l-0.6,0.5l-0.3,0.6l-0.1,0.6 M755.9,258.2l0.1,0.7l0.4,0.6l0.9,0.6 M757.3,260.1v0.8
	 M757.3,260.9l-1-0.4l-0.8-0.7L755,259l-0.1-0.8 M754.9,258.2l0.2-1.1l0.6-0.9l0.7-0.5l0.8-0.2 M757.3,255.5l0.6,0.1l0.6,0.3
	l0.7,0.7 M759.1,256.6l0.4-0.6l0.4-0.4 M761.5,255.1l1.3,0.3l1,0.9l0.5,0.9l0.1,1 M764.5,258.2l-0.2,1.2l-0.7,1l-0.8,0.5l-0.9,0.3
	 M761.8,261.2v-0.8 M761.8,260.4l0.8-0.3l0.5-0.4 M763,259.7l0.4-0.8l0.1-0.7 M763.5,258.2l-0.1-0.9l-0.5-0.8l-0.6-0.4l-0.7-0.2
	 M761.6,255.9l-0.5,0.1l-0.4,0.2l-0.6,0.7l-0.4,1.8 M759.7,258.7h-0.9 M758.8,258.7l-0.3-1.5l-0.5-0.6l-0.3-0.2l-0.4-0.1
	 M757.3,256.3l-0.7,0.2l-0.5,0.5l-0.3,1.1 M620.4,254.3l-7.2-5 M613.2,249.3v-0.2 M613.2,249.1h6.3 M619.5,249.1v-1 M619.5,248.1
	h0.9 M620.4,248.1v1 M620.4,249.1h2.1 M622.5,249.1v0.8 M622.5,249.9h-2.1 M620.4,249.9v4.3 M642.5,258l0.2,0.9l0.6,0.7l0.6,0.3
	l0.7,0.1 M644.6,260.1v0.8 M644.6,260.9l-1.3-0.3l-1.1-0.8l-0.5-0.9l-0.2-1 M641.5,257.9l0.2-1.2l0.7-0.9l0.8-0.5l0.9-0.2
	 M644.2,255.2l1.1,0.2l0.9,0.5l1.3,1.1 M647.5,257l2.4,2.3 M649.9,259.3v-4.2 M649.9,255.1h0.9 M650.8,255.1v6.2 M650.8,261.2
	l-3.8-3.5 M647.1,257.7l-1.4-1.2l-0.6-0.4l-0.7-0.1 M679.4,244.2l-0.1,0.8l-0.3,0.7l-1.2,1l-1.5,0.4l-1.6,0.1 M674.7,247.3l-1.6-0.1
	l-1.5-0.4l-0.7-0.4l-0.5-0.6L670,245l-0.1-0.8 M669.9,244.2l0.1-0.8l0.3-0.7l1.2-1l1.5-0.5l1.6-0.1 M674.7,241.1l1.6,0.1l1.5,0.5
	l1.2,1l0.3,0.7l0.1,0.8 M670.8,258l0.2,0.9l0.6,0.7l0.6,0.3l0.7,0.1 M672.9,260.1v0.8 M672.9,260.9l-1.3-0.3l-1.1-0.8l-0.5-0.9
	l-0.2-1 M669.9,257.9l0.2-1.2l0.7-0.9l0.8-0.5l0.9-0.2 M672.6,255.2l1.1,0.2l0.9,0.5l1.3,1.1 M675.8,257l2.4,2.3 M678.3,259.3v-4.2
	 M678.3,255.1h0.9 M679.2,255.1v6.2 M679.2,261.2l-3.8-3.5 M675.4,257.7l-1.4-1.2l-0.6-0.4l-0.7-0.1"/>
<g>
	<g>
		<text transform="matrix(1 0 0 1.0003 623.9648 113.9381)" class="st12 st0 st13">Salomon-Atomic Shift MNC</text>
		<line class="st14" x1="146" y1="282.3" x2="146" y2="275.2"/>
		<line class="st14" x1="131.8" y1="296.5" x2="124.7" y2="296.5"/>
		<line class="st14" x1="146" y1="310.6" x2="146" y2="317.7"/>
		<line class="st14" x1="160.2" y1="296.5" x2="167.3" y2="296.5"/>
		<line class="st14" x1="333.1" y1="225.6" x2="333.1" y2="218.5"/>
		<line class="st14" x1="318.9" y1="239.8" x2="311.8" y2="239.8"/>
		<line class="st14" x1="333.1" y1="253.9" x2="333.1" y2="261"/>
		<line class="st14" x1="347.3" y1="239.8" x2="354.3" y2="239.8"/>
		<line class="st14" x1="534.3" y1="239.8" x2="534.3" y2="232.7"/>
		<line class="st14" x1="520.2" y1="253.9" x2="513.1" y2="253.9"/>
		<line class="st14" x1="534.3" y1="268.1" x2="534.3" y2="275.2"/>
		<line class="st14" x1="548.5" y1="253.9" x2="555.6" y2="253.9"/>
		<line class="st14" x1="534.3" y1="324.8" x2="534.3" y2="317.7"/>
		<line class="st14" x1="520.2" y1="339" x2="513.1" y2="339"/>
		<line class="st14" x1="534.3" y1="353.2" x2="534.3" y2="360.2"/>
		<line class="st14" x1="548.5" y1="339" x2="555.6" y2="339"/>
		<line class="st14" x1="333.1" y1="339" x2="333.1" y2="331.9"/>
		<line class="st14" x1="318.9" y1="353.2" x2="311.8" y2="353.2"/>
		<line class="st14" x1="333.1" y1="367.3" x2="333.1" y2="374.4"/>
		<line class="st14" x1="347.3" y1="353.2" x2="354.3" y2="353.2"/>
		<path class="st15" d="M333.1,353.2h7.1 M333.1,353.2v7.1 M333.1,353.2H326 M333.1,353.2v-7.1 M534.3,339h7.1 M534.3,339v7.1
			 M534.3,339h-7.1 M534.3,339v-7.1 M534.3,253.9h7.1 M534.3,253.9v7.1 M534.3,253.9h-7.1 M534.3,253.9v-7.1 M333.1,239.8h7.1
			 M333.1,239.8v7.1 M333.1,239.8H326 M333.1,239.8v-7.1 M146,296.5h7.1 M146,296.5v7.1 M146,296.5h-7.1 M146,296.5v-7.1"/>
		<path class="st16" d="M286,289.4v6.8 M286.6,289.4v6.8 M286,296.7v6.8 M286.6,303.6H286 M286.6,296.7v6.8 M288.9,289.4h0.6
			 M288.9,289.4v6.8 M289.4,289.4v6.8 M288.9,296.7v6.8 M289.4,303.6h-0.6 M289.4,296.7v6.8 M291.7,289.4h0.6 M291.7,289.4v6.8
			 M292.3,289.4v6.8 M291.7,296.7v6.8 M292.3,303.6h-0.6 M351.2,289.4h0.6 M365.4,289.4v6.8 M365.4,296.7v6.8 M366,303.6h-0.6
			 M366,296.7v6.8 M368.2,289.4h0.6 M368.8,289.4v6.8 M368.2,289.4v6.8 M368.2,296.7v6.8 M368.8,303.6h-0.6 M368.8,296.7v6.8
			 M371.1,289.4h0.6 M371.6,289.4v6.8 M371.1,289.4v6.8 M371.1,296.7v6.8 M371.6,303.6h-0.6 M371.6,296.7v6.8 M431.2,289.4v6.8
			 M314.4,289.4v6.8 M320.6,296.7v6.8 M322.9,289.4h0.6 M323.4,289.4v6.8 M322.9,289.4v6.8 M322.9,296.7v6.8 M323.4,303.6h-0.6
			 M323.4,296.7v6.8 M325.7,289.4h0.6 M326.3,289.4v6.8 M325.7,289.4v6.8 M325.7,296.7v6.8 M326.3,303.6h-0.6 M326.3,296.7v6.8
			 M328.5,289.4h0.6 M329.1,289.4v6.8 M328.5,289.4v6.8 M385.8,303.6h-0.6 M408.5,303.6h-0.6 M408.5,296.7v6.8 M410.7,289.4h0.6
			 M411.3,289.4v6.8 M410.7,289.4v6.8 M410.7,296.7v6.8 M411.3,303.6h-0.6 M411.3,296.7v6.8 M413.6,289.4h0.6 M414.2,289.4v6.8
			 M413.6,289.4v6.8 M413.6,296.7v6.8 M414.2,303.6h-0.6 M414.2,296.7v6.8 M416.4,289.4h0.6 M417,289.4v6.8 M416.4,289.4v6.8
			 M416.4,296.7v6.8 M417,303.6h-0.6 M417,296.7v6.8 M447.6,296.7h-2.3 M447.6,296.2h-2.3 M444.8,296.7h-2.3 M444.8,296.2h-2.3
			 M441.9,296.7h-2.3 M441.9,296.2h-2.3 M439.1,296.7h-2.3 M439.1,296.2h-2.3 M436.3,296.7H434 M436.3,296.2H434 M433.4,296.7h-2.3
			 M433.4,296.2h-2.3 M430.6,296.7h-2.3 M430.6,296.2h-2.3 M427.8,296.7h-2.3 M427.8,296.2h-2.3 M424.9,296.7h-2.3 M424.9,296.2
			h-2.3 M422.1,296.7h-2.3 M422.1,296.2h-2.3 M419.3,296.7H417 M419.3,296.2H417 M416.4,296.7h-2.3 M416.4,296.2h-2.3 M413.6,296.7
			h-2.3 M413.6,296.2h-2.3 M410.7,296.7h-2.3 M410.7,296.2h-2.3 M407.9,296.7h-2.3 M407.9,296.2h-2.3 M405.1,296.7h-2.3
			 M405.1,296.2h-2.3 M402.2,296.7H400 M402.2,296.2H400 M399.4,296.7h-2.3 M399.4,296.2h-2.3 M396.6,296.7h-2.3 M396.6,296.2h-2.3
			 M393.7,296.7h-2.3 M393.7,296.2h-2.3 M390.9,296.7h-2.3 M390.9,296.2h-2.3 M388.1,296.7h-2.3 M388.1,296.2h-2.3 M385.2,296.7H383
			 M385.2,296.2H383 M382.4,296.7h-2.3 M382.4,296.2h-2.3 M379.6,296.7h-2.3 M379.6,296.2h-2.3 M376.7,296.7h-2.3 M376.7,296.2h-2.3
			 M373.9,296.7h-2.3 M373.9,296.2h-2.3 M371.1,296.7h-2.3 M371.1,296.2h-2.3 M368.2,296.7H366 M368.2,296.2H366 M365.4,296.7h-2.3
			 M365.4,296.2h-2.3 M362.6,296.7h-2.3 M362.6,296.2h-2.3 M359.7,296.7h-2.3 M359.7,296.2h-2.3 M356.9,296.7h-2.3 M356.9,296.2
			h-2.3 M354.1,296.7h-2.3 M354.1,296.2h-2.3 M351.2,296.7H349 M351.2,296.2H349 M348.4,296.7h-2.3 M348.4,296.2h-2.3 M345.6,296.7
			h-2.3 M345.6,296.2h-2.3 M342.7,296.7h-2.3 M342.7,296.2h-2.3 M339.9,296.7h-2.3 M339.9,296.2h-2.3 M337,296.7h-2.3 M337,296.2
			h-2.3 M334.2,296.7h-2.3 M334.2,296.2h-2.3 M331.4,296.7h-2.3 M331.4,296.2h-2.3 M328.5,296.7h-2.3 M328.5,296.2h-2.3
			 M325.7,296.7h-2.3 M325.7,296.2h-2.3 M322.9,296.7h-2.3 M322.9,296.2h-2.3 M320,296.7h-2.3 M320,296.2h-2.3 M317.2,296.7h-2.3
			 M317.2,296.2h-2.3 M314.4,296.7h-2.3 M314.4,296.2h-2.3 M311.5,296.7h-2.3 M311.5,296.2h-2.3 M308.7,296.7h-2.3 M308.7,296.2
			h-2.3 M305.9,296.7h-2.3 M305.9,296.2h-2.3 M303,296.7h-2.3 M303,296.2h-2.3 M300.2,296.7h-2.3 M300.2,296.2h-2.3 M297.4,296.7
			h-2.3 M297.4,296.2h-2.3 M294.5,296.7h-2.3 M294.5,296.2h-2.3 M291.7,296.7h-2.3 M291.7,296.2h-2.3 M288.9,296.7h-2.3
			 M288.9,296.2h-2.3 M286,296.7h-2.3 M286,296.2h-2.3 M283.2,296.7h-2.3 M283.2,296.2h-2.3 M280.4,296.7h-2.3 M280.4,296.2h-2.3
			 M447.6,296.7v6.8 M448.2,303.6h-0.6 M448.2,289.4v14.2 M447.6,289.4h0.6 M447.6,289.4v6.8 M445.3,289.4v6.8 M444.8,289.4h0.6
			 M444.8,289.4v6.8 M442.5,289.4v6.8 M441.9,289.4h0.6 M441.9,289.4v6.8 M439.7,289.4v6.8 M439.1,289.4h0.6 M439.1,289.4v6.8
			 M436.8,289.4v6.8 M436.3,289.4h0.6 M436.3,289.4v6.8 M434,289.4v6.8 M433.4,289.4h0.6 M433.4,289.4v6.8 M430.6,289.4h0.6
			 M430.6,289.4v6.8 M428.3,289.4v6.8 M427.8,289.4h0.6 M427.8,289.4v6.8 M425.5,289.4v6.8 M424.9,289.4h0.6 M424.9,289.4v6.8
			 M422.7,289.4v6.8 M422.1,289.4h0.6 M422.1,289.4v6.8 M419.8,289.4v6.8 M419.3,289.4h0.6 M419.3,289.4v6.8 M408.5,289.4v6.8
			 M407.9,289.4h0.6 M407.9,289.4v6.8 M405.6,289.4v6.8 M405.1,289.4h0.6 M405.1,289.4v6.8 M402.8,289.4v6.8 M402.2,289.4h0.6
			 M402.2,289.4v6.8 M400,289.4v6.8 M399.4,289.4h0.6 M399.4,289.4v6.8 M397.1,289.4v6.8 M396.6,289.4h0.6 M396.6,289.4v6.8
			 M394.3,289.4v6.8 M393.7,289.4h0.6 M393.7,289.4v6.8 M391.5,289.4v6.8 M390.9,289.4h0.6 M390.9,289.4v6.8 M388.6,289.4v6.8
			 M388.1,289.4h0.6 M388.1,289.4v6.8 M385.8,289.4v6.8 M385.2,289.4h0.6 M385.2,289.4v6.8 M383,289.4v6.8 M382.4,289.4h0.6
			 M382.4,289.4v6.8 M380.1,289.4v6.8 M379.6,289.4h0.6 M379.6,289.4v6.8 M377.3,289.4v6.8 M376.7,289.4h0.6 M376.7,289.4v6.8
			 M374.5,289.4v6.8 M373.9,289.4h0.6 M373.9,289.4v6.8 M366,289.4v6.8 M365.4,289.4h0.6 M363.1,289.4v6.8 M362.6,289.4h0.6
			 M362.6,289.4v6.8 M360.3,289.4v6.8 M359.7,289.4h0.6 M359.7,289.4v6.8 M357.5,289.4v6.8 M356.9,289.4h0.6 M356.9,289.4v6.8
			 M354.6,289.4v6.8 M354.1,289.4h0.6 M354.1,289.4v6.8 M351.8,289.4v6.8 M351.2,289.4v6.8 M349,289.4v6.8 M348.4,289.4h0.6
			 M348.4,289.4v6.8 M346.1,289.4v6.8 M345.6,289.4h0.6 M345.6,289.4v6.8 M343.3,289.4v6.8 M342.7,289.4h0.6 M342.7,289.4v6.8
			 M340.4,289.4v6.8 M339.9,289.4h0.6 M339.9,289.4v6.8 M337.6,289.4v6.8 M337,289.4h0.6 M337,289.4v6.8 M334.8,289.4v6.8
			 M334.2,289.4h0.6 M334.2,289.4v6.8 M331.9,289.4v6.8 M331.4,289.4h0.6 M331.4,289.4v6.8 M320.6,289.4v6.8 M320,289.4h0.6
			 M320,289.4v6.8 M317.8,289.4v6.8 M317.2,289.4h0.6 M317.2,289.4v6.8 M314.9,289.4v6.8 M314.4,289.4h0.6 M312.1,289.4v6.8
			 M311.5,289.4h0.6 M311.5,289.4v6.8 M309.3,289.4v6.8 M308.7,289.4h0.6 M308.7,289.4v6.8 M306.4,289.4v6.8 M305.9,289.4h0.6
			 M305.9,289.4v6.8 M303.6,289.4v6.8 M303,289.4h0.6 M303,289.4v6.8 M300.8,289.4v6.8 M300.2,289.4h0.6 M300.2,289.4v6.8
			 M297.9,289.4v6.8 M297.4,289.4h0.6 M297.4,289.4v6.8 M295.1,289.4v6.8 M294.5,289.4h0.6 M294.5,289.4v6.8 M286,289.4h0.6
			 M283.8,289.4v6.8 M283.2,289.4h0.6 M283.2,289.4v6.8 M280.9,289.4v6.8 M280.4,289.4h0.6 M280.4,289.4v6.8 M278.1,282.3v13.9
			 M277.5,282.3h0.6 M277.5,282.3v28.3 M278.1,310.6h-0.6 M278.1,296.7v13.9 M280.4,296.7v6.8 M280.9,303.6h-0.6 M280.9,296.7v6.8
			 M283.2,296.7v6.8 M283.8,303.6h-0.6 M283.8,296.7v6.8 M292.3,296.7v6.8 M294.5,296.7v6.8 M295.1,303.6h-0.6 M295.1,296.7v6.8
			 M297.4,296.7v6.8 M297.9,303.6h-0.6 M297.9,296.7v6.8 M300.2,296.7v6.8 M300.8,303.6h-0.6 M300.8,296.7v6.8 M303,296.7v6.8
			 M303.6,303.6H303 M303.6,296.7v6.8 M305.9,296.7v6.8 M306.4,303.6h-0.6 M306.4,296.7v6.8 M308.7,296.7v6.8 M309.3,303.6h-0.6
			 M309.3,296.7v6.8 M311.5,296.7v6.8 M312.1,303.6h-0.6 M312.1,296.7v6.8 M314.4,296.7v6.8 M314.9,303.6h-0.6 M314.9,296.7v6.8
			 M317.2,296.7v6.8 M317.8,303.6h-0.6 M317.8,296.7v6.8 M320,296.7v6.8 M320.6,303.6H320 M328.5,296.7v6.8 M329.1,303.6h-0.6
			 M329.1,296.7v6.8 M331.4,296.7v6.8 M331.9,303.6h-0.6 M331.9,296.7v6.8 M334.2,296.7v6.8 M334.8,303.6h-0.6 M334.8,296.7v6.8
			 M337,296.7v6.8 M337.6,303.6H337 M337.6,296.7v6.8 M339.9,296.7v6.8 M340.4,303.6h-0.6 M340.4,296.7v6.8 M342.7,296.7v6.8
			 M343.3,303.6h-0.6 M343.3,296.7v6.8 M345.6,296.7v6.8 M346.1,303.6h-0.6 M346.1,296.7v6.8 M348.4,296.7v6.8 M349,303.6h-0.6
			 M349,296.7v6.8 M351.2,296.7v6.8 M351.8,303.6h-0.6 M351.8,296.7v6.8 M354.1,296.7v6.8 M354.6,303.6h-0.6 M354.6,296.7v6.8
			 M356.9,296.7v6.8 M357.5,303.6h-0.6 M357.5,296.7v6.8 M359.7,296.7v6.8 M360.3,303.6h-0.6 M360.3,296.7v6.8 M362.6,296.7v6.8
			 M363.1,303.6h-0.6 M363.1,296.7v6.8 M373.9,296.7v6.8 M374.5,303.6h-0.6 M374.5,296.7v6.8 M376.7,296.7v6.8 M377.3,303.6h-0.6
			 M377.3,296.7v6.8 M379.6,296.7v6.8 M380.1,303.6h-0.6 M380.1,296.7v6.8 M382.4,296.7v6.8 M383,303.6h-0.6 M383,296.7v6.8
			 M385.2,296.7v6.8 M385.8,296.7v6.8 M388.1,296.7v6.8 M388.6,303.6h-0.6 M388.6,296.7v6.8 M390.9,296.7v6.8 M391.5,303.6h-0.6
			 M391.5,296.7v6.8 M393.7,296.7v6.8 M394.3,303.6h-0.6 M394.3,296.7v6.8 M396.6,296.7v6.8 M397.1,303.6h-0.6 M397.1,296.7v6.8
			 M399.4,296.7v6.8 M400,303.6h-0.6 M400,296.7v6.8 M402.2,296.7v6.8 M402.8,303.6h-0.6 M402.8,296.7v6.8 M405.1,296.7v6.8
			 M405.6,303.6h-0.6 M405.6,296.7v6.8 M407.9,296.7v6.8 M419.3,296.7v6.8 M419.8,303.6h-0.6 M419.8,296.7v6.8 M422.1,296.7v6.8
			 M422.7,303.6h-0.6 M422.7,296.7v6.8 M424.9,296.7v6.8 M425.5,303.6h-0.6 M425.5,296.7v6.8 M427.8,296.7v6.8 M428.3,303.6h-0.6
			 M428.3,296.7v6.8 M430.6,296.7v6.8 M431.2,303.6h-0.6 M431.2,296.7v6.8 M433.4,296.7v6.8 M434,303.6h-0.6 M434,296.7v6.8
			 M436.3,296.7v6.8 M436.8,303.6h-0.6 M436.8,296.7v6.8 M439.1,296.7v6.8 M439.7,303.6h-0.6 M439.7,296.7v6.8 M441.9,296.7v6.8
			 M442.5,303.6h-0.6 M442.5,296.7v6.8 M444.8,296.7v6.8 M445.3,303.6h-0.6 M445.3,296.7v6.8 M318.9,353.2l0.3,2.9l0.9,2.8l1.5,2.6
			l2,2.2l2.4,1.7l2.7,1.2l2.9,0.6h3l2.9-0.6l2.7-1.2l2.4-1.7l2-2.2l1.5-2.6l0.9-2.8l0.3-2.9l-0.3-2.9l-0.9-2.8l-1.5-2.6l-2-2.2
			l-2.4-1.7l-2.7-1.2l-2.9-0.6h-3l-2.9,0.6l-2.7,1.2l-2.4,1.7l-2,2.2l-1.5,2.6l-0.9,2.8L318.9,353.2 M326,353.2l0.3,2.1l0.9,1.9
			l1.4,1.5l1.8,1.1l2.1,0.5l2.1-0.2l2-0.8l1.7-1.3l1.2-1.7l0.6-2v-2.1l-0.6-2l-1.2-1.7l-1.7-1.3l-2-0.8l-2.1-0.2l-2.1,0.5l-1.8,1.1
			l-1.4,1.5l-0.9,1.9L326,353.2 M520.2,339l0.3,2.9l0.9,2.8l1.5,2.6l2,2.2l2.4,1.7l2.7,1.2l2.9,0.6h3l2.9-0.6l2.7-1.2l2.4-1.7l2-2.2
			l1.5-2.6l0.9-2.8l0.3-2.9l-0.3-2.9l-0.9-2.8l-1.5-2.6l-2-2.2l-2.4-1.7l-2.7-1.2l-2.9-0.6h-3l-2.9,0.6l-2.7,1.2l-2.4,1.7l-2,2.2
			l-1.5,2.6l-0.9,2.8L520.2,339 M527.3,339l0.3,2.1l0.9,1.9l1.4,1.5l1.8,1.1l2.1,0.5l2.1-0.2l2-0.8l1.7-1.3l1.2-1.7l0.6-2v-2.1
			l-0.6-2l-1.2-1.7l-1.7-1.3l-2-0.8l-2.1-0.2l-2.1,0.5l-1.8,1.1l-1.4,1.5l-0.9,1.9L527.3,339 M160.2,296.5l-0.3-2.9l-0.9-2.8
			l-1.5-2.6l-2-2.2l-2.4-1.7l-2.7-1.2l-2.9-0.6h-3l-2.9,0.6l-2.7,1.2l-2.4,1.7l-2,2.2l-1.5,2.6l-0.9,2.8l-0.3,2.9l0.3,2.9l0.9,2.8
			l1.5,2.6l2,2.2l2.4,1.7l2.7,1.2l2.9,0.6h3l2.9-0.6l2.7-1.2l2.4-1.7l2-2.2l1.5-2.6l0.9-2.8L160.2,296.5 M153.1,296.5l-0.3-2.1
			l-0.9-1.9l-1.4-1.5l-1.8-1.1l-2.1-0.5l-2.1,0.2l-2,0.8l-1.7,1.3l-1.2,1.7l-0.6,2v2.1l0.6,2l1.2,1.7l1.7,1.3l2,0.8l2.1,0.2l2.1-0.5
			l1.8-1.1l1.4-1.5l0.9-1.9L153.1,296.5 M548.5,253.9l-0.3-2.9l-0.9-2.8l-1.5-2.6l-2-2.2l-2.4-1.7l-2.7-1.2l-2.9-0.6h-3l-2.9,0.6
			l-2.7,1.2l-2.4,1.7l-2,2.2l-1.5,2.6l-0.9,2.8l-0.3,2.9l0.3,2.9l0.9,2.8l1.5,2.6l2,2.2l2.4,1.7l2.7,1.2l2.9,0.6h3l2.9-0.6l2.7-1.2
			l2.4-1.7l2-2.2l1.5-2.6l0.9-2.8L548.5,253.9 M541.4,253.9l-0.3-2.1l-0.9-1.9l-1.4-1.5l-1.8-1.1l-2.1-0.5l-2.1,0.2l-2,0.8l-1.7,1.3
			l-1.2,1.7l-0.6,2v2.1l0.6,2l1.2,1.7l1.7,1.3l2,0.8l2.1,0.2l2.1-0.5l1.8-1.1l1.4-1.5l0.9-1.9L541.4,253.9 M347.3,239.8l-0.3-2.9
			L346,234l-1.5-2.6l-2-2.2l-2.4-1.7l-2.7-1.2l-2.9-0.6h-3l-2.9,0.6l-2.7,1.2l-2.4,1.7l-2,2.2l-1.5,2.6l-0.9,2.8l-0.3,2.9l0.3,2.9
			l0.9,2.8l1.5,2.6l2,2.2l2.4,1.7l2.7,1.2l2.9,0.6h3l2.9-0.6l2.7-1.2l2.4-1.7l2-2.2l1.5-2.6l0.9-2.8L347.3,239.8 M340.2,239.8
			l-0.3-2.1l-0.9-1.9l-1.4-1.5l-1.8-1.1l-2.1-0.5l-2.1,0.2l-2,0.8l-1.7,1.3l-1.2,1.7l-0.6,2v2.1l0.6,2l1.2,1.7l1.7,1.3l2,0.8
			l2.1,0.2l2.1-0.5l1.8-1.1l1.4-1.5l0.9-1.9L340.2,239.8"/>
	</g>
</g>
</svg>
