<?xml version="1.0" encoding="utf-8"?>
<!-- Generator: Adobe Illustrator 21.0.0, SVG Export Plug-In . SVG Version: 6.00 Build 0)  -->
<svg version="1.1" id="Calque_1" xmlns="http://www.w3.org/2000/svg" xmlns:xlink="http://www.w3.org/1999/xlink" x="0px" y="0px"
	 viewBox="0 0 841.9 595.3" style="enable-background:new 0 0 841.9 595.3;" xml:space="preserve">
<style type="text/css">
	.st0{fill:#00FFFF;}
	.st1{font-family:'CenturyGothic';}
	.st2{font-size:9.9987px;}
	
		.st3{fill:none;stroke:#00FFFF;stroke-width:0.51;stroke-linecap:round;stroke-linejoin:round;stroke-miterlimit:10;stroke-dasharray:43.2,3.6,3.6,3.6;}
	.st4{fill:none;stroke:#00FFFF;stroke-width:0.51;stroke-linecap:round;stroke-linejoin:round;stroke-miterlimit:10;}
	.st5{fill:none;stroke:#00FFFF;stroke-width:0.709;stroke-linecap:round;stroke-linejoin:round;stroke-miterlimit:10;}
</style>
<text transform="matrix(1 0 0 1.0001 624.8262 113.9381)" class="st0 st1 st2">Salomon/Atomic STH2 WTR</text>
<line class="st3" x1="235.3" y1="222.8" x2="235.3" y2="215.7"/>
<line class="st3" x1="221.1" y1="236.9" x2="214" y2="236.9"/>
<line class="st3" x1="235.3" y1="251.1" x2="235.3" y2="258.2"/>
<line class="st3" x1="249.5" y1="236.9" x2="256.5" y2="236.9"/>
<line class="st3" x1="235.3" y1="341.8" x2="235.3" y2="334.7"/>
<line class="st3" x1="221.1" y1="356" x2="214" y2="356"/>
<line class="st3" x1="235.3" y1="370.2" x2="235.3" y2="377.3"/>
<line class="st3" x1="249.5" y1="356" x2="256.5" y2="356"/>
<line class="st3" x1="320.3" y1="339" x2="320.3" y2="331.9"/>
<line class="st3" x1="306.2" y1="353.2" x2="299.1" y2="353.2"/>
<line class="st3" x1="320.3" y1="367.3" x2="320.3" y2="374.4"/>
<line class="st3" x1="334.5" y1="353.2" x2="341.6" y2="353.2"/>
<line class="st3" x1="320.3" y1="225.6" x2="320.3" y2="218.5"/>
<line class="st3" x1="306.2" y1="239.8" x2="299.1" y2="239.8"/>
<line class="st3" x1="320.3" y1="253.9" x2="320.3" y2="261"/>
<line class="st3" x1="334.5" y1="239.8" x2="341.6" y2="239.8"/>
<path class="st4" d="M320.3,239.8h7.1 M320.3,239.8v7.1 M320.3,239.8h-7.1 M320.3,239.8v-7.1 M320.3,353.2h7.1 M320.3,353.2v7.1
	 M320.3,353.2h-7.1 M320.3,353.2v-7.1 M235.3,356h7.1 M235.3,356v7.1 M235.3,356h-7.1 M235.3,356v-7.1 M235.3,236.9h7.1
	 M235.3,236.9v7.1 M235.3,236.9h-7.1 M235.3,236.9v-7.1"/>
<path class="st5" d="M354.1,289.4v6.8 M362.6,289.4h0.6 M363.1,289.4v6.8 M362.6,289.4v6.8 M362.6,296.7v6.8 M363.1,303.6h-0.6
	 M363.1,296.7v6.8 M365.4,289.4h0.6 M366,289.4v6.8 M365.4,289.4v6.8 M365.4,296.7v6.8 M366,303.6h-0.6 M366,296.7v6.8 M368.2,289.4
	h0.6 M368.8,289.4v6.8 M368.2,289.4v6.8 M368.2,296.7v6.8 M425.5,296.7v6.8 M447.6,296.7h-2.3 M447.6,296.2h-2.3 M444.8,296.7h-2.3
	 M444.8,296.2h-2.3 M441.9,296.7h-2.3 M441.9,296.2h-2.3 M439.1,296.7h-2.3 M439.1,296.2h-2.3 M436.3,296.7H434 M436.3,296.2H434
	 M433.4,296.7h-2.3 M433.4,296.2h-2.3 M430.6,296.7h-2.3 M430.6,296.2h-2.3 M427.8,296.7h-2.3 M427.8,296.2h-2.3 M424.9,296.7h-2.3
	 M424.9,296.2h-2.3 M422.1,296.7h-2.3 M422.1,296.2h-2.3 M419.3,296.7H417 M419.3,296.2H417 M416.4,296.7h-2.3 M416.4,296.2h-2.3
	 M413.6,296.7h-2.3 M413.6,296.2h-2.3 M410.7,296.7h-2.3 M410.7,296.2h-2.3 M407.9,296.7h-2.3 M407.9,296.2h-2.3 M405.1,296.7h-2.3
	 M405.1,296.2h-2.3 M402.2,296.7H400 M402.2,296.2H400 M399.4,296.7h-2.3 M399.4,296.2h-2.3 M396.6,296.7h-2.3 M396.6,296.2h-2.3
	 M393.7,296.7h-2.3 M393.7,296.2h-2.3 M390.9,296.7h-2.3 M390.9,296.2h-2.3 M388.1,296.7h-2.3 M388.1,296.2h-2.3 M385.2,296.7H383
	 M385.2,296.2H383 M382.4,296.7h-2.3 M382.4,296.2h-2.3 M379.6,296.7h-2.3 M379.6,296.2h-2.3 M376.7,296.7h-2.3 M376.7,296.2h-2.3
	 M373.9,296.7h-2.3 M373.9,296.2h-2.3 M371.1,296.7h-2.3 M371.1,296.2h-2.3 M368.2,296.7H366 M368.2,296.2H366 M365.4,296.7h-2.3
	 M365.4,296.2h-2.3 M362.6,296.7h-2.3 M362.6,296.2h-2.3 M359.7,296.7h-2.3 M359.7,296.2h-2.3 M356.9,296.7h-2.3 M356.9,296.2h-2.3
	 M354.1,296.7h-2.3 M354.1,296.2h-2.3 M351.2,296.7H349 M351.2,296.2H349 M348.4,296.7h-2.3 M348.4,296.2h-2.3 M345.6,296.7h-2.3
	 M345.6,296.2h-2.3 M342.7,296.7h-2.3 M342.7,296.2h-2.3 M339.9,296.7h-2.3 M339.9,296.2h-2.3 M337,296.7h-2.3 M337,296.2h-2.3
	 M334.2,296.7h-2.3 M334.2,296.2h-2.3 M331.4,296.7h-2.3 M331.4,296.2h-2.3 M328.5,296.7h-2.3 M328.5,296.2h-2.3 M325.7,296.7h-2.3
	 M325.7,296.2h-2.3 M322.9,296.7h-2.3 M322.9,296.2h-2.3 M320,296.7h-2.3 M320,296.2h-2.3 M317.2,296.7h-2.3 M317.2,296.2h-2.3
	 M314.4,296.7h-2.3 M314.4,296.2h-2.3 M311.5,296.7h-2.3 M311.5,296.2h-2.3 M308.7,296.7h-2.3 M308.7,296.2h-2.3 M305.9,296.7h-2.3
	 M305.9,296.2h-2.3 M303,296.7h-2.3 M303,296.2h-2.3 M300.2,296.7h-2.3 M300.2,296.2h-2.3 M297.4,296.7h-2.3 M297.4,296.2h-2.3
	 M294.5,296.7h-2.3 M294.5,296.2h-2.3 M291.7,296.7h-2.3 M291.7,296.2h-2.3 M288.9,296.7h-2.3 M288.9,296.2h-2.3 M286,296.7h-2.3
	 M286,296.2h-2.3 M283.2,296.7h-2.3 M283.2,296.2h-2.3 M280.4,296.7h-2.3 M280.4,296.2h-2.3 M447.6,296.7v6.8 M448.2,303.6h-0.6
	 M448.2,289.4v14.2 M447.6,289.4h0.6 M447.6,289.4v6.8 M445.3,289.4v6.8 M444.8,289.4h0.6 M444.8,289.4v6.8 M442.5,289.4v6.8
	 M441.9,289.4h0.6 M441.9,289.4v6.8 M439.7,289.4v6.8 M439.1,289.4h0.6 M439.1,289.4v6.8 M436.8,289.4v6.8 M436.3,289.4h0.6
	 M436.3,289.4v6.8 M434,289.4v6.8 M433.4,289.4h0.6 M433.4,289.4v6.8 M431.2,289.4v6.8 M430.6,289.4h0.6 M430.6,289.4v6.8
	 M428.3,289.4v6.8 M427.8,289.4h0.6 M427.8,289.4v6.8 M425.5,289.4v6.8 M424.9,289.4h0.6 M424.9,289.4v6.8 M422.7,289.4v6.8
	 M422.1,289.4h0.6 M422.1,289.4v6.8 M419.8,289.4v6.8 M419.3,289.4h0.6 M419.3,289.4v6.8 M417,289.4v6.8 M416.4,289.4h0.6
	 M416.4,289.4v6.8 M414.2,289.4v6.8 M413.6,289.4h0.6 M413.6,289.4v6.8 M411.3,289.4v6.8 M410.7,289.4h0.6 M410.7,289.4v6.8
	 M408.5,289.4v6.8 M407.9,289.4h0.6 M407.9,289.4v6.8 M405.6,289.4v6.8 M405.1,289.4h0.6 M405.1,289.4v6.8 M402.8,289.4v6.8
	 M402.2,289.4h0.6 M402.2,289.4v6.8 M400,289.4v6.8 M399.4,289.4h0.6 M399.4,289.4v6.8 M397.1,289.4v6.8 M396.6,289.4h0.6
	 M396.6,289.4v6.8 M394.3,289.4v6.8 M393.7,289.4h0.6 M393.7,289.4v6.8 M391.5,289.4v6.8 M390.9,289.4h0.6 M390.9,289.4v6.8
	 M388.6,289.4v6.8 M388.1,289.4h0.6 M388.1,289.4v6.8 M385.8,289.4v6.8 M385.2,289.4h0.6 M385.2,289.4v6.8 M383,289.4v6.8
	 M382.4,289.4h0.6 M382.4,289.4v6.8 M380.1,289.4v6.8 M379.6,289.4h0.6 M379.6,289.4v6.8 M377.3,289.4v6.8 M376.7,289.4h0.6
	 M376.7,289.4v6.8 M374.5,289.4v6.8 M373.9,289.4h0.6 M373.9,289.4v6.8 M371.6,289.4v6.8 M371.1,289.4h0.6 M371.1,289.4v6.8
	 M360.3,289.4v6.8 M359.7,289.4h0.6 M359.7,289.4v6.8 M357.5,289.4v6.8 M356.9,289.4h0.6 M356.9,289.4v6.8 M354.6,289.4v6.8
	 M354.1,289.4h0.6 M351.8,289.4v6.8 M351.2,289.4h0.6 M351.2,289.4v6.8 M349,289.4v6.8 M348.4,289.4h0.6 M348.4,289.4v6.8
	 M346.1,289.4v6.8 M345.6,289.4h0.6 M345.6,289.4v6.8 M343.3,289.4v6.8 M342.7,289.4h0.6 M342.7,289.4v6.8 M340.4,289.4v6.8
	 M339.9,289.4h0.6 M339.9,289.4v6.8 M337.6,289.4v6.8 M337,289.4h0.6 M337,289.4v6.8 M334.8,289.4v6.8 M334.2,289.4h0.6
	 M334.2,289.4v6.8 M331.9,289.4v6.8 M331.4,289.4h0.6 M331.4,289.4v6.8 M329.1,289.4v6.8 M328.5,289.4h0.6 M328.5,289.4v6.8
	 M326.3,289.4v6.8 M325.7,289.4h0.6 M325.7,289.4v6.8 M323.4,289.4v6.8 M322.9,289.4h0.6 M322.9,289.4v6.8 M320.6,289.4v6.8
	 M320,289.4h0.6 M320,289.4v6.8 M317.8,289.4v6.8 M317.2,289.4h0.6 M317.2,289.4v6.8 M314.9,289.4v6.8 M314.4,289.4h0.6
	 M314.4,289.4v6.8 M312.1,289.4v6.8 M311.5,289.4h0.6 M311.5,289.4v6.8 M309.3,289.4v6.8 M308.7,289.4h0.6 M308.7,289.4v6.8
	 M306.4,289.4v6.8 M305.9,289.4h0.6 M305.9,289.4v6.8 M303.6,289.4v6.8 M303,289.4h0.6 M303,289.4v6.8 M300.8,289.4v6.8
	 M300.2,289.4h0.6 M300.2,289.4v6.8 M297.9,289.4v6.8 M297.4,289.4h0.6 M297.4,289.4v6.8 M295.1,289.4v6.8 M294.5,289.4h0.6
	 M294.5,289.4v6.8 M292.3,289.4v6.8 M291.7,289.4h0.6 M291.7,289.4v6.8 M289.4,289.4v6.8 M288.9,289.4h0.6 M288.9,289.4v6.8
	 M286.6,289.4v6.8 M286,289.4h0.6 M286,289.4v6.8 M283.8,289.4v6.8 M283.2,289.4h0.6 M283.2,289.4v6.8 M280.9,289.4v6.8
	 M280.4,289.4h0.6 M280.4,289.4v6.8 M278.1,282.3v13.9 M277.5,282.3h0.6 M277.5,282.3v28.3 M278.1,310.6h-0.6 M278.1,296.7v13.9
	 M280.4,296.7v6.8 M280.9,303.6h-0.6 M280.9,296.7v6.8 M283.2,296.7v6.8 M283.8,303.6h-0.6 M283.8,296.7v6.8 M286,296.7v6.8
	 M286.6,303.6H286 M286.6,296.7v6.8 M288.9,296.7v6.8 M289.4,303.6h-0.6 M289.4,296.7v6.8 M291.7,296.7v6.8 M292.3,303.6h-0.6
	 M292.3,296.7v6.8 M294.5,296.7v6.8 M295.1,303.6h-0.6 M295.1,296.7v6.8 M297.4,296.7v6.8 M297.9,303.6h-0.6 M297.9,296.7v6.8
	 M300.2,296.7v6.8 M300.8,303.6h-0.6 M300.8,296.7v6.8 M303,296.7v6.8 M303.6,303.6H303 M303.6,296.7v6.8 M305.9,296.7v6.8
	 M306.4,303.6h-0.6 M306.4,296.7v6.8 M308.7,296.7v6.8 M309.3,303.6h-0.6 M309.3,296.7v6.8 M311.5,296.7v6.8 M312.1,303.6h-0.6
	 M312.1,296.7v6.8 M314.4,296.7v6.8 M314.9,303.6h-0.6 M314.9,296.7v6.8 M317.2,296.7v6.8 M317.8,303.6h-0.6 M317.8,296.7v6.8
	 M320,296.7v6.8 M320.6,303.6H320 M320.6,296.7v6.8 M322.9,296.7v6.8 M323.4,303.6h-0.6 M323.4,296.7v6.8 M325.7,296.7v6.8
	 M326.3,303.6h-0.6 M326.3,296.7v6.8 M328.5,296.7v6.8 M329.1,303.6h-0.6 M329.1,296.7v6.8 M331.4,296.7v6.8 M331.9,303.6h-0.6
	 M331.9,296.7v6.8 M334.2,296.7v6.8 M334.8,303.6h-0.6 M334.8,296.7v6.8 M337,296.7v6.8 M337.6,303.6H337 M337.6,296.7v6.8
	 M339.9,296.7v6.8 M340.4,303.6h-0.6 M340.4,296.7v6.8 M342.7,296.7v6.8 M343.3,303.6h-0.6 M343.3,296.7v6.8 M345.6,296.7v6.8
	 M346.1,303.6h-0.6 M346.1,296.7v6.8 M348.4,296.7v6.8 M349,303.6h-0.6 M349,296.7v6.8 M351.2,296.7v6.8 M351.8,303.6h-0.6
	 M351.8,296.7v6.8 M354.1,296.7v6.8 M354.6,303.6h-0.6 M354.6,296.7v6.8 M356.9,296.7v6.8 M357.5,303.6h-0.6 M357.5,296.7v6.8
	 M359.7,296.7v6.8 M360.3,303.6h-0.6 M360.3,296.7v6.8 M368.8,303.6h-0.6 M368.8,296.7v6.8 M371.1,296.7v6.8 M371.6,303.6h-0.6
	 M371.6,296.7v6.8 M373.9,296.7v6.8 M374.5,303.6h-0.6 M374.5,296.7v6.8 M376.7,296.7v6.8 M377.3,303.6h-0.6 M377.3,296.7v6.8
	 M379.6,296.7v6.8 M380.1,303.6h-0.6 M380.1,296.7v6.8 M382.4,296.7v6.8 M383,303.6h-0.6 M383,296.7v6.8 M385.2,296.7v6.8
	 M385.8,303.6h-0.6 M385.8,296.7v6.8 M388.1,296.7v6.8 M388.6,303.6h-0.6 M388.6,296.7v6.8 M390.9,296.7v6.8 M391.5,303.6h-0.6
	 M391.5,296.7v6.8 M393.7,296.7v6.8 M394.3,303.6h-0.6 M394.3,296.7v6.8 M396.6,296.7v6.8 M397.1,303.6h-0.6 M397.1,296.7v6.8
	 M399.4,296.7v6.8 M400,303.6h-0.6 M400,296.7v6.8 M402.2,296.7v6.8 M402.8,303.6h-0.6 M402.8,296.7v6.8 M405.1,296.7v6.8
	 M405.6,303.6h-0.6 M405.6,296.7v6.8 M407.9,296.7v6.8 M408.5,303.6h-0.6 M408.5,296.7v6.8 M410.7,296.7v6.8 M411.3,303.6h-0.6
	 M411.3,296.7v6.8 M413.6,296.7v6.8 M414.2,303.6h-0.6 M414.2,296.7v6.8 M416.4,296.7v6.8 M417,303.6h-0.6 M417,296.7v6.8
	 M419.3,296.7v6.8 M419.8,303.6h-0.6 M419.8,296.7v6.8 M422.1,296.7v6.8 M422.7,303.6h-0.6 M422.7,296.7v6.8 M424.9,296.7v6.8
	 M425.5,303.6h-0.6 M427.8,296.7v6.8 M428.3,303.6h-0.6 M428.3,296.7v6.8 M430.6,296.7v6.8 M431.2,303.6h-0.6 M431.2,296.7v6.8
	 M433.4,296.7v6.8 M434,303.6h-0.6 M434,296.7v6.8 M436.3,296.7v6.8 M436.8,303.6h-0.6 M436.8,296.7v6.8 M439.1,296.7v6.8
	 M439.7,303.6h-0.6 M439.7,296.7v6.8 M441.9,296.7v6.8 M442.5,303.6h-0.6 M442.5,296.7v6.8 M444.8,296.7v6.8 M445.3,303.6h-0.6
	 M445.3,296.7v6.8 M221.1,356l0.3,2.9l0.9,2.8l1.5,2.6l2,2.2l2.4,1.7l2.7,1.2l2.9,0.6h3l2.9-0.6l2.7-1.2l2.4-1.7l2-2.2l1.5-2.6
	l0.9-2.8l0.3-2.9l-0.3-2.9l-0.9-2.8l-1.5-2.6l-2-2.2l-2.4-1.7l-2.7-1.2l-2.9-0.6h-3l-2.9,0.6l-2.7,1.2l-2.4,1.7l-2,2.2l-1.5,2.6
	l-0.9,2.8L221.1,356 M228.2,356l0.3,2.1l0.9,1.9l1.4,1.5l1.8,1.1l2.1,0.5l2.1-0.2l2-0.8l1.7-1.3l1.2-1.7l0.6-2v-2.1l-0.6-2l-1.2-1.7
	l-1.7-1.3l-2-0.8l-2.1-0.2l-2.1,0.5l-1.8,1.1l-1.4,1.5l-0.9,1.9L228.2,356 M306.2,353.2l0.3,2.9l0.9,2.8l1.5,2.6l2,2.2l2.4,1.7
	l2.7,1.2l2.9,0.6h3l2.9-0.6l2.7-1.2l2.4-1.7l2-2.2l1.5-2.6l0.9-2.8l0.3-2.9l-0.3-2.9l-0.9-2.8l-1.5-2.6l-2-2.2l-2.4-1.7l-2.7-1.2
	l-2.9-0.6h-3l-2.9,0.6l-2.7,1.2l-2.4,1.7l-2,2.2l-1.5,2.6l-0.9,2.8L306.2,353.2 M313.2,353.2l0.3,2.1l0.9,1.9l1.4,1.5l1.8,1.1
	l2.1,0.5l2.1-0.2l2-0.8l1.7-1.3l1.2-1.7l0.6-2v-2.1l-0.6-2l-1.2-1.7l-1.7-1.3l-2-0.8l-2.1-0.2l-2.1,0.5l-1.8,1.1l-1.4,1.5l-0.9,1.9
	L313.2,353.2 M327.4,239.8l-0.3-2.1l-0.9-1.9l-1.4-1.5l-1.8-1.1l-2.1-0.5l-2.1,0.2l-2,0.8l-1.7,1.3l-1.2,1.7l-0.6,2v2.1l0.6,2
	l1.2,1.7l1.7,1.3l2,0.8l2.1,0.2l2.1-0.5l1.8-1.1l1.4-1.5l0.9-1.9L327.4,239.8 M334.5,239.8l-0.3-2.9l-0.9-2.8l-1.5-2.6l-2-2.2
	l-2.4-1.7l-2.7-1.2l-2.9-0.6h-3l-2.9,0.6l-2.7,1.2l-2.4,1.7l-2,2.2l-1.5,2.6l-0.9,2.8l-0.3,2.9l0.3,2.9l0.9,2.8l1.5,2.6l2,2.2
	l2.4,1.7l2.7,1.2l2.9,0.6h3l2.9-0.6l2.7-1.2l2.4-1.7l2-2.2l1.5-2.6l0.9-2.8L334.5,239.8 M249.5,236.9l-0.3-2.9l-0.9-2.8l-1.5-2.6
	l-2-2.2l-2.4-1.7l-2.7-1.2l-2.9-0.6h-3l-2.9,0.6l-2.7,1.2l-2.4,1.7l-2,2.2l-1.5,2.6l-0.9,2.8l-0.3,2.9l0.3,2.9l0.9,2.8l1.5,2.6
	l2,2.2l2.4,1.7l2.7,1.2l2.9,0.6h3l2.9-0.6l2.7-1.2l2.4-1.7l2-2.2l1.5-2.6l0.9-2.8L249.5,236.9 M242.4,236.9l-0.3-2.1l-0.9-1.9
	l-1.4-1.5l-1.8-1.1l-2.1-0.5l-2.1,0.2l-2,0.8l-1.7,1.3l-1.2,1.7l-0.6,2v2.1l0.6,2l1.2,1.7l1.7,1.3l2,0.8l2.1,0.2l2.1-0.5l1.8-1.1
	l1.4-1.5l0.9-1.9L242.4,236.9"/>
</svg>
