<?xml version="1.0" encoding="utf-8"?>
<!-- Generator: Adobe Illustrator 21.0.0, SVG Export Plug-In . SVG Version: 6.00 Build 0)  -->
<svg version="1.1" id="Calque_1" xmlns="http://www.w3.org/2000/svg" xmlns:xlink="http://www.w3.org/1999/xlink" x="0px" y="0px"
	 viewBox="0 0 841.9 595.3" style="enable-background:new 0 0 841.9 595.3;" xml:space="preserve">
<style type="text/css">
	.st0{fill:#0080FF;}
	.st1{font-family:'CenturyGothic';}
	.st2{font-size:10px;}
	
		.st3{fill:none;stroke:#0080FF;stroke-width:0.51;stroke-linecap:round;stroke-linejoin:round;stroke-miterlimit:10;stroke-dasharray:43.2,3.6,3.6,3.6;}
	.st4{fill:none;stroke:#0080FF;stroke-width:0.51;stroke-linecap:round;stroke-linejoin:round;stroke-miterlimit:10;}
	.st5{fill:none;stroke:#0080FF;stroke-width:0.709;stroke-linecap:round;stroke-linejoin:round;stroke-miterlimit:10;}
	
		.st6{fill:none;stroke:#0080FF;stroke-width:0.51;stroke-linecap:round;stroke-linejoin:round;stroke-miterlimit:10;stroke-dasharray:3.6,1.8;stroke-dashoffset:1;}
	
		.st7{fill:none;stroke:#0080FF;stroke-width:0.51;stroke-linecap:round;stroke-linejoin:round;stroke-miterlimit:10;stroke-dasharray:3.6,1.8;}
</style>
<text transform="matrix(1.0001 0 0 1 494.79 113.9381)" class="st0 st1 st2">Tyrolia/Head : Peak/Mojo/Freeflex/Attack/Attack2/LD</text>
<line class="st3" x1="150.2" y1="225.6" x2="150.2" y2="218.5"/>
<line class="st3" x1="136.1" y1="239.8" x2="129" y2="239.8"/>
<line class="st3" x1="150.2" y1="253.9" x2="150.2" y2="261"/>
<line class="st3" x1="164.4" y1="239.8" x2="171.5" y2="239.8"/>
<line class="st3" x1="306.2" y1="225.6" x2="306.2" y2="218.5"/>
<line class="st3" x1="292" y1="239.8" x2="284.9" y2="239.8"/>
<line class="st3" x1="306.2" y1="253.9" x2="306.2" y2="261"/>
<line class="st3" x1="320.3" y1="239.8" x2="327.4" y2="239.8"/>
<line class="st3" x1="306.2" y1="339" x2="306.2" y2="331.9"/>
<line class="st3" x1="292" y1="353.2" x2="284.9" y2="353.2"/>
<line class="st3" x1="306.2" y1="367.3" x2="306.2" y2="374.4"/>
<line class="st3" x1="320.3" y1="353.2" x2="327.4" y2="353.2"/>
<line class="st3" x1="150.2" y1="339" x2="150.2" y2="331.9"/>
<line class="st3" x1="136.1" y1="353.2" x2="129" y2="353.2"/>
<line class="st3" x1="150.2" y1="367.3" x2="150.2" y2="374.4"/>
<line class="st3" x1="164.4" y1="353.2" x2="171.5" y2="353.2"/>
<path class="st4" d="M150.2,353.2h7.1 M150.2,353.2v7.1 M150.2,353.2h-7.1 M150.2,353.2v-7.1 M306.1,353.2h7.1 M306.1,353.2v7.1
	 M306.1,353.2h-7.1 M306.1,353.2v-7.1 M306.1,239.8h7.1 M306.1,239.8v7.1 M306.1,239.8h-7.1 M306.1,239.8v-7.1 M150.2,239.8h7.1
	 M150.2,239.8v7.1 M150.2,239.8h-7.1 M150.2,239.8v-7.1"/>
<path class="st5" d="M286,289.4v6.8 M286.6,289.4v6.8 M286,296.7v6.8 M286.6,303.6H286 M286.6,296.7v6.8 M288.9,289.4h0.6
	 M288.9,289.4v6.8 M289.4,289.4v6.8 M288.9,296.7v6.8 M289.4,303.6h-0.6 M289.4,296.7v6.8 M291.7,289.4h0.6 M291.7,289.4v6.8
	 M292.3,289.4v6.8 M291.7,296.7v6.8 M292.3,303.6h-0.6 M351.2,289.4h0.6 M365.4,289.4v6.8 M365.4,296.7v6.8 M366,303.6h-0.6
	 M366,296.7v6.8 M368.2,289.4h0.6 M368.8,289.4v6.8 M368.2,289.4v6.8 M368.2,296.7v6.8 M368.8,303.6h-0.6 M368.8,296.7v6.8
	 M371.1,289.4h0.6 M371.6,289.4v6.8 M371.1,289.4v6.8 M371.1,296.7v6.8 M371.6,303.6h-0.6 M371.6,296.7v6.8 M373.9,289.4h0.6
	 M374.5,289.4v6.8 M373.9,289.4v6.8 M373.9,296.7v6.8 M374.5,303.6h-0.6 M374.5,296.7v6.8 M376.7,289.4h0.6 M377.3,289.4v6.8
	 M376.7,289.4v6.8 M376.7,296.7v6.8 M377.3,303.6h-0.6 M377.3,296.7v6.8 M379.6,289.4h0.6 M380.1,289.4v6.8 M379.6,289.4v6.8
	 M379.6,296.7v6.8 M436.8,296.7v6.8 M390.9,296.7h-2.3 M359.7,296.2h-2.3 M356.9,296.7h-2.3 M356.9,296.2h-2.3 M354.1,296.7h-2.3
	 M354.1,296.2h-2.3 M351.2,296.7H349 M351.2,296.2H349 M348.4,296.7h-2.3 M348.4,296.2h-2.3 M345.6,296.7h-2.3 M345.6,296.2h-2.3
	 M342.7,296.7h-2.3 M342.7,296.2h-2.3 M339.9,296.7h-2.3 M339.9,296.2h-2.3 M337,296.7h-2.3 M314.4,289.4v6.8 M320.6,296.7v6.8
	 M322.9,289.4h0.6 M323.4,289.4v6.8 M322.9,289.4v6.8 M322.9,296.7v6.8 M323.4,303.6h-0.6 M323.4,296.7v6.8 M325.7,289.4h0.6
	 M326.3,289.4v6.8 M325.7,289.4v6.8 M325.7,296.7v6.8 M326.3,303.6h-0.6 M326.3,296.7v6.8 M328.5,289.4h0.6 M329.1,289.4v6.8
	 M328.5,289.4v6.8 M328.5,296.7v6.8 M329.1,303.6h-0.6 M329.1,296.7v6.8 M331.4,289.4h0.6 M331.9,289.4v6.8 M331.4,289.4v6.8
	 M331.4,296.7v6.8 M331.9,303.6h-0.6 M331.9,296.7v6.8 M334.2,289.4h0.6 M334.8,289.4v6.8 M334.2,289.4v6.8 M334.2,296.7v6.8
	 M334.8,303.6h-0.6 M334.8,296.7v6.8 M337,289.4h0.6 M393.7,289.4v6.8 M410.7,289.4v6.8 M410.7,296.7v6.8 M411.3,303.6h-0.6
	 M411.3,296.7v6.8 M413.6,289.4h0.6 M414.2,289.4v6.8 M413.6,289.4v6.8 M413.6,296.7v6.8 M414.2,303.6h-0.6 M414.2,296.7v6.8
	 M416.4,289.4h0.6 M417,289.4v6.8 M416.4,289.4v6.8 M416.4,296.7v6.8 M417,303.6h-0.6 M417,296.7v6.8 M419.3,289.4h0.6 M419.8,289.4
	v6.8 M419.3,289.4v6.8 M419.3,296.7v6.8 M331.4,296.7h-2.3 M305.9,296.2h-2.3 M303,296.7h-2.3 M303,296.2h-2.3 M300.2,296.7h-2.3
	 M300.2,296.2h-2.3 M297.4,296.7h-2.3 M297.4,296.2h-2.3 M294.5,296.7h-2.3 M294.5,296.2h-2.3 M291.7,296.7h-2.3 M291.7,296.2h-2.3
	 M288.9,296.7h-2.3 M288.9,296.2h-2.3 M286,296.7h-2.3 M286,296.2h-2.3 M283.2,296.7h-2.3 M295.1,303.6h-0.6 M303.6,289.4v6.8
	 M303,296.7v6.8 M303.6,303.6H303 M303.6,296.7v6.8 M305.9,289.4h0.6 M305.9,289.4v6.8 M306.4,289.4v6.8 M305.9,296.7v6.8
	 M306.4,303.6h-0.6 M306.4,296.7v6.8 M308.7,289.4h0.6 M308.7,289.4v6.8 M309.3,289.4v6.8 M308.7,296.7v6.8 M309.3,303.6h-0.6
	 M309.3,296.7v6.8 M439.1,296.7h-2.3 M346.1,296.7v6.8 M348.4,289.4h0.6 M349,289.4v6.8 M348.4,289.4v6.8 M348.4,296.7v6.8
	 M349,303.6h-0.6 M349,296.7v6.8 M385.2,296.2H383 M351.8,289.4v6.8 M351.2,289.4v6.8 M351.2,296.7v6.8 M351.8,303.6h-0.6
	 M351.8,296.7v6.8 M354.1,289.4h0.6 M354.6,289.4v6.8 M354.1,289.4v6.8 M391.5,289.4v6.8 M390.9,289.4v6.8 M390.9,296.7v6.8
	 M391.5,303.6h-0.6 M391.5,296.7v6.8 M393.7,289.4h0.6 M394.3,289.4v6.8 M283.8,303.6h-0.6 M393.7,296.7v6.8 M394.3,303.6h-0.6
	 M394.3,296.7v6.8 M396.6,289.4h0.6 M397.1,289.4v6.8 M396.6,289.4v6.8 M396.6,296.7v6.8 M397.1,303.6h-0.6 M397.1,296.7v6.8
	 M399.4,289.4h0.6 M400,289.4v6.8 M399.4,289.4v6.8 M303,289.4h0.6 M334.2,296.2h-2.3 M430.6,289.4v6.8 M430.6,296.7v6.8
	 M431.2,303.6h-0.6 M431.2,296.7v6.8 M433.4,289.4h0.6 M434,289.4v6.8 M433.4,289.4v6.8 M433.4,296.7v6.8 M434,303.6h-0.6
	 M434,296.7v6.8 M436.3,289.4h0.6 M436.8,289.4v6.8 M436.3,289.4v6.8 M436.3,296.7v6.8 M436.8,303.6h-0.6 M382.4,289.4v6.8
	 M447.6,296.7h-2.3 M447.6,296.2h-2.3 M444.8,296.7h-2.3 M444.8,296.2h-2.3 M441.9,296.7h-2.3 M441.9,296.2h-2.3 M439.7,296.7v6.8
	 M439.1,296.2h-2.3 M436.3,296.7H434 M436.3,296.2H434 M433.4,296.7h-2.3 M433.4,296.2h-2.3 M430.6,296.7h-2.3 M430.6,296.2h-2.3
	 M427.8,296.7h-2.3 M427.8,296.2h-2.3 M424.9,296.7h-2.3 M424.9,296.2h-2.3 M422.1,296.7h-2.3 M422.1,296.2h-2.3 M419.3,296.7H417
	 M419.3,296.2H417 M416.4,296.7h-2.3 M416.4,296.2h-2.3 M413.6,296.7h-2.3 M413.6,296.2h-2.3 M410.7,296.7h-2.3 M410.7,296.2h-2.3
	 M407.9,296.7h-2.3 M407.9,296.2h-2.3 M405.1,296.7h-2.3 M405.1,296.2h-2.3 M402.2,296.7H400 M402.2,296.2H400 M399.4,296.7h-2.3
	 M399.4,296.2h-2.3 M396.6,296.7h-2.3 M396.6,296.2h-2.3 M393.7,296.7h-2.3 M393.7,296.2h-2.3 M402.8,289.4v6.8 M390.9,296.2h-2.3
	 M388.1,296.7h-2.3 M388.1,296.2h-2.3 M385.2,296.7H383 M294.5,296.7v6.8 M382.4,296.7h-2.3 M382.4,296.2h-2.3 M379.6,296.7h-2.3
	 M379.6,296.2h-2.3 M376.7,296.7h-2.3 M376.7,296.2h-2.3 M373.9,296.7h-2.3 M373.9,296.2h-2.3 M371.1,296.7h-2.3 M371.1,296.2h-2.3
	 M368.2,296.7H366 M368.2,296.2H366 M365.4,296.7h-2.3 M365.4,296.2h-2.3 M362.6,296.7h-2.3 M362.6,296.2h-2.3 M359.7,296.7h-2.3
	 M357.5,296.7v6.8 M359.7,289.4h0.6 M360.3,289.4v6.8 M359.7,289.4v6.8 M359.7,296.7v6.8 M360.3,303.6h-0.6 M360.3,296.7v6.8
	 M362.6,289.4h0.6 M363.1,289.4v6.8 M362.6,289.4v6.8 M362.6,296.7v6.8 M363.1,303.6h-0.6 M363.1,296.7v6.8 M365.4,289.4h0.6
	 M366,289.4v6.8 M311.5,289.4h0.6 M337,296.2h-2.3 M334.2,296.7h-2.3 M311.5,296.7v6.8 M312.1,303.6h-0.6 M331.4,296.2h-2.3
	 M328.5,296.7h-2.3 M328.5,296.2h-2.3 M325.7,296.7h-2.3 M325.7,296.2h-2.3 M322.9,296.7h-2.3 M322.9,296.2h-2.3 M320,296.7h-2.3
	 M320,296.2h-2.3 M317.2,296.7h-2.3 M317.2,296.2h-2.3 M314.4,296.7h-2.3 M314.4,296.2h-2.3 M311.5,296.7h-2.3 M311.5,296.2h-2.3
	 M308.7,296.7h-2.3 M308.7,296.2h-2.3 M305.9,296.7h-2.3 M431.2,289.4v6.8 M295.1,289.4v6.8 M402.8,296.7v6.8 M405.6,289.4v6.8
	 M295.1,296.7v6.8 M297.4,289.4h0.6 M297.4,289.4v6.8 M297.9,289.4v6.8 M297.4,296.7v6.8 M380.1,303.6h-0.6 M380.1,296.7v6.8
	 M382.4,289.4h0.6 M383,289.4v6.8 M300.8,289.4v6.8 M382.4,296.7v6.8 M383,303.6h-0.6 M283.2,296.2h-2.3 M280.4,296.7h-2.3
	 M280.4,296.2h-2.3 M447.6,296.7v6.8 M448.2,303.6h-0.6 M448.2,289.4v14.2 M447.6,289.4h0.6 M447.6,289.4v6.8 M445.3,289.4v6.8
	 M444.8,289.4h0.6 M444.8,289.4v6.8 M442.5,289.4v6.8 M441.9,289.4h0.6 M441.9,289.4v6.8 M439.7,289.4v6.8 M439.1,289.4h0.6
	 M439.1,289.4v6.8 M430.6,289.4h0.6 M428.3,289.4v6.8 M427.8,289.4h0.6 M427.8,289.4v6.8 M425.5,289.4v6.8 M424.9,289.4h0.6
	 M424.9,289.4v6.8 M422.7,289.4v6.8 M422.1,289.4h0.6 M422.1,289.4v6.8 M411.3,289.4v6.8 M410.7,289.4h0.6 M408.5,289.4v6.8
	 M407.9,289.4h0.6 M407.9,289.4v6.8 M405.1,289.4h0.6 M405.1,289.4v6.8 M402.2,289.4h0.6 M402.2,289.4v6.8 M390.9,289.4h0.6
	 M388.6,289.4v6.8 M388.1,289.4h0.6 M388.1,289.4v6.8 M385.8,289.4v6.8 M385.2,289.4h0.6 M385.2,289.4v6.8 M357.5,289.4v6.8
	 M356.9,289.4h0.6 M356.9,289.4v6.8 M346.1,289.4v6.8 M345.6,289.4h0.6 M345.6,289.4v6.8 M343.3,289.4v6.8 M342.7,289.4h0.6
	 M342.7,289.4v6.8 M340.4,289.4v6.8 M339.9,289.4h0.6 M339.9,289.4v6.8 M337.6,289.4v6.8 M337,289.4v6.8 M320.6,289.4v6.8
	 M320,289.4h0.6 M320,289.4v6.8 M317.8,289.4v6.8 M317.2,289.4h0.6 M317.2,289.4v6.8 M314.9,289.4v6.8 M314.4,289.4h0.6
	 M312.1,289.4v6.8 M311.5,289.4v6.8 M303,289.4v6.8 M300.2,289.4h0.6 M300.2,289.4v6.8 M294.5,289.4h0.6 M294.5,289.4v6.8
	 M286,289.4h0.6 M283.8,289.4v6.8 M283.2,289.4h0.6 M283.2,289.4v6.8 M280.9,289.4v6.8 M280.4,289.4h0.6 M280.4,289.4v6.8
	 M278.1,282.3v13.9 M277.5,282.3h0.6 M277.5,282.3v28.3 M278.1,310.6h-0.6 M278.1,296.7v13.9 M280.4,296.7v6.8 M280.9,303.6h-0.6
	 M280.9,296.7v6.8 M283.2,296.7v6.8 M283.8,296.7v6.8 M292.3,296.7v6.8 M297.9,303.6h-0.6 M297.9,296.7v6.8 M300.2,296.7v6.8
	 M300.8,303.6h-0.6 M300.8,296.7v6.8 M312.1,296.7v6.8 M314.4,296.7v6.8 M314.9,303.6h-0.6 M314.9,296.7v6.8 M317.2,296.7v6.8
	 M317.8,303.6h-0.6 M317.8,296.7v6.8 M320,296.7v6.8 M320.6,303.6H320 M337,296.7v6.8 M337.6,303.6H337 M337.6,296.7v6.8
	 M339.9,296.7v6.8 M340.4,303.6h-0.6 M340.4,296.7v6.8 M342.7,296.7v6.8 M343.3,303.6h-0.6 M343.3,296.7v6.8 M345.6,296.7v6.8
	 M346.1,303.6h-0.6 M354.1,296.7v6.8 M354.6,303.6h-0.6 M354.6,296.7v6.8 M356.9,296.7v6.8 M357.5,303.6h-0.6 M383,296.7v6.8
	 M385.2,296.7v6.8 M385.8,303.6h-0.6 M385.8,296.7v6.8 M388.1,296.7v6.8 M388.6,303.6h-0.6 M388.6,296.7v6.8 M399.4,296.7v6.8
	 M400,303.6h-0.6 M400,296.7v6.8 M402.2,296.7v6.8 M402.8,303.6h-0.6 M405.1,296.7v6.8 M405.6,303.6h-0.6 M405.6,296.7v6.8
	 M407.9,296.7v6.8 M408.5,303.6h-0.6 M408.5,296.7v6.8 M419.8,303.6h-0.6 M419.8,296.7v6.8 M422.1,296.7v6.8 M422.7,303.6h-0.6
	 M422.7,296.7v6.8 M424.9,296.7v6.8 M425.5,303.6h-0.6 M425.5,296.7v6.8 M427.8,296.7v6.8 M428.3,303.6h-0.6 M428.3,296.7v6.8
	 M439.1,296.7v6.8 M439.7,303.6h-0.6 M441.9,296.7v6.8 M442.5,303.6h-0.6 M442.5,296.7v6.8 M444.8,296.7v6.8 M445.3,303.6h-0.6
	 M445.3,296.7v6.8 M143.2,353.2l0.3,2.1l0.9,1.9l1.4,1.5l1.8,1.1l2.1,0.5l2.1-0.2l2-0.8l1.7-1.3l1.2-1.7l0.6-2v-2.1l-0.6-2l-1.2-1.7
	l-1.7-1.3l-2-0.8l-2.1-0.2l-2.1,0.5l-1.8,1.1l-1.4,1.5l-0.9,1.9L143.2,353.2 M136.1,353.2l0.3,2.9l0.9,2.8l1.5,2.6l2,2.2l2.4,1.7
	l2.7,1.2l2.9,0.6h3l2.9-0.6l2.7-1.2l2.4-1.7l2-2.2l1.5-2.6l0.9-2.8l0.3-2.9l-0.3-2.9l-0.9-2.8l-1.5-2.6l-2-2.2l-2.4-1.7l-2.7-1.2
	l-2.9-0.6h-3l-2.9,0.6l-2.7,1.2l-2.4,1.7l-2,2.2l-1.5,2.6l-0.9,2.8L136.1,353.2 M292,353.2l0.3,2.9l0.9,2.8l1.5,2.6l2,2.2l2.4,1.7
	l2.7,1.2l2.9,0.6h3l2.9-0.6l2.7-1.2l2.4-1.7l2-2.2l1.5-2.6l0.9-2.8l0.3-2.9l-0.3-2.9l-0.9-2.8l-1.5-2.6l-2-2.2l-2.4-1.7l-2.7-1.2
	l-2.9-0.6h-3l-2.9,0.6l-2.7,1.2l-2.4,1.7l-2,2.2l-1.5,2.6l-0.9,2.8L292,353.2 M299.1,353.2l0.3,2.1l0.9,1.9l1.4,1.5l1.8,1.1l2.1,0.5
	l2.1-0.2l2-0.8l1.7-1.3l1.2-1.7l0.6-2v-2.1l-0.6-2l-1.2-1.7l-1.7-1.3l-2-0.8l-2.1-0.2l-2.1,0.5l-1.8,1.1l-1.4,1.5l-0.9,1.9
	L299.1,353.2 M320.3,239.8l-0.3-2.9l-0.9-2.8l-1.5-2.6l-2-2.2l-2.4-1.7l-2.7-1.2l-2.9-0.6h-3l-2.9,0.6l-2.7,1.2l-2.4,1.7l-2,2.2
	l-1.5,2.6l-0.9,2.8l-0.3,2.9l0.3,2.9l0.9,2.8l1.5,2.6l2,2.2l2.4,1.7l2.7,1.2l2.9,0.6h3l2.9-0.6l2.7-1.2l2.4-1.7l2-2.2l1.5-2.6
	l0.9-2.8L320.3,239.8 M313.2,239.8l-0.3-2.1l-0.9-1.9l-1.4-1.5l-1.8-1.1l-2.1-0.5l-2.1,0.2l-2,0.8L301,235l-1.2,1.7l-0.6,2v2.1
	l0.6,2l1.2,1.7l1.7,1.3l2,0.8l2.1,0.2l2.1-0.5l1.8-1.1l1.4-1.5l0.9-1.9L313.2,239.8 M164.4,239.8l-0.3-2.9l-0.9-2.8l-1.5-2.6l-2-2.2
	l-2.4-1.7l-2.7-1.2l-2.9-0.6h-3l-2.9,0.6l-2.7,1.2l-2.4,1.7l-2,2.2l-1.5,2.6l-0.9,2.8l-0.3,2.9l0.3,2.9l0.9,2.8l1.5,2.6l2,2.2
	l2.4,1.7l2.7,1.2l2.9,0.6h3l2.9-0.6l2.7-1.2l2.4-1.7l2-2.2l1.5-2.6l0.9-2.8L164.4,239.8 M157.3,239.8l-0.3-2.1l-0.9-1.9l-1.4-1.5
	l-1.8-1.1l-2.1-0.5l-2.1,0.2l-2,0.8l-1.7,1.3l-1.2,1.7l-0.6,2v2.1l0.6,2l1.2,1.7l1.7,1.3l2,0.8l2.1,0.2l2.1-0.5l1.8-1.1l1.4-1.5
	l0.9-1.9L157.3,239.8"/>
<polyline class="st6" points="157.3,239.8 157,237.7 156.1,235.8 154.7,234.2 152.8,233.2 150.8,232.7 148.7,232.9 146.7,233.6 
	145.1,235 143.9,236.7 143.2,238.7 143.2,240.8 143.9,242.8 145.1,244.6 146.7,245.9 148.7,246.7 150.8,246.8 152.8,246.4 
	154.7,245.3 156.1,243.8 157,241.9 157.3,239.8 "/>
<polyline class="st7" points="164.4,239.8 164.1,236.8 163.2,234 161.7,231.4 159.7,229.2 157.3,227.5 154.6,226.3 151.7,225.7 
	148.8,225.7 145.9,226.3 143.2,227.5 140.8,229.2 138.8,231.4 137.3,234 136.4,236.8 136.1,239.8 136.4,242.7 137.3,245.5 
	138.8,248.1 140.8,250.3 143.2,252 145.9,253.3 148.8,253.9 151.7,253.9 154.6,253.3 157.3,252 159.7,250.3 161.7,248.1 
	163.2,245.5 164.1,242.7 164.4,239.8 "/>
<polyline class="st6" points="313.2,239.8 312.9,237.7 312,235.8 310.6,234.2 308.7,233.2 306.7,232.7 304.6,232.9 302.6,233.6 
	301,235 299.8,236.7 299.1,238.7 299.1,240.8 299.8,242.8 301,244.6 302.6,245.9 304.6,246.7 306.7,246.8 308.7,246.4 310.6,245.3 
	312,243.8 312.9,241.9 313.2,239.8 "/>
<polyline class="st7" points="320.3,239.8 320,236.8 319.1,234 317.6,231.4 315.6,229.2 313.2,227.5 310.5,226.3 307.6,225.7 
	304.7,225.7 301.8,226.3 299.1,227.5 296.7,229.2 294.7,231.4 293.2,234 292.3,236.8 292,239.8 292.3,242.7 293.2,245.5 
	294.7,248.1 296.7,250.3 299.1,252 301.8,253.3 304.7,253.9 307.6,253.9 310.5,253.3 313.2,252 315.6,250.3 317.6,248.1 
	319.1,245.5 320,242.7 320.3,239.8 "/>
<polyline class="st6" points="299.1,353.2 299.4,355.2 300.3,357.2 301.7,358.7 303.6,359.8 305.6,360.2 307.7,360.1 309.7,359.3 
	311.3,358 312.5,356.2 313.2,354.2 313.2,352.1 312.5,350.1 311.3,348.3 309.7,347 307.7,346.3 305.6,346.1 303.6,346.6 
	301.7,347.6 300.3,349.2 299.4,351.1 299.1,353.2 "/>
<polyline class="st7" points="292,353.2 292.3,356.1 293.2,358.9 294.7,361.5 296.7,363.7 299.1,365.4 301.8,366.6 304.7,367.3 
	307.6,367.3 310.5,366.6 313.2,365.4 315.6,363.7 317.6,361.5 319.1,358.9 320,356.1 320.3,353.2 320,350.2 319.1,347.4 
	317.6,344.8 315.6,342.6 313.2,340.9 310.5,339.7 307.6,339.1 304.7,339.1 301.8,339.7 299.1,340.9 296.7,342.6 294.7,344.8 
	293.2,347.4 292.3,350.2 292,353.2 "/>
<polyline class="st7" points="136.1,353.2 136.4,356.1 137.3,358.9 138.8,361.5 140.8,363.7 143.2,365.4 145.9,366.6 148.8,367.3 
	151.7,367.3 154.6,366.6 157.3,365.4 159.7,363.7 161.7,361.5 163.2,358.9 164.1,356.1 164.4,353.2 164.1,350.2 163.2,347.4 
	161.7,344.8 159.7,342.6 157.3,340.9 154.6,339.7 151.7,339.1 148.8,339.1 145.9,339.7 143.2,340.9 140.8,342.6 138.8,344.8 
	137.3,347.4 136.4,350.2 136.1,353.2 "/>
<polyline class="st6" points="143.2,353.2 143.5,355.2 144.4,357.2 145.8,358.7 147.7,359.8 149.7,360.2 151.8,360.1 153.8,359.3 
	155.4,358 156.6,356.2 157.3,354.2 157.3,352.1 156.6,350.1 155.4,348.3 153.8,347 151.8,346.3 149.7,346.1 147.7,346.6 
	145.8,347.6 144.4,349.2 143.5,351.1 143.2,353.2 "/>
<path class="st7" d="M425.5,296.8L425.5,296.8 M425.5,303.6L425.5,303.6 M428.3,296.2L428.3,296.2 M428.3,289.4L428.3,289.4
	 M383,296.8L383,296.8 M383,303.6L383,303.6 M447.6,296.2L447.6,296.2 M447.6,289.4L447.6,289.4 M447.6,303.6L447.6,303.6
	 M448.2,303.6L448.2,303.6 M427.8,289.4L427.8,289.4 M428.3,303.6L428.3,303.6 M427.8,303.6L427.8,303.6 M345.6,296.2L345.6,296.2
	 M345.6,289.4L345.6,289.4 M427.8,296.2L427.8,296.2 M419.3,303.6L419.3,303.6 M419.8,303.6L419.8,303.6 M385.2,289.4L385.2,289.4
	 M385.8,289.4L385.8,289.4 M427.8,296.8L427.8,296.8 M410.7,289.4L410.7,289.4 M411.3,289.4L411.3,289.4 M345.6,296.8L345.6,296.8
	 M345.6,303.6L345.6,303.6 M408.5,296.8L408.5,296.8 M408.5,303.6L408.5,303.6 M445.3,296.8L445.3,296.8 M445.3,303.6L445.3,303.6
	 M402.2,296.2L402.2,296.2 M402.2,289.4L402.2,289.4 M422.1,296.2L422.1,296.2 M422.1,289.4L422.1,289.4 M448.2,289.4L448.2,289.4
	 M340.4,296.2L340.4,296.2 M340.4,289.4L340.4,289.4 M339.9,289.4L339.9,289.4 M447.6,296.8L447.6,296.8 M422.1,296.8L422.1,296.8
	 M422.1,303.6L422.1,303.6 M424.9,296.8L424.9,296.8 M424.9,303.6L424.9,303.6 M356.9,296.2L356.9,296.2 M356.9,289.4L356.9,289.4
	 M411.3,296.2L411.3,296.2 M357.5,289.4L357.5,289.4 M422.7,296.8L422.7,296.8 M422.7,303.6L422.7,303.6 M407.9,303.6L407.9,303.6
	 M388.1,296.8L388.1,296.8 M388.1,303.6L388.1,303.6 M388.1,296.2L388.1,296.2 M388.1,289.4L388.1,289.4 M388.6,296.2L388.6,296.2
	 M388.6,289.4L388.6,289.4 M385.8,296.8L385.8,296.8 M385.8,303.6L385.8,303.6 M385.2,303.6L385.2,303.6 M346.1,296.2L346.1,296.2
	 M346.1,289.4L346.1,289.4 M385.8,296.2L385.8,296.2 M424.9,296.2L424.9,296.2 M424.9,289.4L424.9,289.4 M425.5,296.2L425.5,296.2
	 M425.5,289.4L425.5,289.4 M439.7,289.4L439.7,289.4 M439.1,289.4L439.1,289.4 M354.6,296.8L354.6,296.8 M354.6,303.6L354.6,303.6
	 M354.1,303.6L354.1,303.6 M354.1,296.8L354.1,296.8 M422.7,296.2L422.7,296.2 M422.7,289.4L422.7,289.4 M407.9,296.2L407.9,296.2
	 M407.9,289.4L407.9,289.4 M408.5,296.2L408.5,296.2 M408.5,289.4L408.5,289.4 M405.6,296.8L405.6,296.8 M405.6,303.6L405.6,303.6
	 M337.6,303.6L337.6,303.6 M337,303.6L337,303.6 M444.8,303.6L444.8,303.6 M439.1,296.8L439.1,296.8 M439.1,303.6L439.1,303.6
	 M439.1,296.2L439.1,296.2 M439.7,296.2L439.7,296.2 M388.6,296.8L388.6,296.8 M388.6,303.6L388.6,303.6 M428.3,296.8L428.3,296.8
	 M430.6,289.4L430.6,289.4 M431.2,289.4L431.2,289.4 M320.6,303.6L320.6,303.6 M320,303.6L320,303.6 M320,296.8L320,296.8
	 M320,296.2L320,296.2 M320,289.4L320,289.4 M346.1,303.6L346.1,303.6 M320.6,289.4L320.6,289.4 M317.8,296.8L317.8,296.8
	 M317.8,303.6L317.8,303.6 M317.2,303.6L317.2,303.6 M317.2,296.8L317.2,296.8 M317.8,296.2L317.8,296.2 M317.8,289.4L317.8,289.4
	 M317.2,296.2L317.2,296.2 M317.2,289.4L317.2,289.4 M314.9,296.8L314.9,296.8 M314.9,303.6L314.9,303.6 M314.4,303.6L314.4,303.6
	 M314.4,296.8L314.4,296.8 M314.9,296.2L314.9,296.2 M314.9,289.4L314.9,289.4 M314.4,289.4L314.4,289.4 M312.1,303.6L312.1,303.6
	 M312.1,296.8L312.1,296.8 M419.8,296.8L419.8,296.8 M312.1,289.4L312.1,289.4 M312.1,296.2L312.1,296.2 M311.5,289.4L311.5,289.4
	 M311.5,296.2L311.5,296.2 M337,296.8L337,296.8 M337,289.4L337,289.4 M337,296.2L337,296.2 M391.5,289.4L391.5,289.4 M390.9,289.4
	L390.9,289.4 M444.8,296.8L444.8,296.8 M445.3,296.2L445.3,296.2 M445.3,289.4L445.3,289.4 M444.8,289.4L444.8,289.4 M442.5,296.8
	L442.5,296.8 M442.5,303.6L442.5,303.6 M441.9,303.6L441.9,303.6 M441.9,296.8L441.9,296.8 M441.9,296.2L441.9,296.2 M441.9,289.4
	L441.9,289.4 M442.5,296.2L442.5,296.2 M442.5,289.4L442.5,289.4 M385.2,296.2L385.2,296.2 M439.7,303.6L439.7,303.6 M357.5,303.6
	L357.5,303.6 M356.9,303.6L356.9,303.6 M356.9,296.8L356.9,296.8 M303,296.2L303,296.2 M303,289.4L303,289.4 M357.5,296.2
	L357.5,296.2 M300.8,296.8L300.8,296.8 M300.8,303.6L300.8,303.6 M300.2,303.6L300.2,303.6 M300.2,296.8L300.2,296.8 M407.9,296.8
	L407.9,296.8 M300.2,296.2L300.2,296.2 M300.2,289.4L300.2,289.4 M300.8,289.4L300.8,289.4 M297.9,296.8L297.9,296.8 M297.9,303.6
	L297.9,303.6 M297.4,303.6L297.4,303.6 M405.1,303.6L405.1,303.6 M405.1,296.8L405.1,296.8 M405.1,296.2L405.1,296.2 M405.1,289.4
	L405.1,289.4 M337.6,296.2L337.6,296.2 M337.6,289.4L337.6,289.4 M405.6,289.4L405.6,289.4 M444.8,296.2L444.8,296.2 M402.8,303.6
	L402.8,303.6 M402.2,303.6L402.2,303.6 M402.2,296.8L402.2,296.8 M294.5,296.2L294.5,296.2 M294.5,289.4L294.5,289.4 M295.1,289.4
	L295.1,289.4 M292.3,303.6L292.3,303.6 M292.3,296.8L292.3,296.8 M320.6,296.2L320.6,296.2 M402.8,289.4L402.8,289.4 M400,296.8
	L400,296.8 M400,303.6L400,303.6 M399.4,303.6L399.4,303.6 M399.4,296.8L399.4,296.8 M343.3,296.8L343.3,296.8 M343.3,303.6
	L343.3,303.6 M342.7,303.6L342.7,303.6 M342.7,296.8L342.7,296.8 M342.7,296.2L342.7,296.2 M342.7,289.4L342.7,289.4 M343.3,296.2
	L343.3,296.2 M343.3,289.4L343.3,289.4 M340.4,296.8L340.4,296.8 M340.4,303.6L340.4,303.6 M339.9,303.6L339.9,303.6 M339.9,296.8
	L339.9,296.8 M339.9,296.2L339.9,296.2 M286,289.4L286,289.4 M286.6,289.4L286.6,289.4 M283.8,296.8L283.8,296.8 M283.8,303.6
	L283.8,303.6 M337.6,296.8L337.6,296.8 M283.2,296.8L283.2,296.8 M283.2,303.6L283.2,303.6 M283.8,296.2L283.8,296.2 M283.8,289.4
	L283.8,289.4 M283.2,296.2L283.2,296.2 M283.2,289.4L283.2,289.4 M280.9,296.8L280.9,296.8 M280.9,303.6L280.9,303.6 M280.4,303.6
	L280.4,303.6 M280.4,296.8L280.4,296.8 M280.9,296.2L280.9,296.2 M280.9,289.4L280.9,289.4 M280.4,296.2L280.4,296.2 M280.4,289.4
	L280.4,289.4 M278.1,282.3L278.1,282.3 M277.5,282.3L277.5,282.3 M278.1,296.8L278.1,296.8 M278.1,310.6L278.1,310.6 M277.5,310.6
	L277.5,310.6 M278.1,296.2L278.1,296.2 M385.2,296.8L385.2,296.8 M382.4,303.6L382.4,303.6 M382.4,296.8L382.4,296.8 M300.8,296.2
	L300.8,296.2 M383,296.2L383,296.2 M383,289.4L383,289.4 M382.4,289.4L382.4,289.4 M380.1,296.8L380.1,296.8 M380.1,303.6
	L380.1,303.6 M379.6,303.6L379.6,303.6 M297.4,296.8L297.4,296.8 M297.9,296.2L297.9,296.2 M297.9,289.4L297.9,289.4 M297.4,296.2
	L297.4,296.2 M297.4,289.4L297.4,289.4 M295.1,296.8L295.1,296.8 M295.1,303.6L295.1,303.6 M405.6,296.2L405.6,296.2 M402.8,296.8
	L402.8,296.8 M295.1,296.2L295.1,296.2 M431.2,296.2L431.2,296.2 M303.6,296.8L303.6,296.8 M305.9,296.8L305.9,296.8 M306.4,296.2
	L306.4,296.2 M308.7,296.2L308.7,296.2 M306.4,296.8L306.4,296.8 M308.7,296.8L308.7,296.8 M309.3,296.2L309.3,296.2 M309.3,296.8
	L309.3,296.8 M311.5,296.8L311.5,296.8 M314.4,296.2L314.4,296.2 M322.9,296.2L322.9,296.2 M320.6,296.8L320.6,296.8 M322.9,296.8
	L322.9,296.8 M323.4,296.2L323.4,296.2 M325.7,296.2L325.7,296.2 M323.4,296.8L323.4,296.8 M325.7,296.8L325.7,296.8 M326.3,296.2
	L326.3,296.2 M328.5,296.2L328.5,296.2 M326.3,296.8L326.3,296.8 M328.5,296.8L328.5,296.8 M329.1,296.2L329.1,296.2 M331.4,296.2
	L331.4,296.2 M311.5,303.6L311.5,303.6 M331.9,296.8L331.9,296.8 M334.2,296.8L334.2,296.8 M334.8,296.2L334.8,296.2 M366,296.2
	L366,296.2 M366,289.4L366,289.4 M365.4,289.4L365.4,289.4 M363.1,296.8L363.1,296.8 M363.1,303.6L363.1,303.6 M362.6,303.6
	L362.6,303.6 M362.6,296.8L362.6,296.8 M362.6,296.2L362.6,296.2 M362.6,289.4L362.6,289.4 M363.1,296.2L363.1,296.2 M363.1,289.4
	L363.1,289.4 M360.3,296.8L360.3,296.8 M360.3,303.6L360.3,303.6 M359.7,303.6L359.7,303.6 M359.7,296.8L359.7,296.8 M359.7,296.2
	L359.7,296.2 M359.7,289.4L359.7,289.4 M360.3,296.2L360.3,296.2 M360.3,289.4L360.3,289.4 M357.5,296.8L357.5,296.8 M365.4,296.2
	L365.4,296.2 M365.4,296.8L365.4,296.8 M368.2,296.2L368.2,296.2 M366,296.8L366,296.8 M368.2,296.8L368.2,296.8 M368.8,296.2
	L368.8,296.2 M371.1,296.2L371.1,296.2 M368.8,296.8L368.8,296.8 M371.1,296.8L371.1,296.8 M371.6,296.2L371.6,296.2 M373.9,296.2
	L373.9,296.2 M371.6,296.8L371.6,296.8 M373.9,296.8L373.9,296.8 M374.5,296.2L374.5,296.2 M376.7,296.2L376.7,296.2 M374.5,296.8
	L374.5,296.8 M376.7,296.8L376.7,296.8 M377.3,296.2L377.3,296.2 M379.6,296.2L379.6,296.2 M377.3,296.8L377.3,296.8 M379.6,296.8
	L379.6,296.8 M380.1,296.2L380.1,296.2 M382.4,296.2L382.4,296.2 M294.5,296.8L294.5,296.8 M294.5,303.6L294.5,303.6 M390.9,296.2
	L390.9,296.2 M402.8,296.2L402.8,296.2 M393.7,296.2L393.7,296.2 M391.5,296.2L391.5,296.2 M391.5,296.8L391.5,296.8 M393.7,296.8
	L393.7,296.8 M394.3,296.2L394.3,296.2 M396.6,296.2L396.6,296.2 M394.3,296.8L394.3,296.8 M396.6,296.8L396.6,296.8 M397.1,296.2
	L397.1,296.2 M399.4,296.2L399.4,296.2 M397.1,296.8L397.1,296.8 M400,296.2L400,296.2 M410.7,296.2L410.7,296.2 M410.7,296.8
	L410.7,296.8 M413.6,296.2L413.6,296.2 M411.3,296.8L411.3,296.8 M413.6,296.8L413.6,296.8 M414.2,296.2L414.2,296.2 M416.4,296.2
	L416.4,296.2 M414.2,296.8L414.2,296.8 M416.4,296.8L416.4,296.8 M417,296.2L417,296.2 M419.3,296.2L419.3,296.2 M417,296.8
	L417,296.8 M419.3,296.8L419.3,296.8 M419.8,296.2L419.8,296.2 M430.6,296.2L430.6,296.2 M430.6,296.8L430.6,296.8 M433.4,296.2
	L433.4,296.2 M431.2,296.8L431.2,296.8 M433.4,296.8L433.4,296.8 M434,296.2L434,296.2 M436.3,296.2L436.3,296.2 M434,296.8
	L434,296.8 M436.3,296.8L436.3,296.8 M436.8,296.2L436.8,296.2 M439.7,296.8L439.7,296.8 M436.8,303.6L436.8,303.6 M436.3,303.6
	L436.3,303.6 M436.3,289.4L436.3,289.4 M436.8,289.4L436.8,289.4 M434,303.6L434,303.6 M433.4,303.6L433.4,303.6 M433.4,289.4
	L433.4,289.4 M434,289.4L434,289.4 M431.2,303.6L431.2,303.6 M430.6,303.6L430.6,303.6 M331.9,296.2L331.9,296.2 M334.2,296.2
	L334.2,296.2 M303.6,289.4L303.6,289.4 M399.4,289.4L399.4,289.4 M400,289.4L400,289.4 M397.1,303.6L397.1,303.6 M396.6,303.6
	L396.6,303.6 M396.6,289.4L396.6,289.4 M397.1,289.4L397.1,289.4 M394.3,303.6L394.3,303.6 M393.7,303.6L393.7,303.6 M394.3,289.4
	L394.3,289.4 M393.7,289.4L393.7,289.4 M391.5,303.6L391.5,303.6 M390.9,303.6L390.9,303.6 M390.9,296.8L390.9,296.8 M354.1,296.2
	L354.1,296.2 M354.1,289.4L354.1,289.4 M354.6,296.2L354.6,296.2 M354.6,289.4L354.6,289.4 M351.8,296.8L351.8,296.8 M351.8,303.6
	L351.8,303.6 M351.2,303.6L351.2,303.6 M351.2,296.8L351.2,296.8 M351.2,289.4L351.2,289.4 M351.2,296.2L351.2,296.2 M351.8,289.4
	L351.8,289.4 M351.8,296.2L351.8,296.2 M349,296.8L349,296.8 M349,303.6L349,303.6 M348.4,303.6L348.4,303.6 M348.4,296.8
	L348.4,296.8 M348.4,296.2L348.4,296.2 M348.4,289.4L348.4,289.4 M349,296.2L349,296.2 M349,289.4L349,289.4 M346.1,296.8
	L346.1,296.8 M436.8,296.8L436.8,296.8 M309.3,303.6L309.3,303.6 M308.7,303.6L308.7,303.6 M309.3,289.4L309.3,289.4 M308.7,289.4
	L308.7,289.4 M306.4,303.6L306.4,303.6 M305.9,303.6L305.9,303.6 M306.4,289.4L306.4,289.4 M305.9,296.2L305.9,296.2 M305.9,289.4
	L305.9,289.4 M303.6,303.6L303.6,303.6 M303,303.6L303,303.6 M303,296.8L303,296.8 M303.6,296.2L303.6,296.2 M286,296.2L286,296.2
	 M286,296.8L286,296.8 M286.6,296.2L286.6,296.2 M288.9,296.2L288.9,296.2 M286.6,296.8L286.6,296.8 M288.9,296.8L288.9,296.8
	 M289.4,296.2L289.4,296.2 M291.7,296.2L291.7,296.2 M289.4,296.8L289.4,296.8 M291.7,296.8L291.7,296.8 M292.3,296.2L292.3,296.2
	 M329.1,296.8L329.1,296.8 M331.4,296.8L331.4,296.8 M419.3,289.4L419.3,289.4 M419.8,289.4L419.8,289.4 M417,303.6L417,303.6
	 M416.4,303.6L416.4,303.6 M416.4,289.4L416.4,289.4 M417,289.4L417,289.4 M414.2,303.6L414.2,303.6 M413.6,303.6L413.6,303.6
	 M413.6,289.4L413.6,289.4 M414.2,289.4L414.2,289.4 M411.3,303.6L411.3,303.6 M410.7,303.6L410.7,303.6 M334.8,296.8L334.8,296.8
	 M334.8,303.6L334.8,303.6 M334.2,303.6L334.2,303.6 M334.2,289.4L334.2,289.4 M334.8,289.4L334.8,289.4 M331.9,303.6L331.9,303.6
	 M331.4,303.6L331.4,303.6 M331.4,289.4L331.4,289.4 M331.9,289.4L331.9,289.4 M329.1,303.6L329.1,303.6 M328.5,303.6L328.5,303.6
	 M328.5,289.4L328.5,289.4 M329.1,289.4L329.1,289.4 M326.3,303.6L326.3,303.6 M325.7,303.6L325.7,303.6 M325.7,289.4L325.7,289.4
	 M326.3,289.4L326.3,289.4 M323.4,303.6L323.4,303.6 M322.9,303.6L322.9,303.6 M322.9,289.4L322.9,289.4 M323.4,289.4L323.4,289.4
	 M379.6,289.4L379.6,289.4 M380.1,289.4L380.1,289.4 M377.3,303.6L377.3,303.6 M376.7,303.6L376.7,303.6 M376.7,289.4L376.7,289.4
	 M377.3,289.4L377.3,289.4 M374.5,303.6L374.5,303.6 M373.9,303.6L373.9,303.6 M373.9,289.4L373.9,289.4 M374.5,289.4L374.5,289.4
	 M371.6,303.6L371.6,303.6 M371.1,303.6L371.1,303.6 M371.1,289.4L371.1,289.4 M371.6,289.4L371.6,289.4 M368.8,303.6L368.8,303.6
	 M368.2,303.6L368.2,303.6 M368.2,289.4L368.2,289.4 M368.8,289.4L368.8,289.4 M366,303.6L366,303.6 M365.4,303.6L365.4,303.6
	 M291.7,303.6L291.7,303.6 M292.3,289.4L292.3,289.4 M291.7,289.4L291.7,289.4 M289.4,303.6L289.4,303.6 M288.9,303.6L288.9,303.6
	 M289.4,289.4L289.4,289.4 M288.9,289.4L288.9,289.4 M286.6,303.6L286.6,303.6 M286,303.6L286,303.6"/>
<line class="st6" x1="425.5" y1="296.7" x2="425.5" y2="303.6"/>
<line class="st6" x1="428.3" y1="289.4" x2="428.3" y2="296.2"/>
<line class="st6" x1="383" y1="296.7" x2="383" y2="303.6"/>
<line class="st6" x1="447.6" y1="289.4" x2="447.6" y2="296.2"/>
<line class="st7" x1="448.2" y1="303.6" x2="447.6" y2="303.6"/>
<line class="st7" x1="427.8" y1="289.4" x2="428.3" y2="289.4"/>
<line class="st7" x1="428.3" y1="303.6" x2="427.8" y2="303.6"/>
<line class="st6" x1="345.6" y1="289.4" x2="345.6" y2="296.2"/>
<line class="st6" x1="427.8" y1="289.4" x2="427.8" y2="296.2"/>
<line class="st7" x1="419.8" y1="303.6" x2="419.3" y2="303.6"/>
<line class="st7" x1="385.2" y1="289.4" x2="385.8" y2="289.4"/>
<line class="st6" x1="427.8" y1="296.7" x2="427.8" y2="303.6"/>
<line class="st7" x1="410.7" y1="289.4" x2="411.3" y2="289.4"/>
<line class="st6" x1="345.6" y1="296.7" x2="345.6" y2="303.6"/>
<line class="st6" x1="408.5" y1="296.7" x2="408.5" y2="303.6"/>
<line class="st6" x1="445.3" y1="296.7" x2="445.3" y2="303.6"/>
<line class="st6" x1="402.2" y1="289.4" x2="402.2" y2="296.2"/>
<line class="st6" x1="422.1" y1="289.4" x2="422.1" y2="296.2"/>
<line class="st7" x1="448.2" y1="289.4" x2="448.2" y2="303.6"/>
<line class="st7" x1="447.6" y1="289.4" x2="448.2" y2="289.4"/>
<line class="st6" x1="340.4" y1="289.4" x2="340.4" y2="296.2"/>
<line class="st7" x1="339.9" y1="289.4" x2="340.4" y2="289.4"/>
<line class="st6" x1="447.6" y1="296.7" x2="447.6" y2="303.6"/>
<line class="st6" x1="422.1" y1="296.7" x2="422.1" y2="303.6"/>
<line class="st6" x1="424.9" y1="296.7" x2="424.9" y2="303.6"/>
<line class="st6" x1="356.9" y1="289.4" x2="356.9" y2="296.2"/>
<line class="st6" x1="411.3" y1="289.4" x2="411.3" y2="296.2"/>
<line class="st7" x1="356.9" y1="289.4" x2="357.5" y2="289.4"/>
<line class="st6" x1="422.7" y1="296.7" x2="422.7" y2="303.6"/>
<line class="st7" x1="408.5" y1="303.6" x2="407.9" y2="303.6"/>
<line class="st6" x1="388.1" y1="296.7" x2="388.1" y2="303.6"/>
<line class="st6" x1="388.1" y1="289.4" x2="388.1" y2="296.2"/>
<line class="st6" x1="388.6" y1="289.4" x2="388.6" y2="296.2"/>
<line class="st7" x1="388.1" y1="289.4" x2="388.6" y2="289.4"/>
<line class="st6" x1="385.8" y1="296.7" x2="385.8" y2="303.6"/>
<line class="st7" x1="385.8" y1="303.6" x2="385.2" y2="303.6"/>
<line class="st6" x1="346.1" y1="289.4" x2="346.1" y2="296.2"/>
<line class="st7" x1="425.5" y1="303.6" x2="424.9" y2="303.6"/>
<line class="st6" x1="385.8" y1="289.4" x2="385.8" y2="296.2"/>
<line class="st6" x1="424.9" y1="289.4" x2="424.9" y2="296.2"/>
<line class="st6" x1="425.5" y1="289.4" x2="425.5" y2="296.2"/>
<line class="st7" x1="424.9" y1="289.4" x2="425.5" y2="289.4"/>
<line class="st7" x1="439.1" y1="289.4" x2="439.7" y2="289.4"/>
<line class="st6" x1="354.6" y1="296.7" x2="354.6" y2="303.6"/>
<line class="st7" x1="354.6" y1="303.6" x2="354.1" y2="303.6"/>
<line class="st6" x1="354.1" y1="296.7" x2="354.1" y2="303.6"/>
<line class="st6" x1="422.7" y1="289.4" x2="422.7" y2="296.2"/>
<line class="st6" x1="407.9" y1="289.4" x2="407.9" y2="296.2"/>
<line class="st6" x1="408.5" y1="289.4" x2="408.5" y2="296.2"/>
<line class="st7" x1="407.9" y1="289.4" x2="408.5" y2="289.4"/>
<line class="st6" x1="405.6" y1="296.7" x2="405.6" y2="303.6"/>
<line class="st7" x1="337.6" y1="303.6" x2="337" y2="303.6"/>
<line class="st7" x1="445.3" y1="303.6" x2="444.8" y2="303.6"/>
<line class="st6" x1="439.1" y1="296.7" x2="439.1" y2="303.6"/>
<line class="st6" x1="439.1" y1="289.4" x2="439.1" y2="296.2"/>
<line class="st6" x1="439.7" y1="289.4" x2="439.7" y2="296.2"/>
<line class="st6" x1="388.6" y1="296.7" x2="388.6" y2="303.6"/>
<line class="st6" x1="428.3" y1="296.7" x2="428.3" y2="303.6"/>
<line class="st7" x1="430.6" y1="289.4" x2="431.2" y2="289.4"/>
<line class="st7" x1="320.6" y1="303.6" x2="320" y2="303.6"/>
<line class="st6" x1="320" y1="296.7" x2="320" y2="303.6"/>
<line class="st6" x1="320" y1="289.4" x2="320" y2="296.2"/>
<line class="st7" x1="346.1" y1="303.6" x2="345.6" y2="303.6"/>
<line class="st7" x1="320" y1="289.4" x2="320.6" y2="289.4"/>
<line class="st6" x1="317.8" y1="296.7" x2="317.8" y2="303.6"/>
<line class="st7" x1="317.8" y1="303.6" x2="317.2" y2="303.6"/>
<line class="st6" x1="317.2" y1="296.7" x2="317.2" y2="303.6"/>
<line class="st6" x1="317.8" y1="289.4" x2="317.8" y2="296.2"/>
<line class="st6" x1="317.2" y1="289.4" x2="317.2" y2="296.2"/>
<line class="st7" x1="317.2" y1="289.4" x2="317.8" y2="289.4"/>
<line class="st6" x1="314.9" y1="296.7" x2="314.9" y2="303.6"/>
<line class="st7" x1="314.9" y1="303.6" x2="314.4" y2="303.6"/>
<line class="st6" x1="314.4" y1="296.7" x2="314.4" y2="303.6"/>
<line class="st6" x1="314.9" y1="289.4" x2="314.9" y2="296.2"/>
<line class="st7" x1="422.7" y1="303.6" x2="422.1" y2="303.6"/>
<line class="st7" x1="314.4" y1="289.4" x2="314.9" y2="289.4"/>
<line class="st6" x1="312.1" y1="296.7" x2="312.1" y2="303.6"/>
<line class="st7" x1="422.1" y1="289.4" x2="422.7" y2="289.4"/>
<line class="st6" x1="419.8" y1="296.7" x2="419.8" y2="303.6"/>
<line class="st6" x1="312.1" y1="289.4" x2="312.1" y2="296.2"/>
<line class="st6" x1="311.5" y1="289.4" x2="311.5" y2="296.2"/>
<line class="st6" x1="337" y1="296.7" x2="337" y2="303.6"/>
<line class="st6" x1="337" y1="289.4" x2="337" y2="296.2"/>
<line class="st7" x1="390.9" y1="289.4" x2="391.5" y2="289.4"/>
<line class="st6" x1="444.8" y1="296.7" x2="444.8" y2="303.6"/>
<line class="st7" x1="388.6" y1="303.6" x2="388.1" y2="303.6"/>
<line class="st6" x1="445.3" y1="289.4" x2="445.3" y2="296.2"/>
<line class="st7" x1="444.8" y1="289.4" x2="445.3" y2="289.4"/>
<line class="st6" x1="442.5" y1="296.7" x2="442.5" y2="303.6"/>
<line class="st7" x1="442.5" y1="303.6" x2="441.9" y2="303.6"/>
<line class="st6" x1="441.9" y1="296.7" x2="441.9" y2="303.6"/>
<line class="st6" x1="441.9" y1="289.4" x2="441.9" y2="296.2"/>
<line class="st6" x1="442.5" y1="289.4" x2="442.5" y2="296.2"/>
<line class="st7" x1="441.9" y1="289.4" x2="442.5" y2="289.4"/>
<line class="st6" x1="385.2" y1="289.4" x2="385.2" y2="296.2"/>
<line class="st7" x1="439.7" y1="303.6" x2="439.1" y2="303.6"/>
<line class="st7" x1="357.5" y1="303.6" x2="356.9" y2="303.6"/>
<line class="st6" x1="356.9" y1="296.7" x2="356.9" y2="303.6"/>
<line class="st6" x1="303" y1="289.4" x2="303" y2="296.2"/>
<line class="st6" x1="357.5" y1="289.4" x2="357.5" y2="296.2"/>
<line class="st6" x1="300.8" y1="296.7" x2="300.8" y2="303.6"/>
<line class="st7" x1="300.8" y1="303.6" x2="300.2" y2="303.6"/>
<line class="st6" x1="300.2" y1="296.7" x2="300.2" y2="303.6"/>
<line class="st6" x1="407.9" y1="296.7" x2="407.9" y2="303.6"/>
<line class="st6" x1="300.2" y1="289.4" x2="300.2" y2="296.2"/>
<line class="st7" x1="300.2" y1="289.4" x2="300.8" y2="289.4"/>
<line class="st6" x1="297.9" y1="296.7" x2="297.9" y2="303.6"/>
<line class="st7" x1="297.9" y1="303.6" x2="297.4" y2="303.6"/>
<line class="st7" x1="405.6" y1="303.6" x2="405.1" y2="303.6"/>
<line class="st6" x1="405.1" y1="296.7" x2="405.1" y2="303.6"/>
<line class="st6" x1="405.1" y1="289.4" x2="405.1" y2="296.2"/>
<line class="st6" x1="337.6" y1="289.4" x2="337.6" y2="296.2"/>
<line class="st7" x1="405.1" y1="289.4" x2="405.6" y2="289.4"/>
<line class="st6" x1="444.8" y1="289.4" x2="444.8" y2="296.2"/>
<line class="st7" x1="402.8" y1="303.6" x2="402.2" y2="303.6"/>
<line class="st6" x1="402.2" y1="296.7" x2="402.2" y2="303.6"/>
<line class="st6" x1="294.5" y1="289.4" x2="294.5" y2="296.2"/>
<line class="st7" x1="294.5" y1="289.4" x2="295.1" y2="289.4"/>
<line class="st6" x1="292.3" y1="296.7" x2="292.3" y2="303.6"/>
<line class="st6" x1="320.6" y1="289.4" x2="320.6" y2="296.2"/>
<line class="st7" x1="402.2" y1="289.4" x2="402.8" y2="289.4"/>
<line class="st6" x1="400" y1="296.7" x2="400" y2="303.6"/>
<line class="st7" x1="400" y1="303.6" x2="399.4" y2="303.6"/>
<line class="st6" x1="399.4" y1="296.7" x2="399.4" y2="303.6"/>
<line class="st7" x1="345.6" y1="289.4" x2="346.1" y2="289.4"/>
<line class="st6" x1="343.3" y1="296.7" x2="343.3" y2="303.6"/>
<line class="st7" x1="343.3" y1="303.6" x2="342.7" y2="303.6"/>
<line class="st6" x1="342.7" y1="296.7" x2="342.7" y2="303.6"/>
<line class="st6" x1="342.7" y1="289.4" x2="342.7" y2="296.2"/>
<line class="st6" x1="343.3" y1="289.4" x2="343.3" y2="296.2"/>
<line class="st7" x1="342.7" y1="289.4" x2="343.3" y2="289.4"/>
<line class="st6" x1="340.4" y1="296.7" x2="340.4" y2="303.6"/>
<line class="st7" x1="340.4" y1="303.6" x2="339.9" y2="303.6"/>
<line class="st6" x1="339.9" y1="296.7" x2="339.9" y2="303.6"/>
<line class="st6" x1="339.9" y1="289.4" x2="339.9" y2="296.2"/>
<line class="st7" x1="286" y1="289.4" x2="286.6" y2="289.4"/>
<line class="st6" x1="283.8" y1="296.7" x2="283.8" y2="303.6"/>
<line class="st6" x1="337.6" y1="296.7" x2="337.6" y2="303.6"/>
<line class="st6" x1="283.2" y1="296.7" x2="283.2" y2="303.6"/>
<line class="st6" x1="283.8" y1="289.4" x2="283.8" y2="296.2"/>
<line class="st6" x1="283.2" y1="289.4" x2="283.2" y2="296.2"/>
<line class="st7" x1="283.2" y1="289.4" x2="283.8" y2="289.4"/>
<line class="st6" x1="280.9" y1="296.7" x2="280.9" y2="303.6"/>
<line class="st7" x1="280.9" y1="303.6" x2="280.4" y2="303.6"/>
<line class="st6" x1="280.4" y1="296.7" x2="280.4" y2="303.6"/>
<line class="st6" x1="280.9" y1="289.4" x2="280.9" y2="296.2"/>
<line class="st6" x1="280.4" y1="289.4" x2="280.4" y2="296.2"/>
<line class="st7" x1="280.4" y1="289.4" x2="280.9" y2="289.4"/>
<line class="st7" x1="277.5" y1="282.3" x2="278.1" y2="282.3"/>
<line class="st7" x1="278.1" y1="296.7" x2="278.1" y2="310.6"/>
<line class="st7" x1="278.1" y1="310.6" x2="277.5" y2="310.6"/>
<line class="st6" x1="277.5" y1="282.3" x2="277.5" y2="310.6"/>
<line class="st7" x1="278.1" y1="282.3" x2="278.1" y2="296.2"/>
<line class="st6" x1="385.2" y1="296.7" x2="385.2" y2="303.6"/>
<line class="st6" x1="280.4" y1="296.2" x2="278.1" y2="296.2"/>
<line class="st6" x1="280.4" y1="296.7" x2="278.1" y2="296.7"/>
<line class="st6" x1="283.2" y1="296.2" x2="280.9" y2="296.2"/>
<line class="st7" x1="383" y1="303.6" x2="382.4" y2="303.6"/>
<line class="st6" x1="382.4" y1="296.7" x2="382.4" y2="303.6"/>
<line class="st6" x1="300.8" y1="289.4" x2="300.8" y2="296.2"/>
<line class="st6" x1="383" y1="289.4" x2="383" y2="296.2"/>
<line class="st7" x1="382.4" y1="289.4" x2="383" y2="289.4"/>
<line class="st6" x1="380.1" y1="296.7" x2="380.1" y2="303.6"/>
<line class="st7" x1="380.1" y1="303.6" x2="379.6" y2="303.6"/>
<line class="st6" x1="297.4" y1="296.7" x2="297.4" y2="303.6"/>
<line class="st6" x1="297.9" y1="289.4" x2="297.9" y2="296.2"/>
<line class="st6" x1="297.4" y1="289.4" x2="297.4" y2="296.2"/>
<line class="st7" x1="297.4" y1="289.4" x2="297.9" y2="289.4"/>
<line class="st6" x1="295.1" y1="296.7" x2="295.1" y2="303.6"/>
<line class="st6" x1="405.6" y1="289.4" x2="405.6" y2="296.2"/>
<line class="st6" x1="402.8" y1="296.7" x2="402.8" y2="303.6"/>
<line class="st6" x1="295.1" y1="289.4" x2="295.1" y2="296.2"/>
<line class="st6" x1="431.2" y1="289.4" x2="431.2" y2="296.2"/>
<line class="st6" x1="305.9" y1="296.7" x2="303.6" y2="296.7"/>
<line class="st6" x1="308.7" y1="296.2" x2="306.4" y2="296.2"/>
<line class="st6" x1="308.7" y1="296.7" x2="306.4" y2="296.7"/>
<line class="st6" x1="311.5" y1="296.2" x2="309.3" y2="296.2"/>
<line class="st6" x1="311.5" y1="296.7" x2="309.3" y2="296.7"/>
<line class="st6" x1="314.4" y1="296.2" x2="312.1" y2="296.2"/>
<line class="st6" x1="314.4" y1="296.7" x2="312.1" y2="296.7"/>
<line class="st6" x1="317.2" y1="296.2" x2="314.9" y2="296.2"/>
<line class="st6" x1="317.2" y1="296.7" x2="314.9" y2="296.7"/>
<line class="st6" x1="320" y1="296.2" x2="317.8" y2="296.2"/>
<line class="st6" x1="320" y1="296.7" x2="317.8" y2="296.7"/>
<line class="st6" x1="322.9" y1="296.2" x2="320.6" y2="296.2"/>
<line class="st6" x1="322.9" y1="296.7" x2="320.6" y2="296.7"/>
<line class="st6" x1="325.7" y1="296.2" x2="323.4" y2="296.2"/>
<line class="st6" x1="325.7" y1="296.7" x2="323.4" y2="296.7"/>
<line class="st6" x1="328.5" y1="296.2" x2="326.3" y2="296.2"/>
<line class="st6" x1="328.5" y1="296.7" x2="326.3" y2="296.7"/>
<line class="st6" x1="331.4" y1="296.2" x2="329.1" y2="296.2"/>
<line class="st7" x1="312.1" y1="303.6" x2="311.5" y2="303.6"/>
<line class="st6" x1="311.5" y1="296.7" x2="311.5" y2="303.6"/>
<line class="st6" x1="334.2" y1="296.7" x2="331.9" y2="296.7"/>
<line class="st6" x1="337" y1="296.2" x2="334.8" y2="296.2"/>
<line class="st7" x1="311.5" y1="289.4" x2="312.1" y2="289.4"/>
<line class="st6" x1="366" y1="289.4" x2="366" y2="296.2"/>
<line class="st7" x1="365.4" y1="289.4" x2="366" y2="289.4"/>
<line class="st6" x1="363.1" y1="296.7" x2="363.1" y2="303.6"/>
<line class="st7" x1="363.1" y1="303.6" x2="362.6" y2="303.6"/>
<line class="st6" x1="362.6" y1="296.7" x2="362.6" y2="303.6"/>
<line class="st6" x1="362.6" y1="289.4" x2="362.6" y2="296.2"/>
<line class="st6" x1="363.1" y1="289.4" x2="363.1" y2="296.2"/>
<line class="st7" x1="362.6" y1="289.4" x2="363.1" y2="289.4"/>
<line class="st6" x1="360.3" y1="296.7" x2="360.3" y2="303.6"/>
<line class="st7" x1="360.3" y1="303.6" x2="359.7" y2="303.6"/>
<line class="st6" x1="359.7" y1="296.7" x2="359.7" y2="303.6"/>
<line class="st6" x1="359.7" y1="289.4" x2="359.7" y2="296.2"/>
<line class="st6" x1="360.3" y1="289.4" x2="360.3" y2="296.2"/>
<line class="st7" x1="359.7" y1="289.4" x2="360.3" y2="289.4"/>
<line class="st6" x1="357.5" y1="296.7" x2="357.5" y2="303.6"/>
<line class="st6" x1="359.7" y1="296.7" x2="357.5" y2="296.7"/>
<line class="st6" x1="362.6" y1="296.2" x2="360.3" y2="296.2"/>
<line class="st6" x1="362.6" y1="296.7" x2="360.3" y2="296.7"/>
<line class="st6" x1="365.4" y1="296.2" x2="363.1" y2="296.2"/>
<line class="st6" x1="365.4" y1="296.7" x2="363.1" y2="296.7"/>
<line class="st6" x1="368.2" y1="296.2" x2="366" y2="296.2"/>
<line class="st6" x1="368.2" y1="296.7" x2="366" y2="296.7"/>
<line class="st6" x1="371.1" y1="296.2" x2="368.8" y2="296.2"/>
<line class="st6" x1="371.1" y1="296.7" x2="368.8" y2="296.7"/>
<line class="st6" x1="373.9" y1="296.2" x2="371.6" y2="296.2"/>
<line class="st6" x1="373.9" y1="296.7" x2="371.6" y2="296.7"/>
<line class="st6" x1="376.7" y1="296.2" x2="374.5" y2="296.2"/>
<line class="st6" x1="376.7" y1="296.7" x2="374.5" y2="296.7"/>
<line class="st6" x1="379.6" y1="296.2" x2="377.3" y2="296.2"/>
<line class="st6" x1="379.6" y1="296.7" x2="377.3" y2="296.7"/>
<line class="st6" x1="382.4" y1="296.2" x2="380.1" y2="296.2"/>
<line class="st6" x1="382.4" y1="296.7" x2="380.1" y2="296.7"/>
<line class="st6" x1="294.5" y1="296.7" x2="294.5" y2="303.6"/>
<line class="st6" x1="385.2" y1="296.7" x2="383" y2="296.7"/>
<line class="st6" x1="388.1" y1="296.2" x2="385.8" y2="296.2"/>
<line class="st6" x1="388.1" y1="296.7" x2="385.8" y2="296.7"/>
<line class="st6" x1="390.9" y1="296.2" x2="388.6" y2="296.2"/>
<line class="st6" x1="402.8" y1="289.4" x2="402.8" y2="296.2"/>
<line class="st6" x1="393.7" y1="296.2" x2="391.5" y2="296.2"/>
<line class="st6" x1="393.7" y1="296.7" x2="391.5" y2="296.7"/>
<line class="st6" x1="396.6" y1="296.2" x2="394.3" y2="296.2"/>
<line class="st6" x1="396.6" y1="296.7" x2="394.3" y2="296.7"/>
<line class="st6" x1="399.4" y1="296.2" x2="397.1" y2="296.2"/>
<line class="st6" x1="399.4" y1="296.7" x2="397.1" y2="296.7"/>
<line class="st6" x1="402.2" y1="296.2" x2="400" y2="296.2"/>
<line class="st6" x1="402.2" y1="296.7" x2="400" y2="296.7"/>
<line class="st6" x1="405.1" y1="296.2" x2="402.8" y2="296.2"/>
<line class="st6" x1="405.1" y1="296.7" x2="402.8" y2="296.7"/>
<line class="st6" x1="407.9" y1="296.2" x2="405.6" y2="296.2"/>
<line class="st6" x1="407.9" y1="296.7" x2="405.6" y2="296.7"/>
<line class="st6" x1="410.7" y1="296.2" x2="408.5" y2="296.2"/>
<line class="st6" x1="410.7" y1="296.7" x2="408.5" y2="296.7"/>
<line class="st6" x1="413.6" y1="296.2" x2="411.3" y2="296.2"/>
<line class="st6" x1="413.6" y1="296.7" x2="411.3" y2="296.7"/>
<line class="st6" x1="416.4" y1="296.2" x2="414.2" y2="296.2"/>
<line class="st6" x1="416.4" y1="296.7" x2="414.2" y2="296.7"/>
<line class="st6" x1="419.3" y1="296.2" x2="417" y2="296.2"/>
<line class="st6" x1="419.3" y1="296.7" x2="417" y2="296.7"/>
<line class="st6" x1="422.1" y1="296.2" x2="419.8" y2="296.2"/>
<line class="st6" x1="422.1" y1="296.7" x2="419.8" y2="296.7"/>
<line class="st6" x1="424.9" y1="296.2" x2="422.7" y2="296.2"/>
<line class="st6" x1="424.9" y1="296.7" x2="422.7" y2="296.7"/>
<line class="st6" x1="427.8" y1="296.2" x2="425.5" y2="296.2"/>
<line class="st6" x1="427.8" y1="296.7" x2="425.5" y2="296.7"/>
<line class="st6" x1="430.6" y1="296.2" x2="428.3" y2="296.2"/>
<line class="st6" x1="430.6" y1="296.7" x2="428.3" y2="296.7"/>
<line class="st6" x1="433.4" y1="296.2" x2="431.2" y2="296.2"/>
<line class="st6" x1="433.4" y1="296.7" x2="431.2" y2="296.7"/>
<line class="st6" x1="436.3" y1="296.2" x2="434" y2="296.2"/>
<line class="st6" x1="436.3" y1="296.7" x2="434" y2="296.7"/>
<line class="st6" x1="439.1" y1="296.2" x2="436.8" y2="296.2"/>
<line class="st6" x1="439.7" y1="296.7" x2="439.7" y2="303.6"/>
<line class="st6" x1="441.9" y1="296.2" x2="439.7" y2="296.2"/>
<line class="st6" x1="441.9" y1="296.7" x2="439.7" y2="296.7"/>
<line class="st6" x1="444.8" y1="296.2" x2="442.5" y2="296.2"/>
<line class="st6" x1="444.8" y1="296.7" x2="442.5" y2="296.7"/>
<line class="st6" x1="447.6" y1="296.2" x2="445.3" y2="296.2"/>
<line class="st6" x1="447.6" y1="296.7" x2="445.3" y2="296.7"/>
<line class="st6" x1="382.4" y1="289.4" x2="382.4" y2="296.2"/>
<line class="st7" x1="436.8" y1="303.6" x2="436.3" y2="303.6"/>
<line class="st6" x1="436.3" y1="296.7" x2="436.3" y2="303.6"/>
<line class="st6" x1="436.3" y1="289.4" x2="436.3" y2="296.2"/>
<line class="st6" x1="436.8" y1="289.4" x2="436.8" y2="296.2"/>
<line class="st7" x1="436.3" y1="289.4" x2="436.8" y2="289.4"/>
<line class="st6" x1="434" y1="296.7" x2="434" y2="303.6"/>
<line class="st7" x1="434" y1="303.6" x2="433.4" y2="303.6"/>
<line class="st6" x1="433.4" y1="296.7" x2="433.4" y2="303.6"/>
<line class="st6" x1="433.4" y1="289.4" x2="433.4" y2="296.2"/>
<line class="st6" x1="434" y1="289.4" x2="434" y2="296.2"/>
<line class="st7" x1="433.4" y1="289.4" x2="434" y2="289.4"/>
<line class="st6" x1="431.2" y1="296.7" x2="431.2" y2="303.6"/>
<line class="st7" x1="431.2" y1="303.6" x2="430.6" y2="303.6"/>
<line class="st6" x1="430.6" y1="296.7" x2="430.6" y2="303.6"/>
<line class="st6" x1="430.6" y1="289.4" x2="430.6" y2="296.2"/>
<line class="st6" x1="334.2" y1="296.2" x2="331.9" y2="296.2"/>
<line class="st7" x1="303" y1="289.4" x2="303.6" y2="289.4"/>
<line class="st6" x1="399.4" y1="289.4" x2="399.4" y2="296.2"/>
<line class="st6" x1="400" y1="289.4" x2="400" y2="296.2"/>
<line class="st7" x1="399.4" y1="289.4" x2="400" y2="289.4"/>
<line class="st6" x1="397.1" y1="296.7" x2="397.1" y2="303.6"/>
<line class="st7" x1="397.1" y1="303.6" x2="396.6" y2="303.6"/>
<line class="st6" x1="396.6" y1="296.7" x2="396.6" y2="303.6"/>
<line class="st6" x1="396.6" y1="289.4" x2="396.6" y2="296.2"/>
<line class="st6" x1="397.1" y1="289.4" x2="397.1" y2="296.2"/>
<line class="st7" x1="396.6" y1="289.4" x2="397.1" y2="289.4"/>
<line class="st6" x1="394.3" y1="296.7" x2="394.3" y2="303.6"/>
<line class="st7" x1="394.3" y1="303.6" x2="393.7" y2="303.6"/>
<line class="st6" x1="393.7" y1="296.7" x2="393.7" y2="303.6"/>
<line class="st7" x1="283.8" y1="303.6" x2="283.2" y2="303.6"/>
<line class="st6" x1="394.3" y1="289.4" x2="394.3" y2="296.2"/>
<line class="st7" x1="393.7" y1="289.4" x2="394.3" y2="289.4"/>
<line class="st6" x1="391.5" y1="296.7" x2="391.5" y2="303.6"/>
<line class="st7" x1="391.5" y1="303.6" x2="390.9" y2="303.6"/>
<line class="st6" x1="390.9" y1="296.7" x2="390.9" y2="303.6"/>
<line class="st6" x1="390.9" y1="289.4" x2="390.9" y2="296.2"/>
<line class="st6" x1="391.5" y1="289.4" x2="391.5" y2="296.2"/>
<line class="st6" x1="354.1" y1="289.4" x2="354.1" y2="296.2"/>
<line class="st6" x1="354.6" y1="289.4" x2="354.6" y2="296.2"/>
<line class="st7" x1="354.1" y1="289.4" x2="354.6" y2="289.4"/>
<line class="st6" x1="351.8" y1="296.7" x2="351.8" y2="303.6"/>
<line class="st7" x1="351.8" y1="303.6" x2="351.2" y2="303.6"/>
<line class="st6" x1="351.2" y1="296.7" x2="351.2" y2="303.6"/>
<line class="st6" x1="351.2" y1="289.4" x2="351.2" y2="296.2"/>
<line class="st6" x1="351.8" y1="289.4" x2="351.8" y2="296.2"/>
<line class="st6" x1="385.2" y1="296.2" x2="383" y2="296.2"/>
<line class="st6" x1="349" y1="296.7" x2="349" y2="303.6"/>
<line class="st7" x1="349" y1="303.6" x2="348.4" y2="303.6"/>
<line class="st6" x1="348.4" y1="296.7" x2="348.4" y2="303.6"/>
<line class="st6" x1="348.4" y1="289.4" x2="348.4" y2="296.2"/>
<line class="st6" x1="349" y1="289.4" x2="349" y2="296.2"/>
<line class="st7" x1="348.4" y1="289.4" x2="349" y2="289.4"/>
<line class="st6" x1="346.1" y1="296.7" x2="346.1" y2="303.6"/>
<line class="st6" x1="439.1" y1="296.7" x2="436.8" y2="296.7"/>
<line class="st6" x1="309.3" y1="296.7" x2="309.3" y2="303.6"/>
<line class="st7" x1="309.3" y1="303.6" x2="308.7" y2="303.6"/>
<line class="st6" x1="308.7" y1="296.7" x2="308.7" y2="303.6"/>
<line class="st6" x1="309.3" y1="289.4" x2="309.3" y2="296.2"/>
<line class="st6" x1="308.7" y1="289.4" x2="308.7" y2="296.2"/>
<line class="st7" x1="308.7" y1="289.4" x2="309.3" y2="289.4"/>
<line class="st6" x1="306.4" y1="296.7" x2="306.4" y2="303.6"/>
<line class="st7" x1="306.4" y1="303.6" x2="305.9" y2="303.6"/>
<line class="st6" x1="305.9" y1="296.7" x2="305.9" y2="303.6"/>
<line class="st6" x1="306.4" y1="289.4" x2="306.4" y2="296.2"/>
<line class="st6" x1="305.9" y1="289.4" x2="305.9" y2="296.2"/>
<line class="st7" x1="305.9" y1="289.4" x2="306.4" y2="289.4"/>
<line class="st6" x1="303.6" y1="296.7" x2="303.6" y2="303.6"/>
<line class="st7" x1="303.6" y1="303.6" x2="303" y2="303.6"/>
<line class="st6" x1="303" y1="296.7" x2="303" y2="303.6"/>
<line class="st6" x1="303.6" y1="289.4" x2="303.6" y2="296.2"/>
<line class="st7" x1="295.1" y1="303.6" x2="294.5" y2="303.6"/>
<line class="st6" x1="283.2" y1="296.7" x2="280.9" y2="296.7"/>
<line class="st6" x1="286" y1="296.2" x2="283.8" y2="296.2"/>
<line class="st6" x1="286" y1="296.7" x2="283.8" y2="296.7"/>
<line class="st6" x1="288.9" y1="296.2" x2="286.6" y2="296.2"/>
<line class="st6" x1="288.9" y1="296.7" x2="286.6" y2="296.7"/>
<line class="st6" x1="291.7" y1="296.2" x2="289.4" y2="296.2"/>
<line class="st6" x1="291.7" y1="296.7" x2="289.4" y2="296.7"/>
<line class="st6" x1="294.5" y1="296.2" x2="292.3" y2="296.2"/>
<line class="st6" x1="294.5" y1="296.7" x2="292.3" y2="296.7"/>
<line class="st6" x1="297.4" y1="296.2" x2="295.1" y2="296.2"/>
<line class="st6" x1="297.4" y1="296.7" x2="295.1" y2="296.7"/>
<line class="st6" x1="300.2" y1="296.2" x2="297.9" y2="296.2"/>
<line class="st6" x1="300.2" y1="296.7" x2="297.9" y2="296.7"/>
<line class="st6" x1="303" y1="296.2" x2="300.8" y2="296.2"/>
<line class="st6" x1="303" y1="296.7" x2="300.8" y2="296.7"/>
<line class="st6" x1="305.9" y1="296.2" x2="303.6" y2="296.2"/>
<line class="st6" x1="331.4" y1="296.7" x2="329.1" y2="296.7"/>
<line class="st6" x1="419.3" y1="296.7" x2="419.3" y2="303.6"/>
<line class="st6" x1="419.3" y1="289.4" x2="419.3" y2="296.2"/>
<line class="st6" x1="419.8" y1="289.4" x2="419.8" y2="296.2"/>
<line class="st7" x1="419.3" y1="289.4" x2="419.8" y2="289.4"/>
<line class="st6" x1="417" y1="296.7" x2="417" y2="303.6"/>
<line class="st7" x1="417" y1="303.6" x2="416.4" y2="303.6"/>
<line class="st6" x1="416.4" y1="296.7" x2="416.4" y2="303.6"/>
<line class="st6" x1="416.4" y1="289.4" x2="416.4" y2="296.2"/>
<line class="st6" x1="417" y1="289.4" x2="417" y2="296.2"/>
<line class="st7" x1="416.4" y1="289.4" x2="417" y2="289.4"/>
<line class="st6" x1="414.2" y1="296.7" x2="414.2" y2="303.6"/>
<line class="st7" x1="414.2" y1="303.6" x2="413.6" y2="303.6"/>
<line class="st6" x1="413.6" y1="296.7" x2="413.6" y2="303.6"/>
<line class="st6" x1="413.6" y1="289.4" x2="413.6" y2="296.2"/>
<line class="st6" x1="414.2" y1="289.4" x2="414.2" y2="296.2"/>
<line class="st7" x1="413.6" y1="289.4" x2="414.2" y2="289.4"/>
<line class="st6" x1="411.3" y1="296.7" x2="411.3" y2="303.6"/>
<line class="st7" x1="411.3" y1="303.6" x2="410.7" y2="303.6"/>
<line class="st6" x1="410.7" y1="296.7" x2="410.7" y2="303.6"/>
<line class="st6" x1="410.7" y1="289.4" x2="410.7" y2="296.2"/>
<line class="st6" x1="393.7" y1="289.4" x2="393.7" y2="296.2"/>
<line class="st7" x1="337" y1="289.4" x2="337.6" y2="289.4"/>
<line class="st6" x1="334.8" y1="296.7" x2="334.8" y2="303.6"/>
<line class="st7" x1="334.8" y1="303.6" x2="334.2" y2="303.6"/>
<line class="st6" x1="334.2" y1="296.7" x2="334.2" y2="303.6"/>
<line class="st6" x1="334.2" y1="289.4" x2="334.2" y2="296.2"/>
<line class="st6" x1="334.8" y1="289.4" x2="334.8" y2="296.2"/>
<line class="st7" x1="334.2" y1="289.4" x2="334.8" y2="289.4"/>
<line class="st6" x1="331.9" y1="296.7" x2="331.9" y2="303.6"/>
<line class="st7" x1="331.9" y1="303.6" x2="331.4" y2="303.6"/>
<line class="st6" x1="331.4" y1="296.7" x2="331.4" y2="303.6"/>
<line class="st6" x1="331.4" y1="289.4" x2="331.4" y2="296.2"/>
<line class="st6" x1="331.9" y1="289.4" x2="331.9" y2="296.2"/>
<line class="st7" x1="331.4" y1="289.4" x2="331.9" y2="289.4"/>
<line class="st6" x1="329.1" y1="296.7" x2="329.1" y2="303.6"/>
<line class="st7" x1="329.1" y1="303.6" x2="328.5" y2="303.6"/>
<line class="st6" x1="328.5" y1="296.7" x2="328.5" y2="303.6"/>
<line class="st6" x1="328.5" y1="289.4" x2="328.5" y2="296.2"/>
<line class="st6" x1="329.1" y1="289.4" x2="329.1" y2="296.2"/>
<line class="st7" x1="328.5" y1="289.4" x2="329.1" y2="289.4"/>
<line class="st6" x1="326.3" y1="296.7" x2="326.3" y2="303.6"/>
<line class="st7" x1="326.3" y1="303.6" x2="325.7" y2="303.6"/>
<line class="st6" x1="325.7" y1="296.7" x2="325.7" y2="303.6"/>
<line class="st6" x1="325.7" y1="289.4" x2="325.7" y2="296.2"/>
<line class="st6" x1="326.3" y1="289.4" x2="326.3" y2="296.2"/>
<line class="st7" x1="325.7" y1="289.4" x2="326.3" y2="289.4"/>
<line class="st6" x1="323.4" y1="296.7" x2="323.4" y2="303.6"/>
<line class="st7" x1="323.4" y1="303.6" x2="322.9" y2="303.6"/>
<line class="st6" x1="322.9" y1="296.7" x2="322.9" y2="303.6"/>
<line class="st6" x1="322.9" y1="289.4" x2="322.9" y2="296.2"/>
<line class="st6" x1="323.4" y1="289.4" x2="323.4" y2="296.2"/>
<line class="st7" x1="322.9" y1="289.4" x2="323.4" y2="289.4"/>
<line class="st6" x1="320.6" y1="296.7" x2="320.6" y2="303.6"/>
<line class="st6" x1="314.4" y1="289.4" x2="314.4" y2="296.2"/>
<line class="st6" x1="337" y1="296.7" x2="334.8" y2="296.7"/>
<line class="st6" x1="339.9" y1="296.2" x2="337.6" y2="296.2"/>
<line class="st6" x1="339.9" y1="296.7" x2="337.6" y2="296.7"/>
<line class="st6" x1="342.7" y1="296.2" x2="340.4" y2="296.2"/>
<line class="st6" x1="342.7" y1="296.7" x2="340.4" y2="296.7"/>
<line class="st6" x1="345.6" y1="296.2" x2="343.3" y2="296.2"/>
<line class="st6" x1="345.6" y1="296.7" x2="343.3" y2="296.7"/>
<line class="st6" x1="348.4" y1="296.2" x2="346.1" y2="296.2"/>
<line class="st6" x1="348.4" y1="296.7" x2="346.1" y2="296.7"/>
<line class="st6" x1="351.2" y1="296.2" x2="349" y2="296.2"/>
<line class="st6" x1="351.2" y1="296.7" x2="349" y2="296.7"/>
<line class="st6" x1="354.1" y1="296.2" x2="351.8" y2="296.2"/>
<line class="st6" x1="354.1" y1="296.7" x2="351.8" y2="296.7"/>
<line class="st6" x1="356.9" y1="296.2" x2="354.6" y2="296.2"/>
<line class="st6" x1="356.9" y1="296.7" x2="354.6" y2="296.7"/>
<line class="st6" x1="359.7" y1="296.2" x2="357.5" y2="296.2"/>
<line class="st6" x1="390.9" y1="296.7" x2="388.6" y2="296.7"/>
<line class="st6" x1="436.8" y1="296.7" x2="436.8" y2="303.6"/>
<line class="st6" x1="379.6" y1="296.7" x2="379.6" y2="303.6"/>
<line class="st6" x1="379.6" y1="289.4" x2="379.6" y2="296.2"/>
<line class="st6" x1="380.1" y1="289.4" x2="380.1" y2="296.2"/>
<line class="st7" x1="379.6" y1="289.4" x2="380.1" y2="289.4"/>
<line class="st6" x1="377.3" y1="296.7" x2="377.3" y2="303.6"/>
<line class="st7" x1="377.3" y1="303.6" x2="376.7" y2="303.6"/>
<line class="st6" x1="376.7" y1="296.7" x2="376.7" y2="303.6"/>
<line class="st6" x1="376.7" y1="289.4" x2="376.7" y2="296.2"/>
<line class="st6" x1="377.3" y1="289.4" x2="377.3" y2="296.2"/>
<line class="st7" x1="376.7" y1="289.4" x2="377.3" y2="289.4"/>
<line class="st6" x1="374.5" y1="296.7" x2="374.5" y2="303.6"/>
<line class="st7" x1="374.5" y1="303.6" x2="373.9" y2="303.6"/>
<line class="st6" x1="373.9" y1="296.7" x2="373.9" y2="303.6"/>
<line class="st6" x1="373.9" y1="289.4" x2="373.9" y2="296.2"/>
<line class="st6" x1="374.5" y1="289.4" x2="374.5" y2="296.2"/>
<line class="st7" x1="373.9" y1="289.4" x2="374.5" y2="289.4"/>
<line class="st6" x1="371.6" y1="296.7" x2="371.6" y2="303.6"/>
<line class="st7" x1="371.6" y1="303.6" x2="371.1" y2="303.6"/>
<line class="st6" x1="371.1" y1="296.7" x2="371.1" y2="303.6"/>
<line class="st6" x1="371.1" y1="289.4" x2="371.1" y2="296.2"/>
<line class="st6" x1="371.6" y1="289.4" x2="371.6" y2="296.2"/>
<line class="st7" x1="371.1" y1="289.4" x2="371.6" y2="289.4"/>
<line class="st6" x1="368.8" y1="296.7" x2="368.8" y2="303.6"/>
<line class="st7" x1="368.8" y1="303.6" x2="368.2" y2="303.6"/>
<line class="st6" x1="368.2" y1="296.7" x2="368.2" y2="303.6"/>
<line class="st6" x1="368.2" y1="289.4" x2="368.2" y2="296.2"/>
<line class="st6" x1="368.8" y1="289.4" x2="368.8" y2="296.2"/>
<line class="st7" x1="368.2" y1="289.4" x2="368.8" y2="289.4"/>
<line class="st6" x1="366" y1="296.7" x2="366" y2="303.6"/>
<line class="st7" x1="366" y1="303.6" x2="365.4" y2="303.6"/>
<line class="st6" x1="365.4" y1="296.7" x2="365.4" y2="303.6"/>
<line class="st6" x1="365.4" y1="289.4" x2="365.4" y2="296.2"/>
<line class="st7" x1="351.2" y1="289.4" x2="351.8" y2="289.4"/>
<line class="st7" x1="292.3" y1="303.6" x2="291.7" y2="303.6"/>
<line class="st6" x1="291.7" y1="296.7" x2="291.7" y2="303.6"/>
<line class="st6" x1="292.3" y1="289.4" x2="292.3" y2="296.2"/>
<line class="st6" x1="291.7" y1="289.4" x2="291.7" y2="296.2"/>
<line class="st7" x1="291.7" y1="289.4" x2="292.3" y2="289.4"/>
<line class="st6" x1="289.4" y1="296.7" x2="289.4" y2="303.6"/>
<line class="st7" x1="289.4" y1="303.6" x2="288.9" y2="303.6"/>
<line class="st6" x1="288.9" y1="296.7" x2="288.9" y2="303.6"/>
<line class="st6" x1="289.4" y1="289.4" x2="289.4" y2="296.2"/>
<line class="st6" x1="288.9" y1="289.4" x2="288.9" y2="296.2"/>
<line class="st7" x1="288.9" y1="289.4" x2="289.4" y2="289.4"/>
<line class="st6" x1="286.6" y1="296.7" x2="286.6" y2="303.6"/>
<line class="st7" x1="286.6" y1="303.6" x2="286" y2="303.6"/>
<line class="st6" x1="286" y1="296.7" x2="286" y2="303.6"/>
<line class="st6" x1="286.6" y1="289.4" x2="286.6" y2="296.2"/>
<line class="st6" x1="286" y1="289.4" x2="286" y2="296.2"/>
</svg>
