<?xml version="1.0" encoding="utf-8"?>
<!-- Generator: Adobe Illustrator 21.0.0, SVG Export Plug-In . SVG Version: 6.00 Build 0)  -->
<svg version="1.1" id="Calque_1" xmlns="http://www.w3.org/2000/svg" xmlns:xlink="http://www.w3.org/1999/xlink" x="0px" y="0px"
	 viewBox="0 0 841.9 595.3" style="enable-background:new 0 0 841.9 595.3;" xml:space="preserve">
<style type="text/css">
	.st0{fill:#0000FF;}
	.st1{font-family:'CenturyGothic';}
	.st2{font-size:9.9982px;}
	.st3{font-size:9.9976px;}
	.st4{font-size:9.9974px;}
	.st5{fill:none;stroke:#0000FF;stroke-width:0.51;stroke-miterlimit:10;}
	
		.st6{fill:none;stroke:#0000FF;stroke-width:0.51;stroke-linecap:round;stroke-linejoin:round;stroke-miterlimit:10;stroke-dasharray:43.2,3.6,3.6,3.6;}
	.st7{fill:none;stroke:#0000FF;stroke-width:0.51;stroke-linecap:round;stroke-linejoin:round;stroke-miterlimit:10;}
	
		.st8{fill:none;stroke:#0000FF;stroke-width:0.51;stroke-linecap:round;stroke-linejoin:round;stroke-miterlimit:10;stroke-dasharray:43.2,3.6,3.6,3.6;stroke-dashoffset:10;}
	.st9{fill:none;stroke:#0000FF;stroke-width:0.709;stroke-linecap:round;stroke-linejoin:round;stroke-miterlimit:10;}
</style>
<text transform="matrix(1 0 0 1.0002 662.46 113.9381)" class="st0 st1 st2">Tyrolia Attack Demo</text>
<text transform="matrix(1 0 0 1.0002 487.6406 402.9078)" class="st0 st1 st3">Centre chaussure pour  Attack Demo</text>
<text transform="matrix(1 0 0 1.0003 487.6406 412.9078)" class="st0 st1 st4">Plage de réglage 259-386mm</text>
<polyline class="st5" points="693.1,375.3 689.7,384.2 687.2,382.7 693.1,375.3 "/>
<line class="st6" x1="439.4" y1="330.5" x2="439.4" y2="323.4"/>
<line class="st6" x1="425.2" y1="344.7" x2="418.1" y2="344.7"/>
<line class="st6" x1="439.4" y1="358.8" x2="439.4" y2="365.9"/>
<line class="st6" x1="453.6" y1="344.7" x2="460.6" y2="344.7"/>
<line class="st6" x1="155.9" y1="234.1" x2="155.9" y2="227"/>
<line class="st6" x1="141.7" y1="248.3" x2="134.7" y2="248.3"/>
<line class="st6" x1="155.9" y1="262.5" x2="155.9" y2="269.5"/>
<line class="st6" x1="170.1" y1="248.3" x2="177.2" y2="248.3"/>
<line class="st6" x1="155.9" y1="330.5" x2="155.9" y2="323.4"/>
<line class="st6" x1="141.7" y1="344.7" x2="134.7" y2="344.7"/>
<line class="st6" x1="155.9" y1="358.8" x2="155.9" y2="365.9"/>
<line class="st6" x1="170.1" y1="344.7" x2="177.2" y2="344.7"/>
<line class="st6" x1="439.4" y1="234.1" x2="439.4" y2="227"/>
<line class="st6" x1="425.2" y1="248.3" x2="418.1" y2="248.3"/>
<line class="st6" x1="439.4" y1="262.5" x2="439.4" y2="269.5"/>
<line class="st6" x1="453.6" y1="248.3" x2="460.6" y2="248.3"/>
<path class="st7" d="M439.4,248.3h7.1 M439.4,248.3v7.1 M439.4,248.3h-7.1 M439.4,248.3v-7.1 M155.9,344.7h7.1 M155.9,344.7v7.1
	 M155.9,344.7h-7.1 M155.9,344.7v-7.1 M155.9,248.3h7.1 M155.9,248.3v7.1 M155.9,248.3h-7.1 M155.9,248.3v-7.1 M439.4,344.7h7.1
	 M439.4,344.7v7.1 M439.4,344.7h-7.1 M439.4,344.7v-7.1"/>
<path class="st7" d="M670.2,415.2l22.9-39.9 M488.9,415.2h181.2"/>
<line class="st8" x1="693.1" y1="69.7" x2="693.1" y2="523.2"/>
<polyline class="st0" points="693.1,375.3 689.7,384.2 687.2,382.7 "/>
<path class="st9" d="M447.6,296.7h-2.3 M447.6,296.2h-2.3 M444.8,296.7h-2.3 M444.8,296.2h-2.3 M441.9,296.7h-2.3 M441.9,296.2h-2.3
	 M439.1,296.7h-2.3 M439.1,296.2h-2.3 M436.3,296.7H434 M436.3,296.2H434 M433.4,296.7h-2.3 M433.4,296.2h-2.3 M430.6,296.7h-2.3
	 M430.6,296.2h-2.3 M427.8,296.7h-2.3 M427.8,296.2h-2.3 M424.9,296.7h-2.3 M424.9,296.2h-2.3 M422.1,296.7h-2.3 M422.1,296.2h-2.3
	 M419.3,296.7H417 M419.3,296.2H417 M416.4,296.7h-2.3 M416.4,296.2h-2.3 M413.6,296.7h-2.3 M413.6,296.2h-2.3 M410.7,296.7h-2.3
	 M410.7,296.2h-2.3 M407.9,296.7h-2.3 M407.9,296.2h-2.3 M405.1,296.7h-2.3 M405.1,296.2h-2.3 M402.2,296.7H400 M402.2,296.2H400
	 M399.4,296.7h-2.3 M399.4,296.2h-2.3 M396.6,296.7h-2.3 M396.6,296.2h-2.3 M393.7,296.7h-2.3 M393.7,296.2h-2.3 M390.9,296.7h-2.3
	 M390.9,296.2h-2.3 M388.1,296.7h-2.3 M388.1,296.2h-2.3 M385.2,296.7H383 M385.2,296.2H383 M382.4,296.7h-2.3 M382.4,296.2h-2.3
	 M379.6,296.7h-2.3 M379.6,296.2h-2.3 M376.7,296.7h-2.3 M376.7,296.2h-2.3 M373.9,296.7h-2.3 M373.9,296.2h-2.3 M371.1,296.7h-2.3
	 M371.1,296.2h-2.3 M368.2,296.7H366 M368.2,296.2H366 M365.4,296.7h-2.3 M365.4,296.2h-2.3 M362.6,296.7h-2.3 M362.6,296.2h-2.3
	 M359.7,296.7h-2.3 M359.7,296.2h-2.3 M356.9,296.7h-2.3 M356.9,296.2h-2.3 M354.1,296.7h-2.3 M354.1,296.2h-2.3 M351.2,296.7H349
	 M351.2,296.2H349 M348.4,296.7h-2.3 M348.4,296.2h-2.3 M345.6,296.7h-2.3 M345.6,296.2h-2.3 M342.7,296.7h-2.3 M342.7,296.2h-2.3
	 M339.9,296.7h-2.3 M339.9,296.2h-2.3 M337,296.7h-2.3 M337,296.2h-2.3 M334.2,296.7h-2.3 M334.2,296.2h-2.3 M331.4,296.7h-2.3
	 M331.4,296.2h-2.3 M328.5,296.7h-2.3 M328.5,296.2h-2.3 M325.7,296.7h-2.3 M325.7,296.2h-2.3 M322.9,296.7h-2.3 M322.9,296.2h-2.3
	 M320,296.7h-2.3 M320,296.2h-2.3 M317.2,296.7h-2.3 M317.2,296.2h-2.3 M314.4,296.7h-2.3 M314.4,296.2h-2.3 M311.5,296.7h-2.3
	 M311.5,296.2h-2.3 M308.7,296.7h-2.3 M308.7,296.2h-2.3 M305.9,296.7h-2.3 M305.9,296.2h-2.3 M303,296.7h-2.3 M303,296.2h-2.3
	 M300.2,296.7h-2.3 M300.2,296.2h-2.3 M297.4,296.7h-2.3 M297.4,296.2h-2.3 M294.5,296.7h-2.3 M294.5,296.2h-2.3 M291.7,296.7h-2.3
	 M291.7,296.2h-2.3 M288.9,296.7h-2.3 M288.9,296.2h-2.3 M286,296.7h-2.3 M286,296.2h-2.3 M283.2,296.7h-2.3 M283.2,296.2h-2.3
	 M280.4,296.7h-2.3 M280.4,296.2h-2.3 M447.6,296.7v6.8 M448.2,303.6h-0.6 M448.2,289.4v14.2 M447.6,289.4h0.6 M447.6,289.4v6.8
	 M445.3,289.4v6.8 M444.8,289.4h0.6 M444.8,289.4v6.8 M442.5,289.4v6.8 M441.9,289.4h0.6 M441.9,289.4v6.8 M439.7,289.4v6.8
	 M439.1,289.4h0.6 M439.1,289.4v6.8 M436.8,289.4v6.8 M436.3,289.4h0.6 M436.3,289.4v6.8 M434,289.4v6.8 M433.4,289.4h0.6
	 M433.4,289.4v6.8 M431.2,289.4v6.8 M430.6,289.4h0.6 M430.6,289.4v6.8 M428.3,289.4v6.8 M427.8,289.4h0.6 M427.8,289.4v6.8
	 M425.5,289.4v6.8 M424.9,289.4h0.6 M424.9,289.4v6.8 M422.7,289.4v6.8 M422.1,289.4h0.6 M422.1,289.4v6.8 M419.8,289.4v6.8
	 M419.3,289.4h0.6 M419.3,289.4v6.8 M417,289.4v6.8 M416.4,289.4h0.6 M416.4,289.4v6.8 M414.2,289.4v6.8 M413.6,289.4h0.6
	 M413.6,289.4v6.8 M411.3,289.4v6.8 M410.7,289.4h0.6 M410.7,289.4v6.8 M408.5,289.4v6.8 M407.9,289.4h0.6 M407.9,289.4v6.8
	 M405.6,289.4v6.8 M405.1,289.4h0.6 M405.1,289.4v6.8 M402.8,289.4v6.8 M402.2,289.4h0.6 M402.2,289.4v6.8 M400,289.4v6.8
	 M399.4,289.4h0.6 M399.4,289.4v6.8 M397.1,289.4v6.8 M396.6,289.4h0.6 M396.6,289.4v6.8 M394.3,289.4v6.8 M393.7,289.4h0.6
	 M393.7,289.4v6.8 M391.5,289.4v6.8 M390.9,289.4h0.6 M390.9,289.4v6.8 M388.6,289.4v6.8 M388.1,289.4h0.6 M388.1,289.4v6.8
	 M385.8,289.4v6.8 M385.2,289.4h0.6 M385.2,289.4v6.8 M383,289.4v6.8 M382.4,289.4h0.6 M382.4,289.4v6.8 M380.1,289.4v6.8
	 M379.6,289.4h0.6 M379.6,289.4v6.8 M377.3,289.4v6.8 M376.7,289.4h0.6 M376.7,289.4v6.8 M374.5,289.4v6.8 M373.9,289.4h0.6
	 M373.9,289.4v6.8 M371.6,289.4v6.8 M371.1,289.4h0.6 M371.1,289.4v6.8 M368.8,289.4v6.8 M368.2,289.4h0.6 M368.2,289.4v6.8
	 M366,289.4v6.8 M365.4,289.4h0.6 M365.4,289.4v6.8 M363.1,289.4v6.8 M362.6,289.4h0.6 M362.6,289.4v6.8 M360.3,289.4v6.8
	 M359.7,289.4h0.6 M359.7,289.4v6.8 M357.5,289.4v6.8 M356.9,289.4h0.6 M356.9,289.4v6.8 M354.6,289.4v6.8 M354.1,289.4h0.6
	 M354.1,289.4v6.8 M351.8,289.4v6.8 M351.2,289.4h0.6 M351.2,289.4v6.8 M349,289.4v6.8 M348.4,289.4h0.6 M348.4,289.4v6.8
	 M346.1,289.4v6.8 M345.6,289.4h0.6 M345.6,289.4v6.8 M343.3,289.4v6.8 M342.7,289.4h0.6 M342.7,289.4v6.8 M340.4,289.4v6.8
	 M339.9,289.4h0.6 M339.9,289.4v6.8 M337.6,289.4v6.8 M337,289.4h0.6 M337,289.4v6.8 M334.8,289.4v6.8 M334.2,289.4h0.6
	 M334.2,289.4v6.8 M331.9,289.4v6.8 M331.4,289.4h0.6 M331.4,289.4v6.8 M329.1,289.4v6.8 M328.5,289.4h0.6 M328.5,289.4v6.8
	 M326.3,289.4v6.8 M325.7,289.4h0.6 M325.7,289.4v6.8 M323.4,289.4v6.8 M322.9,289.4h0.6 M322.9,289.4v6.8 M320.6,289.4v6.8
	 M320,289.4h0.6 M320,289.4v6.8 M317.8,289.4v6.8 M317.2,289.4h0.6 M317.2,289.4v6.8 M314.9,289.4v6.8 M314.4,289.4h0.6
	 M314.4,289.4v6.8 M312.1,289.4v6.8 M311.5,289.4h0.6 M311.5,289.4v6.8 M309.3,289.4v6.8 M308.7,289.4h0.6 M308.7,289.4v6.8
	 M306.4,289.4v6.8 M305.9,289.4h0.6 M305.9,289.4v6.8 M303.6,289.4v6.8 M303,289.4h0.6 M303,289.4v6.8 M300.8,289.4v6.8
	 M300.2,289.4h0.6 M300.2,289.4v6.8 M297.9,289.4v6.8 M297.4,289.4h0.6 M297.4,289.4v6.8 M295.1,289.4v6.8 M294.5,289.4h0.6
	 M294.5,289.4v6.8 M292.3,289.4v6.8 M291.7,289.4h0.6 M291.7,289.4v6.8 M289.4,289.4v6.8 M288.9,289.4h0.6 M288.9,289.4v6.8
	 M286.6,289.4v6.8 M286,289.4h0.6 M286,289.4v6.8 M283.8,289.4v6.8 M283.2,289.4h0.6 M283.2,289.4v6.8 M280.9,289.4v6.8
	 M280.4,289.4h0.6 M280.4,289.4v6.8 M278.1,282.3v13.9 M277.5,282.3h0.6 M277.5,282.3v28.3 M278.1,310.6h-0.6 M278.1,296.7v13.9
	 M280.4,296.7v6.8 M280.9,303.6h-0.6 M280.9,296.7v6.8 M283.2,296.7v6.8 M283.8,303.6h-0.6 M283.8,296.7v6.8 M286,296.7v6.8
	 M286.6,303.6H286 M286.6,296.7v6.8 M288.9,296.7v6.8 M289.4,303.6h-0.6 M289.4,296.7v6.8 M291.7,296.7v6.8 M292.3,303.6h-0.6
	 M292.3,296.7v6.8 M294.5,296.7v6.8 M295.1,303.6h-0.6 M295.1,296.7v6.8 M297.4,296.7v6.8 M297.9,303.6h-0.6 M297.9,296.7v6.8
	 M300.2,296.7v6.8 M300.8,303.6h-0.6 M300.8,296.7v6.8 M303,296.7v6.8 M303.6,303.6H303 M303.6,296.7v6.8 M305.9,296.7v6.8
	 M306.4,303.6h-0.6 M306.4,296.7v6.8 M308.7,296.7v6.8 M309.3,303.6h-0.6 M309.3,296.7v6.8 M311.5,296.7v6.8 M312.1,303.6h-0.6
	 M312.1,296.7v6.8 M314.4,296.7v6.8 M314.9,303.6h-0.6 M314.9,296.7v6.8 M317.2,296.7v6.8 M317.8,303.6h-0.6 M317.8,296.7v6.8
	 M320,296.7v6.8 M320.6,303.6H320 M320.6,296.7v6.8 M322.9,296.7v6.8 M323.4,303.6h-0.6 M323.4,296.7v6.8 M325.7,296.7v6.8
	 M326.3,303.6h-0.6 M326.3,296.7v6.8 M328.5,296.7v6.8 M329.1,303.6h-0.6 M329.1,296.7v6.8 M331.4,296.7v6.8 M331.9,303.6h-0.6
	 M331.9,296.7v6.8 M334.2,296.7v6.8 M334.8,303.6h-0.6 M334.8,296.7v6.8 M337,296.7v6.8 M337.6,303.6H337 M337.6,296.7v6.8
	 M339.9,296.7v6.8 M340.4,303.6h-0.6 M340.4,296.7v6.8 M342.7,296.7v6.8 M343.3,303.6h-0.6 M343.3,296.7v6.8 M345.6,296.7v6.8
	 M346.1,303.6h-0.6 M346.1,296.7v6.8 M348.4,296.7v6.8 M349,303.6h-0.6 M349,296.7v6.8 M351.2,296.7v6.8 M351.8,303.6h-0.6
	 M351.8,296.7v6.8 M354.1,296.7v6.8 M354.6,303.6h-0.6 M354.6,296.7v6.8 M356.9,296.7v6.8 M357.5,303.6h-0.6 M357.5,296.7v6.8
	 M359.7,296.7v6.8 M360.3,303.6h-0.6 M360.3,296.7v6.8 M362.6,296.7v6.8 M363.1,303.6h-0.6 M363.1,296.7v6.8 M365.4,296.7v6.8
	 M366,303.6h-0.6 M366,296.7v6.8 M368.2,296.7v6.8 M368.8,303.6h-0.6 M368.8,296.7v6.8 M371.1,296.7v6.8 M371.6,303.6h-0.6
	 M371.6,296.7v6.8 M373.9,296.7v6.8 M374.5,303.6h-0.6 M374.5,296.7v6.8 M376.7,296.7v6.8 M377.3,303.6h-0.6 M377.3,296.7v6.8
	 M379.6,296.7v6.8 M380.1,303.6h-0.6 M380.1,296.7v6.8 M382.4,296.7v6.8 M383,303.6h-0.6 M383,296.7v6.8 M385.2,296.7v6.8
	 M385.8,303.6h-0.6 M385.8,296.7v6.8 M388.1,296.7v6.8 M388.6,303.6h-0.6 M388.6,296.7v6.8 M390.9,296.7v6.8 M391.5,303.6h-0.6
	 M391.5,296.7v6.8 M393.7,296.7v6.8 M394.3,303.6h-0.6 M394.3,296.7v6.8 M396.6,296.7v6.8 M397.1,303.6h-0.6 M397.1,296.7v6.8
	 M399.4,296.7v6.8 M400,303.6h-0.6 M400,296.7v6.8 M402.2,296.7v6.8 M402.8,303.6h-0.6 M402.8,296.7v6.8 M405.1,296.7v6.8
	 M405.6,303.6h-0.6 M405.6,296.7v6.8 M407.9,296.7v6.8 M408.5,303.6h-0.6 M408.5,296.7v6.8 M410.7,296.7v6.8 M411.3,303.6h-0.6
	 M411.3,296.7v6.8 M413.6,296.7v6.8 M414.2,303.6h-0.6 M414.2,296.7v6.8 M416.4,296.7v6.8 M417,303.6h-0.6 M417,296.7v6.8
	 M419.3,296.7v6.8 M419.8,303.6h-0.6 M419.8,296.7v6.8 M422.1,296.7v6.8 M422.7,303.6h-0.6 M422.7,296.7v6.8 M424.9,296.7v6.8
	 M425.5,303.6h-0.6 M425.5,296.7v6.8 M427.8,296.7v6.8 M428.3,303.6h-0.6 M428.3,296.7v6.8 M430.6,296.7v6.8 M431.2,303.6h-0.6
	 M431.2,296.7v6.8 M433.4,296.7v6.8 M434,303.6h-0.6 M434,296.7v6.8 M436.3,296.7v6.8 M436.8,303.6h-0.6 M436.8,296.7v6.8
	 M439.1,296.7v6.8 M439.7,303.6h-0.6 M439.7,296.7v6.8 M441.9,296.7v6.8 M442.5,303.6h-0.6 M442.5,296.7v6.8 M444.8,296.7v6.8
	 M445.3,303.6h-0.6 M445.3,296.7v6.8 M141.7,344.7l0.3,2.9l0.9,2.8l1.5,2.6l2,2.2l2.4,1.7l2.7,1.2l2.9,0.6h3l2.9-0.6l2.7-1.2
	l2.4-1.7l2-2.2l1.5-2.6l0.9-2.8l0.3-2.9l-0.3-2.9l-0.9-2.8l-1.5-2.6l-2-2.2l-2.4-1.7l-2.7-1.2l-2.9-0.6h-3l-2.9,0.6l-2.7,1.2
	l-2.4,1.7l-2,2.2l-1.5,2.6l-0.9,2.8L141.7,344.7 M148.8,344.7l0.3,2.1l0.9,1.9l1.4,1.5l1.8,1.1l2.1,0.5l2.1-0.2l2-0.8l1.7-1.3
	l1.2-1.7l0.6-2v-2.1l-0.6-2l-1.2-1.7l-1.7-1.3l-2-0.8l-2.1-0.2l-2.1,0.5l-1.8,1.1l-1.4,1.5l-0.9,1.9L148.8,344.7 M425.2,344.7
	l0.3,2.9l0.9,2.8l1.5,2.6l2,2.2l2.4,1.7l2.7,1.2l2.9,0.6h3l2.9-0.6l2.7-1.2l2.4-1.7l2-2.2l1.5-2.6l0.9-2.8l0.3-2.9l-0.3-2.9
	l-0.9-2.8l-1.5-2.6l-2-2.2l-2.4-1.7l-2.7-1.2l-2.9-0.6h-3l-2.9,0.6l-2.7,1.2l-2.4,1.7l-2,2.2l-1.5,2.6l-0.9,2.8L425.2,344.7
	 M432.3,344.7l0.3,2.1l0.9,1.9l1.4,1.5l1.8,1.1l2.1,0.5l2.1-0.2l2-0.8l1.7-1.3l1.2-1.7l0.6-2v-2.1l-0.6-2l-1.2-1.7l-1.7-1.3l-2-0.8
	l-2.1-0.2l-2.1,0.5l-1.8,1.1l-1.4,1.5l-0.9,1.9L432.3,344.7 M453.6,248.3l-0.3-2.9l-0.9-2.8l-1.5-2.6l-2-2.2l-2.4-1.7l-2.7-1.2
	l-2.9-0.6h-3l-2.9,0.6l-2.7,1.2l-2.4,1.7l-2,2.2l-1.5,2.6l-0.9,2.8l-0.3,2.9l0.3,2.9l0.9,2.8l1.5,2.6l2,2.2l2.4,1.7l2.7,1.2l2.9,0.6
	h3l2.9-0.6l2.7-1.2l2.4-1.7l2-2.2l1.5-2.6l0.9-2.8L453.6,248.3 M446.5,248.3l-0.3-2.1l-0.9-1.9l-1.4-1.5l-1.8-1.1l-2.1-0.5l-2.1,0.2
	l-2,0.8l-1.7,1.3l-1.2,1.7l-0.6,2v2.1l0.6,2l1.2,1.7l1.7,1.3l2,0.8l2.1,0.2l2.1-0.5l1.8-1.1l1.4-1.5l0.9-1.9L446.5,248.3 M163,248.3
	l-0.3-2.1l-0.9-1.9l-1.4-1.5l-1.8-1.1l-2.1-0.5l-2.1,0.2l-2,0.8l-1.7,1.3l-1.2,1.7l-0.6,2v2.1l0.6,2l1.2,1.7l1.7,1.3l2,0.8l2.1,0.2
	l2.1-0.5l1.8-1.1l1.4-1.5l0.9-1.9L163,248.3 M170.1,248.3l-0.3-2.9l-0.9-2.8l-1.5-2.6l-2-2.2L163,236l-2.7-1.2l-2.9-0.6h-3l-2.9,0.6
	l-2.7,1.2l-2.4,1.7l-2,2.2l-1.5,2.6l-0.9,2.8l-0.3,2.9l0.3,2.9l0.9,2.8l1.5,2.6l2,2.2l2.4,1.7l2.7,1.2l2.9,0.6h3l2.9-0.6l2.7-1.2
	l2.4-1.7l2-2.2l1.5-2.6l0.9-2.8L170.1,248.3"/>
</svg>
