<?xml version="1.0" encoding="utf-8"?>
<!-- Generator: Adobe Illustrator 21.0.0, SVG Export Plug-In . SVG Version: 6.00 Build 0)  -->
<svg version="1.1" id="Calque_1" xmlns="http://www.w3.org/2000/svg" xmlns:xlink="http://www.w3.org/1999/xlink" x="0px" y="0px"
	 viewBox="0 0 841.9 595.3" style="enable-background:new 0 0 841.9 595.3;" xml:space="preserve">
<style type="text/css">
	.st0{fill:#FF8000;}
	.st1{font-family:'CenturyGothic';}
	.st2{font-size:13.2283px;}
	.st3{font-size:9.9993px;}
	.st4{fill:none;stroke:#FF8000;stroke-width:0.51;stroke-miterlimit:10;}
	
		.st5{fill:none;stroke:#FF8000;stroke-width:0.51;stroke-linecap:round;stroke-linejoin:round;stroke-miterlimit:10;stroke-dasharray:43.2,3.6,3.6,3.6;}
	.st6{fill:none;stroke:#FF8000;stroke-width:0.51;stroke-linecap:round;stroke-linejoin:round;stroke-miterlimit:10;}
	
		.st7{fill:none;stroke:#FF8000;stroke-width:0.51;stroke-linecap:round;stroke-linejoin:round;stroke-miterlimit:10;stroke-dasharray:43.2,3.6,3.6,3.6;stroke-dashoffset:10;}
	.st8{fill:none;stroke:#FF8000;stroke-width:0.709;stroke-linecap:round;stroke-linejoin:round;stroke-miterlimit:10;}
</style>
<text transform="matrix(1.0002 0 0 1 624.9365 502.7242)" class="st0 st1 st2"> +/- 15 (stops avant) </text>
<text transform="matrix(1.0003 0 0 1 618.0049 482.736)" class="st0 st1 st2"> -11/+14 (stops arrière) </text>
<text transform="matrix(1 0 0 1.0001 95.5483 113.9381)" class="st0 st1 st3">ATK Raider 12 2.0/FreeRaider 14 2.0 (2020 inclus)</text>
<path class="st4" d="M600.9,485.7l-9.4,1.4v-2.9L600.9,485.7 M530,485.7l9.4-1.5v2.9L530,485.7 M603.7,505.7l-9.3,1.4v-2.9
	L603.7,505.7 M518.7,505.7l9.4-1.5v2.9L518.7,505.7"/>
<line class="st5" x1="531.5" y1="218.5" x2="531.5" y2="211.4"/>
<line class="st5" x1="517.3" y1="232.7" x2="510.2" y2="232.7"/>
<line class="st5" x1="531.5" y1="246.9" x2="531.5" y2="253.9"/>
<line class="st5" x1="545.7" y1="232.7" x2="552.8" y2="232.7"/>
<line class="st5" x1="701.6" y1="218.5" x2="701.6" y2="211.4"/>
<line class="st5" x1="687.4" y1="232.7" x2="680.3" y2="232.7"/>
<line class="st5" x1="701.6" y1="246.9" x2="701.6" y2="253.9"/>
<line class="st5" x1="715.8" y1="232.7" x2="722.8" y2="232.7"/>
<line class="st5" x1="701.6" y1="346.1" x2="701.6" y2="339"/>
<line class="st5" x1="687.4" y1="360.2" x2="680.3" y2="360.2"/>
<line class="st5" x1="701.6" y1="374.4" x2="701.6" y2="381.5"/>
<line class="st5" x1="715.8" y1="360.2" x2="722.8" y2="360.2"/>
<line class="st5" x1="531.5" y1="346.1" x2="531.5" y2="339"/>
<line class="st5" x1="517.3" y1="360.2" x2="510.2" y2="360.2"/>
<line class="st5" x1="531.5" y1="374.4" x2="531.5" y2="381.5"/>
<line class="st5" x1="545.7" y1="360.2" x2="552.8" y2="360.2"/>
<path class="st6" d="M531.5,360.3h7 M531.5,360.3v7.1 M531.5,360.3h-7.1 M531.5,360.3v-7.1 M701.5,360.3h7.1 M701.5,360.3v7.1
	 M701.5,360.3h-7.1 M701.5,360.3v-7.1 M701.5,232.8h7.1 M701.5,232.8v7 M701.5,232.8h-7.1 M701.5,232.8v-7.1 M531.5,232.8h7
	 M531.5,232.8v7 M531.5,232.8h-7.1 M531.5,232.8v-7.1"/>
<line class="st7" x1="518.7" y1="69.7" x2="518.7" y2="523.2"/>
<line class="st7" x1="603.8" y1="69.7" x2="603.8" y2="523.2"/>
<line class="st7" x1="530.1" y1="69.7" x2="530.1" y2="523.2"/>
<line class="st7" x1="601" y1="69.7" x2="601" y2="523.2"/>
<path class="st6" d="M600.9,485.7h162.3 M530,485.7h70.9 M603.7,505.7h152.5 M518.7,505.7h85"/>
<path class="st0" d="M600.9,485.7l-9.4,1.4v-2.9 M530,485.7l9.4-1.5v2.9 M603.7,505.7l-9.3,1.4v-2.9 M518.7,505.7l9.4-1.5v2.9"/>
<path class="st8" d="M535.4,289.5v6.8 M536,289.5v6.8 M535.4,289.5h0.6 M533.2,303.6h-0.6 M533.2,296.8v6.8 M532.6,296.8v6.8
	 M532.6,289.5v6.8 M533.2,289.5v6.8 M532.6,289.5h0.6 M530.3,303.6h-0.5 M530.3,296.8v6.8 M529.8,296.8v6.8 M529.8,289.5v6.8
	 M530.3,289.5v6.8 M529.8,289.5h0.5 M527.5,303.6h-0.6 M470.2,296.8v6.8 M462.3,296.8v6.8 M461.7,296.8v6.8 M461.7,289.5v6.8
	 M462.3,289.5v6.8 M461.7,289.5h0.6 M459.5,303.6h-0.6 M459.5,296.8v6.8 M458.9,296.8v6.8 M458.9,289.5v6.8 M459.5,289.5v6.8
	 M458.9,289.5h0.6 M456.6,303.6h-0.5 M456.6,296.8v6.8 M456.1,296.8v6.8 M456.1,289.5v6.8 M456.6,289.5v6.8 M397.1,303.6h-0.6
	 M397.1,296.3h2.3 M397.1,296.8h2.3 M399.9,296.3h2.3 M399.9,296.8h2.3 M402.8,296.3h2.2 M402.8,296.8h2.2 M405.6,296.3h2.3
	 M405.6,296.8h2.3 M408.4,296.3h2.3 M408.4,296.8h2.3 M411.3,296.3h2.2 M411.3,296.8h2.2 M414.1,296.3h2.3 M414.1,296.8h2.3
	 M416.9,296.3h2.3 M416.9,296.8h2.3 M552.4,296.8v6.8 M544.5,296.8v6.8 M543.9,296.8v6.8 M543.9,289.5v6.8 M544.5,289.5v6.8
	 M543.9,289.5h0.6 M541.7,303.6h-0.6 M541.7,296.8v6.8 M541.1,296.8v6.8 M541.1,289.5v6.8 M541.7,289.5v6.8 M541.1,289.5h0.6
	 M538.8,303.6h-0.5 M538.8,296.8v6.8 M538.3,296.8v6.8 M538.3,289.5v6.8 M538.8,289.5v6.8 M479.3,303.6h-0.6 M453.2,289.5v6.8
	 M453.8,289.5v6.8 M453.2,289.5h0.6 M451,303.6h-0.6 M451,296.8v6.8 M450.4,296.8v6.8 M450.4,289.5v6.8 M451,289.5v6.8 M450.4,289.5
	h0.6 M448.1,303.6h-0.6 M448.1,296.8v6.8 M447.5,296.8v6.8 M447.5,289.5v6.8 M448.1,289.5v6.8 M447.5,289.5h0.6 M445.3,303.6h-0.6
	 M430.5,289.5h0.6 M422.6,289.5v6.8 M422,289.5h0.6 M419.8,303.6h-0.6 M419.8,296.8v6.8 M419.2,296.8v6.8 M419.2,289.5v6.8
	 M419.8,289.5v6.8 M419.2,289.5h0.6 M416.9,303.6h-0.5 M416.9,296.8v6.8 M416.4,296.8v6.8 M416.4,289.5v6.8 M416.9,289.5v6.8
	 M416.4,289.5h0.5 M414.1,303.6h-0.6 M414.1,296.8v6.8 M413.5,296.8v6.8 M413.5,289.5v6.8 M414.1,289.5v6.8 M413.5,289.5h0.6
	 M411.3,303.6h-0.6 M411.3,296.8v6.8 M410.7,296.8v6.8 M410.7,289.5v6.8 M411.3,289.5v6.8 M410.7,289.5h0.6 M408.4,303.6h-0.5
	 M408.4,296.8v6.8 M407.9,296.8v6.8 M407.9,289.5v6.8 M408.4,289.5v6.8 M407.9,289.5h0.5 M405.6,303.6H405 M405.6,296.8v6.8
	 M405,296.8v6.8 M405,289.5v6.8 M527.5,296.8v6.8 M519,303.6h-0.6 M519,296.8v6.8 M518.4,296.8v6.8 M518.4,289.5v6.8 M519,289.5v6.8
	 M518.4,289.5h0.6 M516.1,303.6h-0.5 M516.1,296.8v6.8 M515.6,296.8v6.8 M515.6,289.5v6.8 M516.1,289.5v6.8 M515.6,289.5h0.5
	 M513.3,303.6h-0.6 M513.3,296.8v6.8 M512.7,296.8v6.8 M512.7,289.5v6.8 M487.8,289.5v6.8 M391.4,296.3h2.3 M391.4,296.8h2.3
	 M394.3,296.3h2.2 M394.3,296.8h2.2 M419.8,296.3h2.2 M419.8,296.8h2.2 M422.6,296.3h2.3 M422.6,296.8h2.3 M425.4,296.3h2.3
	 M425.4,296.8h2.3 M428.3,296.3h2.2 M428.3,296.8h2.2 M431.1,296.3h2.3 M431.1,296.8h2.3 M433.9,296.3h2.3 M433.9,296.8h2.3
	 M436.8,296.3h2.2 M436.8,296.8h2.2 M439.6,296.3h2.3 M439.6,296.8h2.3 M442.4,296.3h2.3 M442.4,296.8h2.3 M445.3,296.3h2.2
	 M445.3,296.8h2.2 M448.1,296.3h2.3 M448.1,296.8h2.3 M451,296.3h2.2 M451,296.8h2.2 M453.8,296.3h2.3 M453.8,296.8h2.3
	 M456.6,296.3h2.3 M456.6,296.8h2.3 M459.5,296.3h2.2 M459.5,296.8h2.2 M462.3,296.3h2.3 M462.3,296.8h2.3 M465.1,296.3h2.3
	 M465.1,296.8h2.3 M468,296.3h2.2 M468,296.8h2.2 M470.8,296.3h2.3 M470.8,296.8h2.3 M473.6,296.3h2.3 M473.6,296.8h2.3
	 M476.5,296.3h2.2 M476.5,296.8h2.2 M479.3,296.3h2.3 M479.3,296.8h2.3 M482.1,296.3h2.3 M482.1,296.8h2.3 M485,296.3h2.2
	 M485,296.8h2.2 M487.8,296.3h2.3 M487.8,296.8h2.3 M490.6,296.3h2.3 M490.6,296.8h2.3 M493.5,296.3h2.2 M493.5,296.8h2.2
	 M496.3,296.3h2.3 M496.3,296.8h2.3 M499.1,296.3h2.3 M499.1,296.8h2.3 M502,296.3h2.2 M502,296.8h2.2 M504.8,296.3h2.3
	 M504.8,296.8h2.3 M507.6,296.3h2.3 M507.6,296.8h2.3 M510.5,296.3h2.2 M510.5,296.8h2.2 M513.3,296.3h2.3 M513.3,296.8h2.3
	 M516.1,296.3h2.3 M516.1,296.8h2.3 M519,296.3h2.3 M519,296.8h2.3 M521.8,296.3h2.3 M521.8,296.8h2.3 M524.7,296.3h2.2
	 M524.7,296.8h2.2 M527.5,296.3h2.3 M527.5,296.8h2.3 M530.3,296.3h2.3 M530.3,296.8h2.3 M533.2,296.3h2.2 M533.2,296.8h2.2
	 M536,296.3h2.3 M536,296.8h2.3 M538.8,296.3h2.3 M538.8,296.8h2.3 M541.7,296.3h2.2 M541.7,296.8h2.2 M544.5,296.3h2.3
	 M544.5,296.8h2.3 M547.3,296.3h2.3 M547.3,296.8h2.3 M550.2,296.3h2.2 M550.2,296.8h2.2 M553,296.3h2.3 M553,296.8h2.3
	 M555.8,296.3h2.3 M555.8,296.8h2.3 M558.7,296.3h2.2 M558.7,296.8h2.2 M391.4,289.5v6.8 M390.9,289.5h0.5 M390.9,289.5v14.1
	 M391.4,303.6h-0.5 M391.4,296.8v6.8 M393.7,296.8v6.8 M394.3,303.6h-0.6 M394.3,296.8v6.8 M396.5,296.8v6.8 M397.1,296.8v6.8
	 M399.4,296.8v6.8 M399.9,303.6h-0.5 M399.9,296.8v6.8 M402.2,296.8v6.8 M402.8,303.6h-0.6 M402.8,296.8v6.8 M422,296.8v6.8
	 M422.6,303.6H422 M422.6,296.8v6.8 M424.9,296.8v6.8 M425.4,303.6h-0.5 M425.4,296.8v6.8 M427.7,296.8v6.8 M428.3,303.6h-0.6
	 M428.3,296.8v6.8 M430.5,296.8v6.8 M431.1,303.6h-0.6 M431.1,296.8v6.8 M433.4,296.8v6.8 M433.9,303.6h-0.5 M433.9,296.8v6.8
	 M436.2,296.8v6.8 M436.8,303.6h-0.6 M436.8,296.8v6.8 M439,296.8v6.8 M439.6,303.6H439 M439.6,296.8v6.8 M441.9,296.8v6.8
	 M442.4,303.6h-0.5 M442.4,296.8v6.8 M444.7,296.8v6.8 M445.3,296.8v6.8 M453.2,296.8v6.8 M453.8,303.6h-0.6 M453.8,296.8v6.8
	 M462.3,303.6h-0.6 M464.6,296.8v6.8 M465.1,303.6h-0.5 M465.1,296.8v6.8 M467.4,296.8v6.8 M468,303.6h-0.6 M468,296.8v6.8
	 M470.8,303.6h-0.6 M470.8,296.8v6.8 M473.1,296.8v6.8 M473.6,303.6h-0.5 M473.6,296.8v6.8 M475.9,296.8v6.8 M476.5,303.6h-0.6
	 M476.5,296.8v6.8 M478.7,296.8v6.8 M479.3,296.8v6.8 M481.6,296.8v6.8 M482.1,303.6h-0.5 M482.1,296.8v6.8 M484.4,296.8v6.8
	 M485,303.6h-0.6 M485,296.8v6.8 M487.2,296.8v6.8 M487.8,303.6h-0.6 M487.8,296.8v6.8 M490.1,296.8v6.8 M490.6,303.6h-0.5
	 M490.6,296.8v6.8 M492.9,296.8v6.8 M493.5,303.6h-0.6 M493.5,296.8v6.8 M495.7,296.8v6.8 M496.3,303.6h-0.6 M496.3,296.8v6.8
	 M498.6,296.8v6.8 M499.1,303.6h-0.5 M499.1,296.8v6.8 M501.4,296.8v6.8 M502,303.6h-0.6 M502,296.8v6.8 M504.2,296.8v6.8
	 M504.8,303.6h-0.6 M504.8,296.8v6.8 M507.1,296.8v6.8 M507.6,303.6h-0.5 M507.6,296.8v6.8 M509.9,296.8v6.8 M510.5,303.6h-0.6
	 M510.5,296.8v6.8 M521.3,296.8v6.8 M521.8,303.6h-0.5 M521.8,296.8v6.8 M524.1,296.8v6.8 M524.7,303.6h-0.6 M524.7,296.8v6.8
	 M526.9,296.8v6.8 M535.4,296.8v6.8 M536,303.6h-0.6 M536,296.8v6.8 M544.5,303.6h-0.6 M546.8,296.8v6.8 M547.3,303.6h-0.5
	 M547.3,296.8v6.8 M549.6,296.8v6.8 M550.2,303.6h-0.6 M550.2,296.8v6.8 M553,303.6h-0.6 M553,296.8v6.8 M555.3,296.8v6.8
	 M555.8,303.6h-0.5 M555.8,296.8v6.8 M558.1,296.8v6.8 M558.7,303.6h-0.6 M558.7,296.8v6.8 M560.9,296.8v13.9 M561.5,310.7h-0.6
	 M561.5,282.4v28.3 M560.9,282.4h0.6 M560.9,282.4v13.9 M558.7,289.5v6.8 M558.1,289.5h0.6 M558.1,289.5v6.8 M555.8,289.5v6.8
	 M555.3,289.5h0.5 M555.3,289.5v6.8 M553,289.5v6.8 M552.4,289.5h0.6 M552.4,289.5v6.8 M550.2,289.5v6.8 M549.6,289.5h0.6
	 M549.6,289.5v6.8 M547.3,289.5v6.8 M546.8,289.5h0.5 M546.8,289.5v6.8 M538.3,289.5h0.5 M527.5,289.5v6.8 M526.9,289.5h0.6
	 M526.9,289.5v6.8 M524.7,289.5v6.8 M524.1,289.5h0.6 M524.1,289.5v6.8 M521.8,289.5v6.8 M521.3,289.5h0.5 M521.3,289.5v6.8
	 M513.3,289.5v6.8 M512.7,289.5h0.6 M510.5,289.5v6.8 M509.9,289.5h0.6 M509.9,289.5v6.8 M507.6,289.5v6.8 M507.1,289.5h0.5
	 M507.1,289.5v6.8 M504.8,289.5v6.8 M504.2,289.5h0.6 M504.2,289.5v6.8 M502,289.5v6.8 M501.4,289.5h0.6 M501.4,289.5v6.8
	 M499.1,289.5v6.8 M498.6,289.5h0.5 M498.6,289.5v6.8 M496.3,289.5v6.8 M495.7,289.5h0.6 M495.7,289.5v6.8 M493.5,289.5v6.8
	 M492.9,289.5h0.6 M492.9,289.5v6.8 M490.6,289.5v6.8 M490.1,289.5h0.5 M490.1,289.5v6.8 M487.2,289.5h0.6 M487.2,289.5v6.8
	 M485,289.5v6.8 M484.4,289.5h0.6 M484.4,289.5v6.8 M482.1,289.5v6.8 M481.6,289.5h0.5 M481.6,289.5v6.8 M479.3,289.5v6.8
	 M478.7,289.5h0.6 M478.7,289.5v6.8 M476.5,289.5v6.8 M475.9,289.5h0.6 M475.9,289.5v6.8 M473.6,289.5v6.8 M473.1,289.5h0.5
	 M473.1,289.5v6.8 M470.8,289.5v6.8 M470.2,289.5h0.6 M470.2,289.5v6.8 M468,289.5v6.8 M467.4,289.5h0.6 M467.4,289.5v6.8
	 M465.1,289.5v6.8 M464.6,289.5h0.5 M464.6,289.5v6.8 M456.1,289.5h0.5 M445.3,289.5v6.8 M444.7,289.5h0.6 M444.7,289.5v6.8
	 M442.4,289.5v6.8 M441.9,289.5h0.5 M441.9,289.5v6.8 M439.6,289.5v6.8 M439,289.5h0.6 M439,289.5v6.8 M436.8,289.5v6.8
	 M436.2,289.5h0.6 M436.2,289.5v6.8 M433.9,289.5v6.8 M433.4,289.5h0.5 M433.4,289.5v6.8 M431.1,289.5v6.8 M430.5,289.5v6.8
	 M428.3,289.5v6.8 M427.7,289.5h0.6 M427.7,289.5v6.8 M425.4,289.5v6.8 M424.9,289.5h0.5 M424.9,289.5v6.8 M422,289.5v6.8
	 M405.6,289.5v6.8 M405,289.5h0.6 M402.8,289.5v6.8 M402.2,289.5h0.6 M402.2,289.5v6.8 M399.9,289.5v6.8 M399.4,289.5h0.5
	 M399.4,289.5v6.8 M397.1,289.5v6.8 M396.5,289.5h0.6 M396.5,289.5v6.8 M394.3,289.5v6.8 M393.7,289.5h0.6 M393.7,289.5v6.8
	 M517.3,360.3l0.3,3l0.9,2.8l1.5,2.6l2,2.2l2.4,1.7l2.7,1.2l2.9,0.6h2.9l2.9-0.6l2.7-1.2l2.4-1.7l2-2.2l1.5-2.6l0.9-2.8l0.3-3
	l-0.3-2.9l-0.9-2.8l-1.5-2.6l-2-2.2l-2.4-1.8l-2.7-1.2l-2.9-0.6H530l-2.9,0.6l-2.7,1.2l-2.4,1.8l-2,2.2l-1.5,2.6l-0.9,2.8
	L517.3,360.3 M524.4,360.3l0.3,2.1l0.9,1.9l1.4,1.6l1.9,1l2,0.5l2.1-0.2l2-0.7l1.6-1.4l1.2-1.7l0.7-2v-2.1l-0.7-2.1l-1.2-1.7
	l-1.6-1.3l-2-0.8l-2.1-0.1l-2,0.4l-1.9,1.1l-1.4,1.5l-0.9,1.9L524.4,360.3 M687.4,360.3l0.3,3l0.9,2.8l1.5,2.6l1.9,2.2l2.4,1.7
	l2.8,1.2l2.9,0.6h2.9l2.9-0.6l2.7-1.2l2.4-1.7l2-2.2l1.5-2.6l0.9-2.8l0.3-3l-0.3-2.9l-0.9-2.8L713,352l-2-2.2l-2.4-1.8l-2.7-1.2
	l-2.9-0.6h-2.9l-2.9,0.6l-2.8,1.2l-2.4,1.8l-1.9,2.2l-1.5,2.6l-0.9,2.8L687.4,360.3 M694.4,360.3l0.4,2.1l0.9,1.9l1.4,1.6l1.8,1
	l2.1,0.5l2.1-0.2l2-0.7l1.6-1.4l1.2-1.7l0.6-2v-2.1l-0.6-2.1l-1.2-1.7l-1.6-1.3l-2-0.8l-2.1-0.1l-2.1,0.4l-1.8,1.1l-1.4,1.5
	l-0.9,1.9L694.4,360.3 M715.7,232.8l-0.3-3l-0.9-2.8l-1.5-2.6l-2-2.2l-2.4-1.7l-2.7-1.2l-2.9-0.6h-2.9l-2.9,0.6l-2.8,1.2l-2.4,1.7
	l-1.9,2.2l-1.5,2.6l-0.9,2.8l-0.3,3l0.3,2.9l0.9,2.8l1.5,2.6l1.9,2.2l2.4,1.7l2.8,1.2l2.9,0.7h2.9l2.9-0.7l2.7-1.2l2.4-1.7l2-2.2
	l1.5-2.6l0.9-2.8L715.7,232.8 M708.6,232.8l-0.3-2.1l-0.9-1.9l-1.4-1.6l-1.9-1l-2-0.5l-2.1,0.2l-2,0.7l-1.7,1.3l-1.2,1.8l-0.6,2v2.1
	l0.6,2l1.2,1.8l1.7,1.3l2,0.8l2.1,0.1l2-0.4l1.9-1.1l1.4-1.5l0.9-2L708.6,232.8 M538.5,232.8l-0.3-2.1l-0.9-1.9l-1.4-1.6l-1.9-1
	l-2-0.5l-2.1,0.2l-2,0.7l-1.6,1.3l-1.2,1.8l-0.7,2v2.1l0.7,2l1.2,1.8l1.6,1.3l2,0.8l2.1,0.1l2-0.4l1.9-1.1l1.4-1.5l0.9-2
	L538.5,232.8 M545.6,232.8l-0.3-3l-0.9-2.8l-1.5-2.6l-2-2.2l-2.4-1.7l-2.7-1.2l-2.9-0.6H530l-2.9,0.6l-2.7,1.2l-2.4,1.7l-2,2.2
	l-1.5,2.6l-0.9,2.8l-0.3,3l0.3,2.9l0.9,2.8l1.5,2.6l2,2.2l2.4,1.7l2.7,1.2l2.9,0.7h2.9l2.9-0.7l2.7-1.2l2.4-1.7l2-2.2l1.5-2.6
	l0.9-2.8L545.6,232.8"/>
</svg>
