<?xml version="1.0" encoding="utf-8"?>
<!-- Generator: Adobe Illustrator 21.0.0, SVG Export Plug-In . SVG Version: 6.00 Build 0)  -->
<svg version="1.1" id="Calque_1" xmlns="http://www.w3.org/2000/svg" xmlns:xlink="http://www.w3.org/1999/xlink" x="0px" y="0px"
	 viewBox="0 0 841.9 595.3" style="enable-background:new 0 0 841.9 595.3;" xml:space="preserve">
<style type="text/css">
	.st0{font-family:'CenturyGothic';}
	.st1{font-size:13.2283px;}
	.st2{font-size:10px;}
	.st3{font-size:9.9963px;}
	
		.st4{fill:none;stroke:#000000;stroke-width:0.51;stroke-linecap:round;stroke-linejoin:round;stroke-miterlimit:10;stroke-dasharray:43.2,3.6,3.6,3.6;stroke-dashoffset:10;}
	.st5{fill:none;stroke:#000000;stroke-width:0.709;stroke-linecap:round;stroke-linejoin:round;stroke-miterlimit:10;}
	.st6{fill:#FF0000;}
	.st7{font-size:9.9974px;}
	.st8{fill:none;stroke:#FF0000;stroke-width:0.51;stroke-miterlimit:10;}
	
		.st9{fill:none;stroke:#FF0000;stroke-width:0.51;stroke-linecap:round;stroke-linejoin:round;stroke-miterlimit:10;stroke-dasharray:43.2,3.6,3.6,3.6;}
	.st10{fill:none;stroke:#FF0000;stroke-width:0.51;stroke-linecap:round;stroke-linejoin:round;stroke-miterlimit:10;}
	
		.st11{fill:none;stroke:#FF0000;stroke-width:0.51;stroke-linecap:round;stroke-linejoin:round;stroke-miterlimit:10;stroke-dasharray:43.2,3.6,3.6,3.6;stroke-dashoffset:10;}
	.st12{fill:none;stroke:#FF0000;stroke-width:0.709;stroke-linecap:round;stroke-linejoin:round;stroke-miterlimit:10;}
</style>
<text transform="matrix(1.0001 0 0 1 693.9336 58.5031)" class="st0 st1">TALON ------&gt;</text>
<text transform="matrix(-6.123271e-17 -1 1 -6.123234e-17 559.9303 176.1227)" class="st0 st2">Extrémité chaussure</text>
<text transform="matrix(-6.123234e-17 -1 1.0004 -6.125471e-17 569.9303 176.1227)" class="st0 st3">ou  inserts métalliques</text>
<line class="st4" x1="561.3" y1="69.7" x2="561.3" y2="523.2"/>
<path class="st5" d="M150,69.7h0.6 M36.9,155v-0.6 M178.3,69.7h0.6 M802.2,140.3v0.6 M802.2,211.1v0.6 M192.5,69.7h0.6 M36.9,495.2
	v-0.6 M51.3,523.2h-0.6 M221.4,523.2h-0.6 M802.2,154.5v0.6 M164.1,69.7h0.6 M193,523.2h-0.6 M93.8,523.2h-0.6 M802.2,423.7v0.6
	 M135.8,69.7h0.6 M122.2,523.2h-0.6 M802.2,452.1v0.6 M107.4,69.7h0.6 M150.5,523.2H150 M802.2,381.2v0.6 M206.7,69.7h0.6
	 M802.2,126.1v0.6 M802.2,437.9v0.6 M72,69.7h0.6 M207.2,523.2h-0.6 M802.2,395.4v0.6 M44.2,523.2h-0.6 M802.2,409.6v0.6 M64.9,69.7
	h0.6 M802.2,182.8v0.6 M36.9,98.3v-0.6 M50.7,69.7h0.6 M86.2,69.7h0.6 M802.2,197v0.6 M36.9,197.5V197 M100.4,69.7h0.6 M802.2,97.8
	v0.6 M802.2,466.3v0.6 M36.9,169.2v-0.6 M114.5,69.7h0.6 M802.2,111.9v0.6 M802.2,480.4v0.6 M36.9,140.8v-0.6 M128.7,69.7h0.6
	 M108,523.2h-0.6 M802.2,494.6v0.6 M36.9,211.7v-0.6 M79.1,69.7h0.6 M802.2,168.6v0.6 M36.9,396v-0.6 M43.7,69.7h0.6 M93.3,69.7h0.6
	 M214.3,523.2h-0.6 M36.9,126.7v-0.6 M213.7,69.7h0.6 M200.1,523.2h-0.6 M157,69.7h0.6 M36.9,112.5v-0.6 M199.6,69.7h0.6
	 M36.9,410.1v-0.6 M36.9,481v-0.6 M185.4,69.7h0.6 M171.8,523.2h-0.6 M164.7,523.2h-0.6 M36.9,466.8v-0.6 M171.2,69.7h0.6
	 M136.4,523.2h-0.6 M36.9,438.5v-0.6 M220.8,69.7h0.6 M143.4,523.2h-0.6 M86.7,523.2h-0.6 M36.9,381.8v-0.6 M142.9,69.7h0.6
	 M129.3,523.2h-0.6 M79.7,523.2h-0.6 M57.8,69.7h0.6 M36.9,424.3v-0.6 M100.9,523.2h-0.6 M72.6,523.2H72 M36.9,183.4v-0.6
	 M65.5,523.2h-0.6 M58.4,523.2h-0.6 M157.6,523.2H157 M178.9,523.2h-0.6 M36.9,452.7v-0.6 M121.6,69.7h0.6 M186,523.2h-0.6
	 M115.1,523.2h-0.6 M80.9,252.7v-2.7 M77,249.9l3.9,2.7 M80.9,249.9H77 M222.6,252.7v-2.7 M218.7,249.9l3.9,2.7 M222.6,249.9h-3.9
	 M36.9,495.2v28.1 M44.2,523.2h6.5 M36.9,523.2h6.8 M36.9,495.2h13.9 M43.7,523.2v-14.2 M43.7,509.1h0.6 M44.2,523.2v-14.2
	 M50.7,523.2v-28.1 M50.7,69.7v28.1 M36.9,69.7v28.1 M43.7,69.7h-6.8 M50.7,69.7h-6.5 M36.9,97.8h13.9 M44.2,69.7v14.2 M44.2,83.9
	h-0.6 M43.7,69.7v14.2 M427.8,473.6l-0.4-0.9l-0.7-0.7l-0.7-0.3l-0.8-0.1 M423.6,472.3l-0.5,0.7l-0.3,0.7 M422.8,473.6h5
	 M425.3,471.7l-1,0.2l-0.7,0.4 M488,471.7l-1,0.2l-0.7,0.4 M486.3,472.3l-0.5,0.7l-0.3,0.7 M485.5,473.6h5 M490.5,473.6l-0.4-0.9
	l-0.7-0.7l-0.7-0.3l-0.8-0.1 M136.1,246.5l2.4-0.3l1-0.7l0.3-0.5l0.1-0.6 M136.1,241.9l-2.4,0.4l-1,0.7l-0.3,0.5l-0.1,0.6
	 M132.2,244.2l0.1,0.6l0.3,0.5l0.4,0.4l0.5,0.3l2.5,0.3 M139.9,244.2l-0.2-0.7l-0.4-0.6l-1-0.6 M138.4,242.3l-1.3-0.3l-1-0.1
	 M703,459.2l0.3,2.5l0.7,1l0.5,0.3l0.6,0.1 M707.5,459.2l-0.4-2.4l-0.7-1l-0.5-0.3l-0.6-0.1 M707.2,461.5l0.3-1.3l0.1-1
	 M705.2,455.3l-0.6,0.1l-0.5,0.3l-0.4,0.4l-0.3,0.5l-0.3,2.5 M705.2,463l0.7-0.1l0.6-0.4l0.6-1 M441.1,473.6l-0.4-0.9l-0.7-0.7
	l-0.7-0.3l-0.8-0.1 M436.9,472.3l-0.5,0.7l-0.3,0.7 M436.1,473.6h5 M438.6,471.7l-1,0.2l-0.7,0.4 M709.9,459.2l0.3,2.5l0.7,1
	l0.5,0.3l0.6,0.1 M714.5,459.2l-0.4-2.4l-0.7-1l-0.5-0.3l-0.6-0.1 M714.1,461.5l0.3-1.3l0.1-1 M712.2,463l0.7-0.1l0.6-0.4l0.6-1
	 M712.2,455.3l-0.6,0.1l-0.5,0.3l-0.4,0.4l-0.3,0.5l-0.3,2.5 M152.3,461.5l0.3-1.3l0.1-1 M150.3,463l0.7-0.1l0.6-0.4l0.6-1
	 M148.1,459.2l0.3,2.5l0.7,1l0.5,0.3l0.6,0.1 M152.6,459.2l-0.4-2.4l-0.7-1l-0.5-0.3l-0.6-0.1 M150.3,455.3l-0.6,0.1l-0.5,0.3
	l-0.4,0.4l-0.3,0.5l-0.3,2.5 M107.7,241.9l-2.4,0.4l-1,0.7l-0.3,0.5l-0.1,0.6 M103.9,244.2l0.1,0.6l0.3,0.5l0.4,0.4l0.5,0.3l2.5,0.3
	 M111.6,244.2l-0.1-0.7l-0.4-0.6l-1-0.6 M107.7,246.5l2.5-0.3l1-0.7l0.3-0.5l0.1-0.6 M110,242.3l-1.3-0.3l-1-0.1 M53.1,249l-0.8,0.2
	l-0.6,0.6l-0.3,0.6l-0.1,0.7 M53.1,253l0.8-0.2l0.6-0.6l0.3-0.6l0.1-0.6 M51.3,251.1l0.1,0.8l0.5,0.7l0.6,0.3l0.6,0.1 M54.9,251
	l-0.2-0.8l-0.5-0.7l-0.5-0.4l-0.6-0.1 M164.4,241.9l-2.4,0.4l-1,0.7l-0.3,0.5l-0.1,0.6 M160.6,244.2l0.1,0.6l0.3,0.5l0.4,0.4
	l0.5,0.3l2.5,0.3 M164.4,246.5l2.5-0.3l1-0.7l0.3-0.5l0.1-0.6 M168.3,244.2l-0.1-0.7l-0.4-0.6l-1-0.6 M166.7,242.3l-1.3-0.3l-1-0.1
	 M359.8,471.7l-1,0.2l-0.7,0.4 M358.1,472.3l-0.5,0.7l-0.3,0.7 M357.3,473.6h5 M362.4,473.6l-0.4-0.9l-0.7-0.7l-0.7-0.3l-0.8-0.1
	 M221.1,241.9l-2.4,0.4l-1,0.7l-0.3,0.5l-0.1,0.6 M217.3,244.2l0.1,0.6l0.3,0.5l0.4,0.4l0.5,0.3l2.5,0.3 M221.1,246.5l2.5-0.3l1-0.7
	l0.3-0.5l0.1-0.6 M224.9,244.2l-0.1-0.7l-0.4-0.6l-1-0.6 M223.4,242.3l-1.3-0.3l-1-0.1 M399.6,472.3l-0.5,0.7l-0.3,0.7 M398.8,473.6
	h5 M403.9,473.6l-0.4-0.9l-0.7-0.7l-0.7-0.3l-0.8-0.1 M401.3,471.7l-1,0.2l-0.7,0.4 M75.5,244.2l0.1,0.6l0.3,0.5l0.4,0.4l0.5,0.3
	l2.5,0.3 M79.4,246.5l2.4-0.3l1-0.7l0.3-0.5l0.1-0.6 M79.4,241.9l-2.4,0.4l-1,0.7l-0.3,0.5l-0.1,0.6 M83.2,244.2l-0.2-0.7l-0.4-0.6
	l-1-0.6 M81.7,242.3l-1.3-0.3l-1-0.1 M192.8,241.9l-2.4,0.4l-1,0.7l-0.3,0.5l-0.1,0.6 M188.9,244.2l0.1,0.6l0.3,0.5l0.4,0.4l0.5,0.3
	l2.5,0.3 M192.8,246.5l2.4-0.3l1-0.7l0.3-0.5l0.1-0.6 M196.6,244.2l-0.1-0.7l-0.4-0.6l-1-0.6 M195,242.3l-1.3-0.3l-1-0.1
	 M447.6,474.3l0.3,1.1l0.7,0.9l0.8,0.4l0.9,0.2 M450.3,476.9l1.1-0.2l0.9-0.7l0.5-0.8l0.1-0.9 M453,474.3l-0.2-1.1l-0.7-0.9
	l-0.8-0.4l-0.9-0.1 M450.3,471.7l-1.1,0.2l-0.9,0.7l-0.5,0.8l-0.2,0.9 M168.3,251.2l-0.1-0.9l-0.5-0.8l-0.6-0.4l-0.7-0.1
	 M166.3,248.9l-0.9,0.2l-0.6,0.6l-0.3,0.6l-0.1,0.7 M164.4,251.1l0.2,0.9l0.5,0.8l0.6,0.4l0.7,0.2 M166.4,253.4l0.9-0.2l0.6-0.6
	l0.3-1.4 M511.2,474.3l-0.2-1.1l-0.7-0.9l-0.8-0.5l-0.9-0.2 M508.6,476.9l1.1-0.2l0.9-0.7l0.4-0.8l0.2-0.9 M508.6,471.7l-1.1,0.2
	l-0.9,0.7l-0.5,0.8l-0.1,0.9 M506,474.3l0.2,1.1l0.7,0.9l0.8,0.4l0.9,0.1 M163.5,251.1l-0.1-0.7l-0.4-0.6l-0.5-0.3l-0.5-0.1
	 M162,249.4l-0.7,0.2l-0.5,0.5l-0.2,1.1 M160.6,251.2l0.1,0.7l0.3,0.6l0.4,0.4l0.5,0.1 M162,253l0.7-0.2l0.5-0.5l0.2-0.5l0.1-0.6
	 M136.1,253.4l2.4-0.3l1-0.7l0.3-0.5l0.1-0.6 M136.1,248.9l-2.4,0.4l-1,0.7l-0.3,0.5l-0.1,0.6 M132.2,251.2l0.1,0.6l0.3,0.5l0.4,0.4
	l0.5,0.3l2.5,0.3 M139.9,251.2l-0.2-0.7l-0.4-0.6l-1-0.6 M138.4,249.2l-1.3-0.3l-1-0.1 M381,471.7l-1,0.2l-0.7,0.4 M379.3,472.3
	l-0.5,0.7l-0.3,0.7 M378.5,473.6h5 M383.5,473.6l-0.4-0.9l-0.7-0.7l-0.7-0.3l-0.8-0.1 M196.6,251l-0.2-0.8l-0.5-0.7l-0.5-0.4
	l-0.6-0.1 M194.8,249l-0.8,0.2l-0.6,0.6l-0.3,0.6l-0.1,0.7 M193,251.1l0.1,0.8l0.5,0.7l0.6,0.3l0.6,0.1 M194.8,253l0.8-0.2l0.6-0.6
	l0.3-0.6l0.1-0.6 M51,241.9l-2.4,0.4l-1,0.7l-0.3,0.5l-0.1,0.6 M47.2,244.2l0.1,0.6l0.3,0.5l0.4,0.4l0.5,0.3l2.5,0.3 M51,246.5
	l2.4-0.3l1-0.7l0.3-0.5l0.1-0.6 M54.9,244.2l-0.1-0.7l-0.4-0.6l-1-0.6 M53.3,242.3L52,242l-1-0.1 M476,476.9l1.1-0.2l0.9-0.7
	l0.5-0.8l0.2-0.9 M478.7,474.3l-0.3-1.1l-0.7-0.9l-0.8-0.4l-0.9-0.1 M476,471.7l-1.1,0.2l-0.9,0.7l-0.5,0.8l-0.1,0.9 M473.3,474.3
	l0.2,1.1l0.7,0.9l0.8,0.4l0.9,0.1 M561,290.8v5.4 M561,290.8h0.6 M561.6,290.8v5.4 M799.4,296.2H561.6 M799.4,296.7v-0.6
	 M799.4,296.7H561.6 M561.6,296.7v5.4 M561.6,302.1H561 M561,296.7v5.4 M561,296.7h-2.3 M558.7,296.7v5.4 M558.7,302.1h-0.6
	 M558.2,296.7v5.4 M558.2,296.7h-2.3 M555.9,296.7v5.4 M555.9,302.1h-0.6 M555.3,296.7v5.4 M555.3,296.7H553 M553,296.7v5.4
	 M553,302.1h-0.6 M552.5,296.7v5.4 M552.5,296.7h-2.3 M550.2,296.7v5.4 M550.2,302.1h-0.6 M549.6,296.7v5.4 M549.6,296.7h-2.3
	 M547.4,296.7v5.4 M547.4,302.1h-0.6 M546.8,296.7v5.4 M546.8,296.7h-2.3 M544.5,296.7v5.4 M544.5,302.1H544 M544,296.7v5.4
	 M544,296.7h-2.3 M541.7,296.7v5.4 M541.7,302.1h-0.6 M541.1,296.7v5.4 M541.1,296.7h-2.3 M538.9,296.7v5.4 M538.9,302.1h-0.6
	 M538.3,296.7v5.4 M538.3,296.7H536 M536,296.7v5.4 M536,302.1h-0.6 M535.5,296.7v5.4 M535.5,296.7h-2.3 M533.2,296.7v5.4
	 M533.2,302.1h-0.6 M532.6,296.7v5.4 M532.6,296.7h-2.3 M530.4,296.7v5.4 M530.4,302.1h-0.6 M529.8,296.7v5.4 M529.8,296.7h-2.3
	 M527.5,296.7v5.4 M527.5,302.1H527 M527,296.7v5.4 M527,296.7h-2.3 M524.7,296.7v5.4 M524.7,302.1h-0.6 M524.1,296.7v5.4
	 M524.1,296.7h-2.3 M521.9,296.7v5.4 M521.9,302.1h-0.6 M521.3,296.7v5.4 M521.3,296.7H519 M519,296.7v5.4 M519,302.1h-0.6
	 M518.5,296.7v5.4 M518.5,296.7h-2.3 M516.2,296.7v5.4 M516.2,302.1h-0.6 M515.6,296.7v5.4 M515.6,296.7h-2.3 M513.4,296.7v5.4
	 M513.4,302.1h-0.6 M512.8,296.7v5.4 M512.8,296.7h-2.3 M510.5,296.7v5.4 M510.5,302.1H510 M510,296.7v5.4 M510,296.7h-2.3
	 M507.7,296.7v5.4 M507.7,302.1h-0.6 M507.1,296.7v5.4 M507.1,296.7h-2.3 M504.9,296.7v5.4 M504.9,302.1h-0.6 M504.3,296.7v5.4
	 M504.3,296.7H502 M502,296.7v5.4 M502,302.1h-0.6 M501.5,296.7v5.4 M501.5,296.7h-2.3 M499.2,296.7v5.4 M499.2,302.1h-0.6
	 M498.6,296.7v5.4 M498.6,296.7h-2.3 M496.4,296.7v5.4 M496.4,302.1h-0.6 M495.8,296.7v5.4 M495.8,296.7h-2.3 M493.5,296.7v5.4
	 M493.5,302.1H493 M493,296.7v5.4 M493,296.7h-2.3 M490.7,296.7v5.4 M490.7,302.1h-0.6 M490.1,296.7v5.4 M490.1,296.7h-2.3
	 M487.9,296.7v5.4 M487.9,302.1h-0.6 M487.3,296.7v5.4 M487.3,296.7H485 M485,296.7v5.4 M485,302.1h-0.6 M484.4,296.7v5.4
	 M484.4,296.7h-2.3 M482.2,296.7v5.4 M482.2,302.1h-0.6 M481.6,296.7v5.4 M481.6,296.7h-2.3 M479.3,296.7v5.4 M479.3,302.1h-0.6
	 M478.8,296.7v5.4 M478.8,296.7h-2.3 M476.5,296.7v5.4 M476.5,302.1h-0.6 M475.9,296.7v5.4 M475.9,296.7h-2.3 M473.7,296.7v5.4
	 M473.7,302.1h-0.6 M473.1,296.7v5.4 M473.1,296.7h-2.3 M470.8,296.7v5.4 M470.8,302.1h-0.6 M470.3,296.7v5.4 M470.3,296.7H468
	 M468,296.7v5.4 M468,302.1h-0.6 M467.4,296.7v5.4 M467.4,296.7h-2.3 M465.2,296.7v5.4 M465.2,302.1h-0.6 M464.6,296.7v5.4
	 M464.6,296.7h-2.3 M462.3,296.7v5.4 M462.3,302.1h-0.6 M461.8,296.7v5.4 M461.8,296.7h-2.3 M459.5,296.7v5.4 M459.5,302.1h-0.6
	 M458.9,296.7v5.4 M458.9,296.7h-2.3 M456.7,296.7v5.4 M456.7,302.1h-0.6 M456.1,296.7v5.4 M456.1,296.7h-2.3 M453.8,296.7v5.4
	 M453.8,302.1h-0.6 M453.3,296.7v5.4 M453.3,296.7H451 M451,296.7v5.4 M451,302.1h-0.6 M450.4,296.7v5.4 M450.4,296.7h-2.3
	 M448.2,296.7v5.4 M448.2,302.1h-0.6 M447.6,296.7v5.4 M447.6,296.7h-2.3 M445.3,296.7v5.4 M445.3,302.1h-0.6 M444.8,296.7v5.4
	 M444.8,296.7h-2.3 M442.5,296.7v5.4 M442.5,302.1h-0.6 M441.9,296.7v5.4 M441.9,296.7h-2.3 M439.7,296.7v5.4 M439.7,302.1h-0.6
	 M439.1,296.7v5.4 M439.1,296.7h-2.3 M436.8,296.7v5.4 M436.8,302.1h-0.6 M436.3,296.7v5.4 M436.3,296.7H434 M434,296.7v5.4
	 M434,302.1h-0.6 M433.4,296.7v5.4 M433.4,296.7h-2.3 M431.2,296.7v5.4 M431.2,302.1h-0.6 M430.6,296.7v5.4 M430.6,296.7h-2.3
	 M428.3,296.7v5.4 M428.3,302.1h-0.6 M427.8,296.7v5.4 M427.8,296.7h-2.3 M425.5,296.7v5.4 M425.5,302.1h-0.6 M424.9,296.7v5.4
	 M424.9,296.7h-2.3 M422.7,296.7v5.4 M422.7,302.1h-0.6 M422.1,296.7v5.4 M422.1,296.7h-2.3 M419.8,296.7v5.4 M419.8,302.1h-0.6
	 M419.3,296.7v5.4 M419.3,296.7H417 M417,296.7v5.4 M417,302.1h-0.6 M416.4,296.7v5.4 M416.4,296.7h-2.3 M414.2,296.7v5.4
	 M414.2,302.1h-0.6 M413.6,296.7v5.4 M413.6,296.7h-2.3 M411.3,296.7v5.4 M411.3,302.1h-0.6 M410.7,296.7v5.4 M410.7,296.7h-2.3
	 M408.5,296.7v5.4 M408.5,302.1h-0.6 M407.9,296.7v5.4 M407.9,296.7h-2.3 M405.6,296.7v5.4 M405.6,302.1h-0.6 M405.1,296.7v5.4
	 M405.1,296.7h-2.3 M402.8,296.7v5.4 M402.8,302.1h-0.6 M402.2,296.7v5.4 M402.2,296.7H400 M400,296.7v5.4 M400,302.1h-0.6
	 M399.4,296.7v5.4 M399.4,296.7h-2.3 M397.1,296.7v5.4 M397.1,302.1h-0.6 M396.6,296.7v5.4 M396.6,296.7h-2.3 M394.3,296.7v5.4
	 M394.3,302.1h-0.6 M393.7,296.7v5.4 M393.7,296.7h-2.3 M391.5,296.7v5.4 M391.5,302.1h-0.6 M390.9,296.7v5.4 M390.9,296.7h-2.3
	 M388.6,296.7v5.4 M388.6,302.1h-0.6 M388.1,296.7v5.4 M388.1,296.7h-2.3 M385.8,296.7v5.4 M385.8,302.1h-0.6 M385.2,296.7v5.4
	 M385.2,296.7H383 M383,296.7v5.4 M383,302.1h-0.6 M382.4,296.7v5.4 M382.4,296.7h-2.3 M380.1,296.7v5.4 M380.1,302.1h-0.6
	 M379.6,296.7v5.4 M379.6,296.7H221.4 M221.4,296.7v28.1 M221.4,324.8h-0.6 M220.8,296.7v28.1 M220.8,296.7h-6.5 M214.3,296.7v13.9
	 M214.3,310.6h-0.6 M213.7,296.7v13.9 M213.7,296.7h-6.5 M207.2,296.7v21 M207.2,317.7h-0.6 M206.7,296.7v21 M206.7,296.7h-6.5
	 M200.1,296.7v13.9 M200.1,310.6h-0.6 M199.6,296.7v13.9 M199.6,296.7H193 M193,296.7v28.1 M193,324.8h-0.6 M192.5,296.7v28.1
	 M192.5,296.7H186 M186,296.7v13.9 M186,310.6h-0.6 M185.4,296.7v13.9 M185.4,296.7h-6.5 M178.9,296.7v21 M178.9,317.7h-0.6
	 M178.3,296.7v21 M178.3,296.7h-6.5 M171.8,296.7v13.9 M171.8,310.6h-0.6 M171.2,296.7v13.9 M171.2,296.7h-6.5 M164.7,296.7v28.1
	 M164.7,324.8h-0.6 M164.1,296.7v28.1 M164.1,296.7h-6.5 M157.6,296.7v13.9 M157.6,310.6H157 M157,296.7v13.9 M157,296.7h-6.5
	 M150.5,296.7v21 M150.5,317.7H150 M150,296.7v21 M150,296.7h-6.5 M143.4,296.7v13.9 M143.4,310.6h-0.6 M142.9,296.7v13.9
	 M142.9,296.7h-6.5 M136.4,296.7v28.1 M136.4,324.8h-0.6 M135.8,296.7v28.1 M135.8,296.7h-6.5 M129.3,296.7v13.9 M129.3,310.6h-0.6
	 M128.7,296.7v13.9 M128.7,296.7h-6.5 M122.2,296.7v21 M122.2,317.7h-0.6 M121.6,296.7v21 M121.6,296.7h-6.5 M115.1,296.7v13.9
	 M115.1,310.6h-0.6 M114.5,296.7v13.9 M114.5,296.7H108 M108,296.7v28.1 M108,324.8h-0.6 M107.4,296.7v28.1 M107.4,296.7h-6.5
	 M100.9,296.7v13.9 M100.9,310.6h-0.6 M100.4,296.7v13.9 M100.4,296.7h-6.5 M93.8,296.7v21 M93.8,317.7h-0.6 M93.3,296.7v21
	 M93.3,296.7h-6.5 M86.7,296.7v13.9 M86.7,310.6h-0.6 M86.2,296.7v13.9 M86.2,296.7h-6.5 M79.7,296.7v28.1 M79.7,324.8h-0.6
	 M79.1,296.7v28.1 M79.1,296.7h-6.5 M72.6,296.7v13.9 M72.6,310.6H72 M72,296.7v13.9 M72,296.7h-6.5 M65.5,296.7v21 M65.5,317.7
	h-0.6 M64.9,296.7v21 M64.9,296.7h-6.5 M58.4,296.7v13.9 M58.4,310.6h-0.6 M57.8,296.7v13.9 M57.8,296.7h-6.5 M51.3,296.7v28.1
	 M51.3,324.8h-0.6 M50.7,296.7v28.1 M50.7,296.7h-6.5 M44.2,296.7v13.9 M44.2,310.6h-0.6 M43.7,296.7v13.9 M43.7,296.7h-4
	 M39.7,296.2v0.6 M43.7,296.2h-4 M43.7,282.3v13.9 M43.7,282.3h0.6 M44.2,282.3v13.9 M50.7,296.2h-6.5 M50.7,268.1v28.1 M50.7,268.1
	h0.6 M51.3,268.1v28.1 M57.8,296.2h-6.5 M57.8,282.3v13.9 M57.8,282.3h0.6 M58.4,282.3v13.9 M64.9,296.2h-6.5 M64.9,275.2v21
	 M64.9,275.2h0.6 M65.5,275.2v21 M72,296.2h-6.5 M72,282.3v13.9 M72,282.3h0.6 M72.6,282.3v13.9 M79.1,296.2h-6.5 M79.1,268.1v28.1
	 M79.1,268.1h0.6 M79.7,268.1v28.1 M86.2,296.2h-6.5 M86.2,282.3v13.9 M86.2,282.3h0.6 M86.7,282.3v13.9 M93.3,296.2h-6.5
	 M93.3,275.2v21 M93.3,275.2h0.6 M93.8,275.2v21 M100.4,296.2h-6.5 M100.4,282.3v13.9 M100.4,282.3h0.6 M100.9,282.3v13.9
	 M107.4,296.2h-6.5 M107.4,268.1v28.1 M107.4,268.1h0.6 M108,268.1v28.1 M114.5,296.2H108 M114.5,282.3v13.9 M114.5,282.3h0.6
	 M115.1,282.3v13.9 M121.6,296.2h-6.5 M121.6,275.2v21 M121.6,275.2h0.6 M122.2,275.2v21 M128.7,296.2h-6.5 M128.7,282.3v13.9
	 M128.7,282.3h0.6 M129.3,282.3v13.9 M135.8,296.2h-6.5 M135.8,268.1v28.1 M135.8,268.1h0.6 M136.4,268.1v28.1 M142.9,296.2h-6.5
	 M142.9,282.3v13.9 M142.9,282.3h0.6 M143.4,282.3v13.9 M150,296.2h-6.5 M150,275.2v21 M150,275.2h0.6 M150.5,275.2v21 M157,296.2
	h-6.5 M157,282.3v13.9 M157,282.3h0.6 M157.6,282.3v13.9 M164.1,296.2h-6.5 M164.1,268.1v28.1 M164.1,268.1h0.6 M164.7,268.1v28.1
	 M171.2,296.2h-6.5 M171.2,282.3v13.9 M171.2,282.3h0.6 M171.8,282.3v13.9 M178.3,296.2h-6.5 M178.3,275.2v21 M178.3,275.2h0.6
	 M178.9,275.2v21 M185.4,296.2h-6.5 M185.4,282.3v13.9 M185.4,282.3h0.6 M186,282.3v13.9 M192.5,296.2H186 M192.5,268.1v28.1
	 M192.5,268.1h0.6 M193,268.1v28.1 M199.6,296.2H193 M199.6,282.3v13.9 M199.6,282.3h0.6 M200.1,282.3v13.9 M206.7,296.2h-6.5
	 M206.7,275.2v21 M206.7,275.2h0.6 M207.2,275.2v21 M213.7,296.2h-6.5 M213.7,282.3v13.9 M213.7,282.3h0.6 M214.3,282.3v13.9
	 M220.8,296.2h-6.5 M220.8,268.1v28.1 M220.8,268.1h0.6 M221.4,268.1v28.1 M379.6,296.2H221.4 M379.6,290.8v5.4 M379.6,290.8h0.6
	 M380.1,290.8v5.4 M382.4,296.2h-2.3 M382.4,290.8v5.4 M382.4,290.8h0.6 M383,290.8v5.4 M385.2,296.2H383 M385.2,290.8v5.4
	 M385.2,290.8h0.6 M385.8,290.8v5.4 M388.1,296.2h-2.3 M388.1,290.8v5.4 M388.1,290.8h0.6 M388.6,290.8v5.4 M390.9,296.2h-2.3
	 M390.9,290.8v5.4 M390.9,290.8h0.6 M391.5,290.8v5.4 M393.7,296.2h-2.3 M393.7,290.8v5.4 M393.7,290.8h0.6 M394.3,290.8v5.4
	 M396.6,296.2h-2.3 M396.6,290.8v5.4 M396.6,290.8h0.6 M397.1,290.8v5.4 M399.4,296.2h-2.3 M399.4,290.8v5.4 M399.4,290.8h0.6
	 M400,290.8v5.4 M402.2,296.2H400 M402.2,290.8v5.4 M402.2,290.8h0.6 M402.8,290.8v5.4 M405.1,296.2h-2.3 M405.1,290.8v5.4
	 M405.1,290.8h0.6 M405.6,290.8v5.4 M407.9,296.2h-2.3 M407.9,290.8v5.4 M407.9,290.8h0.6 M408.5,290.8v5.4 M410.7,296.2h-2.3
	 M410.7,290.8v5.4 M410.7,290.8h0.6 M411.3,290.8v5.4 M413.6,296.2h-2.3 M413.6,290.8v5.4 M413.6,290.8h0.6 M414.2,290.8v5.4
	 M416.4,296.2h-2.3 M416.4,290.8v5.4 M416.4,290.8h0.6 M417,290.8v5.4 M419.3,296.2H417 M419.3,290.8v5.4 M419.3,290.8h0.6
	 M419.8,290.8v5.4 M422.1,296.2h-2.3 M422.1,290.8v5.4 M422.1,290.8h0.6 M422.7,290.8v5.4 M424.9,296.2h-2.3 M424.9,290.8v5.4
	 M424.9,290.8h0.6 M425.5,290.8v5.4 M427.8,296.2h-2.3 M427.8,290.8v5.4 M427.8,290.8h0.6 M428.3,290.8v5.4 M430.6,296.2h-2.3
	 M430.6,290.8v5.4 M430.6,290.8h0.6 M431.2,290.8v5.4 M433.4,296.2h-2.3 M433.4,290.8v5.4 M433.4,290.8h0.6 M434,290.8v5.4
	 M436.3,296.2H434 M436.3,290.8v5.4 M436.3,290.8h0.6 M436.8,290.8v5.4 M439.1,296.2h-2.3 M439.1,290.8v5.4 M439.1,290.8h0.6
	 M439.7,290.8v5.4 M441.9,296.2h-2.3 M441.9,290.8v5.4 M441.9,290.8h0.6 M442.5,290.8v5.4 M444.8,296.2h-2.3 M444.8,290.8v5.4
	 M444.8,290.8h0.6 M445.3,290.8v5.4 M447.6,296.2h-2.3 M447.6,290.8v5.4 M447.6,290.8h0.6 M448.2,290.8v5.4 M450.4,296.2h-2.3
	 M450.4,290.8v5.4 M450.4,290.8h0.6 M451,290.8v5.4 M453.3,296.2H451 M453.3,290.8v5.4 M453.3,290.8h0.6 M453.8,290.8v5.4
	 M456.1,296.2h-2.3 M456.1,290.8v5.4 M456.1,290.8h0.6 M456.7,290.8v5.4 M458.9,296.2h-2.3 M458.9,290.8v5.4 M458.9,290.8h0.6
	 M459.5,290.8v5.4 M461.8,296.2h-2.3 M461.8,290.8v5.4 M461.8,290.8h0.6 M462.3,290.8v5.4 M464.6,296.2h-2.3 M464.6,290.8v5.4
	 M464.6,290.8h0.6 M465.2,290.8v5.4 M467.4,296.2h-2.3 M467.4,290.8v5.4 M467.4,290.8h0.6 M468,290.8v5.4 M470.3,296.2H468
	 M470.3,290.8v5.4 M470.3,290.8h0.6 M470.8,290.8v5.4 M473.1,296.2h-2.3 M473.1,290.8v5.4 M473.1,290.8h0.6 M473.7,290.8v5.4
	 M475.9,296.2h-2.3 M475.9,290.8v5.4 M475.9,290.8h0.6 M476.5,290.8v5.4 M478.8,296.2h-2.3 M478.8,290.8v5.4 M478.8,290.8h0.6
	 M479.3,290.8v5.4 M481.6,296.2h-2.3 M481.6,290.8v5.4 M481.6,290.8h0.6 M482.2,290.8v5.4 M484.4,296.2h-2.3 M484.4,290.8v5.4
	 M484.4,290.8h0.6 M485,290.8v5.4 M487.3,296.2H485 M487.3,290.8v5.4 M487.3,290.8h0.6 M487.9,290.8v5.4 M490.1,296.2h-2.3
	 M490.1,290.8v5.4 M490.1,290.8h0.6 M490.7,290.8v5.4 M493,296.2h-2.3 M493,290.8v5.4 M493,290.8h0.6 M493.5,290.8v5.4 M495.8,296.2
	h-2.3 M495.8,290.8v5.4 M495.8,290.8h0.6 M496.4,290.8v5.4 M498.6,296.2h-2.3 M498.6,290.8v5.4 M498.6,290.8h0.6 M499.2,290.8v5.4
	 M501.5,296.2h-2.3 M501.5,290.8v5.4 M501.5,290.8h0.6 M502,290.8v5.4 M504.3,296.2H502 M504.3,290.8v5.4 M504.3,290.8h0.6
	 M504.9,290.8v5.4 M507.1,296.2h-2.3 M507.1,290.8v5.4 M507.1,290.8h0.6 M507.7,290.8v5.4 M510,296.2h-2.3 M510,290.8v5.4
	 M510,290.8h0.6 M510.5,290.8v5.4 M512.8,296.2h-2.3 M512.8,290.8v5.4 M512.8,290.8h0.6 M513.4,290.8v5.4 M515.6,296.2h-2.3
	 M515.6,290.8v5.4 M515.6,290.8h0.6 M516.2,290.8v5.4 M518.5,296.2h-2.3 M518.5,290.8v5.4 M518.5,290.8h0.6 M519,290.8v5.4
	 M521.3,296.2H519 M521.3,290.8v5.4 M521.3,290.8h0.6 M521.9,290.8v5.4 M524.1,296.2h-2.3 M524.1,290.8v5.4 M524.1,290.8h0.6
	 M524.7,290.8v5.4 M527,296.2h-2.3 M527,290.8v5.4 M527,290.8h0.6 M527.5,290.8v5.4 M529.8,296.2h-2.3 M529.8,290.8v5.4
	 M529.8,290.8h0.6 M530.4,290.8v5.4 M532.6,296.2h-2.3 M532.6,290.8v5.4 M532.6,290.8h0.6 M533.2,290.8v5.4 M535.5,296.2h-2.3
	 M535.5,290.8v5.4 M535.5,290.8h0.6 M536,290.8v5.4 M538.3,296.2H536 M538.3,290.8v5.4 M538.3,290.8h0.6 M538.9,290.8v5.4
	 M541.1,296.2h-2.3 M541.1,290.8v5.4 M541.1,290.8h0.6 M541.7,290.8v5.4 M544,296.2h-2.3 M544,290.8v5.4 M544,290.8h0.6
	 M544.5,290.8v5.4 M546.8,296.2h-2.3 M546.8,290.8v5.4 M546.8,290.8h0.6 M547.4,290.8v5.4 M549.6,296.2h-2.3 M549.6,290.8v5.4
	 M549.6,290.8h0.6 M550.2,290.8v5.4 M552.5,296.2h-2.3 M552.5,290.8v5.4 M552.5,290.8h0.6 M553,290.8v5.4 M555.3,296.2H553
	 M555.3,290.8v5.4 M555.3,290.8h0.6 M555.9,290.8v5.4 M558.2,296.2h-2.3 M558.2,290.8v5.4 M558.2,290.8h0.6 M558.7,290.8v5.4
	 M561,296.2h-2.3 M36.9,98.3h28.3 M36.9,98.3v13.6 M36.9,111.9H51 M51,111.9v0.6 M36.9,112.5H51 M36.9,112.5v13.6 M36.9,126.1h21.3
	 M58.1,126.1v0.6 M36.9,126.7h21.3 M36.9,126.7v13.6 M36.9,140.3H51 M51,140.3v0.6 M36.9,140.8H51 M36.9,140.8v13.6 M36.9,154.5
	h28.3 M65.2,154.5v0.6 M36.9,155h28.3 M36.9,155v13.6 M36.9,168.6H51 M51,168.6v0.6 M36.9,169.2H51 M36.9,169.2v13.6 M36.9,182.8
	h21.3 M58.1,182.8v0.6 M36.9,183.4h21.3 M36.9,183.4V197 M36.9,197H51 M51,197v0.6 M36.9,197.5H51 M36.9,197.5v13.6 M36.9,211.1
	h28.3 M65.2,211.1v0.6 M36.9,211.7h28.3 M36.9,211.7v169.5 M36.9,381.2h28.3 M65.2,381.2v0.6 M36.9,381.8h28.3 M36.9,381.8v13.6
	 M36.9,395.4H51 M51,395.4v0.6 M36.9,396H51 M36.9,396v13.6 M36.9,409.6h21.3 M58.1,409.6v0.6 M36.9,410.1h21.3 M36.9,410.1v13.6
	 M36.9,423.7H51 M51,423.7v0.6 M36.9,424.3H51 M36.9,424.3v13.6 M36.9,437.9h28.3 M65.2,437.9v0.6 M36.9,438.5h28.3 M36.9,438.5
	v13.6 M36.9,452.1H51 M51,452.1v0.6 M36.9,452.7H51 M36.9,452.7v13.6 M36.9,466.3h21.3 M58.1,466.3v0.6 M36.9,466.8h21.3
	 M36.9,466.8v13.6 M36.9,480.4H51 M51,480.4v0.6 M36.9,481H51 M36.9,481v13.6 M36.9,494.6h28.3 M65.2,494.6v0.6 M51.3,495.2h13.9
	 M51.3,523.2v-28.1 M51.3,523.2h6.5 M57.8,523.2v-14.2 M57.8,509.1h0.6 M58.4,523.2v-14.2 M58.4,523.2h6.5 M64.9,523.2V502
	 M64.9,502h0.6 M65.5,523.2V502 M65.5,523.2H72 M72,523.2v-14.2 M72,509.1h0.6 M72.6,523.2v-14.2 M72.6,523.2h6.5 M79.1,523.2v-28.3
	 M79.1,494.9h0.6 M79.7,523.2v-28.3 M79.7,523.2h6.5 M86.2,523.2v-14.2 M86.2,509.1h0.6 M86.7,523.2v-14.2 M86.7,523.2h6.5
	 M93.3,523.2V502 M93.3,502h0.6 M93.8,523.2V502 M93.8,523.2h6.5 M100.4,523.2v-14.2 M100.4,509.1h0.6 M100.9,523.2v-14.2
	 M100.9,523.2h6.5 M107.4,523.2v-28.3 M107.4,494.9h0.6 M108,523.2v-28.3 M108,523.2h6.5 M114.5,523.2v-14.2 M114.5,509.1h0.6
	 M115.1,523.2v-14.2 M115.1,523.2h6.5 M121.6,523.2V502 M121.6,502h0.6 M122.2,523.2V502 M122.2,523.2h6.5 M128.7,523.2v-14.2
	 M128.7,509.1h0.6 M129.3,523.2v-14.2 M129.3,523.2h6.5 M135.8,523.2v-28.3 M135.8,494.9h0.6 M136.4,523.2v-28.3 M136.4,523.2h6.5
	 M142.9,523.2v-14.2 M142.9,509.1h0.6 M143.4,523.2v-14.2 M143.4,523.2h6.5 M150,523.2V502 M150,502h0.6 M150.5,523.2V502
	 M150.5,523.2h6.5 M157,523.2v-14.2 M157,509.1h0.6 M157.6,523.2v-14.2 M157.6,523.2h6.5 M164.1,523.2v-28.3 M164.1,494.9h0.6
	 M164.7,523.2v-28.3 M164.7,523.2h6.5 M171.2,523.2v-14.2 M171.2,509.1h0.6 M171.8,523.2v-14.2 M171.8,523.2h6.5 M178.3,523.2V502
	 M178.3,502h0.6 M178.9,523.2V502 M178.9,523.2h6.5 M185.4,523.2v-14.2 M185.4,509.1h0.6 M186,523.2v-14.2 M186,523.2h6.5
	 M192.5,523.2v-28.3 M192.5,494.9h0.6 M193,523.2v-28.3 M193,523.2h6.5 M199.6,523.2v-14.2 M199.6,509.1h0.6 M200.1,523.2v-14.2
	 M200.1,523.2h6.5 M206.7,523.2V502 M206.7,502h0.6 M207.2,523.2V502 M207.2,523.2h6.5 M213.7,523.2v-14.2 M213.7,509.1h0.6
	 M214.3,523.2v-14.2 M214.3,523.2h6.5 M220.8,523.2v-28.3 M220.8,494.9h0.6 M221.4,523.2v-28.3 M221.4,523.2H788 M788,523.2l2.8-0.3
	l2.7-0.8l2.5-1.3l2.1-1.8l1.8-2.1l1.3-2.5l0.8-2.7l0.3-2.8 M802.2,509.1v-13.9 M802.2,495.2h-28.3 M773.9,495.2v-0.6 M802.2,494.6
	h-28.3 M802.2,494.6V481 M802.2,481H788 M788,481v-0.6 M802.2,480.4H788 M802.2,480.4v-13.6 M802.2,466.8H781 M781,466.8v-0.6
	 M802.2,466.3H781 M802.2,466.3v-13.6 M802.2,452.7H788 M788,452.7v-0.6 M802.2,452.1H788 M802.2,452.1v-13.6 M802.2,438.5h-28.3
	 M773.9,438.5v-0.6 M802.2,437.9h-28.3 M802.2,437.9v-13.6 M802.2,424.3H788 M788,424.3v-0.6 M802.2,423.7H788 M802.2,423.7v-13.6
	 M802.2,410.1H781 M781,410.1v-0.6 M802.2,409.6H781 M802.2,409.6V396 M802.2,396H788 M788,396v-0.6 M802.2,395.4H788 M802.2,395.4
	v-13.6 M802.2,381.8h-28.3 M773.9,381.8v-0.6 M802.2,381.2h-28.3 M802.2,381.2V211.7 M802.2,211.7h-28.3 M773.9,211.7v-0.6
	 M802.2,211.1h-28.3 M802.2,211.1v-13.6 M802.2,197.5H788 M788,197.5V197 M802.2,197H788 M802.2,197v-13.6 M802.2,183.4H781
	 M781,183.4v-0.6 M802.2,182.8H781 M802.2,182.8v-13.6 M802.2,169.2H788 M788,169.2v-0.6 M802.2,168.6H788 M802.2,168.6V155
	 M802.2,155h-28.3 M773.9,155v-0.6 M802.2,154.5h-28.3 M802.2,154.5v-13.6 M802.2,140.8H788 M788,140.8v-0.6 M802.2,140.3H788
	 M802.2,140.3v-13.6 M802.2,126.7H781 M781,126.7v-0.6 M802.2,126.1H781 M802.2,126.1v-13.6 M802.2,112.5H788 M788,112.5v-0.6
	 M802.2,111.9H788 M802.2,111.9V98.3 M802.2,98.3h-28.3 M773.9,98.3v-0.6 M802.2,97.8h-28.3 M802.2,97.8V83.9 M802.2,83.9l-0.3-2.8
	l-0.8-2.7l-1.3-2.5l-1.8-2.1l-2.1-1.8l-2.5-1.3l-2.7-0.8l-2.8-0.3 M788,69.7H221.4 M221.4,69.7V98 M221.4,98h-0.6 M220.8,69.7V98
	 M220.8,69.7h-6.5 M214.3,69.7v14.2 M214.3,83.9h-0.6 M213.7,69.7v14.2 M213.7,69.7h-6.5 M207.2,69.7V91 M207.2,91h-0.6 M206.7,69.7
	V91 M206.7,69.7h-6.5 M200.1,69.7v14.2 M200.1,83.9h-0.6 M199.6,69.7v14.2 M199.6,69.7H193 M193,69.7V98 M193,98h-0.6 M192.5,69.7
	V98 M192.5,69.7H186 M186,69.7v14.2 M186,83.9h-0.6 M185.4,69.7v14.2 M185.4,69.7h-6.5 M178.9,69.7V91 M178.9,91h-0.6 M178.3,69.7
	V91 M178.3,69.7h-6.5 M171.8,69.7v14.2 M171.8,83.9h-0.6 M171.2,69.7v14.2 M171.2,69.7h-6.5 M164.7,69.7V98 M164.7,98h-0.6
	 M164.1,69.7V98 M164.1,69.7h-6.5 M157.6,69.7v14.2 M157.6,83.9H157 M157,69.7v14.2 M157,69.7h-6.5 M150.5,69.7V91 M150.5,91H150
	 M150,69.7V91 M150,69.7h-6.5 M143.4,69.7v14.2 M143.4,83.9h-0.6 M142.9,69.7v14.2 M142.9,69.7h-6.5 M136.4,69.7V98 M136.4,98h-0.6
	 M135.8,69.7V98 M135.8,69.7h-6.5 M129.3,69.7v14.2 M129.3,83.9h-0.6 M128.7,69.7v14.2 M128.7,69.7h-6.5 M122.2,69.7V91 M122.2,91
	h-0.6 M121.6,69.7V91 M121.6,69.7h-6.5 M115.1,69.7v14.2 M115.1,83.9h-0.6 M114.5,69.7v14.2 M114.5,69.7H108 M108,69.7V98 M108,98
	h-0.6 M107.4,69.7V98 M107.4,69.7h-6.5 M100.9,69.7v14.2 M100.9,83.9h-0.6 M100.4,69.7v14.2 M100.4,69.7h-6.5 M93.8,69.7V91
	 M93.8,91h-0.6 M93.3,69.7V91 M93.3,69.7h-6.5 M86.7,69.7v14.2 M86.7,83.9h-0.6 M86.2,69.7v14.2 M86.2,69.7h-6.5 M79.7,69.7V98
	 M79.7,98h-0.6 M79.1,69.7V98 M79.1,69.7h-6.5 M72.6,69.7v14.2 M72.6,83.9H72 M72,69.7v14.2 M72,69.7h-6.5 M65.5,69.7V91 M65.5,91
	h-0.6 M64.9,69.7V91 M64.9,69.7h-6.5 M58.4,69.7v14.2 M58.4,83.9h-0.6 M57.8,69.7v14.2 M57.8,69.7h-6.5 M51.3,69.7v28.1 M51.3,97.8
	h13.9 M65.2,97.8v0.6 M105.3,256.3l-0.7,0.2l-0.5,0.5l-0.3,1.1 M103.9,258.2l0.1,0.7l0.4,0.6l0.9,0.6 M105.3,260.1v0.8 M105.3,260.9
	l-1-0.4l-0.8-0.7l-0.4-0.8l-0.1-0.8 M103,258.2l0.2-1.1l0.6-0.9l0.7-0.5l0.8-0.2 M105.3,255.5l0.6,0.1l0.6,0.3l0.7,0.7 M107.2,256.6
	l0.4-0.6l0.4-0.4 M108,255.6l0.9-0.4l0.8-0.1 M109.6,255.1l1.3,0.3l1,0.9l0.5,0.9l0.1,1 M112.5,258.2l-0.2,1.2l-0.7,1l-0.8,0.5
	l-0.9,0.3 M109.8,261.2v-0.8 M109.8,260.4l0.8-0.3l0.5-0.4 M111.1,259.7l0.4-0.8l0.1-0.7 M111.6,258.2l-0.1-0.9l-0.5-0.8l-0.6-0.4
	l-0.7-0.2 M109.6,255.9l-0.5,0.1l-0.4,0.2l-0.6,0.7l-0.4,1.8 M107.7,258.7h-0.9 M106.8,258.7l-0.3-1.5l-0.5-0.6l-0.3-0.2l-0.4-0.1
	 M105.7,249l-0.8,0.2l-0.6,0.5l-0.3,0.6l-0.1,0.6 M103.9,251l0.2,0.9l0.6,0.7l0.6,0.3l0.7,0.1 M106,253.1v0.8 M106,253.9l-1.3-0.3
	l-1.1-0.8l-0.5-0.9l-0.2-1 M103,250.9l0.2-1.2l0.7-0.9l0.8-0.5l0.9-0.2 M105.7,248.2l1.1,0.2l0.9,0.5l1.3,1.1 M108.9,250l2.4,2.3
	 M111.3,252.3v-4.2 M111.3,248.1h0.9 M112.3,248.1v6.2 M112.3,254.3l-3.8-3.5 M108.5,250.7l-1.4-1.2l-0.6-0.4l-0.7-0.1 M107.7,241.1
	l1.6,0.1l1.5,0.5l1.2,1l0.3,0.7l0.1,0.8 M112.5,244.2l-0.1,0.8l-0.3,0.7l-1.2,1l-1.5,0.4l-1.6,0.1 M107.7,247.3l-1.6-0.1l-1.5-0.4
	l-0.7-0.4l-0.5-0.6l-0.3-0.7l-0.1-0.8 M103,244.2l0.1-0.8l0.3-0.7l1.2-1l1.5-0.5l1.6-0.1 M77,256.3l-0.7,0.2l-0.5,0.5l-0.3,1.1
	 M75.5,258.2l0.1,0.7l0.4,0.6l0.9,0.6 M76.9,260.1v0.8 M76.9,260.9l-1-0.4l-0.8-0.7l-0.4-0.8l-0.1-0.8 M74.6,258.2l0.2-1.1l0.6-0.9
	l0.7-0.5l0.8-0.2 M77,255.5l0.6,0.1l0.6,0.3l0.7,0.7 M78.8,256.6l0.4-0.6l0.4-0.4 M79.6,255.6l0.9-0.4l0.8-0.1 M81.2,255.1l1.3,0.3
	l1,0.9l0.5,0.9l0.1,1 M84.1,258.2l-0.2,1.2l-0.7,1l-0.8,0.5l-0.9,0.3 M81.5,261.2v-0.8 M81.5,260.4l0.8-0.3l0.5-0.4 M82.7,259.7
	l0.4-0.8l0.1-0.7 M83.2,258.2l-0.1-0.9l-0.5-0.8L82,256l-0.7-0.2 M81.3,255.9l-0.5,0.1l-0.4,0.2l-0.6,0.7l-0.4,1.8 M79.4,258.7h-0.9
	 M78.4,258.7l-0.3-1.5l-0.5-0.6l-0.3-0.2l-0.4-0.1 M51,241.1l1.6,0.1l1.5,0.5l1.2,1l0.3,0.7l0.1,0.8 M55.8,244.2l-0.1,0.8l-0.3,0.7
	l-1.2,1l-1.5,0.4l-1.6,0.1 M51,247.3l-1.6-0.1l-1.5-0.4l-0.7-0.4l-0.5-0.6l-0.3-0.7l-0.1-0.8 M46.3,244.2l0.1-0.8l0.3-0.7l1.2-1
	l1.5-0.5l1.6-0.1 M194.8,253.8l-1.5-0.4l-1.1-0.6 M192.1,252.8l-4.1-2.7 M188,250.1l0.5-0.6 M188.5,249.4l3.7,2.4 M192.2,251.8
	l-0.1-0.5l0-0.4 M192.1,250.9l0.2-1.2l0.7-0.9l0.8-0.5l0.9-0.1 M194.8,248.2l1.2,0.3l1,0.8l0.5,0.9l0.2,1 M197.5,251l-0.3,1.2
	l-0.7,1l-0.8,0.5l-0.9,0.2 M159.6,251.1l0.2-1.1l0.6-0.9l0.7-0.5l0.8-0.2 M162,248.6l0.7,0.1l0.6,0.3l0.7,0.8 M163.9,249.8l1.1-1.4
	l0.6-0.3l0.7-0.1 M166.3,248.1l1.1,0.2l0.8,0.5 M168.2,248.8l0.8,1.2l0.2,1.2 M169.2,251.2l-0.2,1.3l-0.7,1.1l-0.9,0.5l-1,0.2
	 M166.4,254.3l-0.9-0.2l-0.8-0.5l-0.8-1.2 M163.9,252.5l-0.9,1l-0.5,0.2l-0.5,0.1 M162,253.8l-1-0.3l-0.8-0.7l-0.4-0.8l-0.1-0.8
	 M136.1,241.1l1.6,0.1l1.5,0.5l1.2,1l0.3,0.7l0.1,0.8 M140.8,244.2l-0.1,0.8l-0.3,0.7l-1.2,1l-1.5,0.4l-1.6,0.1 M136.1,247.3
	l-1.6-0.1l-1.5-0.4l-0.7-0.4l-0.5-0.6l-0.3-0.7l-0.1-0.8 M131.3,244.2l0.1-0.8l0.3-0.7l1.2-1l1.5-0.5l1.6-0.1 M223.6,249.9v4.3
	 M223.6,254.3l-7.2-5 M216.3,249.3v-0.2 M216.3,249.1h6.3 M222.6,249.1v-1 M222.6,248.1h0.9 M223.6,248.1v1 M223.6,249.1h2.1
	 M225.6,249.1v0.8 M225.6,249.9h-2.1 M48.6,256.3l-0.7,0.2l-0.5,0.5l-0.3,1.1 M47.2,258.2l0.1,0.7l0.4,0.6l0.9,0.6 M48.6,260.1v0.8
	 M48.6,260.9l-1-0.4l-0.8-0.7l-0.4-0.8l-0.1-0.8 M46.3,258.2l0.2-1.1l0.6-0.9l0.7-0.5l0.8-0.2 M48.6,255.5l0.6,0.1l0.6,0.3l0.7,0.7
	 M50.5,256.6l0.4-0.6l0.4-0.4 M51.3,255.6l0.9-0.4l0.8-0.1 M52.9,255.1l1.3,0.3l1,0.9l0.5,0.9l0.1,1 M55.8,258.2l-0.2,1.2l-0.7,1
	l-0.8,0.5l-0.9,0.3 M53.1,261.2v-0.8 M53.1,260.4l0.8-0.3l0.5-0.4 M54.4,259.7l0.4-0.8l0.1-0.7 M54.9,258.2l-0.1-0.9l-0.5-0.8
	l-0.6-0.4l-0.7-0.2 M53,255.9l-0.5,0.1l-0.4,0.2l-0.6,0.7l-0.4,1.8 M51,258.7h-0.9 M50.1,258.7l-0.3-1.5l-0.5-0.6l-0.3-0.2l-0.4-0.1
	 M458.4,469.6l-0.3-0.1l-0.3-0.2l-0.1-0.2l0-0.2 M457.6,468.9l0.1-0.3l0.2-0.2l0.2-0.1l0.2,0 M458.4,468.2l0.3,0.1l0.3,0.2l0.1,0.2
	l0,0.2 M459.1,468.9l-0.1,0.3l-0.2,0.2l-0.2,0.1l-0.2,0 M455.4,468.3h0.8 M456.2,468.3l-0.1,2.8 M456.1,471.1h-0.6 M455.5,471.1
	l-0.1-2.8 M453,472.3v-4 M453,468.3h0.8 M453.8,468.3v9.3 M453.8,477.6H453 M453,477.6v-1.1 M453,476.5l-1.4,1l-1.3,0.2
	 M450.2,477.7l-1.5-0.3l-1.2-0.9l-0.6-1l-0.2-1.2 M446.8,474.3l0.3-1.5l0.9-1.2l1-0.6l1.2-0.2 M450.3,470.9l1.7,0.5l1,0.9
	 M433.5,477.6h-0.8 M432.7,477.6v-9.3 M432.7,468.3h0.8 M433.5,468.3v9.3 M431,477.6h-0.8 M430.2,477.6v-9.3 M430.2,468.3h0.8
	 M431,468.3v9.3 M422.7,474.5l0.2,1l0.6,0.9l0.7,0.4l0.8,0.1 M425.1,476.9l0.8-0.1l0.8-0.3l0.9-0.9 M427.6,475.5l0.7,0.4
	 M428.3,475.9l-0.6,0.9l-0.8,0.6l-1.6,0.4 M425.2,477.7l-1.5-0.3l-1.1-0.9l-0.6-1l-0.2-1.2 M421.9,474.3l0.2-1.3l0.5-0.9
	 M422.7,472.1l1.3-1l1.3-0.2 M425.3,470.9l1.7,0.4l1,0.9 M427.9,472.2l0.6,1.2l0.1,1.1 M428.7,474.5h-5.9 M401.2,469.9h-0.8
	 M400.4,469.9l1.3-1.9 M401.7,468.1h1.3 M402.9,468.1l-1.7,1.9 M406.1,474.3l0.4-1.5l1-1.2l1.1-0.6l1.2-0.2 M409.8,470.9l1.9,0.5
	l1.1,1.1 M412.8,472.4l-0.7,0.4 M412.2,472.8l-1.2-0.9l-1.2-0.2 M409.7,471.7l-1.2,0.2l-1,0.7l-0.5,0.8l-0.2,0.9 M406.9,474.3
	l0.3,1.2l0.8,0.9l0.8,0.4l0.9,0.1 M409.7,476.9l1.5-0.4l0.9-0.8 M412.2,475.7l0.7,0.4 M412.8,476.2l-0.7,0.7l-0.9,0.5l-1.6,0.3
	 M409.7,477.7l-1.5-0.3l-1.3-0.9l-0.6-1l-0.2-1.2 M393.9,477.6h-0.8 M393.1,477.6v-9.3 M393.1,468.3h0.8 M393.9,468.3v9.3
	 M386.6,477.6h-0.8 M385.7,477.6V471 M385.7,471h0.8 M386.6,471v1 M386.6,471.9l0.8-0.8l0.4-0.2l0.4-0.1 M388.2,470.9l0.4,0.1
	l0.3,0.1 M388.9,471.1l-0.4,0.7 M388.4,471.8l-0.2-0.1l-0.2,0 M388,471.7l-0.5,0.2l-0.4,0.4l-0.4,0.8 M386.7,473.1l-0.1,1.3l0,1
	 M386.6,475.4v2.2 M378.4,474.5l0.2,1l0.6,0.9l0.7,0.4l0.8,0.1 M380.8,476.9l0.8-0.1l0.8-0.3l0.9-0.9 M383.3,475.5l0.7,0.4
	 M384,475.9l-0.6,0.9l-0.8,0.6l-1.6,0.4 M380.9,477.7l-1.5-0.3l-1.1-0.9l-0.6-1l-0.2-1.2 M377.6,474.3l0.2-1.3l0.5-0.9 M378.4,472.1
	l1.3-1l1.3-0.2 M381,470.9l1.7,0.4l1,0.9 M383.6,472.2l0.6,1.2l0.1,1.1 M384.3,474.5h-5.9 M359.7,469.9h-0.8 M358.9,469.9l1.3-1.9
	 M360.2,468.1h1.3 M361.4,468.1l-1.7,1.9 M365.4,477.6h-0.8 M364.6,477.6V471 M364.6,471h0.8 M365.4,471v1 M365.4,471.9l0.8-0.8
	l0.4-0.2l0.4-0.1 M367,470.9l0.4,0.1l0.3,0.1 M367.7,471.1l-0.4,0.7 M367.3,471.8l-0.2-0.1l-0.2,0 M366.8,471.7l-0.5,0.2l-0.4,0.4
	l-0.4,0.8 M365.5,473.1l-0.1,1.3l0,1 M365.4,475.4v2.2 M656,452.7h0.8 M656.8,452.7l-0.1,2.8 M656.7,455.5h-0.6 M656.1,455.5
	l-0.1-2.8 M658.5,452.7h0.8 M659.3,452.7l-0.1,2.8 M659.2,455.5h-0.6 M658.6,455.5l-0.1-2.8 M653.8,453.9h-4.2 M649.6,453.9v-0.9
	 M649.6,452.9h5.6 M655.2,452.9l-4.8,9.3 M650.4,462.2l-0.7-0.4 M649.7,461.9l4.1-8 M153.4,459.2l-0.1,1.6l-0.5,1.5l-1,1.2l-0.7,0.3
	l-0.8,0.1 M150.3,463.9l-0.8-0.1l-0.7-0.3l-1-1.2l-0.4-1.5l-0.1-1.6 M147.2,459.2l0.1-1.6l0.4-1.5l0.4-0.7l0.6-0.5l0.7-0.3l0.8-0.1
	 M150.3,454.4l0.8,0.1l0.7,0.3l1,1.2l0.6,3.1 M708.3,459.2l-0.1,1.6l-0.5,1.5l-1,1.2l-0.7,0.3l-0.8,0.1 M705.2,463.9l-0.8-0.1
	l-0.7-0.3l-1-1.2l-0.4-1.5l-0.1-1.6 M702.1,459.2l0.1-1.6l0.4-1.5l0.4-0.7l0.6-0.5l0.7-0.3l0.8-0.1 M705.2,454.4l0.8,0.1l0.7,0.3
	l1,1.2l0.6,3.1 M503.4,477.6h-0.8 M502.6,477.6V471 M502.6,471h0.8 M503.4,471v6.6 M503,469.6l-0.3-0.1l-0.3-0.2l-0.1-0.2l0-0.2
	 M502.3,468.9l0.1-0.3l0.2-0.2l0.2-0.1l0.2,0 M503,468.2l0.3,0.1l0.3,0.2l0.1,0.2l0,0.2 M503.8,468.9l-0.1,0.3l-0.2,0.2l-0.2,0.1
	l-0.2,0 M497.6,472.6l0.1-0.7l0.4-0.6l0.5-0.3l0.6-0.1 M499.3,470.9l0.5,0.1l0.5,0.3l0.7,0.6 M501,471.8l-0.6,0.6 M500.4,472.4
	l-0.6-0.5l-0.6-0.2 M499.3,471.7l-0.4,0.1l-0.3,0.2l-0.1,0.3l0,0.3 M498.4,472.6l0.1,0.4l0.1,0.2 M498.7,473.2l0.5,0.4l0.4,0.3
	 M499.6,473.8l0.7,0.5l0.5,0.5 M500.8,474.8l0.3,0.6l0.1,0.5 M501.1,475.8l-0.2,0.8l-0.5,0.7l-0.6,0.3l-0.7,0.1 M499.2,477.7
	l-1.2-0.3l-0.7-0.6 M497.3,476.8l0.5-0.6 M497.8,476.2l0.7,0.5l0.6,0.2 M499.1,476.9l0.5-0.1l0.4-0.3l0.2-0.3l0.1-0.4 M500.3,475.8
	l-0.1-0.4l-0.2-0.3 M500.1,475.2l-0.5-0.4l-0.5-0.3 M499.1,474.5l-0.7-0.4l-0.5-0.5 M497.9,473.6l-0.2-0.5l-0.1-0.5 M492.7,472.6
	l0.1-0.7l0.4-0.6l0.5-0.3l0.6-0.1 M494.4,470.9l0.5,0.1l0.5,0.3l0.7,0.6 M496.1,471.8l-0.6,0.6 M495.5,472.4l-0.6-0.5l-0.6-0.2
	 M494.4,471.7l-0.4,0.1l-0.3,0.2l-0.1,0.3l0,0.3 M493.5,472.6l0.1,0.4l0.1,0.2 M493.8,473.2l0.5,0.4l0.4,0.3 M494.7,473.8l0.7,0.5
	l0.5,0.5 M495.9,474.8l0.3,0.6l0.1,0.5 M496.2,475.8l-0.2,0.8l-0.5,0.7l-0.6,0.3l-0.7,0.1 M494.3,477.7l-1.2-0.3l-0.7-0.6
	 M492.4,476.8l0.5-0.6 M492.9,476.2l0.7,0.5l0.6,0.2 M494.2,476.9l0.5-0.1l0.4-0.3l0.2-0.3l0.1-0.4 M495.4,475.8l-0.1-0.4l-0.2-0.3
	 M495.2,475.2l-0.5-0.4l-0.5-0.3 M494.2,474.5l-0.7-0.4l-0.5-0.5 M493,473.6l-0.2-0.5l-0.1-0.5 M485.4,474.5l0.2,1l0.6,0.9l0.7,0.4
	l0.8,0.1 M487.8,476.9l0.8-0.1l0.8-0.3l0.9-0.9 M490.3,475.5l0.7,0.4 M491,475.9l-0.6,0.9l-0.8,0.6l-1.6,0.4 M487.9,477.7l-1.5-0.3
	l-1.1-0.9l-0.6-1l-0.2-1.2 M484.6,474.3l0.2-1.3l0.5-0.9 M485.4,472.1l1.3-1l1.3-0.2 M487.9,470.9l1.7,0.4l1,0.9 M490.6,472.2
	l0.6,1.2l0.1,1.1 M491.3,474.5h-5.9 M461.6,477.6h-0.8 M460.7,477.6V471 M460.7,471h0.8 M461.6,471v1.2 M461.6,472.1l0.5-0.6
	l0.4-0.4 M462.5,471.2l0.7-0.3l0.6-0.1 M463.8,470.9l0.8,0.1l0.7,0.4l0.6,1.1 M466,472.5l0.5-0.7l0.7-0.5l1.3-0.4 M468.4,470.9
	l0.8,0.1l0.7,0.4l0.5,0.7l0.3,1.9 M470.6,474v3.6 M470.6,477.6h-0.8 M469.8,477.6V474 M469.8,474l-0.2-1.6l-0.2-0.3l-0.3-0.2
	l-0.8-0.2 M468.2,471.7l-0.6,0.1l-0.5,0.2l-0.4,0.4l-0.3,0.5l-0.3,1.1l-0.1,1.1 M466.1,475v2.6 M466.1,477.6h-0.8 M465.3,477.6v-3.4
	 M465.3,474.2l-0.2-1.7l-0.2-0.4l-0.3-0.3l-0.8-0.2 M463.7,471.7l-0.8,0.2l-0.7,0.5l-0.4,0.7l-0.3,1.9 M461.6,474.8v2.8
	 M458.8,477.6H458 M458,477.6V471 M458,471h0.8 M458.8,471v6.6 M700.4,457.2l-0.2-0.8l-0.5-0.6l-0.6-0.3l-0.6-0.1 M698.4,455.3
	l-0.9,0.2l-0.7,0.6l-0.3,0.6l-0.1,0.7 M696.3,457.4h-0.8 M695.5,457.4l0.3-1.3l0.8-1.1l0.9-0.5l1-0.2 M698.5,454.4l1.2,0.2l0.9,0.7
	l0.5,0.8l0.2,0.9 M701.2,457.1l-0.2,1.1l-0.5,0.9l-1.1,1.3 M699.4,460.4l-2.3,2.4 M697.1,462.8h4.2 M701.3,462.8v0.9 M701.3,463.7
	h-6.2 M695.2,463.7l3.5-3.8 M698.7,460l1.2-1.4l0.4-0.6l0.1-0.7 M654.2,480.4v-13.9 M716.9,480.4h-62.6 M716.9,466.5v13.9
	 M717.2,466.5h-0.3 M717.2,466.5v14.2 M717.2,480.7H150.2 M150.2,480.7v-14.2 M150.5,466.5h-0.3 M150.5,480.4v-13.9 M654,480.4
	H150.5 M654,480.4v-13.9 M654,466.5h0.3 M473.3,480h-0.8 M472.5,480V471 M472.5,471h0.8 M473.3,471v1.2 M473.3,472.2l1.3-1.1
	l1.3-0.3 M476,470.9l1.5,0.3l1.2,0.9l0.6,1l0.2,1.2 M479.5,474.3l-0.3,1.5l-0.9,1.2l-1,0.6l-1.2,0.2 M476,477.7l-1.7-0.4l-1-0.9
	 M473.3,476.4v3.6 M481.7,477.6h-0.8 M480.9,477.6V471 M480.9,471h0.8 M481.7,471v1 M481.7,471.9l0.8-0.8l0.4-0.2l0.4-0.1
	 M483.3,470.9l0.4,0.1l0.3,0.1 M484,471.1l-0.4,0.7 M483.6,471.8l-0.2-0.1l-0.2,0 M483.1,471.7l-0.5,0.2l-0.4,0.4l-0.4,0.8
	 M481.8,473.1l-0.1,1.3l0,1 M481.7,475.4v2.2 M505.2,474.3l0.3-1.4l0.6-0.9 M506.1,472l1.3-0.9l1.2-0.2 M508.6,470.9l1.5,0.3l1,0.8
	 M511.1,471.9l0.7,1.2l0.2,1.1 M512,474.3l-0.3,1.5l-0.9,1.2l-1,0.6l-1.2,0.2 M508.6,477.7l-1.5-0.3l-1.2-0.9l-0.6-1l-0.2-1.2
	 M514.5,477.6h-0.8 M513.7,477.6V471 M513.7,471h0.8 M514.5,471v1.2 M514.5,472.2l1.3-1l1.3-0.3 M517,470.9l0.9,0.1l0.8,0.5l0.5,0.7
	l0.3,2.1 M519.5,474.2v3.4 M519.5,477.6h-0.8 M518.7,477.6v-3.1 M518.7,474.5l0-0.8l-0.1-0.7 M518.6,473l-0.2-0.6l-0.5-0.5l-1-0.2
	 M516.9,471.7l-0.8,0.2l-0.7,0.5l-0.4,0.5l-0.3,0.6 M514.6,473.4l-0.1,1l0,0.8 M514.5,475.2v2.4 M715.3,459.2l-0.1,1.6l-0.5,1.5
	l-1,1.2l-0.7,0.3l-0.8,0.1 M712.2,463.9l-0.8-0.1l-0.7-0.3l-1-1.2l-0.4-1.5l-0.1-1.6 M709.1,459.2l0.1-1.6l0.4-1.5l0.4-0.7l0.6-0.5
	l0.7-0.3l0.8-0.1 M712.2,454.4l0.8,0.1l0.7,0.3l1,1.2l0.6,3.1 M717.5,463.7h-0.8 M716.7,463.7v-6.6 M716.7,457.1h0.8 M717.5,457.1
	v1.2 M717.5,458.2l0.5-0.6l0.5-0.4 M718.4,457.3l0.7-0.3l0.6-0.1 M719.8,457l0.8,0.1l0.7,0.4l0.6,1.1 M721.9,458.6l0.5-0.7l0.7-0.5
	l1.3-0.4 M724.3,457l0.8,0.1l0.7,0.4l0.5,0.7l0.3,1.9 M726.6,460.1v3.6 M726.6,463.7h-0.8 M725.8,463.7v-3.6 M725.8,460.1l-0.2-1.6
	l-0.2-0.3L725,458l-0.8-0.2 M724.2,457.8l-0.6,0.1l-0.5,0.2l-0.4,0.4l-0.3,0.5l-0.3,1.1l-0.1,1.1 M722,461.1v2.6 M722,463.7h-0.8
	 M721.2,463.7v-3.4 M721.2,460.3l-0.2-1.7l-0.2-0.4l-0.3-0.3l-0.8-0.2 M719.6,457.8l-0.8,0.2l-0.7,0.5l-0.4,0.7l-0.3,1.9
	 M717.5,460.9v2.8 M729.2,463.7h-0.8 M728.4,463.7v-6.6 M728.4,457.1h0.8 M729.2,457.1v1.2 M729.2,458.2l0.5-0.6l0.5-0.4
	 M730.2,457.3l0.7-0.3l0.6-0.1 M731.5,457l0.8,0.1l0.7,0.4l0.6,1.1 M733.6,458.6l0.5-0.7l0.7-0.5l1.3-0.4 M736.1,457l0.8,0.1
	l0.7,0.4l0.5,0.7l0.3,1.9 M738.3,460.1v3.6 M738.3,463.7h-0.8 M737.5,463.7v-3.6 M737.5,460.1l-0.2-1.6l-0.2-0.3l-0.3-0.2l-0.8-0.2
	 M735.9,457.8l-0.6,0.1l-0.5,0.2l-0.4,0.4l-0.3,0.5l-0.3,1.1l0,1.1 M733.8,461.1v2.6 M733.8,463.7H733 M733,463.7v-3.4 M733,460.3
	l-0.2-1.7l-0.2-0.4l-0.3-0.3l-0.8-0.2 M731.4,457.8l-0.8,0.2l-0.7,0.5l-0.4,0.7l-0.3,1.9 M729.2,460.9v2.8 M357.2,474.5l0.2,1
	l0.6,0.9l0.7,0.4l0.8,0.1 M359.7,476.9l0.8-0.1l0.8-0.3l0.9-0.9 M362.1,475.5l0.7,0.4 M362.8,475.9l-0.6,0.9l-0.8,0.6l-1.6,0.4
	 M359.8,477.7l-1.5-0.3l-1.1-0.9l-0.6-1l-0.2-1.2 M356.4,474.3l0.2-1.3l0.5-0.9 M357.2,472.1l1.3-1l1.3-0.2 M359.8,470.9l1.7,0.4
	l1,0.9 M362.5,472.2l0.6,1.2l0.1,1.1 M363.2,474.5h-5.9 M351.4,477.6h-0.1 M351.3,477.6l-3.8-9.1 M347.5,468.5h0.9 M348.4,468.5
	l3,7.1 M351.4,475.7l3-7.1 M354.4,468.5h0.9 M355.3,468.5l-3.8,9.1 M368.8,469.6l-0.3-0.1l-0.3-0.2l-0.1-0.2l0-0.2 M368.1,468.9
	l0.1-0.3l0.2-0.2l0.2-0.1l0.2,0 M368.8,468.2l0.3,0.1l0.3,0.2l0.1,0.2l0,0.2 M369.6,468.9l-0.1,0.3l-0.2,0.2l-0.2,0.1l-0.2,0
	 M369.2,477.6h-0.8 M368.4,477.6V471 M368.4,471h0.8 M369.2,471v6.6 M371.7,469.9l0-0.7l0.3-0.6l0.5-0.3l0.5-0.1 M373,468.2l0.6,0.1
	l0.4,0.1 M374,468.4v0.8 M374,469.2l-0.5-0.2l-0.4,0 M373.2,469l-0.4,0.1l-0.2,0.1l-0.1,0.1l-0.1,0.7 M372.5,470.1v0.9 M372.5,471
	h1.4 M373.9,471v0.8 M373.9,471.8h-1.4 M372.5,471.8l0,5.8 M372.5,477.6h-0.8 M371.7,477.6v-5.8 M371.7,471.8h-0.9 M370.7,471.8V471
	 M370.7,471h0.9 M371.7,471v-1.1 M375.4,469.6l-0.3-0.1l-0.3-0.2l-0.1-0.2l0-0.2 M374.7,468.9l0.1-0.3l0.2-0.2l0.2-0.1l0.2,0
	 M375.4,468.2l0.3,0.1l0.3,0.2l0.1,0.2l0,0.2 M376.2,468.9l-0.1,0.3l-0.2,0.2l-0.2,0.1l-0.2,0 M375.9,477.6H375 M375,477.6V471
	 M375,471h0.8 M375.9,471v6.6 M398.8,474.5l0.2,1l0.6,0.9l0.7,0.4l0.8,0.1 M401.2,476.9l0.8-0.1l0.8-0.3l0.9-0.9 M403.6,475.5
	l0.7,0.4 M404.3,475.9l-0.6,0.9l-0.8,0.6l-1.6,0.4 M401.3,477.7l-1.5-0.3l-1.1-0.9l-0.6-1l-0.2-1.2 M397.9,474.3l0.2-1.3l0.5-0.9
	 M398.7,472.1l1.3-1l1.3-0.2 M401.3,470.9l1.7,0.4l1,0.9 M404,472.2l0.6,1.2l0.1,1.1 M404.7,474.5h-5.9 M395.5,468.3h0.8
	 M396.3,468.3l-0.1,2.8 M396.2,471.1h-0.6 M395.6,471.1l-0.1-2.8 M415.3,477.6h-0.8 M414.5,477.6v-9.3 M414.5,468.3h0.8
	 M415.3,468.3v3.9 M415.3,472.2l1.3-1.1l1.3-0.3 M417.8,470.9l0.9,0.1l0.8,0.5l0.5,0.7l0.3,2.1 M420.3,474.2v3.4 M420.3,477.6h-0.8
	 M419.5,477.6v-3.1 M419.5,474.5l0-0.8l-0.1-0.7 M419.4,473l-0.3-0.6l-0.5-0.5l-1-0.2 M417.7,471.7l-0.8,0.2l-0.7,0.5l-0.4,0.5
	l-0.3,0.6 M415.4,473.4l-0.1,1l0,0.8 M415.3,475.2v2.4 M436,474.5l0.2,1l0.6,0.9l0.7,0.4l0.8,0.1 M438.4,476.9l0.8-0.1l0.8-0.3
	l0.9-0.9 M440.8,475.5l0.7,0.4 M441.6,475.9l-0.6,0.9l-0.8,0.6l-1.6,0.4 M438.5,477.7l-1.5-0.3l-1.1-0.9l-0.6-1l-0.2-1.2
	 M435.2,474.3l0.2-1.3l0.5-0.9 M435.9,472.1l1.3-1l1.3-0.2 M438.5,470.9l1.7,0.4l1,0.9 M441.2,472.2l0.6,1.2l0.1,1.1 M441.9,474.5
	H436 M192.8,241.1l1.6,0.1l1.5,0.5l1.2,1l0.3,0.7l0.1,0.8 M197.5,244.2l-0.1,0.8l-0.3,0.7l-1.2,1l-1.5,0.4l-1.6,0.1 M192.8,247.3
	l-1.6-0.1l-1.5-0.4l-0.7-0.4l-0.5-0.6l-0.3-0.7l-0.1-0.8 M188,244.2l0.1-0.8l0.3-0.7l1.2-1l1.5-0.5l1.6-0.1 M219.1,256l-0.8,0.2
	l-0.6,0.5l-0.3,0.6l-0.1,0.6 M217.3,258l0.2,0.9l0.6,0.7l0.6,0.3l0.7,0.1 M219.4,260.1v0.8 M219.4,260.9l-1.3-0.3l-1.1-0.8l-0.5-0.9
	l-0.2-1 M216.3,257.9l0.2-1.2l0.7-0.9l0.8-0.5l0.9-0.2 M219,255.2l1.1,0.2l0.9,0.5l1.3,1.1 M222.3,257l2.4,2.3 M224.7,259.3v-4.2
	 M224.7,255.1h0.9 M225.6,255.1v6.2 M225.6,261.2l-3.8-3.5 M221.9,257.7l-1.4-1.2l-0.6-0.4l-0.7-0.1 M221.1,241.1l1.6,0.1l1.5,0.5
	l1.2,1l0.3,0.7l0.1,0.8 M225.9,244.2l-0.1,0.8l-0.3,0.7l-1.2,1l-1.5,0.4l-1.6,0.1 M221.1,247.3l-1.6-0.1l-1.5-0.4l-0.7-0.4l-0.5-0.6
	l-0.3-0.7l-0.1-0.8 M216.3,244.2l0.1-0.8l0.3-0.7l1.2-1l1.5-0.5l1.6-0.1 M162.4,256l-0.8,0.2l-0.6,0.5l-0.3,0.6l-0.1,0.6 M160.6,258
	l0.2,0.9l0.6,0.7l0.6,0.3l0.7,0.1 M162.7,260.1v0.8 M162.7,260.9l-1.3-0.3l-1.1-0.8l-0.5-0.9l-0.2-1 M159.6,257.9l0.2-1.2l0.7-0.9
	l0.8-0.5l0.9-0.2 M162.3,255.2l1.1,0.2l0.9,0.5l1.3,1.1 M165.6,257l2.4,2.3 M168,259.3v-4.2 M168,255.1h0.9 M169,255.1v6.2
	 M169,261.2l-3.8-3.5 M165.2,257.7l-1.4-1.2l-0.6-0.4l-0.7-0.1 M136.1,248.1l1.6,0.1l1.5,0.5l1.2,1l0.3,0.7l0.1,0.8 M140.8,251.2
	l-0.1,0.8l-0.3,0.7l-1.2,1l-1.5,0.4l-1.6,0.1 M136.1,254.3l-1.6-0.1l-1.5-0.4l-0.7-0.4l-0.5-0.6l-0.3-0.7l-0.1-0.8 M131.3,251.2
	l0.1-0.8l0.3-0.7l1.2-1l1.5-0.5l1.6-0.1 M133.7,256.3l-0.7,0.2l-0.5,0.5l-0.3,1.1 M132.2,258.2l0.1,0.7l0.4,0.6l0.9,0.6
	 M133.6,260.1v0.8 M133.6,260.9l-1-0.4l-0.8-0.7l-0.4-0.8l-0.1-0.8 M131.3,258.2l0.2-1.1l0.6-0.9l0.7-0.5l0.8-0.2 M133.7,255.5
	l0.6,0.1l0.6,0.3l0.7,0.7 M135.5,256.6l0.4-0.6l0.4-0.4 M136.3,255.6l0.9-0.4l0.8-0.1 M137.9,255.1l1.3,0.3l1,0.9l0.5,0.9l0.1,1
	 M140.8,258.2l-0.2,1.2l-0.7,1l-0.8,0.5l-0.9,0.3 M138.2,261.2v-0.8 M138.2,260.4l0.8-0.3l0.5-0.4 M139.4,259.7l0.4-0.8l0.1-0.7
	 M139.9,258.2l-0.1-0.9l-0.5-0.8l-0.6-0.4l-0.7-0.2 M138,255.9l-0.5,0.1l-0.4,0.2l-0.6,0.7l-0.4,1.8 M136.1,258.7h-0.9 M135.1,258.7
	l-0.3-1.5l-0.5-0.6l-0.3-0.2l-0.4-0.1 M164.4,241.1l1.6,0.1l1.5,0.5l1.2,1l0.3,0.7l0.1,0.8 M169.2,244.2l-0.1,0.8l-0.3,0.7l-1.2,1
	l-1.5,0.4l-1.6,0.1 M164.4,247.3l-1.6-0.1l-1.5-0.4l-0.7-0.4l-0.5-0.6l-0.3-0.7l-0.1-0.8 M159.6,244.2l0.1-0.8l0.3-0.7l1.2-1
	l1.5-0.5l1.6-0.1 M190.8,256l-0.8,0.2l-0.6,0.5l-0.3,0.6l-0.1,0.6 M188.9,258l0.2,0.9l0.6,0.7l0.6,0.3l0.7,0.1 M191,260.1v0.8
	 M191,260.9l-1.3-0.3l-1.1-0.8l-0.5-0.9l-0.2-1 M188,257.9l0.2-1.2l0.7-0.9l0.8-0.5l0.9-0.2 M190.7,255.2l1.1,0.2l0.9,0.5l1.3,1.1
	 M193.9,257l2.4,2.3 M196.4,259.3v-4.2 M196.4,255.1h0.9 M197.3,255.1v6.2 M197.3,261.2l-3.8-3.5 M193.5,257.7l-1.4-1.2l-0.6-0.4
	l-0.7-0.1 M53,253.8l-1.5-0.4l-1.1-0.6 M50.4,252.8l-4.1-2.7 M46.3,250.1l0.5-0.6 M46.8,249.4l3.7,2.4 M50.4,251.8l-0.1-0.5l0-0.4
	 M50.3,250.9l0.2-1.2l0.7-0.9l0.8-0.5l0.9-0.1 M53,248.2l1.2,0.3l1,0.8l0.5,0.9l0.2,1 M55.8,251l-0.3,1.2l-0.7,1l-0.8,0.5l-0.9,0.2
	 M81.8,249.9v4.3 M81.8,254.3l-7.2-5 M74.6,249.3v-0.2 M74.6,249.1h6.3 M80.9,249.1v-1 M80.9,248.1h0.9 M81.8,248.1v1 M81.8,249.1
	h2.1 M83.9,249.1v0.8 M83.9,249.9h-2.1 M79.4,241.1l1.6,0.1l1.5,0.5l1.2,1l0.3,0.7l0.1,0.8 M84.1,244.2L84,245l-0.3,0.7l-1.2,1
	l-1.5,0.4l-1.6,0.1 M79.4,247.3l-1.6-0.1l-1.5-0.4l-0.7-0.4l-0.5-0.6l-0.3-0.7l-0.1-0.8 M74.6,244.2l0.1-0.8l0.3-0.7l1.2-1l1.5-0.5
	l1.6-0.1"/>
<g>
	<g>
		<text transform="matrix(1.0005 0 0 1 538.3379 500.5123)" class="st6 st0 st1"> +/- 15 </text>
		<text transform="matrix(1 0 0 1.0003 89.4702 113.9381)" class="st6 st0 st7">Salomon-Atomic Shift MNC</text>
		<path class="st8" d="M602.8,503.4l-9.4,1.4v-2.9L602.8,503.4 M517.7,503.4l9.4-1.4v2.9L517.7,503.4"/>
		<line class="st9" x1="523.4" y1="231.3" x2="523.4" y2="224.2"/>
		<line class="st9" x1="509.2" y1="245.4" x2="502.2" y2="245.4"/>
		<line class="st9" x1="523.4" y1="259.6" x2="523.4" y2="266.7"/>
		<line class="st9" x1="537.6" y1="245.4" x2="544.7" y2="245.4"/>
		<line class="st9" x1="717.6" y1="231.3" x2="717.6" y2="224.2"/>
		<line class="st9" x1="703.4" y1="245.4" x2="696.3" y2="245.4"/>
		<line class="st9" x1="717.6" y1="259.6" x2="717.6" y2="266.7"/>
		<line class="st9" x1="731.8" y1="245.4" x2="738.9" y2="245.4"/>
		<line class="st9" x1="717.6" y1="333.3" x2="717.6" y2="326.2"/>
		<line class="st9" x1="703.4" y1="347.5" x2="696.3" y2="347.5"/>
		<line class="st9" x1="717.6" y1="361.7" x2="717.6" y2="368.8"/>
		<line class="st9" x1="731.8" y1="347.5" x2="738.9" y2="347.5"/>
		<line class="st9" x1="523.4" y1="333.3" x2="523.4" y2="326.2"/>
		<line class="st9" x1="509.2" y1="347.5" x2="502.2" y2="347.5"/>
		<line class="st9" x1="523.4" y1="361.7" x2="523.4" y2="368.8"/>
		<line class="st9" x1="537.6" y1="347.5" x2="544.7" y2="347.5"/>
		<path class="st10" d="M523.4,347.5h7.1 M523.4,347.5v7.1 M523.4,347.5h-7.1 M523.4,347.5v-7.1 M717.6,347.5h7.1 M717.6,347.5v7.1
			 M717.6,347.5h-7.1 M717.6,347.5v-7.1 M717.6,245.4h7.1 M717.6,245.4v7.1 M717.6,245.4h-7.1 M717.6,245.4v-7.1 M523.4,245.4h7.1
			 M523.4,245.4v7.1 M523.4,245.4h-7.1 M523.4,245.4v-7.1"/>
		<line class="st11" x1="517.7" y1="69.7" x2="517.7" y2="523.2"/>
		<line class="st11" x1="602.8" y1="69.7" x2="602.8" y2="523.2"/>
		<line class="st10" x1="517.7" y1="503.4" x2="602.8" y2="503.4"/>
		<path class="st6" d="M602.8,503.4l-9.4,1.4v-2.9 M517.7,503.4l9.4-1.4v2.9"/>
		<path class="st12" d="M540.1,289.4h0.6 M537.9,303.6h-0.6 M537.9,296.7v6.8 M537.3,296.7v6.8 M537.3,289.4v6.8 M537.9,289.4v6.8
			 M537.3,289.4h0.6 M535,303.6h-0.6 M535,296.7v6.8 M534.5,296.7v6.8 M534.5,289.4v6.8 M535,289.4v6.8 M534.5,289.4h0.6
			 M532.2,303.6h-0.6 M532.2,296.7v6.8 M531.6,296.7v6.8 M475.5,289.4v6.8 M463.6,296.7v6.8 M463.6,289.4v6.8 M464.2,289.4v6.8
			 M463.6,289.4h0.6 M461.3,303.6h-0.6 M461.3,296.7v6.8 M460.8,296.7v6.8 M460.8,289.4v6.8 M461.3,289.4v6.8 M460.8,289.4h0.6
			 M458.5,303.6h-0.6 M458.5,296.7v6.8 M457.9,296.7v6.8 M457.9,289.4v6.8 M458.5,289.4v6.8 M457.9,289.4h0.6 M399,296.7v6.8
			 M390.5,296.2h2.3 M390.5,296.7h2.3 M393.3,296.2h2.3 M393.3,296.7h2.3 M396.1,296.2h2.3 M396.1,296.7h2.3 M399,296.2h2.3
			 M399,296.7h2.3 M401.8,296.2h2.3 M401.8,296.7h2.3 M404.6,296.2h2.3 M404.6,296.7h2.3 M407.5,296.2h2.3 M407.5,296.7h2.3
			 M410.3,296.2h2.3 M410.3,296.7h2.3 M413.2,296.2h2.3 M413.2,296.7h2.3 M416,296.2h2.3 M416,296.7h2.3 M418.8,296.2h2.3
			 M418.8,296.7h2.3 M421.7,296.2h2.3 M421.7,296.7h2.3 M424.5,296.2h2.3 M424.5,296.7h2.3 M427.3,296.2h2.3 M427.3,296.7h2.3
			 M430.2,296.2h2.3 M430.2,296.7h2.3 M433,296.2h2.3 M433,296.7h2.3 M435.8,296.2h2.3 M435.8,296.7h2.3 M438.7,296.2h2.3
			 M438.7,296.7h2.3 M441.5,296.2h2.3 M441.5,296.7h2.3 M444.3,296.2h2.3 M444.3,296.7h2.3 M447.2,296.2h2.3 M447.2,296.7h2.3
			 M450,296.2h2.3 M450,296.7h2.3 M452.8,296.2h2.3 M452.8,296.7h2.3 M455.7,296.2h2.3 M455.7,296.7h2.3 M458.5,296.2h2.3
			 M458.5,296.7h2.3 M461.3,296.2h2.3 M461.3,296.7h2.3 M464.2,296.2h2.3 M464.2,296.7h2.3 M467,296.2h2.3 M467,296.7h2.3
			 M469.8,296.2h2.3 M469.8,296.7h2.3 M472.7,296.2h2.3 M472.7,296.7h2.3 M475.5,296.2h2.3 M475.5,296.7h2.3 M478.3,296.2h2.3
			 M478.3,296.7h2.3 M481.2,296.2h2.3 M481.2,296.7h2.3 M484,296.2h2.3 M484,296.7h2.3 M486.9,296.2h2.3 M486.9,296.7h2.3
			 M489.7,296.2h2.3 M489.7,296.7h2.3 M492.5,296.2h2.3 M492.5,296.7h2.3 M495.4,296.2h2.3 M495.4,296.7h2.3 M498.2,296.2h2.3
			 M498.2,296.7h2.3 M501,296.2h2.3 M501,296.7h2.3 M503.9,296.2h2.3 M503.9,296.7h2.3 M506.7,296.2h2.3 M506.7,296.7h2.3
			 M509.5,296.2h2.3 M509.5,296.7h2.3 M512.4,296.2h2.3 M512.4,296.7h2.3 M515.2,296.2h2.3 M515.2,296.7h2.3 M518,296.2h2.3
			 M518,296.7h2.3 M520.9,296.2h2.3 M520.9,296.7h2.3 M523.7,296.2h2.3 M523.7,296.7h2.3 M526.5,296.2h2.3 M526.5,296.7h2.3
			 M529.4,296.2h2.3 M529.4,296.7h2.3 M532.2,296.2h2.3 M532.2,296.7h2.3 M535,296.2h2.3 M535,296.7h2.3 M537.9,296.2h2.3
			 M537.9,296.7h2.3 M540.7,296.2h2.3 M540.7,296.7h2.3 M543.5,296.2h2.3 M543.5,296.7h2.3 M546.4,296.2h2.3 M546.4,296.7h2.3
			 M549.2,296.2h2.3 M549.2,296.7h2.3 M552,296.2h2.3 M552,296.7h2.3 M554.9,296.2h2.3 M554.9,296.7h2.3 M557.7,296.2h2.3
			 M557.7,296.7h2.3 M390.5,289.4v6.8 M389.9,289.4h0.6 M389.9,289.4v14.2 M390.5,303.6h-0.6 M390.5,296.7v6.8 M392.7,296.7v6.8
			 M393.3,303.6h-0.6 M393.3,296.7v6.8 M395.6,296.7v6.8 M396.1,303.6h-0.6 M396.1,296.7v6.8 M398.4,296.7v6.8 M399,303.6h-0.6
			 M401.2,296.7v6.8 M401.8,303.6h-0.6 M401.8,296.7v6.8 M404.1,296.7v6.8 M404.6,303.6h-0.6 M404.6,296.7v6.8 M406.9,296.7v6.8
			 M407.5,303.6h-0.6 M407.5,296.7v6.8 M409.7,296.7v6.8 M410.3,303.6h-0.6 M410.3,296.7v6.8 M412.6,296.7v6.8 M413.2,303.6h-0.6
			 M413.2,296.7v6.8 M415.4,296.7v6.8 M416,303.6h-0.6 M416,296.7v6.8 M418.3,296.7v6.8 M418.8,303.6h-0.6 M418.8,296.7v6.8
			 M421.1,296.7v6.8 M421.7,303.6h-0.6 M421.7,296.7v6.8 M423.9,296.7v6.8 M424.5,303.6h-0.6 M424.5,296.7v6.8 M426.8,296.7v6.8
			 M427.3,303.6h-0.6 M427.3,296.7v6.8 M429.6,296.7v6.8 M430.2,303.6h-0.6 M430.2,296.7v6.8 M432.4,296.7v6.8 M433,303.6h-0.6
			 M433,296.7v6.8 M435.3,296.7v6.8 M435.8,303.6h-0.6 M435.8,296.7v6.8 M438.1,296.7v6.8 M438.7,303.6h-0.6 M438.7,296.7v6.8
			 M440.9,296.7v6.8 M441.5,303.6h-0.6 M441.5,296.7v6.8 M443.8,296.7v6.8 M444.3,303.6h-0.6 M444.3,296.7v6.8 M446.6,296.7v6.8
			 M447.2,303.6h-0.6 M447.2,296.7v6.8 M449.4,296.7v6.8 M450,303.6h-0.6 M450,296.7v6.8 M452.3,296.7v6.8 M452.8,303.6h-0.6
			 M452.8,296.7v6.8 M455.1,296.7v6.8 M455.7,303.6h-0.6 M455.7,296.7v6.8 M464.2,303.6h-0.6 M464.2,296.7v6.8 M466.4,296.7v6.8
			 M467,303.6h-0.6 M467,296.7v6.8 M469.3,296.7v6.8 M469.8,303.6h-0.6 M469.8,296.7v6.8 M472.1,296.7v6.8 M472.7,303.6h-0.6
			 M472.7,296.7v6.8 M474.9,296.7v6.8 M475.5,303.6h-0.6 M475.5,296.7v6.8 M477.8,296.7v6.8 M478.3,303.6h-0.6 M478.3,296.7v6.8
			 M480.6,296.7v6.8 M481.2,303.6h-0.6 M481.2,296.7v6.8 M483.4,296.7v6.8 M484,303.6h-0.6 M484,296.7v6.8 M486.3,296.7v6.8
			 M486.9,303.6h-0.6 M486.9,296.7v6.8 M489.1,296.7v6.8 M489.7,303.6h-0.6 M489.7,296.7v6.8 M492,296.7v6.8 M492.5,303.6H492
			 M492.5,296.7v6.8 M494.8,296.7v6.8 M495.4,303.6h-0.6 M495.4,296.7v6.8 M497.6,296.7v6.8 M498.2,303.6h-0.6 M498.2,296.7v6.8
			 M500.5,296.7v6.8 M501,303.6h-0.6 M501,296.7v6.8 M503.3,296.7v6.8 M503.9,303.6h-0.6 M503.9,296.7v6.8 M506.1,296.7v6.8
			 M506.7,303.6h-0.6 M506.7,296.7v6.8 M509,296.7v6.8 M509.5,303.6H509 M509.5,296.7v6.8 M511.8,296.7v6.8 M512.4,303.6h-0.6
			 M512.4,296.7v6.8 M514.6,296.7v6.8 M515.2,303.6h-0.6 M515.2,296.7v6.8 M517.5,296.7v6.8 M518,303.6h-0.6 M518,296.7v6.8
			 M520.3,296.7v6.8 M520.9,303.6h-0.6 M520.9,296.7v6.8 M523.1,296.7v6.8 M523.7,303.6h-0.6 M523.7,296.7v6.8 M526,296.7v6.8
			 M526.5,303.6H526 M526.5,296.7v6.8 M528.8,296.7v6.8 M529.4,303.6h-0.6 M529.4,296.7v6.8 M540.1,296.7v6.8 M540.7,303.6h-0.6
			 M540.7,296.7v6.8 M543,296.7v6.8 M543.5,303.6H543 M543.5,296.7v6.8 M545.8,296.7v6.8 M546.4,303.6h-0.6 M546.4,296.7v6.8
			 M548.6,296.7v6.8 M549.2,303.6h-0.6 M549.2,296.7v6.8 M551.5,296.7v6.8 M552,303.6h-0.6 M552,296.7v6.8 M554.3,296.7v6.8
			 M554.9,303.6h-0.6 M554.9,296.7v6.8 M557.2,296.7v6.8 M557.7,303.6h-0.6 M557.7,296.7v6.8 M560,296.7v13.9 M560.6,310.6H560
			 M560.6,282.3v28.3 M560,282.3h0.6 M560,282.3v13.9 M557.7,289.4v6.8 M557.2,289.4h0.6 M557.2,289.4v6.8 M554.9,289.4v6.8
			 M554.3,289.4h0.6 M554.3,289.4v6.8 M552,289.4v6.8 M551.5,289.4h0.6 M551.5,289.4v6.8 M549.2,289.4v6.8 M548.6,289.4h0.6
			 M548.6,289.4v6.8 M546.4,289.4v6.8 M545.8,289.4h0.6 M545.8,289.4v6.8 M543.5,289.4v6.8 M543,289.4h0.6 M543,289.4v6.8
			 M540.7,289.4v6.8 M540.1,289.4v6.8 M532.2,289.4v6.8 M531.6,289.4h0.6 M531.6,289.4v6.8 M529.4,289.4v6.8 M528.8,289.4h0.6
			 M528.8,289.4v6.8 M526.5,289.4v6.8 M526,289.4h0.6 M526,289.4v6.8 M523.7,289.4v6.8 M523.1,289.4h0.6 M523.1,289.4v6.8
			 M520.9,289.4v6.8 M520.3,289.4h0.6 M520.3,289.4v6.8 M518,289.4v6.8 M517.5,289.4h0.6 M517.5,289.4v6.8 M515.2,289.4v6.8
			 M514.6,289.4h0.6 M514.6,289.4v6.8 M512.4,289.4v6.8 M511.8,289.4h0.6 M511.8,289.4v6.8 M509.5,289.4v6.8 M509,289.4h0.6
			 M509,289.4v6.8 M506.7,289.4v6.8 M506.1,289.4h0.6 M506.1,289.4v6.8 M503.9,289.4v6.8 M503.3,289.4h0.6 M503.3,289.4v6.8
			 M501,289.4v6.8 M500.5,289.4h0.6 M500.5,289.4v6.8 M498.2,289.4v6.8 M497.6,289.4h0.6 M497.6,289.4v6.8 M495.4,289.4v6.8
			 M494.8,289.4h0.6 M494.8,289.4v6.8 M492.5,289.4v6.8 M492,289.4h0.6 M492,289.4v6.8 M489.7,289.4v6.8 M489.1,289.4h0.6
			 M489.1,289.4v6.8 M486.9,289.4v6.8 M486.3,289.4h0.6 M486.3,289.4v6.8 M484,289.4v6.8 M483.4,289.4h0.6 M483.4,289.4v6.8
			 M481.2,289.4v6.8 M480.6,289.4h0.6 M480.6,289.4v6.8 M478.3,289.4v6.8 M477.8,289.4h0.6 M477.8,289.4v6.8 M474.9,289.4h0.6
			 M474.9,289.4v6.8 M472.7,289.4v6.8 M472.1,289.4h0.6 M472.1,289.4v6.8 M469.8,289.4v6.8 M469.3,289.4h0.6 M469.3,289.4v6.8
			 M467,289.4v6.8 M466.4,289.4h0.6 M466.4,289.4v6.8 M455.7,289.4v6.8 M455.1,289.4h0.6 M455.1,289.4v6.8 M452.8,289.4v6.8
			 M452.3,289.4h0.6 M452.3,289.4v6.8 M450,289.4v6.8 M449.4,289.4h0.6 M449.4,289.4v6.8 M447.2,289.4v6.8 M446.6,289.4h0.6
			 M446.6,289.4v6.8 M444.3,289.4v6.8 M443.8,289.4h0.6 M443.8,289.4v6.8 M441.5,289.4v6.8 M440.9,289.4h0.6 M440.9,289.4v6.8
			 M438.7,289.4v6.8 M438.1,289.4h0.6 M438.1,289.4v6.8 M435.8,289.4v6.8 M435.3,289.4h0.6 M435.3,289.4v6.8 M433,289.4v6.8
			 M432.4,289.4h0.6 M432.4,289.4v6.8 M430.2,289.4v6.8 M429.6,289.4h0.6 M429.6,289.4v6.8 M427.3,289.4v6.8 M426.8,289.4h0.6
			 M426.8,289.4v6.8 M424.5,289.4v6.8 M423.9,289.4h0.6 M423.9,289.4v6.8 M421.7,289.4v6.8 M421.1,289.4h0.6 M421.1,289.4v6.8
			 M418.8,289.4v6.8 M418.3,289.4h0.6 M418.3,289.4v6.8 M416,289.4v6.8 M415.4,289.4h0.6 M415.4,289.4v6.8 M413.2,289.4v6.8
			 M412.6,289.4h0.6 M412.6,289.4v6.8 M410.3,289.4v6.8 M409.7,289.4h0.6 M409.7,289.4v6.8 M407.5,289.4v6.8 M406.9,289.4h0.6
			 M406.9,289.4v6.8 M404.6,289.4v6.8 M404.1,289.4h0.6 M404.1,289.4v6.8 M401.8,289.4v6.8 M401.2,289.4h0.6 M401.2,289.4v6.8
			 M399,289.4v6.8 M398.4,289.4h0.6 M398.4,289.4v6.8 M396.1,289.4v6.8 M395.6,289.4h0.6 M395.6,289.4v6.8 M393.3,289.4v6.8
			 M392.7,289.4h0.6 M392.7,289.4v6.8 M509.2,347.5l0.3,2.9l0.9,2.8l1.5,2.6l2,2.2l2.4,1.7l2.7,1.2l2.9,0.6h3l2.9-0.6l2.7-1.2
			l2.4-1.7l2-2.2l1.5-2.6l0.9-2.8l0.3-2.9l-0.3-2.9l-0.9-2.8l-1.5-2.6l-2-2.2l-2.4-1.7l-2.7-1.2l-2.9-0.6h-3L519,334l-2.7,1.2
			l-2.4,1.7l-2,2.2l-1.5,2.6l-0.9,2.8L509.2,347.5 M516.3,347.5l0.3,2.1l0.9,1.9l1.4,1.5l1.8,1.1l2.1,0.5l2.1-0.2l2-0.8l1.7-1.3
			l1.2-1.7l0.6-2v-2.1l-0.6-2l-1.2-1.7l-1.7-1.3l-2-0.8l-2.1-0.2l-2.1,0.5l-1.8,1.1l-1.4,1.5l-0.9,1.9L516.3,347.5 M703.4,347.5
			l0.3,2.9l0.9,2.8l1.5,2.6l2,2.2l2.4,1.7l2.7,1.2l2.9,0.6h3l2.9-0.6l2.7-1.2l2.4-1.7l2-2.2l1.5-2.6l0.9-2.8l0.3-2.9l-0.3-2.9
			l-0.9-2.8l-1.5-2.6l-2-2.2l-2.4-1.7L722,334l-2.9-0.6h-3l-2.9,0.6l-2.7,1.2l-2.4,1.7l-2,2.2l-1.5,2.6l-0.9,2.8L703.4,347.5
			 M710.5,347.5l0.3,2.1l0.9,1.9l1.4,1.5l1.8,1.1l2.1,0.5l2.1-0.2l2-0.8l1.7-1.3l1.2-1.7l0.6-2v-2.1l-0.6-2l-1.2-1.7l-1.7-1.3
			l-2-0.8l-2.1-0.2l-2.1,0.5l-1.8,1.1l-1.4,1.5l-0.9,1.9L710.5,347.5 M731.8,245.4l-0.3-2.9l-0.9-2.8l-1.5-2.6l-2-2.2l-2.4-1.7
			L722,232l-2.9-0.6h-3l-2.9,0.6l-2.7,1.2l-2.4,1.7l-2,2.2l-1.5,2.6l-0.9,2.8l-0.3,2.9l0.3,2.9l0.9,2.8l1.5,2.6l2,2.2l2.4,1.7
			l2.7,1.2l2.9,0.6h3l2.9-0.6l2.7-1.2l2.4-1.7l2-2.2l1.5-2.6l0.9-2.8L731.8,245.4 M724.7,245.4l-0.3-2.1l-0.9-1.9l-1.4-1.5l-1.8-1.1
			l-2.1-0.5l-2.1,0.2l-2,0.8l-1.7,1.3l-1.2,1.7l-0.6,2v2.1l0.6,2l1.2,1.7l1.7,1.3l2,0.8l2.1,0.2l2.1-0.5l1.8-1.1l1.4-1.5l0.9-1.9
			L724.7,245.4 M537.6,245.4l-0.3-2.9l-0.9-2.8l-1.5-2.6l-2-2.2l-2.4-1.7l-2.7-1.2l-2.9-0.6h-3L519,232l-2.7,1.2l-2.4,1.7l-2,2.2
			l-1.5,2.6l-0.9,2.8l-0.3,2.9l0.3,2.9l0.9,2.8l1.5,2.6l2,2.2l2.4,1.7l2.7,1.2l2.9,0.6h3l2.9-0.6l2.7-1.2l2.4-1.7l2-2.2l1.5-2.6
			l0.9-2.8L537.6,245.4 M530.5,245.4l-0.3-2.1l-0.9-1.9l-1.4-1.5l-1.8-1.1l-2.1-0.5l-2.1,0.2l-2,0.8l-1.7,1.3l-1.2,1.7l-0.6,2v2.1
			l0.6,2l1.2,1.7l1.7,1.3l2,0.8l2.1,0.2l2.1-0.5l1.8-1.1l1.4-1.5l0.9-1.9L530.5,245.4"/>
	</g>
</g>
</svg>
