<?xml version="1.0" encoding="utf-8"?>
<!-- Generator: Adobe Illustrator 21.0.0, SVG Export Plug-In . SVG Version: 6.00 Build 0)  -->
<svg version="1.1" id="Calque_1" xmlns="http://www.w3.org/2000/svg" xmlns:xlink="http://www.w3.org/1999/xlink" x="0px" y="0px"
	 viewBox="0 0 841.9 595.3" style="enable-background:new 0 0 841.9 595.3;" xml:space="preserve">
<style type="text/css">
	.st0{fill:#000080;}
	.st1{font-family:'CenturyGothic';}
	.st2{font-size:9.9949px;}
	
		.st3{fill:none;stroke:#000080;stroke-width:0.51;stroke-linecap:round;stroke-linejoin:round;stroke-miterlimit:10;stroke-dasharray:43.2,3.6,3.6,3.6;}
	.st4{fill:none;stroke:#000080;stroke-width:0.51;stroke-linecap:round;stroke-linejoin:round;stroke-miterlimit:10;}
	.st5{fill:none;stroke:#000080;stroke-width:0.709;stroke-linecap:round;stroke-linejoin:round;stroke-miterlimit:10;}
</style>
<text transform="matrix(1 0 0 1.0005 78.2197 113.9381)" class="st0 st1 st2">Rossignol Axial Racing / Look PX Racing</text>
<line class="st3" x1="717.2" y1="341.8" x2="717.2" y2="334.7"/>
<line class="st3" x1="703" y1="356" x2="695.9" y2="356"/>
<line class="st3" x1="717.2" y1="370.2" x2="717.2" y2="377.3"/>
<line class="st3" x1="731.3" y1="356" x2="738.4" y2="356"/>
<line class="st3" x1="717.2" y1="222.8" x2="717.2" y2="215.7"/>
<line class="st3" x1="703" y1="236.9" x2="695.9" y2="236.9"/>
<line class="st3" x1="717.2" y1="251.1" x2="717.2" y2="258.2"/>
<line class="st3" x1="731.3" y1="236.9" x2="738.4" y2="236.9"/>
<line class="st3" x1="487.6" y1="341.8" x2="487.6" y2="334.7"/>
<line class="st3" x1="473.4" y1="356" x2="466.3" y2="356"/>
<line class="st3" x1="487.6" y1="370.2" x2="487.6" y2="377.3"/>
<line class="st3" x1="501.7" y1="356" x2="508.8" y2="356"/>
<line class="st3" x1="487.6" y1="222.8" x2="487.6" y2="215.7"/>
<line class="st3" x1="473.4" y1="236.9" x2="466.3" y2="236.9"/>
<line class="st3" x1="487.6" y1="251.1" x2="487.6" y2="258.2"/>
<line class="st3" x1="501.7" y1="236.9" x2="508.8" y2="236.9"/>
<path class="st4" d="M487.6,236.9h7.1 M487.6,236.9v7.1 M487.6,236.9h-7.1 M487.6,236.9v-7.1 M487.6,356h7.1 M487.6,356v7.1
	 M487.6,356h-7.1 M487.6,356v-7.1 M717.2,236.9h7.1 M717.2,236.9v7.1 M717.2,236.9h-7.1 M717.2,236.9v-7.1 M717.2,356h7.1
	 M717.2,356v7.1 M717.2,356h-7.1 M717.2,356v-7.1"/>
<path class="st5" d="M494.7,236.9l-0.3-2.1l-0.9-1.9l-1.4-1.5l-1.8-1.1l-2.1-0.5L486,230l-2,0.8l-1.7,1.3l-1.2,1.7l-0.6,2v2.1l0.6,2
	l1.2,1.7l1.7,1.3l2,0.8l2.1,0.2l2.1-0.5l1.8-1.1l1.4-1.5l0.9-1.9L494.7,236.9 M501.7,236.9l-0.3-2.9l-0.9-2.8l-1.5-2.6l-2-2.2
	l-2.4-1.7l-2.7-1.2l-2.9-0.6h-3l-2.9,0.6l-2.7,1.2l-2.4,1.7l-2,2.2l-1.5,2.6l-0.9,2.8l-0.3,2.9l0.3,2.9l0.9,2.8l1.5,2.6l2,2.2
	l2.4,1.7l2.7,1.2l2.9,0.6h3l2.9-0.6l2.7-1.2l2.4-1.7l2-2.2l1.5-2.6l0.9-2.8L501.7,236.9 M731.3,236.9L731,234l-0.9-2.8l-1.5-2.6
	l-2-2.2l-2.4-1.7l-2.7-1.2l-2.9-0.6h-3l-2.9,0.6l-2.7,1.2l-2.4,1.7l-2,2.2l-1.5,2.6l-0.9,2.8l-0.3,2.9l0.3,2.9l0.9,2.8l1.5,2.6
	l2,2.2l2.4,1.7l2.7,1.2l2.9,0.6h3l2.9-0.6l2.7-1.2l2.4-1.7l2-2.2l1.5-2.6l0.9-2.8L731.3,236.9 M724.3,236.9l-0.3-2.1l-0.9-1.9
	l-1.4-1.5l-1.8-1.1l-2.1-0.5l-2.1,0.2l-2,0.8l-1.7,1.3l-1.2,1.7l-0.6,2v2.1l0.6,2l1.2,1.7l1.7,1.3l2,0.8l2.1,0.2l2.1-0.5l1.8-1.1
	l1.4-1.5l0.9-1.9L724.3,236.9 M703,356l0.3,2.9l0.9,2.8l1.5,2.6l2,2.2l2.4,1.7l2.7,1.2l2.9,0.6h3l2.9-0.6l2.7-1.2l2.4-1.7l2-2.2
	l1.5-2.6l0.9-2.8l0.3-2.9L731,353l-0.9-2.8l-1.5-2.6l-2-2.2l-2.4-1.7l-2.7-1.2l-2.9-0.6h-3l-2.9,0.6l-2.7,1.2l-2.4,1.7l-2,2.2
	l-1.5,2.6l-0.9,2.8L703,356 M710.1,356l0.3,2.1l0.9,1.9l1.4,1.5l1.8,1.1l2.1,0.5l2.1-0.2l2-0.8l1.7-1.3l1.2-1.7l0.6-2v-2.1l-0.6-2
	l-1.2-1.7l-1.7-1.3l-2-0.8l-2.1-0.2l-2.1,0.5l-1.8,1.1l-1.4,1.5l-0.9,1.9L710.1,356 M473.4,356l0.3,2.9l0.9,2.8l1.5,2.6l2,2.2
	l2.4,1.7l2.7,1.2l2.9,0.6h3l2.9-0.6l2.7-1.2l2.4-1.7l2-2.2l1.5-2.6l0.9-2.8l0.3-2.9l-0.3-2.9l-0.9-2.8l-1.5-2.6l-2-2.2l-2.4-1.7
	l-2.7-1.2l-2.9-0.6h-3l-2.9,0.6l-2.7,1.2l-2.4,1.7l-2,2.2l-1.5,2.6l-0.9,2.8L473.4,356 M480.5,356l0.3,2.1l0.9,1.9l1.4,1.5l1.8,1.1
	l2.1,0.5l2.1-0.2l2-0.8l1.7-1.3l1.2-1.7l0.6-2v-2.1l-0.6-2l-1.2-1.7l-1.7-1.3l-2-0.8l-2.1-0.2l-2.1,0.5l-1.8,1.1l-1.4,1.5l-0.9,1.9
	L480.5,356 M485,296.2h2.3 M485,296.7h2.3 M487.9,296.2h2.3 M487.9,296.7h2.3 M490.7,296.2h2.3 M490.7,296.7h2.3 M493.5,296.2h2.3
	 M493.5,296.7h2.3 M496.4,296.2h2.3 M496.4,296.7h2.3 M499.2,296.2h2.3 M499.2,296.7h2.3 M502,296.2h2.3 M502,296.7h2.3
	 M504.9,296.2h2.3 M504.9,296.7h2.3 M541.1,289.4h0.6 M524.7,289.4v6.8 M547.4,296.7v6.8 M533.2,289.4v6.8 M515.6,296.7v6.8
	 M411.3,296.7h2.3 M414.1,296.2h2.3 M414.1,296.7h2.3 M417,296.2h2.3 M417,296.7h2.3 M419.8,296.2h2.3 M419.8,296.7h2.3
	 M422.7,296.7h2.3 M425.5,296.2h2.3 M425.5,296.7h2.3 M428.3,296.2h2.3 M428.3,296.7h2.3 M431.2,296.2h2.3 M431.2,296.7h2.3
	 M434,296.2h2.3 M436.8,296.2h2.3 M436.8,296.7h2.3 M439.7,296.2h2.3 M439.7,296.7h2.3 M442.5,296.2h2.3 M442.5,296.7h2.3
	 M445.3,296.2h2.3 M445.3,296.7h2.3 M448.2,296.2h2.3 M448.2,296.7h2.3 M451,296.2h2.3 M451,296.7h2.3 M453.8,296.2h2.3
	 M453.8,296.7h2.3 M456.7,296.2h2.3 M456.7,296.7h2.3 M459.5,296.2h2.3 M459.5,296.7h2.3 M462.3,296.2h2.3 M462.3,296.7h2.3
	 M465.2,296.2h2.3 M465.2,296.7h2.3 M468,296.2h2.3 M470.8,296.2h2.3 M470.8,296.7h2.3 M473.7,296.2h2.3 M473.7,296.7h2.3
	 M476.5,296.2h2.3 M476.5,296.7h2.3 M479.3,296.2h2.3 M479.3,296.7h2.3 M507.7,296.2h2.3 M507.7,296.7h2.3 M510.5,296.2h2.3
	 M510.5,296.7h2.3 M513.4,296.2h2.3 M513.4,296.7h2.3 M516.2,296.2h2.3 M519,296.2h2.3 M519,296.7h2.3 M521.9,296.2h2.3
	 M521.9,296.7h2.3 M524.7,296.2h2.3 M524.7,296.7h2.3 M527.5,296.2h2.3 M527.5,296.7h2.3 M530.4,296.7h2.3 M533.2,296.2h2.3
	 M533.2,296.7h2.3 M536,296.2h2.3 M536,296.7h2.3 M538.9,296.2h2.3 M538.9,296.7h2.3 M553,289.4v6.8 M544,289.4v6.8 M536,296.7v6.8
	 M527.5,303.6H527 M521.3,289.4h0.6 M513.4,289.4v6.8 M397.1,296.7h2.3 M400,296.2h2.3 M400,296.7h2.3 M402.8,296.2h2.3
	 M402.8,296.7h2.3 M405.6,296.2h2.3 M405.6,296.7h2.3 M408.5,296.2h2.3 M408.5,296.7h2.3 M411.3,296.2h2.3 M495.8,289.4v6.8
	 M496.4,289.4v6.8 M495.8,289.4h0.6 M493.5,303.6H493 M493.5,296.7v6.8 M493,296.7v6.8 M422.7,296.2h2.3 M493.5,289.4v6.8
	 M493,289.4h0.6 M490.7,303.6h-0.6 M490.7,296.7v6.8 M490.1,296.7v6.8 M490.1,289.4v6.8 M490.7,289.4v6.8 M490.1,289.4h0.6
	 M487.9,303.6h-0.6 M434,296.7h2.3 M487.3,296.7v6.8 M487.3,289.4v6.8 M487.9,289.4v6.8 M487.3,289.4h0.6 M485,303.6h-0.6
	 M485,296.7v6.8 M484.4,296.7v6.8 M484.4,289.4v6.8 M485,289.4v6.8 M484.4,289.4h0.6 M482.2,303.6h-0.6 M482.2,296.7v6.8
	 M481.6,296.7v6.8 M481.6,289.4v6.8 M482.2,289.4v6.8 M481.6,289.4h0.6 M479.3,303.6h-0.6 M479.3,296.7v6.8 M478.8,296.7v6.8
	 M478.8,289.4v6.8 M479.3,289.4v6.8 M478.8,289.4h0.6 M468,296.7h2.3 M476.5,296.7v6.8 M475.9,296.7v6.8 M475.9,289.4v6.8
	 M476.5,289.4v6.8 M475.9,289.4h0.6 M473.7,303.6h-0.6 M473.7,296.7v6.8 M473.1,296.7v6.8 M473.1,289.4v6.8 M482.2,296.2h2.3
	 M482.2,296.7h2.3 M470.8,303.6h-0.6 M470.8,296.7v6.8 M470.3,296.7v6.8 M470.3,289.4v6.8 M470.8,289.4v6.8 M468,303.6h-0.6
	 M468,296.7v6.8 M467.4,296.7v6.8 M467.4,289.4v6.8 M468,289.4v6.8 M467.4,289.4h0.6 M465.2,303.6h-0.6 M465.2,296.7v6.8
	 M464.6,296.7v6.8 M464.6,289.4v6.8 M465.2,289.4v6.8 M464.6,289.4h0.6 M462.3,303.6h-0.6 M462.3,296.7v6.8 M461.8,296.7v6.8
	 M461.8,289.4v6.8 M516.2,296.7h2.3 M461.8,289.4h0.6 M459.5,303.6h-0.6 M459.5,296.7v6.8 M458.9,296.7v6.8 M458.9,289.4v6.8
	 M459.5,289.4v6.8 M458.9,289.4h0.6 M456.7,303.6h-0.6 M456.7,296.7v6.8 M530.4,296.2h2.3 M456.1,289.4v6.8 M456.7,289.4v6.8
	 M456.1,289.4h0.6 M453.8,303.6h-0.6 M453.8,296.7v6.8 M453.3,296.7v6.8 M541.7,296.2h2.3 M541.7,296.7h2.3 M544.5,296.2h2.3
	 M544.5,296.7h2.3 M547.4,296.2h2.3 M547.4,296.7h2.3 M550.2,296.2h2.3 M550.2,296.7h2.3 M553,296.2h2.3 M553,296.7h2.3
	 M555.9,296.2h2.3 M555.9,296.7h2.3 M558.7,296.2h2.3 M558.7,296.7h2.3 M391.5,296.2h2.3 M391.5,289.4v6.8 M390.9,289.4h0.6
	 M390.9,289.4v14.2 M391.5,303.6h-0.6 M391.5,296.7v6.8 M391.5,296.7h2.3 M393.7,296.7v6.8 M394.3,303.6h-0.6 M394.3,296.7v6.8
	 M394.3,296.7h2.3 M396.6,296.7v6.8 M397.1,303.6h-0.6 M397.1,296.7v6.8 M399.4,296.7v6.8 M400,303.6h-0.6 M400,296.7v6.8
	 M402.2,296.7v6.8 M402.8,303.6h-0.6 M402.8,296.7v6.8 M405.1,296.7v6.8 M405.6,303.6h-0.6 M405.6,296.7v6.8 M407.9,296.7v6.8
	 M408.5,303.6h-0.6 M408.5,296.7v6.8 M410.7,296.7v6.8 M411.3,303.6h-0.6 M411.3,296.7v6.8 M413.6,296.7v6.8 M414.1,303.6h-0.6
	 M414.1,296.7v6.8 M416.4,296.7v6.8 M417,303.6h-0.6 M417,296.7v6.8 M419.3,296.7v6.8 M419.8,303.6h-0.6 M419.8,296.7v6.8
	 M422.1,296.7v6.8 M422.7,303.6h-0.6 M422.7,296.7v6.8 M424.9,296.7v6.8 M425.5,303.6h-0.6 M425.5,296.7v6.8 M427.8,296.7v6.8
	 M428.3,303.6h-0.6 M428.3,296.7v6.8 M430.6,296.7v6.8 M431.2,303.6h-0.6 M431.2,296.7v6.8 M433.4,296.7v6.8 M434,303.6h-0.6
	 M434,296.7v6.8 M436.3,296.7v6.8 M436.8,303.6h-0.6 M436.8,296.7v6.8 M439.1,296.7v6.8 M439.7,303.6h-0.6 M439.7,296.7v6.8
	 M441.9,296.7v6.8 M442.5,303.6h-0.6 M442.5,296.7v6.8 M444.8,296.7v6.8 M445.3,303.6h-0.6 M445.3,296.7v6.8 M447.6,296.7v6.8
	 M448.2,303.6h-0.6 M448.2,296.7v6.8 M450.4,296.7v6.8 M451,303.6h-0.6 M451,296.7v6.8 M456.1,296.7v6.8 M476.5,303.6h-0.6
	 M487.9,296.7v6.8 M495.8,296.7v6.8 M496.4,303.6h-0.6 M496.4,296.7v6.8 M498.6,296.7v6.8 M499.2,303.6h-0.6 M499.2,296.7v6.8
	 M501.5,296.7v6.8 M502,303.6h-0.6 M502,296.7v6.8 M504.3,296.7v6.8 M504.9,303.6h-0.6 M504.9,296.7v6.8 M507.1,296.7v6.8
	 M507.7,303.6h-0.6 M507.7,296.7v6.8 M510,296.7v6.8 M510.5,303.6H510 M510.5,296.7v6.8 M512.8,296.7v6.8 M513.4,303.6h-0.6
	 M513.4,296.7v6.8 M516.2,303.6h-0.6 M516.2,296.7v6.8 M518.5,296.7v6.8 M519,303.6h-0.6 M519,296.7v6.8 M521.3,296.7v6.8
	 M521.9,303.6h-0.6 M521.9,296.7v6.8 M524.1,296.7v6.8 M524.7,303.6h-0.6 M524.7,296.7v6.8 M527,296.7v6.8 M527.5,296.7v6.8
	 M529.8,296.7v6.8 M530.4,303.6h-0.6 M530.4,296.7v6.8 M532.6,296.7v6.8 M533.2,303.6h-0.6 M533.2,296.7v6.8 M535.5,296.7v6.8
	 M536,303.6h-0.6 M538.3,296.7v6.8 M538.9,303.6h-0.6 M538.9,296.7v6.8 M541.1,296.7v6.8 M541.7,303.6h-0.6 M541.7,296.7v6.8
	 M544,296.7v6.8 M544.5,303.6H544 M544.5,296.7v6.8 M546.8,296.7v6.8 M547.4,303.6h-0.6 M549.6,296.7v6.8 M550.2,303.6h-0.6
	 M550.2,296.7v6.8 M552.5,296.7v6.8 M553,303.6h-0.6 M553,296.7v6.8 M555.3,296.7v6.8 M555.9,303.6h-0.6 M555.9,296.7v6.8
	 M558.1,296.7v6.8 M558.7,303.6h-0.6 M558.7,296.7v6.8 M561,296.7v13.9 M561.6,310.6H561 M561.6,282.3v28.3 M561,282.3h0.6
	 M561,282.3v13.9 M558.7,289.4v6.8 M558.1,289.4h0.6 M558.1,289.4v6.8 M555.9,289.4v6.8 M555.3,289.4h0.6 M555.3,289.4v6.8
	 M552.5,289.4h0.6 M552.5,289.4v6.8 M550.2,289.4v6.8 M549.6,289.4h0.6 M549.6,289.4v6.8 M547.4,289.4v6.8 M546.8,289.4h0.6
	 M546.8,289.4v6.8 M544.5,289.4v6.8 M544,289.4h0.6 M541.7,289.4v6.8 M541.1,289.4v6.8 M538.9,289.4v6.8 M538.3,289.4h0.6
	 M538.3,289.4v6.8 M536,289.4v6.8 M535.5,289.4h0.6 M535.5,289.4v6.8 M532.6,289.4h0.6 M532.6,289.4v6.8 M530.4,289.4v6.8
	 M529.8,289.4h0.6 M529.8,289.4v6.8 M527.5,289.4v6.8 M527,289.4h0.6 M527,289.4v6.8 M524.1,289.4h0.6 M524.1,289.4v6.8
	 M521.9,289.4v6.8 M521.3,289.4v6.8 M519,289.4v6.8 M518.5,289.4h0.6 M518.5,289.4v6.8 M516.2,289.4v6.8 M515.6,289.4h0.6
	 M515.6,289.4v6.8 M512.8,289.4h0.6 M512.8,289.4v6.8 M510.5,289.4v6.8 M510,289.4h0.6 M510,289.4v6.8 M507.7,289.4v6.8
	 M507.1,289.4h0.6 M507.1,289.4v6.8 M504.9,289.4v6.8 M504.3,289.4h0.6 M504.3,289.4v6.8 M502,289.4v6.8 M501.5,289.4h0.6
	 M501.5,289.4v6.8 M499.2,289.4v6.8 M498.6,289.4h0.6 M498.6,289.4v6.8 M493,289.4v6.8 M473.7,289.4v6.8 M473.1,289.4h0.6
	 M470.3,289.4h0.6 M462.3,289.4v6.8 M453.8,289.4v6.8 M453.3,289.4h0.6 M453.3,289.4v6.8 M451,289.4v6.8 M450.4,289.4h0.6
	 M450.4,289.4v6.8 M448.2,289.4v6.8 M447.6,289.4h0.6 M447.6,289.4v6.8 M445.3,289.4v6.8 M444.8,289.4h0.6 M444.8,289.4v6.8
	 M442.5,289.4v6.8 M441.9,289.4h0.6 M441.9,289.4v6.8 M439.7,289.4v6.8 M439.1,289.4h0.6 M439.1,289.4v6.8 M436.8,289.4v6.8
	 M436.3,289.4h0.6 M436.3,289.4v6.8 M434,289.4v6.8 M433.4,289.4h0.6 M433.4,289.4v6.8 M431.2,289.4v6.8 M430.6,289.4h0.6
	 M430.6,289.4v6.8 M428.3,289.4v6.8 M427.8,289.4h0.6 M427.8,289.4v6.8 M425.5,289.4v6.8 M424.9,289.4h0.6 M424.9,289.4v6.8
	 M422.7,289.4v6.8 M422.1,289.4h0.6 M422.1,289.4v6.8 M419.8,289.4v6.8 M419.3,289.4h0.6 M419.3,289.4v6.8 M417,289.4v6.8
	 M416.4,289.4h0.6 M416.4,289.4v6.8 M414.1,289.4v6.8 M413.6,289.4h0.6 M413.6,289.4v6.8 M411.3,289.4v6.8 M410.7,289.4h0.6
	 M410.7,289.4v6.8 M408.5,289.4v6.8 M407.9,289.4h0.6 M407.9,289.4v6.8 M405.6,289.4v6.8 M405.1,289.4h0.6 M405.1,289.4v6.8
	 M402.8,289.4v6.8 M402.2,289.4h0.6 M402.2,289.4v6.8 M400,289.4v6.8 M399.4,289.4h0.6 M399.4,289.4v6.8 M397.1,296.2h2.3
	 M397.1,289.4v6.8 M396.6,289.4h0.6 M396.6,289.4v6.8 M394.3,296.2h2.3 M394.3,289.4v6.8 M393.7,289.4h0.6 M393.7,289.4v6.8"/>
</svg>
