<?xml version="1.0" encoding="utf-8"?>
<!-- Generator: Adobe Illustrator 21.0.0, SVG Export Plug-In . SVG Version: 6.00 Build 0)  -->
<svg version="1.1" id="Calque_1" xmlns="http://www.w3.org/2000/svg" xmlns:xlink="http://www.w3.org/1999/xlink" x="0px" y="0px"
	 viewBox="0 0 841.9 595.3" style="enable-background:new 0 0 841.9 595.3;" xml:space="preserve">
<style type="text/css">
	.st0{fill:#24A0C2;}
	.st1{font-family:'CenturyGothic';}
	.st2{font-size:13.2283px;}
	.st3{font-size:9.9985px;}
	.st4{font-size:9.998px;}
	.st5{fill:none;stroke:#24A0C2;stroke-width:0.51;stroke-miterlimit:10;}
	
		.st6{fill:none;stroke:#24A0C2;stroke-width:0.51;stroke-linecap:round;stroke-linejoin:round;stroke-miterlimit:10;stroke-dasharray:43.2,3.6,3.6,3.6;}
	.st7{fill:none;stroke:#24A0C2;stroke-width:0.51;stroke-linecap:round;stroke-linejoin:round;stroke-miterlimit:10;}
	
		.st8{fill:none;stroke:#24A0C2;stroke-width:0.51;stroke-linecap:round;stroke-linejoin:round;stroke-miterlimit:10;stroke-dasharray:43.2,3.6,3.6,3.6;stroke-dashoffset:10;}
	.st9{fill:none;stroke:#24A0C2;stroke-width:0.709;stroke-linecap:round;stroke-linejoin:round;stroke-miterlimit:10;}
</style>
<text transform="matrix(1.0001 0 0 1 526.9365 503.5778)" class="st0 st1 st2"> +/- 11mm </text>
<text transform="matrix(1 0 0 1.0002 358.1738 419.9869)" class="st0 st1 st3">997, certaines STH, etc.</text>
<text transform="matrix(1 0 0 1.0002 68.0835 113.9366)" class="st0 st1 st4">Salomon/Atomic/Scott toute fixation alpine jusque 2013</text>
<polyline class="st5" points="519.2,309.7 516.8,318.8 514.2,317.7 519.2,309.7 "/>
<path class="st5" d="M592.4,506.4l-9.4,1.4V505L592.4,506.4 M530.1,506.4l9.4-1.4v2.9L530.1,506.4"/>
<line class="st6" x1="445" y1="322" x2="445" y2="314.9"/>
<line class="st6" x1="430.9" y1="336.2" x2="423.8" y2="336.2"/>
<line class="st6" x1="445" y1="350.3" x2="445" y2="357.4"/>
<line class="st6" x1="459.2" y1="336.2" x2="466.3" y2="336.2"/>
<line class="st6" x1="445" y1="242.6" x2="445" y2="235.5"/>
<line class="st6" x1="430.9" y1="256.8" x2="423.8" y2="256.8"/>
<line class="st6" x1="445" y1="271" x2="445" y2="278"/>
<line class="st6" x1="459.2" y1="256.8" x2="466.3" y2="256.8"/>
<line class="st6" x1="524.4" y1="282.3" x2="524.4" y2="275.2"/>
<line class="st6" x1="510.2" y1="296.5" x2="503.2" y2="296.5"/>
<line class="st6" x1="524.4" y1="310.6" x2="524.4" y2="317.7"/>
<line class="st6" x1="538.6" y1="296.5" x2="545.7" y2="296.5"/>
<line class="st6" x1="705.8" y1="222.8" x2="705.8" y2="215.7"/>
<line class="st6" x1="691.7" y1="236.9" x2="684.6" y2="236.9"/>
<line class="st6" x1="705.8" y1="251.1" x2="705.8" y2="258.2"/>
<line class="st6" x1="720" y1="236.9" x2="727.1" y2="236.9"/>
<line class="st6" x1="705.8" y1="341.8" x2="705.8" y2="334.7"/>
<line class="st6" x1="691.7" y1="356" x2="684.6" y2="356"/>
<line class="st6" x1="705.8" y1="370.2" x2="705.8" y2="377.3"/>
<line class="st6" x1="720" y1="356" x2="727.1" y2="356"/>
<path class="st7" d="M469.9,422.3l49.3-112.6 M359.4,422.3h110.5"/>
<path class="st7" d="M705.8,356h7.1 M705.8,356v7.1 M705.8,356h-7.1 M705.8,356v-7.1 M705.8,236.9h7.1 M705.8,236.9v7.1
	 M705.8,236.9h-7.1 M705.8,236.9v-7.1 M524.4,296.5h7.1 M524.4,296.5v7.1 M524.4,296.5h-7.1 M524.4,296.5v-7.1 M445,256.8h7.1
	 M445,256.8v7.1 M445,256.8H438 M445,256.8v-7.1 M445,336.2h7.1 M445,336.2v7.1 M445,336.2H438 M445,336.2v-7.1"/>
<line class="st8" x1="530.1" y1="69.7" x2="530.1" y2="523.2"/>
<line class="st8" x1="592.4" y1="523.2" x2="592.4" y2="69.7"/>
<line class="st7" x1="530.1" y1="506.4" x2="592.4" y2="506.4"/>
<polyline class="st0" points="519.2,309.7 516.8,318.8 514.2,317.7 "/>
<path class="st0" d="M592.4,506.4l-9.4,1.4V505 M530.1,506.4l9.4-1.4v2.9"/>
<path class="st9" d="M452.1,256.8l-0.3-2.1l-0.9-1.9l-1.4-1.5l-1.8-1.1l-2.1-0.5l-2.1,0.2l-2,0.8l-1.7,1.3l-1.2,1.7l-0.6,2v2.1
	l0.6,2l1.2,1.7l1.7,1.3l2,0.8l2.1,0.2l2.1-0.5l1.8-1.1l1.4-1.5l0.9-1.9L452.1,256.8 M459.2,256.8l-0.3-2.9L458,251l-1.5-2.6l-2-2.2
	l-2.4-1.7l-2.7-1.2l-2.9-0.6h-3l-2.9,0.6l-2.7,1.2l-2.4,1.7l-2,2.2l-1.5,2.6l-0.9,2.8l-0.3,2.9l0.3,2.9l0.9,2.8l1.5,2.6l2,2.2
	l2.4,1.7l2.7,1.2l2.9,0.6h3l2.9-0.6l2.7-1.2l2.4-1.7l2-2.2l1.5-2.6l0.9-2.8L459.2,256.8 M720,236.9l-0.3-2.9l-0.9-2.8l-1.5-2.6
	l-2-2.2l-2.4-1.7l-2.7-1.2l-2.9-0.6h-3l-2.9,0.6l-2.7,1.2l-2.4,1.7l-2,2.2l-1.5,2.6L692,234l-0.3,2.9l0.3,2.9l0.9,2.8l1.5,2.6l2,2.2
	l2.4,1.7l2.7,1.2l2.9,0.6h3l2.9-0.6l2.7-1.2l2.4-1.7l2-2.2l1.5-2.6l0.9-2.8L720,236.9 M712.9,236.9l-0.3-2.1l-0.9-1.9l-1.4-1.5
	l-1.8-1.1l-2.1-0.5l-2.1,0.2l-2,0.8l-1.7,1.3l-1.2,1.7l-0.6,2v2.1l0.6,2l1.2,1.7l1.7,1.3l2,0.8l2.1,0.2l2.1-0.5l1.8-1.1l1.4-1.5
	l0.9-1.9L712.9,236.9 M691.7,356l0.3,2.9l0.9,2.8l1.5,2.6l2,2.2l2.4,1.7l2.7,1.2l2.9,0.6h3l2.9-0.6l2.7-1.2l2.4-1.7l2-2.2l1.5-2.6
	l0.9-2.8l0.3-2.9l-0.3-2.9l-0.9-2.8l-1.5-2.6l-2-2.2l-2.4-1.7l-2.7-1.2l-2.9-0.6h-3l-2.9,0.6l-2.7,1.2l-2.4,1.7l-2,2.2l-1.5,2.6
	L692,353L691.7,356 M698.7,356l0.3,2.1l0.9,1.9l1.4,1.5l1.8,1.1l2.1,0.5l2.1-0.2l2-0.8l1.7-1.3l1.2-1.7l0.6-2v-2.1l-0.6-2l-1.2-1.7
	l-1.7-1.3l-2-0.8l-2.1-0.2l-2.1,0.5l-1.8,1.1L700,352l-0.9,1.9L698.7,356 M430.9,336.2l0.3,2.9l0.9,2.8l1.5,2.6l2,2.2l2.4,1.7
	l2.7,1.2l2.9,0.6h3l2.9-0.6l2.7-1.2l2.4-1.7l2-2.2l1.5-2.6l0.9-2.8l0.3-2.9l-0.3-2.9l-0.9-2.8l-1.5-2.6l-2-2.2l-2.4-1.7l-2.7-1.2
	l-2.9-0.6h-3l-2.9,0.6l-2.7,1.2l-2.4,1.7l-2,2.2l-1.5,2.6l-0.9,2.8L430.9,336.2 M438,336.2l0.3,2.1l0.9,1.9l1.4,1.5l1.8,1.1l2.1,0.5
	l2.1-0.2l2-0.8l1.7-1.3l1.2-1.7l0.6-2v-2.1l-0.6-2l-1.2-1.7l-1.7-1.3l-2-0.8l-2.1-0.2l-2.1,0.5l-1.8,1.1l-1.4,1.5l-0.9,1.9
	L438,336.2 M531.5,296.2l0-0.5l-0.1-0.5l-0.1-0.5l-0.1-0.5l-0.2-0.4l-0.2-0.4l-0.2-0.4l-0.2-0.4 M527,289.9l-0.3-0.1l-0.3-0.1
	l-0.3-0.1l-0.3-0.1l-0.3-0.1l-0.3,0l-0.3,0l-0.3,0 M538.3,293.6l-0.9-2.8l-1.5-2.6l-2-2.2l-2.4-1.8l-2.7-1.2l-2.9-0.6h-3L520,283
	l-2.7,1.2l-2.4,1.8l-2,2.2l-1.5,2.6l-0.9,2.8 M518.5,292.6l-0.2,0.4l-0.2,0.4l-0.2,0.4l-0.2,0.4l-0.1,0.5l-0.1,0.5l-0.1,0.5l0,0.5
	 M521.3,290.1l-0.3,0.2l-0.3,0.2l-0.3,0.2l-0.3,0.2l-0.3,0.2l-0.3,0.2l-0.3,0.3l-0.2,0.3 M524.1,289.4l-0.3,0l-0.3,0l-0.3,0
	l-0.3,0.1l-0.3,0.1l-0.3,0.1l-0.3,0.1l-0.3,0.1 M529.8,291.9l-0.2-0.3l-0.3-0.3l-0.3-0.2l-0.3-0.2l-0.3-0.2l-0.3-0.2l-0.3-0.2
	l-0.3-0.2 M524.7,303.5l0.3,0l0.3,0l0.3,0l0.3-0.1l0.3-0.1l0.3-0.1l0.3-0.1l0.3-0.1 M510.5,299.3l0.9,2.8l1.5,2.6l2,2.2l2.4,1.8
	l2.7,1.2l2.9,0.6h3l2.9-0.6l2.7-1.2l2.4-1.8l2-2.2l1.5-2.6l0.9-2.8 M530.4,300.3l0.2-0.4l0.2-0.4l0.2-0.4l0.2-0.4l0.1-0.5l0.1-0.5
	l0.1-0.5l0-0.5 M527.5,302.8l0.3-0.2l0.3-0.2l0.3-0.2l0.3-0.2l0.3-0.2l0.3-0.2l0.3-0.3l0.2-0.3 M521.9,303.1l0.3,0.1l0.3,0.1
	l0.3,0.1l0.3,0.1l0.3,0.1l0.3,0l0.3,0l0.3,0 M519,301.1l0.2,0.3l0.3,0.3l0.3,0.2l0.3,0.2l0.3,0.2l0.3,0.2l0.3,0.2l0.3,0.2
	 M517.3,296.7l0,0.5l0.1,0.5l0.1,0.5l0.1,0.5l0.2,0.4l0.2,0.4l0.2,0.4l0.2,0.4 M473.7,289.4v6.8 M473.1,289.4h0.6 M470.8,303.6h-0.6
	 M470.8,296.7v6.8 M470.3,296.7v6.8 M470.3,289.4v6.8 M470.8,289.4v6.8 M470.3,289.4h0.6 M468,303.6h-0.6 M468,296.7v6.8
	 M467.4,296.7v6.8 M467.4,289.4v6.8 M468,289.4v6.8 M467.4,289.4h0.6 M465.2,303.6h-0.6 M465.2,296.7v6.8 M407.9,289.4v6.8
	 M399.4,289.4h0.6 M390.9,289.4h0.6 M465.2,296.2h2.3 M496.4,303.6h-0.6 M521.3,296.7v6.8 M513.4,296.7v6.8 M512.8,296.7v6.8
	 M499.2,289.4v6.8 M498.6,289.4h0.6 M436.8,296.2h2.3 M459.5,296.7h2.3 M462.3,296.2h2.3 M462.3,296.7h2.3 M465.2,296.7h2.3
	 M468,296.2h2.3 M468,296.7h2.3 M470.8,296.2h2.3 M470.8,296.7h2.3 M473.7,296.2h2.3 M473.7,296.7h2.3 M476.5,296.2h2.3
	 M476.5,296.7h2.3 M479.3,296.2h2.3 M479.3,296.7h2.3 M482.2,296.2h2.3 M487.9,296.7h2.3 M490.7,296.2h2.3 M490.7,296.7h2.3
	 M493.5,296.2h2.3 M493.5,296.7h2.3 M496.4,296.2h2.3 M496.4,296.7h2.3 M499.2,296.2h2.3 M499.2,296.7h2.3 M502,296.2h2.3
	 M502,296.7h2.3 M504.9,296.2h2.3 M504.9,296.7h2.3 M507.7,296.2h2.3 M507.7,296.7h2.3 M510.5,296.2h2.3 M530.4,296.7h2.3
	 M427.8,289.4v6.8 M558.7,296.7h2.3 M555.9,289.4v6.8 M555.3,289.4h0.6 M553,303.6h-0.6 M553,296.7v6.8 M552.5,296.7v6.8
	 M552.5,289.4v6.8 M553,289.4v6.8 M552.5,289.4h0.6 M550.2,303.6h-0.6 M550.2,296.7v6.8 M549.6,296.7v6.8 M549.6,289.4v6.8
	 M550.2,289.4v6.8 M549.6,289.4h0.6 M547.4,303.6h-0.6 M547.4,296.7v6.8 M544.5,303.6H544 M544.5,296.7v6.8 M544,296.7v6.8
	 M544,289.4v6.8 M544.5,289.4v6.8 M544,289.4h0.6 M541.7,303.6h-0.6 M541.7,296.7v6.8 M541.1,296.7v6.8 M541.1,289.4v6.8
	 M541.7,289.4v6.8 M541.1,289.4h0.6 M538.9,303.6h-0.6 M538.9,296.7v6.8 M538.3,296.7v6.8 M538.3,289.4v6.8 M530.4,303.6h-0.6
	 M529.8,289.4v6.8 M530.4,289.4v6.8 M529.8,289.4h0.6 M527.5,303.6H527 M527.5,296.7v6.8 M527,296.7v6.8 M527,289.4v6.8
	 M527.5,289.4v6.8 M527,289.4h0.6 M524.7,303.6h-0.6 M524.7,296.7v6.8 M524.1,296.7v6.8 M524.1,289.4v6.8 M524.7,289.4v6.8
	 M524.1,289.4h0.6 M521.9,303.6h-0.6 M521.9,296.7v6.8 M521.3,289.4v6.8 M521.9,289.4v6.8 M521.3,289.4h0.6 M519,303.6h-0.6
	 M519,296.7v6.8 M518.5,296.7v6.8 M518.5,289.4v6.8 M519,289.4v6.8 M518.5,289.4h0.6 M516.2,303.6h-0.6 M516.2,296.7v6.8
	 M515.6,296.7v6.8 M515.6,289.4v6.8 M516.2,289.4v6.8 M515.6,289.4h0.6 M513.4,303.6h-0.6 M512.8,289.4v6.8 M513.4,289.4v6.8
	 M512.8,289.4h0.6 M510.5,303.6H510 M510.5,296.7v6.8 M510,296.7v6.8 M510,289.4v6.8 M510.5,289.4v6.8 M510,289.4h0.6 M507.7,303.6
	h-0.6 M507.7,296.7v6.8 M507.1,296.7v6.8 M507.1,289.4v6.8 M507.7,289.4v6.8 M504.3,289.4v6.8 M504.9,289.4v6.8 M504.3,289.4h0.6
	 M502,303.6h-0.6 M502,296.7v6.8 M501.5,296.7v6.8 M501.5,289.4v6.8 M502,289.4v6.8 M501.5,289.4h0.6 M499.2,303.6h-0.6
	 M499.2,296.7v6.8 M498.6,296.7v6.8 M498.6,289.4v6.8 M428.3,296.7v6.8 M427.8,296.7v6.8 M547.4,296.2h2.3 M428.3,289.4v6.8
	 M496.4,296.7v6.8 M495.8,296.7v6.8 M495.8,289.4v6.8 M496.4,289.4v6.8 M495.8,289.4h0.6 M493.5,303.6H493 M493.5,296.7v6.8
	 M493,296.7v6.8 M493,289.4v6.8 M493.5,289.4v6.8 M493,289.4h0.6 M490.7,303.6h-0.6 M490.1,289.4v6.8 M490.1,289.4h0.6 M487.9,303.6
	h-0.6 M487.9,296.7v6.8 M487.3,296.7v6.8 M487.3,289.4v6.8 M487.9,289.4v6.8 M487.3,289.4h0.6 M485,303.6h-0.6 M485,296.7v6.8
	 M484.4,296.7v6.8 M484.4,289.4v6.8 M485,289.4v6.8 M484.4,289.4h0.6 M482.2,303.6h-0.6 M482.2,296.7v6.8 M481.6,296.7v6.8
	 M481.6,289.4h0.6 M462.3,303.6h-0.6 M462.3,296.7v6.8 M461.8,296.7v6.8 M461.8,289.4v6.8 M462.3,289.4v6.8 M461.8,289.4h0.6
	 M459.5,303.6h-0.6 M459.5,296.7v6.8 M458.9,296.7v6.8 M458.9,289.4v6.8 M459.5,289.4v6.8 M458.9,289.4h0.6 M456.7,303.6h-0.6
	 M456.7,296.7v6.8 M456.1,296.7v6.8 M456.1,289.4v6.8 M422.1,289.4h0.6 M453.3,289.4h0.6 M448.2,303.6h-0.6 M445.3,289.4v6.8
	 M439.1,296.7v6.8 M519,296.7h2.3 M431.2,296.7v6.8 M430.6,296.7v6.8 M430.6,289.4v6.8 M431.2,289.4v6.8 M430.6,289.4h0.6
	 M428.3,303.6h-0.6 M544.5,296.2h2.3 M544.5,296.7h2.3 M394.3,289.4v6.8 M547.4,296.7h2.3 M427.8,289.4h0.6 M425.5,303.6h-0.6
	 M425.5,296.7v6.8 M424.9,296.7v6.8 M424.9,289.4v6.8 M425.5,289.4v6.8 M422.1,289.4v6.8 M422.7,289.4v6.8 M561.6,310.6H561
	 M419.8,303.6h-0.6 M419.8,296.7v6.8 M419.3,296.7v6.8 M419.3,289.4v6.8 M419.8,289.4v6.8 M419.3,289.4h0.6 M417,303.6h-0.6
	 M417,296.7v6.8 M416.4,296.7v6.8 M416.4,289.4v6.8 M417,289.4v6.8 M416.4,289.4h0.6 M414.2,303.6h-0.6 M399.4,296.7v6.8
	 M399.4,289.4v6.8 M400,289.4v6.8 M538.9,289.4v6.8 M397.1,303.6h-0.6 M397.1,296.7v6.8 M396.6,296.7v6.8 M396.6,289.4v6.8
	 M397.1,289.4v6.8 M396.6,289.4h0.6 M394.3,303.6h-0.6 M394.3,296.7v6.8 M393.7,296.7v6.8 M393.7,289.4v6.8 M439.7,296.7h2.3
	 M393.7,289.4h0.6 M391.5,296.7v6.8 M390.9,289.4v14.2 M391.5,303.6h-0.6 M391.5,289.4v6.8 M451,296.2h2.3 M451,296.7h2.3
	 M453.8,296.2h2.3 M453.8,296.7h2.3 M456.7,296.2h2.3 M456.7,296.7h2.3 M459.5,296.2h2.3 M561,282.3v13.9 M422.1,296.7v6.8
	 M490.7,296.7v6.8 M456.7,289.4v6.8 M456.1,289.4h0.6 M453.8,303.6h-0.6 M453.8,296.7v6.8 M453.3,296.7v6.8 M453.3,289.4v6.8
	 M453.8,289.4v6.8 M555.9,303.6h-0.6 M451,303.6h-0.6 M451,296.7v6.8 M450.4,296.7v6.8 M450.4,289.4v6.8 M451,289.4v6.8
	 M482.2,296.7h2.3 M485,296.2h2.3 M485,296.7h2.3 M487.9,296.2h2.3 M447.6,289.4v6.8 M448.2,289.4v6.8 M447.6,289.4h0.6
	 M445.3,303.6h-0.6 M445.3,296.7v6.8 M444.8,296.7v6.8 M444.8,289.4v6.8 M394.3,296.2h2.3 M444.8,289.4h0.6 M442.5,303.6h-0.6
	 M442.5,296.7v6.8 M441.9,296.7v6.8 M441.9,289.4v6.8 M442.5,289.4v6.8 M441.9,289.4h0.6 M439.7,303.6h-0.6 M510.5,296.7h2.3
	 M513.4,296.2h2.3 M513.4,296.7h2.3 M516.2,296.2h2.3 M516.2,296.7h2.3 M519,296.2h2.3 M436.8,296.7v6.8 M507.1,289.4h0.6
	 M504.9,303.6h-0.6 M504.9,296.7v6.8 M504.3,296.7v6.8 M527.5,296.2h2.3 M527.5,296.7h2.3 M530.4,296.2h2.3 M433.4,289.4v6.8
	 M533.2,296.2h2.3 M533.2,296.7h2.3 M536,296.2h2.3 M536,296.7h2.3 M538.9,296.2h2.3 M538.9,296.7h2.3 M541.7,296.2h2.3
	 M541.7,296.7h2.3 M439.7,296.2h2.3 M533.2,296.7v6.8 M442.5,296.2h2.3 M442.5,296.7h2.3 M550.2,296.2h2.3 M550.2,296.7h2.3
	 M553,296.2h2.3 M553,296.7h2.3 M555.9,296.2h2.3 M555.9,296.7h2.3 M558.7,296.2h2.3 M424.9,289.4h0.6 M391.5,296.2h2.3
	 M391.5,296.7h2.3 M394.3,296.7h2.3 M397.1,296.7h2.3 M400,303.6h-0.6 M400,296.7v6.8 M400,296.7h2.3 M402.2,296.7v6.8 M402.8,303.6
	h-0.6 M402.8,296.7v6.8 M402.8,296.7h2.3 M405.1,296.7v6.8 M405.6,303.6h-0.6 M405.6,296.7v6.8 M405.6,296.7h2.3 M407.9,296.7v6.8
	 M408.5,303.6h-0.6 M408.5,296.7v6.8 M408.5,296.7h2.3 M410.7,296.7v6.8 M411.3,303.6h-0.6 M411.3,296.7v6.8 M411.3,296.7h2.3
	 M413.6,296.7v6.8 M414.2,296.7v6.8 M414.2,296.7h2.3 M417,296.7h2.3 M419.8,296.7h2.3 M422.7,303.6h-0.6 M422.7,296.7v6.8
	 M422.7,296.7h2.3 M425.5,296.7h2.3 M428.3,296.7h2.3 M431.2,303.6h-0.6 M431.2,296.7h2.3 M433.4,296.7v6.8 M434,303.6h-0.6
	 M434,296.7v6.8 M434,296.7h2.3 M436.3,296.7v6.8 M436.8,303.6h-0.6 M436.8,296.7h2.3 M439.7,296.7v6.8 M445.3,296.7h2.3
	 M447.6,296.7v6.8 M448.2,296.7v6.8 M448.2,296.7h2.3 M464.6,296.7v6.8 M473.1,296.7v6.8 M473.7,303.6h-0.6 M473.7,296.7v6.8
	 M475.9,296.7v6.8 M476.5,303.6h-0.6 M476.5,296.7v6.8 M478.8,296.7v6.8 M479.3,303.6h-0.6 M479.3,296.7v6.8 M490.1,296.7v6.8
	 M521.9,296.7h2.3 M524.7,296.7h2.3 M529.8,296.7v6.8 M530.4,296.7v6.8 M532.6,296.7v6.8 M533.2,303.6h-0.6 M535.5,296.7v6.8
	 M536,303.6h-0.6 M536,296.7v6.8 M546.8,296.7v6.8 M555.3,296.7v6.8 M555.9,296.7v6.8 M558.2,296.7v6.8 M558.7,303.6h-0.6
	 M558.7,296.7v6.8 M561,296.7v13.9 M561.6,282.3v28.3 M561,282.3h0.6 M558.7,289.4v6.8 M558.2,289.4h0.6 M558.2,289.4v6.8
	 M555.3,289.4v6.8 M547.4,289.4v6.8 M546.8,289.4h0.6 M546.8,289.4v6.8 M538.3,289.4h0.6 M536,289.4v6.8 M535.5,289.4h0.6
	 M535.5,289.4v6.8 M533.2,289.4v6.8 M532.6,289.4h0.6 M532.6,289.4v6.8 M524.7,296.2h2.3 M521.9,296.2h2.3 M490.7,289.4v6.8
	 M482.2,289.4v6.8 M481.6,289.4v6.8 M479.3,289.4v6.8 M478.8,289.4h0.6 M478.8,289.4v6.8 M476.5,289.4v6.8 M475.9,289.4h0.6
	 M475.9,289.4v6.8 M473.1,289.4v6.8 M465.2,289.4v6.8 M464.6,289.4h0.6 M464.6,289.4v6.8 M450.4,289.4h0.6 M448.2,296.2h2.3
	 M445.3,296.2h2.3 M439.7,289.4v6.8 M439.1,289.4h0.6 M439.1,289.4v6.8 M436.8,289.4v6.8 M436.3,289.4h0.6 M436.3,289.4v6.8
	 M434,296.2h2.3 M434,289.4v6.8 M433.4,289.4h0.6 M431.2,296.2h2.3 M428.3,296.2h2.3 M425.5,296.2h2.3 M422.7,296.2h2.3
	 M419.8,296.2h2.3 M417,296.2h2.3 M414.2,296.2h2.3 M414.2,289.4v6.8 M413.6,289.4h0.6 M413.6,289.4v6.8 M411.3,296.2h2.3
	 M411.3,289.4v6.8 M410.7,289.4h0.6 M410.7,289.4v6.8 M408.5,296.2h2.3 M408.5,289.4v6.8 M407.9,289.4h0.6 M405.6,296.2h2.3
	 M405.6,289.4v6.8 M405.1,289.4h0.6 M405.1,289.4v6.8 M402.8,296.2h2.3 M402.8,289.4v6.8 M402.2,289.4h0.6 M402.2,289.4v6.8
	 M400,296.2h2.3 M397.1,296.2h2.3"/>
</svg>
