<?xml version="1.0" encoding="utf-8"?>
<!-- Generator: Adobe Illustrator 21.0.0, SVG Export Plug-In . SVG Version: 6.00 Build 0)  -->
<svg version="1.1" id="Calque_1" xmlns="http://www.w3.org/2000/svg" xmlns:xlink="http://www.w3.org/1999/xlink" x="0px" y="0px"
	 viewBox="0 0 841.9 595.3" style="enable-background:new 0 0 841.9 595.3;" xml:space="preserve">
<style type="text/css">
	.st0{fill:#0080FF;}
	.st1{font-family:'CenturyGothic';}
	.st2{font-size:13.2283px;}
	.st3{font-size:9.9986px;}
	.st4{font-size:9.9983px;}
	.st5{font-size:10px;}
	.st6{fill:none;stroke:#0080FF;stroke-width:0.51;stroke-miterlimit:10;}
	
		.st7{fill:none;stroke:#0080FF;stroke-width:0.51;stroke-linecap:round;stroke-linejoin:round;stroke-miterlimit:10;stroke-dasharray:43.2,3.6,3.6,3.6;}
	.st8{fill:none;stroke:#0080FF;stroke-width:0.51;stroke-linecap:round;stroke-linejoin:round;stroke-miterlimit:10;}
	
		.st9{fill:none;stroke:#0080FF;stroke-width:0.51;stroke-linecap:round;stroke-linejoin:round;stroke-miterlimit:10;stroke-dasharray:43.2,3.6,3.6,3.6;stroke-dashoffset:10;}
	.st10{fill:none;stroke:#0080FF;stroke-width:0.709;stroke-linecap:round;stroke-linejoin:round;stroke-miterlimit:10;}
	
		.st11{fill:none;stroke:#0080FF;stroke-width:0.51;stroke-linecap:round;stroke-linejoin:round;stroke-miterlimit:10;stroke-dasharray:3.6,1.8;}
	
		.st12{fill:none;stroke:#0080FF;stroke-width:0.51;stroke-linecap:round;stroke-linejoin:round;stroke-miterlimit:10;stroke-dasharray:3.6,1.8;stroke-dashoffset:1;}
</style>
<text transform="matrix(1.0005 0 0 1 539.3379 501.776)" class="st0 st1 st2"> +/- 15 </text>
<text transform="matrix(1 0 0 1.0001 172.6152 437.1344)" class="st0 st1 st3">Milieu chaussure pour Attack Demo</text>
<text transform="matrix(1 0 0 1.0002 172.6152 447.1344)" class="st0 st1 st4">(plage de réglage 259-386mm)</text>
<text transform="matrix(1 0 0 1 89.8252 113.9342)" class="st0 st1 st5">Tyrolia/Head : Peak/Mojo/Freeflex/Attack/Attack2/Attack Demo/LD</text>
<polyline class="st6" points="146,403.4 151.8,410.9 149.3,412.3 146,403.4 "/>
<path class="st6" d="M603.8,504.6l-9.4,1.4v-2.9L603.8,504.6 M518.7,504.6l9.4-1.4v2.9L518.7,504.6"/>
<line class="st7" x1="513.1" y1="253.9" x2="513.1" y2="246.9"/>
<line class="st7" x1="498.9" y1="268.1" x2="491.8" y2="268.1"/>
<line class="st7" x1="513.1" y1="282.3" x2="513.1" y2="289.4"/>
<line class="st7" x1="527.3" y1="268.1" x2="534.3" y2="268.1"/>
<line class="st7" x1="513.1" y1="310.6" x2="513.1" y2="303.6"/>
<line class="st7" x1="498.9" y1="324.8" x2="491.8" y2="324.8"/>
<line class="st7" x1="513.1" y1="339" x2="513.1" y2="346.1"/>
<line class="st7" x1="527.3" y1="324.8" x2="534.3" y2="324.8"/>
<line class="st7" x1="782.4" y1="222.1" x2="782.4" y2="215"/>
<line class="st7" x1="768.2" y1="236.2" x2="761.1" y2="236.2"/>
<line class="st7" x1="782.4" y1="250.4" x2="782.4" y2="257.5"/>
<line class="st7" x1="796.5" y1="236.2" x2="803.6" y2="236.2"/>
<line class="st7" x1="782.4" y1="342.5" x2="782.4" y2="335.4"/>
<line class="st7" x1="768.2" y1="356.7" x2="761.1" y2="356.7"/>
<line class="st7" x1="782.4" y1="370.9" x2="782.4" y2="378"/>
<line class="st7" x1="796.5" y1="356.7" x2="803.6" y2="356.7"/>
<path class="st8" d="M171.3,449.4L146,403.4 M343.6,449.4H171.3"/>
<path class="st8" d="M782.4,356.7h7.1 M782.4,356.7v7.1 M782.4,356.7h-7.1 M782.4,356.7v-7.1 M782.4,236.2h7.1 M782.4,236.2v7.1
	 M782.4,236.2h-7.1 M782.4,236.2v-7.1 M513.1,324.8h7.1 M513.1,324.8v7.1 M513.1,324.8H506 M513.1,324.8v-7.1 M513.1,268.1h7.1
	 M513.1,268.1v7.1 M513.1,268.1H506 M513.1,268.1V261"/>
<line class="st9" x1="146" y1="69.7" x2="146" y2="523.2"/>
<line class="st9" x1="518.7" y1="69.7" x2="518.7" y2="523.2"/>
<line class="st8" x1="603.8" y1="69.7" x2="603.8" y2="523.2"/>
<line class="st8" x1="518.7" y1="504.6" x2="603.8" y2="504.6"/>
<polyline class="st0" points="146,403.4 151.8,410.9 149.3,412.3 "/>
<path class="st0" d="M603.8,504.6l-9.4,1.4v-2.9 M518.7,504.6l9.4-1.4v2.9"/>
<path class="st10" d="M520.2,268.1l-0.3-2.1l-0.9-1.9l-1.4-1.5l-1.8-1.1l-2.1-0.5l-2.1,0.2l-2,0.8l-1.7,1.3l-1.2,1.7l-0.6,2v2.1
	l0.6,2l1.2,1.7l1.7,1.3l2,0.8l2.1,0.2l2.1-0.5l1.8-1.1l1.4-1.5l0.9-1.9L520.2,268.1 M527.3,268.1l-0.3-2.9l-0.9-2.8l-1.5-2.6l-2-2.2
	l-2.4-1.7l-2.7-1.2l-2.9-0.6h-3l-2.9,0.6l-2.7,1.2l-2.4,1.7l-2,2.2l-1.5,2.6l-0.9,2.8l-0.3,2.9l0.3,2.9l0.9,2.8l1.5,2.6l2,2.2
	l2.4,1.7l2.7,1.2l2.9,0.6h3l2.9-0.6l2.7-1.2l2.4-1.7l2-2.2l1.5-2.6l0.9-2.8L527.3,268.1 M789.5,236.2l-0.3-2.1l-0.9-1.9l-1.4-1.5
	l-1.8-1.1l-2.1-0.5l-2.1,0.2l-2,0.8l-1.7,1.3l-1.2,1.7l-0.6,2v2.1l0.6,2l1.2,1.7l1.7,1.3l2,0.8l2.1,0.2l2.1-0.5l1.8-1.1l1.4-1.5
	l0.9-1.9L789.5,236.2 M796.5,236.2l-0.3-2.9l-0.9-2.8l-1.5-2.6l-2-2.2l-2.4-1.7l-2.7-1.2l-2.9-0.6h-3l-2.9,0.6l-2.7,1.2l-2.4,1.7
	l-2,2.2l-1.5,2.6l-0.9,2.8l-0.3,2.9l0.3,2.9l0.9,2.8l1.5,2.6l2,2.2l2.4,1.7l2.7,1.2l2.9,0.6h3l2.9-0.6l2.7-1.2l2.4-1.7l2-2.2
	l1.5-2.6l0.9-2.8L796.5,236.2 M768.2,356.7l0.3,2.9l0.9,2.8l1.5,2.6l2,2.2l2.4,1.7l2.7,1.2l2.9,0.6h3l2.9-0.6l2.7-1.2l2.4-1.7l2-2.2
	l1.5-2.6l0.9-2.8l0.3-2.9l-0.3-2.9l-0.9-2.8l-1.5-2.6l-2-2.2l-2.4-1.7l-2.7-1.2l-2.9-0.6h-3l-2.9,0.6l-2.7,1.2l-2.4,1.7l-2,2.2
	l-1.5,2.6l-0.9,2.8L768.2,356.7 M775.3,356.7l0.3,2.1l0.9,1.9l1.4,1.5l1.8,1.1l2.1,0.5l2.1-0.2l2-0.8l1.7-1.3l1.2-1.7l0.6-2v-2.1
	l-0.6-2l-1.2-1.7l-1.7-1.3l-2-0.8l-2.1-0.2l-2.1,0.5l-1.8,1.1l-1.4,1.5l-0.9,1.9L775.3,356.7 M498.9,324.8l0.3,2.9l0.9,2.8l1.5,2.6
	l2,2.2l2.4,1.7l2.7,1.2l2.9,0.6h3l2.9-0.6l2.7-1.2l2.4-1.7l2-2.2l1.5-2.6l0.9-2.8l0.3-2.9l-0.3-2.9L526,319l-1.5-2.6l-2-2.2
	l-2.4-1.7l-2.7-1.2l-2.9-0.6h-3l-2.9,0.6l-2.7,1.2l-2.4,1.7l-2,2.2l-1.5,2.6l-0.9,2.8L498.9,324.8 M506,324.8l0.3,2.1l0.9,1.9
	l1.4,1.5l1.8,1.1l2.1,0.5l2.1-0.2l2-0.8l1.7-1.3l1.2-1.7l0.6-2v-2.1l-0.6-2l-1.2-1.7l-1.7-1.3l-2-0.8l-2.1-0.2l-2.1,0.5l-1.8,1.1
	l-1.4,1.5l-0.9,1.9L506,324.8 M391.5,296.2h2.3 M391.5,296.7h2.3 M394.3,296.2h2.3 M394.3,296.7h2.3 M397.1,296.2h2.3 M397.1,296.7
	h2.3 M400,296.2h2.3 M400,296.7h2.3 M402.8,296.2h2.3 M402.8,296.7h2.3 M405.6,296.2h2.3 M405.6,296.7h2.3 M408.5,296.2h2.3
	 M408.5,296.7h2.3 M411.3,296.2h2.3 M411.3,296.7h2.3 M414.1,296.2h2.3 M414.1,296.7h2.3 M417,296.2h2.3 M417,296.7h2.3
	 M419.8,296.2h2.3 M419.8,296.7h2.3 M422.7,296.2h2.3 M422.7,296.7h2.3 M425.5,296.2h2.3 M425.5,296.7h2.3 M428.3,296.2h2.3
	 M428.3,296.7h2.3 M431.2,296.2h2.3 M431.2,296.7h2.3 M434,296.2h2.3 M434,296.7h2.3 M436.8,296.2h2.3 M436.8,296.7h2.3
	 M439.7,296.2h2.3 M439.7,296.7h2.3 M442.5,296.2h2.3 M442.5,296.7h2.3 M445.3,296.2h2.3 M445.3,296.7h2.3 M448.2,296.2h2.3
	 M448.2,296.7h2.3 M451,296.2h2.3 M451,296.7h2.3 M453.8,296.2h2.3 M453.8,296.7h2.3 M456.7,296.2h2.3 M456.7,296.7h2.3
	 M459.5,296.2h2.3 M459.5,296.7h2.3 M462.3,296.2h2.3 M462.3,296.7h2.3 M465.2,296.2h2.3 M465.2,296.7h2.3 M468,296.2h2.3
	 M468,296.7h2.3 M470.8,296.2h2.3 M470.8,296.7h2.3 M473.7,296.2h2.3 M473.7,296.7h2.3 M476.5,296.2h2.3 M476.5,296.7h2.3
	 M479.3,296.2h2.3 M479.3,296.7h2.3 M482.2,296.2h2.3 M482.2,296.7h2.3 M485,296.2h2.3 M485,296.7h2.3 M487.9,296.2h2.3
	 M487.9,296.7h2.3 M490.7,296.2h2.3 M490.7,296.7h2.3 M493.5,296.2h2.3 M493.5,296.7h2.3 M496.4,296.2h2.3 M496.4,296.7h2.3
	 M499.2,296.2h2.3 M499.2,296.7h2.3 M502,296.2h2.3 M502,296.7h2.3 M504.9,296.2h2.3 M504.9,296.7h2.3 M507.7,296.2h2.3
	 M507.7,296.7h2.3 M510.5,296.2h2.3 M510.5,296.7h2.3 M513.4,296.2h2.3 M513.4,296.7h2.3 M516.2,296.2h2.3 M516.2,296.7h2.3
	 M519,296.2h2.3 M519,296.7h2.3 M521.9,296.2h2.3 M521.9,296.7h2.3 M524.7,296.2h2.3 M524.7,296.7h2.3 M527.5,296.2h2.3
	 M527.5,296.7h2.3 M530.4,296.2h2.3 M530.4,296.7h2.3 M533.2,296.2h2.3 M533.2,296.7h2.3 M536,296.2h2.3 M536,296.7h2.3
	 M538.9,296.2h2.3 M538.9,296.7h2.3 M541.7,296.2h2.3 M541.7,296.7h2.3 M544.5,296.2h2.3 M544.5,296.7h2.3 M547.4,296.2h2.3
	 M547.4,296.7h2.3 M550.2,296.2h2.3 M550.2,296.7h2.3 M553,296.2h2.3 M553,296.7h2.3 M555.9,296.2h2.3 M555.9,296.7h2.3
	 M558.7,296.2h2.3 M558.7,296.7h2.3 M391.5,289.4v6.8 M390.9,289.4h0.6 M390.9,289.4v14.2 M391.5,303.6h-0.6 M391.5,296.7v6.8
	 M393.7,296.7v6.8 M394.3,303.6h-0.6 M394.3,296.7v6.8 M396.6,296.7v6.8 M397.1,303.6h-0.6 M397.1,296.7v6.8 M399.4,296.7v6.8
	 M400,303.6h-0.6 M400,296.7v6.8 M402.2,296.7v6.8 M402.8,303.6h-0.6 M402.8,296.7v6.8 M405.1,296.7v6.8 M405.6,303.6h-0.6
	 M405.6,296.7v6.8 M407.9,296.7v6.8 M408.5,303.6h-0.6 M408.5,296.7v6.8 M410.7,296.7v6.8 M411.3,303.6h-0.6 M411.3,296.7v6.8
	 M413.6,296.7v6.8 M414.1,303.6h-0.6 M414.1,296.7v6.8 M416.4,296.7v6.8 M417,303.6h-0.6 M417,296.7v6.8 M419.3,296.7v6.8
	 M419.8,303.6h-0.6 M419.8,296.7v6.8 M422.1,296.7v6.8 M422.7,303.6h-0.6 M422.7,296.7v6.8 M424.9,296.7v6.8 M425.5,303.6h-0.6
	 M425.5,296.7v6.8 M427.8,296.7v6.8 M428.3,303.6h-0.6 M428.3,296.7v6.8 M430.6,296.7v6.8 M431.2,303.6h-0.6 M431.2,296.7v6.8
	 M433.4,296.7v6.8 M434,303.6h-0.6 M434,296.7v6.8 M436.3,296.7v6.8 M436.8,303.6h-0.6 M436.8,296.7v6.8 M439.1,296.7v6.8
	 M439.7,303.6h-0.6 M439.7,296.7v6.8 M441.9,296.7v6.8 M442.5,303.6h-0.6 M442.5,296.7v6.8 M444.8,296.7v6.8 M445.3,303.6h-0.6
	 M445.3,296.7v6.8 M447.6,296.7v6.8 M448.2,303.6h-0.6 M448.2,296.7v6.8 M450.4,296.7v6.8 M451,303.6h-0.6 M451,296.7v6.8
	 M453.3,296.7v6.8 M453.8,303.6h-0.6 M453.8,296.7v6.8 M456.1,296.7v6.8 M456.7,303.6h-0.6 M456.7,296.7v6.8 M458.9,296.7v6.8
	 M459.5,303.6h-0.6 M459.5,296.7v6.8 M461.8,296.7v6.8 M462.3,303.6h-0.6 M462.3,296.7v6.8 M464.6,296.7v6.8 M465.2,303.6h-0.6
	 M465.2,296.7v6.8 M467.4,296.7v6.8 M468,303.6h-0.6 M468,296.7v6.8 M470.3,296.7v6.8 M470.8,303.6h-0.6 M470.8,296.7v6.8
	 M473.1,296.7v6.8 M473.7,303.6h-0.6 M473.7,296.7v6.8 M475.9,296.7v6.8 M476.5,303.6h-0.6 M476.5,296.7v6.8 M478.8,296.7v6.8
	 M479.3,303.6h-0.6 M479.3,296.7v6.8 M481.6,296.7v6.8 M482.2,303.6h-0.6 M482.2,296.7v6.8 M484.4,296.7v6.8 M485,303.6h-0.6
	 M485,296.7v6.8 M487.3,296.7v6.8 M487.9,303.6h-0.6 M487.9,296.7v6.8 M490.1,296.7v6.8 M490.7,303.6h-0.6 M490.7,296.7v6.8
	 M493,296.7v6.8 M493.5,303.6H493 M493.5,296.7v6.8 M495.8,296.7v6.8 M496.4,303.6h-0.6 M496.4,296.7v6.8 M498.6,296.7v6.8
	 M499.2,303.6h-0.6 M499.2,296.7v6.8 M501.5,296.7v6.8 M502,303.6h-0.6 M502,296.7v6.8 M504.3,296.7v6.8 M504.9,303.6h-0.6
	 M504.9,296.7v6.8 M507.1,296.7v6.8 M507.7,303.6h-0.6 M507.7,296.7v6.8 M510,296.7v6.8 M510.5,303.6H510 M510.5,296.7v6.8
	 M512.8,296.7v6.8 M513.4,303.6h-0.6 M513.4,296.7v6.8 M515.6,296.7v6.8 M516.2,303.6h-0.6 M516.2,296.7v6.8 M518.5,296.7v6.8
	 M519,303.6h-0.6 M519,296.7v6.8 M521.3,296.7v6.8 M521.9,303.6h-0.6 M521.9,296.7v6.8 M524.1,296.7v6.8 M524.7,303.6h-0.6
	 M524.7,296.7v6.8 M527,296.7v6.8 M527.5,303.6H527 M527.5,296.7v6.8 M529.8,296.7v6.8 M530.4,303.6h-0.6 M530.4,296.7v6.8
	 M532.6,296.7v6.8 M533.2,303.6h-0.6 M533.2,296.7v6.8 M535.5,296.7v6.8 M536,303.6h-0.6 M536,296.7v6.8 M538.3,296.7v6.8
	 M538.9,303.6h-0.6 M538.9,296.7v6.8 M541.1,296.7v6.8 M541.7,303.6h-0.6 M541.7,296.7v6.8 M544,296.7v6.8 M544.5,303.6H544
	 M544.5,296.7v6.8 M546.8,296.7v6.8 M547.4,303.6h-0.6 M547.4,296.7v6.8 M549.6,296.7v6.8 M550.2,303.6h-0.6 M550.2,296.7v6.8
	 M552.5,296.7v6.8 M553,303.6h-0.6 M553,296.7v6.8 M555.3,296.7v6.8 M555.9,303.6h-0.6 M555.9,296.7v6.8 M558.1,296.7v6.8
	 M558.7,303.6h-0.6 M558.7,296.7v6.8 M561,296.7v13.9 M561.6,310.6H561 M561.6,282.3v28.3 M561,282.3h0.6 M561,282.3v13.9
	 M558.7,289.4v6.8 M558.1,289.4h0.6 M558.1,289.4v6.8 M555.9,289.4v6.8 M555.3,289.4h0.6 M555.3,289.4v6.8 M553,289.4v6.8
	 M552.5,289.4h0.6 M552.5,289.4v6.8 M550.2,289.4v6.8 M549.6,289.4h0.6 M549.6,289.4v6.8 M547.4,289.4v6.8 M546.8,289.4h0.6
	 M546.8,289.4v6.8 M544.5,289.4v6.8 M544,289.4h0.6 M544,289.4v6.8 M541.7,289.4v6.8 M541.1,289.4h0.6 M541.1,289.4v6.8
	 M538.9,289.4v6.8 M538.3,289.4h0.6 M538.3,289.4v6.8 M536,289.4v6.8 M535.5,289.4h0.6 M535.5,289.4v6.8 M533.2,289.4v6.8
	 M532.6,289.4h0.6 M532.6,289.4v6.8 M530.4,289.4v6.8 M529.8,289.4h0.6 M529.8,289.4v6.8 M527.5,289.4v6.8 M527,289.4h0.6
	 M527,289.4v6.8 M524.7,289.4v6.8 M524.1,289.4h0.6 M524.1,289.4v6.8 M521.9,289.4v6.8 M521.3,289.4h0.6 M521.3,289.4v6.8
	 M519,289.4v6.8 M518.5,289.4h0.6 M518.5,289.4v6.8 M516.2,289.4v6.8 M515.6,289.4h0.6 M515.6,289.4v6.8 M513.4,289.4v6.8
	 M512.8,289.4h0.6 M512.8,289.4v6.8 M510.5,289.4v6.8 M510,289.4h0.6 M510,289.4v6.8 M507.7,289.4v6.8 M507.1,289.4h0.6
	 M507.1,289.4v6.8 M504.9,289.4v6.8 M504.3,289.4h0.6 M504.3,289.4v6.8 M502,289.4v6.8 M501.5,289.4h0.6 M501.5,289.4v6.8
	 M499.2,289.4v6.8 M498.6,289.4h0.6 M498.6,289.4v6.8 M496.4,289.4v6.8 M495.8,289.4h0.6 M495.8,289.4v6.8 M493.5,289.4v6.8
	 M493,289.4h0.6 M493,289.4v6.8 M490.7,289.4v6.8 M490.1,289.4h0.6 M490.1,289.4v6.8 M487.9,289.4v6.8 M487.3,289.4h0.6
	 M487.3,289.4v6.8 M485,289.4v6.8 M484.4,289.4h0.6 M484.4,289.4v6.8 M482.2,289.4v6.8 M481.6,289.4h0.6 M481.6,289.4v6.8
	 M479.3,289.4v6.8 M478.8,289.4h0.6 M478.8,289.4v6.8 M476.5,289.4v6.8 M475.9,289.4h0.6 M475.9,289.4v6.8 M473.7,289.4v6.8
	 M473.1,289.4h0.6 M473.1,289.4v6.8 M470.8,289.4v6.8 M470.3,289.4h0.6 M470.3,289.4v6.8 M468,289.4v6.8 M467.4,289.4h0.6
	 M467.4,289.4v6.8 M465.2,289.4v6.8 M464.6,289.4h0.6 M464.6,289.4v6.8 M462.3,289.4v6.8 M461.8,289.4h0.6 M461.8,289.4v6.8
	 M459.5,289.4v6.8 M458.9,289.4h0.6 M458.9,289.4v6.8 M456.7,289.4v6.8 M456.1,289.4h0.6 M456.1,289.4v6.8 M453.8,289.4v6.8
	 M453.3,289.4h0.6 M453.3,289.4v6.8 M451,289.4v6.8 M450.4,289.4h0.6 M450.4,289.4v6.8 M448.2,289.4v6.8 M447.6,289.4h0.6
	 M447.6,289.4v6.8 M445.3,289.4v6.8 M444.8,289.4h0.6 M444.8,289.4v6.8 M442.5,289.4v6.8 M441.9,289.4h0.6 M441.9,289.4v6.8
	 M439.7,289.4v6.8 M439.1,289.4h0.6 M439.1,289.4v6.8 M436.8,289.4v6.8 M436.3,289.4h0.6 M436.3,289.4v6.8 M434,289.4v6.8
	 M433.4,289.4h0.6 M433.4,289.4v6.8 M431.2,289.4v6.8 M430.6,289.4h0.6 M430.6,289.4v6.8 M428.3,289.4v6.8 M427.8,289.4h0.6
	 M427.8,289.4v6.8 M425.5,289.4v6.8 M424.9,289.4h0.6 M424.9,289.4v6.8 M422.7,289.4v6.8 M422.1,289.4h0.6 M422.1,289.4v6.8
	 M419.8,289.4v6.8 M419.3,289.4h0.6 M419.3,289.4v6.8 M417,289.4v6.8 M416.4,289.4h0.6 M416.4,289.4v6.8 M414.1,289.4v6.8
	 M413.6,289.4h0.6 M413.6,289.4v6.8 M411.3,289.4v6.8 M410.7,289.4h0.6 M410.7,289.4v6.8 M408.5,289.4v6.8 M407.9,289.4h0.6
	 M407.9,289.4v6.8 M405.6,289.4v6.8 M405.1,289.4h0.6 M405.1,289.4v6.8 M402.8,289.4v6.8 M402.2,289.4h0.6 M402.2,289.4v6.8
	 M400,289.4v6.8 M399.4,289.4h0.6 M399.4,289.4v6.8 M397.1,289.4v6.8 M396.6,289.4h0.6 M396.6,289.4v6.8 M394.3,289.4v6.8
	 M393.7,289.4h0.6 M393.7,289.4v6.8"/>
<path class="st11" d="M390.9,289.4L390.9,289.4 M391.5,289.4L391.5,289.4 M391.5,296.2L391.5,296.2 M391.5,303.6L391.5,303.6
	 M390.9,303.6L390.9,303.6 M391.5,296.7L391.5,296.7 M393.7,289.4L393.7,289.4 M394.3,289.4L394.3,289.4 M394.3,296.2L394.3,296.2
	 M393.7,296.2L393.7,296.2 M393.7,296.7L393.7,296.7 M393.7,303.6L393.7,303.6 M394.3,296.7L394.3,296.7 M394.3,303.6L394.3,303.6
	 M396.6,289.4L396.6,289.4 M397.1,289.4L397.1,289.4 M397.1,296.2L397.1,296.2 M396.6,296.2L396.6,296.2 M396.6,296.7L396.6,296.7
	 M396.6,303.6L396.6,303.6 M397.1,296.7L397.1,296.7 M397.1,303.6L397.1,303.6 M399.4,289.4L399.4,289.4 M400,289.4L400,289.4
	 M400,296.2L400,296.2 M399.4,296.2L399.4,296.2 M399.4,296.7L399.4,296.7 M399.4,303.6L399.4,303.6 M400,296.7L400,296.7
	 M400,303.6L400,303.6 M402.2,289.4L402.2,289.4 M402.8,289.4L402.8,289.4 M402.8,296.2L402.8,296.2 M402.2,296.2L402.2,296.2
	 M402.2,296.7L402.2,296.7 M402.2,303.6L402.2,303.6 M402.8,296.7L402.8,296.7 M402.8,303.6L402.8,303.6 M405.1,289.4L405.1,289.4
	 M405.6,289.4L405.6,289.4 M405.6,296.2L405.6,296.2 M405.1,296.2L405.1,296.2 M405.1,296.7L405.1,296.7 M405.1,303.6L405.1,303.6
	 M405.6,296.7L405.6,296.7 M405.6,303.6L405.6,303.6 M407.9,289.4L407.9,289.4 M408.5,289.4L408.5,289.4 M408.5,296.2L408.5,296.2
	 M407.9,296.2L407.9,296.2 M407.9,296.7L407.9,296.7 M407.9,303.6L407.9,303.6 M408.5,296.7L408.5,296.7 M408.5,303.6L408.5,303.6
	 M410.7,289.4L410.7,289.4 M411.3,289.4L411.3,289.4 M411.3,296.2L411.3,296.2 M410.7,296.2L410.7,296.2 M410.7,296.7L410.7,296.7
	 M410.7,303.6L410.7,303.6 M411.3,296.7L411.3,296.7 M411.3,303.6L411.3,303.6 M413.6,289.4L413.6,289.4 M414.2,289.4L414.2,289.4
	 M414.2,296.2L414.2,296.2 M413.6,296.2L413.6,296.2 M413.6,296.7L413.6,296.7 M413.6,303.6L413.6,303.6 M414.2,296.7L414.2,296.7
	 M414.2,303.6L414.2,303.6 M416.4,289.4L416.4,289.4 M417,289.4L417,289.4 M417,296.2L417,296.2 M416.4,296.2L416.4,296.2
	 M416.4,296.7L416.4,296.7 M416.4,303.6L416.4,303.6 M417,296.7L417,296.7 M417,303.6L417,303.6 M419.3,289.4L419.3,289.4
	 M419.8,289.4L419.8,289.4 M419.8,296.2L419.8,296.2 M419.3,296.2L419.3,296.2 M419.3,296.7L419.3,296.7 M419.3,303.6L419.3,303.6
	 M419.8,296.7L419.8,296.7 M419.8,303.6L419.8,303.6 M422.1,289.4L422.1,289.4 M422.7,289.4L422.7,289.4 M422.7,296.2L422.7,296.2
	 M422.1,296.2L422.1,296.2 M422.1,296.7L422.1,296.7 M422.1,303.6L422.1,303.6 M422.7,296.7L422.7,296.7 M422.7,303.6L422.7,303.6
	 M424.9,289.4L424.9,289.4 M425.5,289.4L425.5,289.4 M425.5,296.2L425.5,296.2 M424.9,296.2L424.9,296.2 M424.9,296.7L424.9,296.7
	 M424.9,303.6L424.9,303.6 M425.5,296.7L425.5,296.7 M425.5,303.6L425.5,303.6 M427.8,289.4L427.8,289.4 M428.3,289.4L428.3,289.4
	 M428.3,296.2L428.3,296.2 M427.8,296.2L427.8,296.2 M427.8,296.7L427.8,296.7 M427.8,303.6L427.8,303.6 M428.3,296.7L428.3,296.7
	 M428.3,303.6L428.3,303.6 M430.6,289.4L430.6,289.4 M431.2,289.4L431.2,289.4 M431.2,296.2L431.2,296.2 M430.6,296.2L430.6,296.2
	 M430.6,296.7L430.6,296.7 M430.6,303.6L430.6,303.6 M431.2,296.7L431.2,296.7 M431.2,303.6L431.2,303.6 M433.4,289.4L433.4,289.4
	 M434,289.4L434,289.4 M434,296.2L434,296.2 M433.4,296.2L433.4,296.2 M433.4,296.7L433.4,296.7 M433.4,303.6L433.4,303.6
	 M434,296.7L434,296.7 M434,303.6L434,303.6 M436.3,289.4L436.3,289.4 M436.8,289.4L436.8,289.4 M436.8,296.2L436.8,296.2
	 M436.3,296.2L436.3,296.2 M436.3,296.7L436.3,296.7 M436.3,303.6L436.3,303.6 M436.8,296.7L436.8,296.7 M436.8,303.6L436.8,303.6
	 M439.1,289.4L439.1,289.4 M439.7,289.4L439.7,289.4 M439.7,296.2L439.7,296.2 M439.1,296.2L439.1,296.2 M439.1,296.7L439.1,296.7
	 M439.1,303.6L439.1,303.6 M439.7,296.7L439.7,296.7 M439.7,303.6L439.7,303.6 M441.9,289.4L441.9,289.4 M442.5,289.4L442.5,289.4
	 M442.5,296.2L442.5,296.2 M441.9,296.2L441.9,296.2 M441.9,296.7L441.9,296.7 M441.9,303.6L441.9,303.6 M442.5,296.7L442.5,296.7
	 M442.5,303.6L442.5,303.6 M444.8,289.4L444.8,289.4 M445.3,289.4L445.3,289.4 M445.3,296.2L445.3,296.2 M444.8,296.2L444.8,296.2
	 M444.8,296.7L444.8,296.7 M444.8,303.6L444.8,303.6 M445.3,296.7L445.3,296.7 M445.3,303.6L445.3,303.6 M447.6,289.4L447.6,289.4
	 M448.2,289.4L448.2,289.4 M448.2,296.2L448.2,296.2 M447.6,296.2L447.6,296.2 M447.6,296.7L447.6,296.7 M447.6,303.6L447.6,303.6
	 M448.2,296.7L448.2,296.7 M448.2,303.6L448.2,303.6 M450.4,289.4L450.4,289.4 M451,289.4L451,289.4 M451,296.2L451,296.2
	 M450.4,296.2L450.4,296.2 M450.4,296.7L450.4,296.7 M450.4,303.6L450.4,303.6 M451,296.7L451,296.7 M451,303.6L451,303.6
	 M453.3,289.4L453.3,289.4 M453.8,289.4L453.8,289.4 M453.8,296.2L453.8,296.2 M453.3,296.2L453.3,296.2 M453.3,296.7L453.3,296.7
	 M453.3,303.6L453.3,303.6 M453.8,296.7L453.8,296.7 M453.8,303.6L453.8,303.6 M456.1,289.4L456.1,289.4 M456.7,289.4L456.7,289.4
	 M456.7,296.2L456.7,296.2 M456.1,296.2L456.1,296.2 M456.1,296.7L456.1,296.7 M456.1,303.6L456.1,303.6 M456.7,296.7L456.7,296.7
	 M456.7,303.6L456.7,303.6 M458.9,289.4L458.9,289.4 M459.5,289.4L459.5,289.4 M459.5,296.2L459.5,296.2 M458.9,296.2L458.9,296.2
	 M458.9,296.7L458.9,296.7 M458.9,303.6L458.9,303.6 M459.5,296.7L459.5,296.7 M459.5,303.6L459.5,303.6 M461.8,289.4L461.8,289.4
	 M462.3,289.4L462.3,289.4 M462.3,296.2L462.3,296.2 M461.8,296.2L461.8,296.2 M461.8,296.7L461.8,296.7 M461.8,303.6L461.8,303.6
	 M462.3,296.7L462.3,296.7 M462.3,303.6L462.3,303.6 M464.6,289.4L464.6,289.4 M465.2,289.4L465.2,289.4 M465.2,296.2L465.2,296.2
	 M464.6,296.2L464.6,296.2 M464.6,296.7L464.6,296.7 M464.6,303.6L464.6,303.6 M465.2,296.7L465.2,296.7 M465.2,303.6L465.2,303.6
	 M467.4,289.4L467.4,289.4 M468,289.4L468,289.4 M468,296.2L468,296.2 M467.4,296.2L467.4,296.2 M467.4,296.7L467.4,296.7
	 M467.4,303.6L467.4,303.6 M468,296.7L468,296.7 M468,303.6L468,303.6 M470.3,289.4L470.3,289.4 M470.8,289.4L470.8,289.4
	 M470.8,296.2L470.8,296.2 M470.3,296.2L470.3,296.2 M470.3,296.7L470.3,296.7 M470.3,303.6L470.3,303.6 M470.8,296.7L470.8,296.7
	 M470.8,303.6L470.8,303.6 M473.1,289.4L473.1,289.4 M473.7,289.4L473.7,289.4 M473.7,296.2L473.7,296.2 M473.1,296.2L473.1,296.2
	 M473.1,296.7L473.1,296.7 M473.1,303.6L473.1,303.6 M473.7,296.7L473.7,296.7 M473.7,303.6L473.7,303.6 M475.9,289.4L475.9,289.4
	 M476.5,289.4L476.5,289.4 M476.5,296.2L476.5,296.2 M475.9,296.2L475.9,296.2 M475.9,296.7L475.9,296.7 M475.9,303.6L475.9,303.6
	 M476.5,296.7L476.5,296.7 M476.5,303.6L476.5,303.6 M478.8,289.4L478.8,289.4 M479.3,289.4L479.3,289.4 M479.3,296.2L479.3,296.2
	 M478.8,296.2L478.8,296.2 M478.8,296.7L478.8,296.7 M478.8,303.6L478.8,303.6 M479.3,296.7L479.3,296.7 M479.3,303.6L479.3,303.6
	 M481.6,289.4L481.6,289.4 M482.2,289.4L482.2,289.4 M482.2,296.2L482.2,296.2 M481.6,296.2L481.6,296.2 M481.6,296.7L481.6,296.7
	 M481.6,303.6L481.6,303.6 M482.2,296.7L482.2,296.7 M482.2,303.6L482.2,303.6 M484.5,289.4L484.5,289.4 M485,289.4L485,289.4
	 M485,296.2L485,296.2 M484.5,296.2L484.5,296.2 M484.5,296.7L484.5,296.7 M484.5,303.6L484.5,303.6 M485,296.7L485,296.7
	 M485,303.6L485,303.6 M487.3,289.4L487.3,289.4 M487.9,289.4L487.9,289.4 M487.9,296.2L487.9,296.2 M487.3,296.2L487.3,296.2
	 M487.3,296.7L487.3,296.7 M487.3,303.6L487.3,303.6 M487.9,296.7L487.9,296.7 M487.9,303.6L487.9,303.6 M490.1,289.4L490.1,289.4
	 M490.7,289.4L490.7,289.4 M490.7,296.2L490.7,296.2 M490.1,296.2L490.1,296.2 M490.1,296.7L490.1,296.7 M490.1,303.6L490.1,303.6
	 M490.7,296.7L490.7,296.7 M490.7,303.6L490.7,303.6 M493,289.4L493,289.4 M493.5,289.4L493.5,289.4 M493.5,296.2L493.5,296.2
	 M493,296.2L493,296.2 M493,296.7L493,296.7 M493,303.6L493,303.6 M493.5,296.7L493.5,296.7 M493.5,303.6L493.5,303.6 M495.8,289.4
	L495.8,289.4 M496.4,289.4L496.4,289.4 M496.4,296.2L496.4,296.2 M495.8,296.2L495.8,296.2 M495.8,296.7L495.8,296.7 M495.8,303.6
	L495.8,303.6 M496.4,296.7L496.4,296.7 M496.4,303.6L496.4,303.6 M498.6,289.4L498.6,289.4 M499.2,289.4L499.2,289.4 M499.2,296.2
	L499.2,296.2 M498.6,296.2L498.6,296.2 M498.6,296.7L498.6,296.7 M498.6,303.6L498.6,303.6 M499.2,296.7L499.2,296.7 M499.2,303.6
	L499.2,303.6 M501.5,289.4L501.5,289.4 M502,289.4L502,289.4 M502,296.2L502,296.2 M501.5,296.2L501.5,296.2 M501.5,296.7
	L501.5,296.7 M501.5,303.6L501.5,303.6 M502,296.7L502,296.7 M502,303.6L502,303.6 M504.3,289.4L504.3,289.4 M504.9,289.4
	L504.9,289.4 M504.9,296.2L504.9,296.2 M504.3,296.2L504.3,296.2 M504.3,296.7L504.3,296.7 M504.3,303.6L504.3,303.6 M504.9,296.7
	L504.9,296.7 M504.9,303.6L504.9,303.6 M507.1,289.4L507.1,289.4 M507.7,289.4L507.7,289.4 M507.7,296.2L507.7,296.2 M507.1,296.2
	L507.1,296.2 M507.1,296.7L507.1,296.7 M507.1,303.6L507.1,303.6 M507.7,296.7L507.7,296.7 M507.7,303.6L507.7,303.6 M510,289.4
	L510,289.4 M510.5,289.4L510.5,289.4 M510.5,296.2L510.5,296.2 M510,296.2L510,296.2 M510,296.7L510,296.7 M510,303.6L510,303.6
	 M510.5,296.7L510.5,296.7 M510.5,303.6L510.5,303.6 M512.8,289.4L512.8,289.4 M513.4,289.4L513.4,289.4 M513.4,296.2L513.4,296.2
	 M512.8,296.2L512.8,296.2 M512.8,296.7L512.8,296.7 M512.8,303.6L512.8,303.6 M513.4,296.7L513.4,296.7 M513.4,303.6L513.4,303.6
	 M515.6,289.4L515.6,289.4 M516.2,289.4L516.2,289.4 M516.2,296.2L516.2,296.2 M515.6,296.2L515.6,296.2 M515.6,296.7L515.6,296.7
	 M515.6,303.6L515.6,303.6 M516.2,296.7L516.2,296.7 M516.2,303.6L516.2,303.6 M518.5,289.4L518.5,289.4 M519,289.4L519,289.4
	 M519,296.2L519,296.2 M518.5,296.2L518.5,296.2 M518.5,296.7L518.5,296.7 M518.5,303.6L518.5,303.6 M519,296.7L519,296.7
	 M519,303.6L519,303.6 M521.3,289.4L521.3,289.4 M521.9,289.4L521.9,289.4 M521.9,296.2L521.9,296.2 M521.3,296.2L521.3,296.2
	 M521.3,296.7L521.3,296.7 M521.3,303.6L521.3,303.6 M521.9,296.7L521.9,296.7 M521.9,303.6L521.9,303.6 M524.1,289.4L524.1,289.4
	 M524.7,289.4L524.7,289.4 M524.7,296.2L524.7,296.2 M524.1,296.2L524.1,296.2 M524.1,296.7L524.1,296.7 M524.1,303.6L524.1,303.6
	 M524.7,296.7L524.7,296.7 M524.7,303.6L524.7,303.6 M527,289.4L527,289.4 M527.5,289.4L527.5,289.4 M527.5,296.2L527.5,296.2
	 M527,296.2L527,296.2 M527,296.7L527,296.7 M527,303.6L527,303.6 M527.5,296.7L527.5,296.7 M527.5,303.6L527.5,303.6 M529.8,289.4
	L529.8,289.4 M530.4,289.4L530.4,289.4 M530.4,296.2L530.4,296.2 M529.8,296.2L529.8,296.2 M529.8,296.7L529.8,296.7 M529.8,303.6
	L529.8,303.6 M530.4,296.7L530.4,296.7 M530.4,303.6L530.4,303.6 M532.6,289.4L532.6,289.4 M533.2,289.4L533.2,289.4 M533.2,296.2
	L533.2,296.2 M532.6,296.2L532.6,296.2 M532.6,296.7L532.6,296.7 M532.6,303.6L532.6,303.6 M533.2,296.7L533.2,296.7 M533.2,303.6
	L533.2,303.6 M535.5,289.4L535.5,289.4 M536,289.4L536,289.4 M536,296.2L536,296.2 M535.5,296.2L535.5,296.2 M535.5,296.7
	L535.5,296.7 M535.5,303.6L535.5,303.6 M536,296.7L536,296.7 M536,303.6L536,303.6 M538.3,289.4L538.3,289.4 M538.9,289.4
	L538.9,289.4 M538.9,296.2L538.9,296.2 M538.3,296.2L538.3,296.2 M538.3,296.7L538.3,296.7 M538.3,303.6L538.3,303.6 M538.9,296.7
	L538.9,296.7 M538.9,303.6L538.9,303.6 M541.1,289.4L541.1,289.4 M541.7,289.4L541.7,289.4 M541.7,296.2L541.7,296.2 M541.1,296.2
	L541.1,296.2 M541.1,296.7L541.1,296.7 M541.1,303.6L541.1,303.6 M541.7,296.7L541.7,296.7 M541.7,303.6L541.7,303.6 M544,289.4
	L544,289.4 M544.5,289.4L544.5,289.4 M544.5,296.2L544.5,296.2 M544,296.2L544,296.2 M544,296.7L544,296.7 M544,303.6L544,303.6
	 M544.5,296.7L544.5,296.7 M544.5,303.6L544.5,303.6 M546.8,289.4L546.8,289.4 M547.4,289.4L547.4,289.4 M547.4,296.2L547.4,296.2
	 M546.8,296.2L546.8,296.2 M546.8,296.7L546.8,296.7 M546.8,303.6L546.8,303.6 M547.4,296.7L547.4,296.7 M547.4,303.6L547.4,303.6
	 M549.6,289.4L549.6,289.4 M550.2,289.4L550.2,289.4 M550.2,296.2L550.2,296.2 M549.6,296.2L549.6,296.2 M549.6,296.7L549.6,296.7
	 M549.6,303.6L549.6,303.6 M550.2,296.7L550.2,296.7 M550.2,303.6L550.2,303.6 M552.5,289.4L552.5,289.4 M553,289.4L553,289.4
	 M553,296.2L553,296.2 M552.5,296.2L552.5,296.2 M552.5,296.7L552.5,296.7 M552.5,303.6L552.5,303.6 M553,296.7L553,296.7
	 M553,303.6L553,303.6 M555.3,289.4L555.3,289.4 M555.9,289.4L555.9,289.4 M555.9,296.2L555.9,296.2 M555.3,296.2L555.3,296.2
	 M555.3,296.7L555.3,296.7 M555.3,303.6L555.3,303.6 M555.9,296.7L555.9,296.7 M555.9,303.6L555.9,303.6 M558.2,289.4L558.2,289.4
	 M558.7,289.4L558.7,289.4 M558.7,296.2L558.7,296.2 M558.2,296.2L558.2,296.2 M558.2,296.7L558.2,296.7 M558.2,303.6L558.2,303.6
	 M558.7,296.7L558.7,296.7 M558.7,303.6L558.7,303.6 M561,282.3L561,282.3 M561.6,282.3L561.6,282.3 M561.6,310.6L561.6,310.6
	 M561,310.6L561,310.6 M561,296.2L561,296.2 M561,296.7L561,296.7"/>
<line class="st11" x1="390.9" y1="289.4" x2="391.5" y2="289.4"/>
<line class="st12" x1="391.5" y1="289.4" x2="391.5" y2="296.2"/>
<line class="st11" x1="391.5" y1="303.6" x2="390.9" y2="303.6"/>
<line class="st11" x1="390.9" y1="289.4" x2="390.9" y2="303.6"/>
<line class="st12" x1="391.5" y1="296.7" x2="391.5" y2="303.6"/>
<line class="st11" x1="393.7" y1="289.4" x2="394.3" y2="289.4"/>
<line class="st12" x1="394.3" y1="289.4" x2="394.3" y2="296.2"/>
<line class="st12" x1="393.7" y1="289.4" x2="393.7" y2="296.2"/>
<line class="st12" x1="393.7" y1="296.7" x2="393.7" y2="303.6"/>
<line class="st12" x1="394.3" y1="296.7" x2="394.3" y2="303.6"/>
<line class="st11" x1="394.3" y1="303.6" x2="393.7" y2="303.6"/>
<line class="st11" x1="396.6" y1="289.4" x2="397.1" y2="289.4"/>
<line class="st12" x1="397.1" y1="289.4" x2="397.1" y2="296.2"/>
<line class="st12" x1="396.6" y1="289.4" x2="396.6" y2="296.2"/>
<line class="st12" x1="396.6" y1="296.7" x2="396.6" y2="303.6"/>
<line class="st12" x1="397.1" y1="296.7" x2="397.1" y2="303.6"/>
<line class="st11" x1="397.1" y1="303.6" x2="396.6" y2="303.6"/>
<line class="st11" x1="399.4" y1="289.4" x2="400" y2="289.4"/>
<line class="st12" x1="400" y1="289.4" x2="400" y2="296.2"/>
<line class="st12" x1="399.4" y1="289.4" x2="399.4" y2="296.2"/>
<line class="st12" x1="399.4" y1="296.7" x2="399.4" y2="303.6"/>
<line class="st12" x1="400" y1="296.7" x2="400" y2="303.6"/>
<line class="st11" x1="400" y1="303.6" x2="399.4" y2="303.6"/>
<line class="st11" x1="402.2" y1="289.4" x2="402.8" y2="289.4"/>
<line class="st12" x1="402.8" y1="289.4" x2="402.8" y2="296.2"/>
<line class="st12" x1="402.2" y1="289.4" x2="402.2" y2="296.2"/>
<line class="st12" x1="402.2" y1="296.7" x2="402.2" y2="303.6"/>
<line class="st12" x1="402.8" y1="296.7" x2="402.8" y2="303.6"/>
<line class="st11" x1="402.8" y1="303.6" x2="402.2" y2="303.6"/>
<line class="st11" x1="405.1" y1="289.4" x2="405.6" y2="289.4"/>
<line class="st12" x1="405.6" y1="289.4" x2="405.6" y2="296.2"/>
<line class="st12" x1="405.1" y1="289.4" x2="405.1" y2="296.2"/>
<line class="st12" x1="405.1" y1="296.7" x2="405.1" y2="303.6"/>
<line class="st12" x1="405.6" y1="296.7" x2="405.6" y2="303.6"/>
<line class="st11" x1="405.6" y1="303.6" x2="405.1" y2="303.6"/>
<line class="st11" x1="407.9" y1="289.4" x2="408.5" y2="289.4"/>
<line class="st12" x1="408.5" y1="289.4" x2="408.5" y2="296.2"/>
<line class="st12" x1="407.9" y1="289.4" x2="407.9" y2="296.2"/>
<line class="st12" x1="407.9" y1="296.7" x2="407.9" y2="303.6"/>
<line class="st12" x1="408.5" y1="296.7" x2="408.5" y2="303.6"/>
<line class="st11" x1="408.5" y1="303.6" x2="407.9" y2="303.6"/>
<line class="st11" x1="410.7" y1="289.4" x2="411.3" y2="289.4"/>
<line class="st12" x1="411.3" y1="289.4" x2="411.3" y2="296.2"/>
<line class="st12" x1="410.7" y1="289.4" x2="410.7" y2="296.2"/>
<line class="st12" x1="410.7" y1="296.7" x2="410.7" y2="303.6"/>
<line class="st12" x1="411.3" y1="296.7" x2="411.3" y2="303.6"/>
<line class="st11" x1="411.3" y1="303.6" x2="410.7" y2="303.6"/>
<line class="st11" x1="413.6" y1="289.4" x2="414.2" y2="289.4"/>
<line class="st12" x1="414.2" y1="289.4" x2="414.2" y2="296.2"/>
<line class="st12" x1="413.6" y1="289.4" x2="413.6" y2="296.2"/>
<line class="st12" x1="413.6" y1="296.7" x2="413.6" y2="303.6"/>
<line class="st12" x1="414.2" y1="296.7" x2="414.2" y2="303.6"/>
<line class="st11" x1="414.2" y1="303.6" x2="413.6" y2="303.6"/>
<line class="st11" x1="416.4" y1="289.4" x2="417" y2="289.4"/>
<line class="st12" x1="417" y1="289.4" x2="417" y2="296.2"/>
<line class="st12" x1="416.4" y1="289.4" x2="416.4" y2="296.2"/>
<line class="st12" x1="416.4" y1="296.7" x2="416.4" y2="303.6"/>
<line class="st12" x1="417" y1="296.7" x2="417" y2="303.6"/>
<line class="st11" x1="417" y1="303.6" x2="416.4" y2="303.6"/>
<line class="st11" x1="419.3" y1="289.4" x2="419.8" y2="289.4"/>
<line class="st12" x1="419.8" y1="289.4" x2="419.8" y2="296.2"/>
<line class="st12" x1="419.3" y1="289.4" x2="419.3" y2="296.2"/>
<line class="st12" x1="419.3" y1="296.7" x2="419.3" y2="303.6"/>
<line class="st12" x1="419.8" y1="296.7" x2="419.8" y2="303.6"/>
<line class="st11" x1="419.8" y1="303.6" x2="419.3" y2="303.6"/>
<line class="st11" x1="422.1" y1="289.4" x2="422.7" y2="289.4"/>
<line class="st12" x1="422.7" y1="289.4" x2="422.7" y2="296.2"/>
<line class="st12" x1="422.1" y1="289.4" x2="422.1" y2="296.2"/>
<line class="st12" x1="422.1" y1="296.7" x2="422.1" y2="303.6"/>
<line class="st12" x1="422.7" y1="296.7" x2="422.7" y2="303.6"/>
<line class="st11" x1="422.7" y1="303.6" x2="422.1" y2="303.6"/>
<line class="st11" x1="424.9" y1="289.4" x2="425.5" y2="289.4"/>
<line class="st12" x1="425.5" y1="289.4" x2="425.5" y2="296.2"/>
<line class="st12" x1="424.9" y1="289.4" x2="424.9" y2="296.2"/>
<line class="st12" x1="424.9" y1="296.7" x2="424.9" y2="303.6"/>
<line class="st12" x1="425.5" y1="296.7" x2="425.5" y2="303.6"/>
<line class="st11" x1="425.5" y1="303.6" x2="424.9" y2="303.6"/>
<line class="st11" x1="427.8" y1="289.4" x2="428.3" y2="289.4"/>
<line class="st12" x1="428.3" y1="289.4" x2="428.3" y2="296.2"/>
<line class="st12" x1="427.8" y1="289.4" x2="427.8" y2="296.2"/>
<line class="st12" x1="427.8" y1="296.7" x2="427.8" y2="303.6"/>
<line class="st12" x1="428.3" y1="296.7" x2="428.3" y2="303.6"/>
<line class="st11" x1="428.3" y1="303.6" x2="427.8" y2="303.6"/>
<line class="st11" x1="430.6" y1="289.4" x2="431.2" y2="289.4"/>
<line class="st12" x1="431.2" y1="289.4" x2="431.2" y2="296.2"/>
<line class="st12" x1="430.6" y1="289.4" x2="430.6" y2="296.2"/>
<line class="st12" x1="430.6" y1="296.7" x2="430.6" y2="303.6"/>
<line class="st12" x1="431.2" y1="296.7" x2="431.2" y2="303.6"/>
<line class="st11" x1="431.2" y1="303.6" x2="430.6" y2="303.6"/>
<line class="st11" x1="433.4" y1="289.4" x2="434" y2="289.4"/>
<line class="st12" x1="434" y1="289.4" x2="434" y2="296.2"/>
<line class="st12" x1="433.4" y1="289.4" x2="433.4" y2="296.2"/>
<line class="st12" x1="433.4" y1="296.7" x2="433.4" y2="303.6"/>
<line class="st12" x1="434" y1="296.7" x2="434" y2="303.6"/>
<line class="st11" x1="434" y1="303.6" x2="433.4" y2="303.6"/>
<line class="st11" x1="436.3" y1="289.4" x2="436.8" y2="289.4"/>
<line class="st12" x1="436.8" y1="289.4" x2="436.8" y2="296.2"/>
<line class="st12" x1="436.3" y1="289.4" x2="436.3" y2="296.2"/>
<line class="st12" x1="436.3" y1="296.7" x2="436.3" y2="303.6"/>
<line class="st12" x1="436.8" y1="296.7" x2="436.8" y2="303.6"/>
<line class="st11" x1="436.8" y1="303.6" x2="436.3" y2="303.6"/>
<line class="st11" x1="439.1" y1="289.4" x2="439.7" y2="289.4"/>
<line class="st12" x1="439.7" y1="289.4" x2="439.7" y2="296.2"/>
<line class="st12" x1="439.1" y1="289.4" x2="439.1" y2="296.2"/>
<line class="st12" x1="439.1" y1="296.7" x2="439.1" y2="303.6"/>
<line class="st12" x1="439.7" y1="296.7" x2="439.7" y2="303.6"/>
<line class="st11" x1="439.7" y1="303.6" x2="439.1" y2="303.6"/>
<line class="st11" x1="441.9" y1="289.4" x2="442.5" y2="289.4"/>
<line class="st12" x1="442.5" y1="289.4" x2="442.5" y2="296.2"/>
<line class="st12" x1="441.9" y1="289.4" x2="441.9" y2="296.2"/>
<line class="st12" x1="441.9" y1="296.7" x2="441.9" y2="303.6"/>
<line class="st12" x1="442.5" y1="296.7" x2="442.5" y2="303.6"/>
<line class="st11" x1="442.5" y1="303.6" x2="441.9" y2="303.6"/>
<line class="st11" x1="444.8" y1="289.4" x2="445.3" y2="289.4"/>
<line class="st12" x1="445.3" y1="289.4" x2="445.3" y2="296.2"/>
<line class="st12" x1="444.8" y1="289.4" x2="444.8" y2="296.2"/>
<line class="st12" x1="444.8" y1="296.7" x2="444.8" y2="303.6"/>
<line class="st12" x1="445.3" y1="296.7" x2="445.3" y2="303.6"/>
<line class="st11" x1="445.3" y1="303.6" x2="444.8" y2="303.6"/>
<line class="st11" x1="447.6" y1="289.4" x2="448.2" y2="289.4"/>
<line class="st12" x1="448.2" y1="289.4" x2="448.2" y2="296.2"/>
<line class="st12" x1="447.6" y1="289.4" x2="447.6" y2="296.2"/>
<line class="st12" x1="447.6" y1="296.7" x2="447.6" y2="303.6"/>
<line class="st12" x1="448.2" y1="296.7" x2="448.2" y2="303.6"/>
<line class="st11" x1="448.2" y1="303.6" x2="447.6" y2="303.6"/>
<line class="st11" x1="450.4" y1="289.4" x2="451" y2="289.4"/>
<line class="st12" x1="451" y1="289.4" x2="451" y2="296.2"/>
<line class="st12" x1="450.4" y1="289.4" x2="450.4" y2="296.2"/>
<line class="st12" x1="450.4" y1="296.7" x2="450.4" y2="303.6"/>
<line class="st12" x1="451" y1="296.7" x2="451" y2="303.6"/>
<line class="st11" x1="451" y1="303.6" x2="450.4" y2="303.6"/>
<line class="st11" x1="453.3" y1="289.4" x2="453.8" y2="289.4"/>
<line class="st12" x1="453.8" y1="289.4" x2="453.8" y2="296.2"/>
<line class="st12" x1="453.3" y1="289.4" x2="453.3" y2="296.2"/>
<line class="st12" x1="453.3" y1="296.7" x2="453.3" y2="303.6"/>
<line class="st12" x1="453.8" y1="296.7" x2="453.8" y2="303.6"/>
<line class="st11" x1="453.8" y1="303.6" x2="453.3" y2="303.6"/>
<line class="st11" x1="456.1" y1="289.4" x2="456.7" y2="289.4"/>
<line class="st12" x1="456.7" y1="289.4" x2="456.7" y2="296.2"/>
<line class="st12" x1="456.1" y1="289.4" x2="456.1" y2="296.2"/>
<line class="st12" x1="456.1" y1="296.7" x2="456.1" y2="303.6"/>
<line class="st12" x1="456.7" y1="296.7" x2="456.7" y2="303.6"/>
<line class="st11" x1="456.7" y1="303.6" x2="456.1" y2="303.6"/>
<line class="st11" x1="458.9" y1="289.4" x2="459.5" y2="289.4"/>
<line class="st12" x1="459.5" y1="289.4" x2="459.5" y2="296.2"/>
<line class="st12" x1="458.9" y1="289.4" x2="458.9" y2="296.2"/>
<line class="st12" x1="458.9" y1="296.7" x2="458.9" y2="303.6"/>
<line class="st12" x1="459.5" y1="296.7" x2="459.5" y2="303.6"/>
<line class="st11" x1="459.5" y1="303.6" x2="458.9" y2="303.6"/>
<line class="st11" x1="461.8" y1="289.4" x2="462.3" y2="289.4"/>
<line class="st12" x1="462.3" y1="289.4" x2="462.3" y2="296.2"/>
<line class="st12" x1="461.8" y1="289.4" x2="461.8" y2="296.2"/>
<line class="st12" x1="461.8" y1="296.7" x2="461.8" y2="303.6"/>
<line class="st12" x1="462.3" y1="296.7" x2="462.3" y2="303.6"/>
<line class="st11" x1="462.3" y1="303.6" x2="461.8" y2="303.6"/>
<line class="st11" x1="464.6" y1="289.4" x2="465.2" y2="289.4"/>
<line class="st12" x1="465.2" y1="289.4" x2="465.2" y2="296.2"/>
<line class="st12" x1="464.6" y1="289.4" x2="464.6" y2="296.2"/>
<line class="st12" x1="464.6" y1="296.7" x2="464.6" y2="303.6"/>
<line class="st12" x1="465.2" y1="296.7" x2="465.2" y2="303.6"/>
<line class="st11" x1="465.2" y1="303.6" x2="464.6" y2="303.6"/>
<line class="st11" x1="467.4" y1="289.4" x2="468" y2="289.4"/>
<line class="st12" x1="468" y1="289.4" x2="468" y2="296.2"/>
<line class="st12" x1="467.4" y1="289.4" x2="467.4" y2="296.2"/>
<line class="st12" x1="467.4" y1="296.7" x2="467.4" y2="303.6"/>
<line class="st12" x1="468" y1="296.7" x2="468" y2="303.6"/>
<line class="st11" x1="468" y1="303.6" x2="467.4" y2="303.6"/>
<line class="st11" x1="470.3" y1="289.4" x2="470.8" y2="289.4"/>
<line class="st12" x1="470.8" y1="289.4" x2="470.8" y2="296.2"/>
<line class="st12" x1="470.3" y1="289.4" x2="470.3" y2="296.2"/>
<line class="st12" x1="470.3" y1="296.7" x2="470.3" y2="303.6"/>
<line class="st12" x1="470.8" y1="296.7" x2="470.8" y2="303.6"/>
<line class="st11" x1="470.8" y1="303.6" x2="470.3" y2="303.6"/>
<line class="st11" x1="473.1" y1="289.4" x2="473.7" y2="289.4"/>
<line class="st12" x1="473.7" y1="289.4" x2="473.7" y2="296.2"/>
<line class="st12" x1="473.1" y1="289.4" x2="473.1" y2="296.2"/>
<line class="st12" x1="473.1" y1="296.7" x2="473.1" y2="303.6"/>
<line class="st12" x1="473.7" y1="296.7" x2="473.7" y2="303.6"/>
<line class="st11" x1="473.7" y1="303.6" x2="473.1" y2="303.6"/>
<line class="st11" x1="475.9" y1="289.4" x2="476.5" y2="289.4"/>
<line class="st12" x1="476.5" y1="289.4" x2="476.5" y2="296.2"/>
<line class="st12" x1="475.9" y1="289.4" x2="475.9" y2="296.2"/>
<line class="st12" x1="475.9" y1="296.7" x2="475.9" y2="303.6"/>
<line class="st12" x1="476.5" y1="296.7" x2="476.5" y2="303.6"/>
<line class="st11" x1="476.5" y1="303.6" x2="475.9" y2="303.6"/>
<line class="st11" x1="478.8" y1="289.4" x2="479.3" y2="289.4"/>
<line class="st12" x1="479.3" y1="289.4" x2="479.3" y2="296.2"/>
<line class="st12" x1="478.8" y1="289.4" x2="478.8" y2="296.2"/>
<line class="st12" x1="478.8" y1="296.7" x2="478.8" y2="303.6"/>
<line class="st12" x1="479.3" y1="296.7" x2="479.3" y2="303.6"/>
<line class="st11" x1="479.3" y1="303.6" x2="478.8" y2="303.6"/>
<line class="st11" x1="481.6" y1="289.4" x2="482.2" y2="289.4"/>
<line class="st12" x1="482.2" y1="289.4" x2="482.2" y2="296.2"/>
<line class="st12" x1="481.6" y1="289.4" x2="481.6" y2="296.2"/>
<line class="st12" x1="481.6" y1="296.7" x2="481.6" y2="303.6"/>
<line class="st12" x1="482.2" y1="296.7" x2="482.2" y2="303.6"/>
<line class="st11" x1="482.2" y1="303.6" x2="481.6" y2="303.6"/>
<line class="st11" x1="484.4" y1="289.4" x2="485" y2="289.4"/>
<line class="st12" x1="485" y1="289.4" x2="485" y2="296.2"/>
<line class="st12" x1="484.4" y1="289.4" x2="484.4" y2="296.2"/>
<line class="st12" x1="484.4" y1="296.7" x2="484.4" y2="303.6"/>
<line class="st12" x1="485" y1="296.7" x2="485" y2="303.6"/>
<line class="st11" x1="485" y1="303.6" x2="484.4" y2="303.6"/>
<line class="st11" x1="487.3" y1="289.4" x2="487.9" y2="289.4"/>
<line class="st12" x1="487.9" y1="289.4" x2="487.9" y2="296.2"/>
<line class="st12" x1="487.3" y1="289.4" x2="487.3" y2="296.2"/>
<line class="st12" x1="487.3" y1="296.7" x2="487.3" y2="303.6"/>
<line class="st12" x1="487.9" y1="296.7" x2="487.9" y2="303.6"/>
<line class="st11" x1="487.9" y1="303.6" x2="487.3" y2="303.6"/>
<line class="st11" x1="490.1" y1="289.4" x2="490.7" y2="289.4"/>
<line class="st12" x1="490.7" y1="289.4" x2="490.7" y2="296.2"/>
<line class="st12" x1="490.1" y1="289.4" x2="490.1" y2="296.2"/>
<line class="st12" x1="490.1" y1="296.7" x2="490.1" y2="303.6"/>
<line class="st12" x1="490.7" y1="296.7" x2="490.7" y2="303.6"/>
<line class="st11" x1="490.7" y1="303.6" x2="490.1" y2="303.6"/>
<line class="st11" x1="493" y1="289.4" x2="493.5" y2="289.4"/>
<line class="st12" x1="493.5" y1="289.4" x2="493.5" y2="296.2"/>
<line class="st12" x1="493" y1="289.4" x2="493" y2="296.2"/>
<line class="st12" x1="493" y1="296.7" x2="493" y2="303.6"/>
<line class="st12" x1="493.5" y1="296.7" x2="493.5" y2="303.6"/>
<line class="st11" x1="493.5" y1="303.6" x2="493" y2="303.6"/>
<line class="st11" x1="495.8" y1="289.4" x2="496.4" y2="289.4"/>
<line class="st12" x1="496.4" y1="289.4" x2="496.4" y2="296.2"/>
<line class="st12" x1="495.8" y1="289.4" x2="495.8" y2="296.2"/>
<line class="st12" x1="495.8" y1="296.7" x2="495.8" y2="303.6"/>
<line class="st12" x1="496.4" y1="296.7" x2="496.4" y2="303.6"/>
<line class="st11" x1="496.4" y1="303.6" x2="495.8" y2="303.6"/>
<line class="st11" x1="498.6" y1="289.4" x2="499.2" y2="289.4"/>
<line class="st12" x1="499.2" y1="289.4" x2="499.2" y2="296.2"/>
<line class="st12" x1="498.6" y1="289.4" x2="498.6" y2="296.2"/>
<line class="st12" x1="498.6" y1="296.7" x2="498.6" y2="303.6"/>
<line class="st12" x1="499.2" y1="296.7" x2="499.2" y2="303.6"/>
<line class="st11" x1="499.2" y1="303.6" x2="498.6" y2="303.6"/>
<line class="st11" x1="501.5" y1="289.4" x2="502" y2="289.4"/>
<line class="st12" x1="502" y1="289.4" x2="502" y2="296.2"/>
<line class="st12" x1="501.5" y1="289.4" x2="501.5" y2="296.2"/>
<line class="st12" x1="501.5" y1="296.7" x2="501.5" y2="303.6"/>
<line class="st12" x1="502" y1="296.7" x2="502" y2="303.6"/>
<line class="st11" x1="502" y1="303.6" x2="501.5" y2="303.6"/>
<line class="st11" x1="504.3" y1="289.4" x2="504.9" y2="289.4"/>
<line class="st12" x1="504.9" y1="289.4" x2="504.9" y2="296.2"/>
<line class="st12" x1="504.3" y1="289.4" x2="504.3" y2="296.2"/>
<line class="st12" x1="504.3" y1="296.7" x2="504.3" y2="303.6"/>
<line class="st12" x1="504.9" y1="296.7" x2="504.9" y2="303.6"/>
<line class="st11" x1="504.9" y1="303.6" x2="504.3" y2="303.6"/>
<line class="st11" x1="507.1" y1="289.4" x2="507.7" y2="289.4"/>
<line class="st12" x1="507.7" y1="289.4" x2="507.7" y2="296.2"/>
<line class="st12" x1="507.1" y1="289.4" x2="507.1" y2="296.2"/>
<line class="st12" x1="507.1" y1="296.7" x2="507.1" y2="303.6"/>
<line class="st12" x1="507.7" y1="296.7" x2="507.7" y2="303.6"/>
<line class="st11" x1="507.7" y1="303.6" x2="507.1" y2="303.6"/>
<line class="st11" x1="510" y1="289.4" x2="510.5" y2="289.4"/>
<line class="st12" x1="510.5" y1="289.4" x2="510.5" y2="296.2"/>
<line class="st12" x1="510" y1="289.4" x2="510" y2="296.2"/>
<line class="st12" x1="510" y1="296.7" x2="510" y2="303.6"/>
<line class="st12" x1="510.5" y1="296.7" x2="510.5" y2="303.6"/>
<line class="st11" x1="510.5" y1="303.6" x2="510" y2="303.6"/>
<line class="st11" x1="512.8" y1="289.4" x2="513.4" y2="289.4"/>
<line class="st12" x1="513.4" y1="289.4" x2="513.4" y2="296.2"/>
<line class="st12" x1="512.8" y1="289.4" x2="512.8" y2="296.2"/>
<line class="st12" x1="512.8" y1="296.7" x2="512.8" y2="303.6"/>
<line class="st12" x1="513.4" y1="296.7" x2="513.4" y2="303.6"/>
<line class="st11" x1="513.4" y1="303.6" x2="512.8" y2="303.6"/>
<line class="st11" x1="515.6" y1="289.4" x2="516.2" y2="289.4"/>
<line class="st12" x1="516.2" y1="289.4" x2="516.2" y2="296.2"/>
<line class="st12" x1="515.6" y1="289.4" x2="515.6" y2="296.2"/>
<line class="st12" x1="515.6" y1="296.7" x2="515.6" y2="303.6"/>
<line class="st12" x1="516.2" y1="296.7" x2="516.2" y2="303.6"/>
<line class="st11" x1="516.2" y1="303.6" x2="515.6" y2="303.6"/>
<line class="st11" x1="518.5" y1="289.4" x2="519" y2="289.4"/>
<line class="st12" x1="519" y1="289.4" x2="519" y2="296.2"/>
<line class="st12" x1="518.5" y1="289.4" x2="518.5" y2="296.2"/>
<line class="st12" x1="518.5" y1="296.7" x2="518.5" y2="303.6"/>
<line class="st12" x1="519" y1="296.7" x2="519" y2="303.6"/>
<line class="st11" x1="519" y1="303.6" x2="518.5" y2="303.6"/>
<line class="st11" x1="521.3" y1="289.4" x2="521.9" y2="289.4"/>
<line class="st12" x1="521.9" y1="289.4" x2="521.9" y2="296.2"/>
<line class="st12" x1="521.3" y1="289.4" x2="521.3" y2="296.2"/>
<line class="st12" x1="521.3" y1="296.7" x2="521.3" y2="303.6"/>
<line class="st12" x1="521.9" y1="296.7" x2="521.9" y2="303.6"/>
<line class="st11" x1="521.9" y1="303.6" x2="521.3" y2="303.6"/>
<line class="st11" x1="524.1" y1="289.4" x2="524.7" y2="289.4"/>
<line class="st12" x1="524.7" y1="289.4" x2="524.7" y2="296.2"/>
<line class="st12" x1="524.1" y1="289.4" x2="524.1" y2="296.2"/>
<line class="st12" x1="524.1" y1="296.7" x2="524.1" y2="303.6"/>
<line class="st12" x1="524.7" y1="296.7" x2="524.7" y2="303.6"/>
<line class="st11" x1="524.7" y1="303.6" x2="524.1" y2="303.6"/>
<line class="st11" x1="527" y1="289.4" x2="527.5" y2="289.4"/>
<line class="st12" x1="527.5" y1="289.4" x2="527.5" y2="296.2"/>
<line class="st12" x1="527" y1="289.4" x2="527" y2="296.2"/>
<line class="st12" x1="527" y1="296.7" x2="527" y2="303.6"/>
<line class="st12" x1="527.5" y1="296.7" x2="527.5" y2="303.6"/>
<line class="st11" x1="527.5" y1="303.6" x2="527" y2="303.6"/>
<line class="st11" x1="529.8" y1="289.4" x2="530.4" y2="289.4"/>
<line class="st12" x1="530.4" y1="289.4" x2="530.4" y2="296.2"/>
<line class="st12" x1="529.8" y1="289.4" x2="529.8" y2="296.2"/>
<line class="st12" x1="529.8" y1="296.7" x2="529.8" y2="303.6"/>
<line class="st12" x1="530.4" y1="296.7" x2="530.4" y2="303.6"/>
<line class="st11" x1="530.4" y1="303.6" x2="529.8" y2="303.6"/>
<line class="st11" x1="532.6" y1="289.4" x2="533.2" y2="289.4"/>
<line class="st12" x1="533.2" y1="289.4" x2="533.2" y2="296.2"/>
<line class="st12" x1="532.6" y1="289.4" x2="532.6" y2="296.2"/>
<line class="st12" x1="532.6" y1="296.7" x2="532.6" y2="303.6"/>
<line class="st12" x1="533.2" y1="296.7" x2="533.2" y2="303.6"/>
<line class="st11" x1="533.2" y1="303.6" x2="532.6" y2="303.6"/>
<line class="st11" x1="535.5" y1="289.4" x2="536" y2="289.4"/>
<line class="st12" x1="536" y1="289.4" x2="536" y2="296.2"/>
<line class="st12" x1="535.5" y1="289.4" x2="535.5" y2="296.2"/>
<line class="st12" x1="535.5" y1="296.7" x2="535.5" y2="303.6"/>
<line class="st12" x1="536" y1="296.7" x2="536" y2="303.6"/>
<line class="st11" x1="536" y1="303.6" x2="535.5" y2="303.6"/>
<line class="st11" x1="538.3" y1="289.4" x2="538.9" y2="289.4"/>
<line class="st12" x1="538.9" y1="289.4" x2="538.9" y2="296.2"/>
<line class="st12" x1="538.3" y1="289.4" x2="538.3" y2="296.2"/>
<line class="st12" x1="538.3" y1="296.7" x2="538.3" y2="303.6"/>
<line class="st12" x1="538.9" y1="296.7" x2="538.9" y2="303.6"/>
<line class="st11" x1="538.9" y1="303.6" x2="538.3" y2="303.6"/>
<line class="st11" x1="541.1" y1="289.4" x2="541.7" y2="289.4"/>
<line class="st12" x1="541.7" y1="289.4" x2="541.7" y2="296.2"/>
<line class="st12" x1="541.1" y1="289.4" x2="541.1" y2="296.2"/>
<line class="st12" x1="541.1" y1="296.7" x2="541.1" y2="303.6"/>
<line class="st12" x1="541.7" y1="296.7" x2="541.7" y2="303.6"/>
<line class="st11" x1="541.7" y1="303.6" x2="541.1" y2="303.6"/>
<line class="st11" x1="544" y1="289.4" x2="544.5" y2="289.4"/>
<line class="st12" x1="544.5" y1="289.4" x2="544.5" y2="296.2"/>
<line class="st12" x1="544" y1="289.4" x2="544" y2="296.2"/>
<line class="st12" x1="544" y1="296.7" x2="544" y2="303.6"/>
<line class="st12" x1="544.5" y1="296.7" x2="544.5" y2="303.6"/>
<line class="st11" x1="544.5" y1="303.6" x2="544" y2="303.6"/>
<line class="st11" x1="546.8" y1="289.4" x2="547.4" y2="289.4"/>
<line class="st12" x1="547.4" y1="289.4" x2="547.4" y2="296.2"/>
<line class="st12" x1="546.8" y1="289.4" x2="546.8" y2="296.2"/>
<line class="st12" x1="546.8" y1="296.7" x2="546.8" y2="303.6"/>
<line class="st12" x1="547.4" y1="296.7" x2="547.4" y2="303.6"/>
<line class="st11" x1="547.4" y1="303.6" x2="546.8" y2="303.6"/>
<line class="st11" x1="549.6" y1="289.4" x2="550.2" y2="289.4"/>
<line class="st12" x1="550.2" y1="289.4" x2="550.2" y2="296.2"/>
<line class="st12" x1="549.6" y1="289.4" x2="549.6" y2="296.2"/>
<line class="st12" x1="549.6" y1="296.7" x2="549.6" y2="303.6"/>
<line class="st12" x1="550.2" y1="296.7" x2="550.2" y2="303.6"/>
<line class="st11" x1="550.2" y1="303.6" x2="549.6" y2="303.6"/>
<line class="st11" x1="552.5" y1="289.4" x2="553" y2="289.4"/>
<line class="st12" x1="553" y1="289.4" x2="553" y2="296.2"/>
<line class="st12" x1="552.5" y1="289.4" x2="552.5" y2="296.2"/>
<line class="st12" x1="552.5" y1="296.7" x2="552.5" y2="303.6"/>
<line class="st12" x1="553" y1="296.7" x2="553" y2="303.6"/>
<line class="st11" x1="553" y1="303.6" x2="552.5" y2="303.6"/>
<line class="st11" x1="555.3" y1="289.4" x2="555.9" y2="289.4"/>
<line class="st12" x1="555.9" y1="289.4" x2="555.9" y2="296.2"/>
<line class="st12" x1="555.3" y1="289.4" x2="555.3" y2="296.2"/>
<line class="st12" x1="555.3" y1="296.7" x2="555.3" y2="303.6"/>
<line class="st12" x1="555.9" y1="296.7" x2="555.9" y2="303.6"/>
<line class="st11" x1="555.9" y1="303.6" x2="555.3" y2="303.6"/>
<line class="st11" x1="558.2" y1="289.4" x2="558.7" y2="289.4"/>
<line class="st12" x1="558.7" y1="289.4" x2="558.7" y2="296.2"/>
<line class="st12" x1="558.2" y1="289.4" x2="558.2" y2="296.2"/>
<line class="st12" x1="558.2" y1="296.7" x2="558.2" y2="303.6"/>
<line class="st12" x1="558.7" y1="296.7" x2="558.7" y2="303.6"/>
<line class="st11" x1="558.7" y1="303.6" x2="558.2" y2="303.6"/>
<line class="st11" x1="561" y1="282.3" x2="561.6" y2="282.3"/>
<line class="st12" x1="561.6" y1="282.3" x2="561.6" y2="310.6"/>
<line class="st11" x1="561.6" y1="310.6" x2="561" y2="310.6"/>
<line class="st11" x1="561" y1="282.3" x2="561" y2="296.2"/>
<line class="st11" x1="561" y1="296.7" x2="561" y2="310.6"/>
<line class="st12" x1="558.7" y1="296.7" x2="561" y2="296.7"/>
<line class="st12" x1="558.7" y1="296.2" x2="561" y2="296.2"/>
<line class="st12" x1="555.9" y1="296.7" x2="558.2" y2="296.7"/>
<line class="st12" x1="555.9" y1="296.2" x2="558.2" y2="296.2"/>
<line class="st12" x1="553" y1="296.7" x2="555.3" y2="296.7"/>
<line class="st12" x1="553" y1="296.2" x2="555.3" y2="296.2"/>
<line class="st12" x1="550.2" y1="296.7" x2="552.5" y2="296.7"/>
<line class="st12" x1="550.2" y1="296.2" x2="552.5" y2="296.2"/>
<line class="st12" x1="547.4" y1="296.7" x2="549.6" y2="296.7"/>
<line class="st12" x1="547.4" y1="296.2" x2="549.6" y2="296.2"/>
<line class="st12" x1="544.5" y1="296.7" x2="546.8" y2="296.7"/>
<line class="st12" x1="544.5" y1="296.2" x2="546.8" y2="296.2"/>
<line class="st12" x1="541.7" y1="296.7" x2="544" y2="296.7"/>
<line class="st12" x1="541.7" y1="296.2" x2="544" y2="296.2"/>
<line class="st12" x1="538.9" y1="296.7" x2="541.1" y2="296.7"/>
<line class="st12" x1="538.9" y1="296.2" x2="541.1" y2="296.2"/>
<line class="st12" x1="536" y1="296.7" x2="538.3" y2="296.7"/>
<line class="st12" x1="536" y1="296.2" x2="538.3" y2="296.2"/>
<line class="st12" x1="533.2" y1="296.7" x2="535.5" y2="296.7"/>
<line class="st12" x1="533.2" y1="296.2" x2="535.5" y2="296.2"/>
<line class="st12" x1="530.4" y1="296.7" x2="532.6" y2="296.7"/>
<line class="st12" x1="530.4" y1="296.2" x2="532.6" y2="296.2"/>
<line class="st12" x1="527.5" y1="296.7" x2="529.8" y2="296.7"/>
<line class="st12" x1="527.5" y1="296.2" x2="529.8" y2="296.2"/>
<line class="st12" x1="524.7" y1="296.7" x2="527" y2="296.7"/>
<line class="st12" x1="524.7" y1="296.2" x2="527" y2="296.2"/>
<line class="st12" x1="521.9" y1="296.7" x2="524.1" y2="296.7"/>
<line class="st12" x1="521.9" y1="296.2" x2="524.1" y2="296.2"/>
<line class="st12" x1="519" y1="296.7" x2="521.3" y2="296.7"/>
<line class="st12" x1="519" y1="296.2" x2="521.3" y2="296.2"/>
<line class="st12" x1="516.2" y1="296.7" x2="518.5" y2="296.7"/>
<line class="st12" x1="516.2" y1="296.2" x2="518.5" y2="296.2"/>
<line class="st12" x1="513.4" y1="296.7" x2="515.6" y2="296.7"/>
<line class="st12" x1="513.4" y1="296.2" x2="515.6" y2="296.2"/>
<line class="st12" x1="510.5" y1="296.7" x2="512.8" y2="296.7"/>
<line class="st12" x1="510.5" y1="296.2" x2="512.8" y2="296.2"/>
<line class="st12" x1="507.7" y1="296.7" x2="510" y2="296.7"/>
<line class="st12" x1="507.7" y1="296.2" x2="510" y2="296.2"/>
<line class="st12" x1="504.9" y1="296.7" x2="507.1" y2="296.7"/>
<line class="st12" x1="504.9" y1="296.2" x2="507.1" y2="296.2"/>
<line class="st12" x1="502" y1="296.7" x2="504.3" y2="296.7"/>
<line class="st12" x1="502" y1="296.2" x2="504.3" y2="296.2"/>
<line class="st12" x1="499.2" y1="296.7" x2="501.5" y2="296.7"/>
<line class="st12" x1="499.2" y1="296.2" x2="501.5" y2="296.2"/>
<line class="st12" x1="496.4" y1="296.7" x2="498.6" y2="296.7"/>
<line class="st12" x1="496.4" y1="296.2" x2="498.6" y2="296.2"/>
<line class="st12" x1="493.5" y1="296.7" x2="495.8" y2="296.7"/>
<line class="st12" x1="493.5" y1="296.2" x2="495.8" y2="296.2"/>
<line class="st12" x1="490.7" y1="296.7" x2="493" y2="296.7"/>
<line class="st12" x1="490.7" y1="296.2" x2="493" y2="296.2"/>
<line class="st12" x1="487.9" y1="296.7" x2="490.1" y2="296.7"/>
<line class="st12" x1="487.9" y1="296.2" x2="490.1" y2="296.2"/>
<line class="st12" x1="485" y1="296.7" x2="487.3" y2="296.7"/>
<line class="st12" x1="485" y1="296.2" x2="487.3" y2="296.2"/>
<line class="st12" x1="482.2" y1="296.7" x2="484.4" y2="296.7"/>
<line class="st12" x1="482.2" y1="296.2" x2="484.4" y2="296.2"/>
<line class="st12" x1="479.3" y1="296.7" x2="481.6" y2="296.7"/>
<line class="st12" x1="479.3" y1="296.2" x2="481.6" y2="296.2"/>
<line class="st12" x1="476.5" y1="296.7" x2="478.8" y2="296.7"/>
<line class="st12" x1="476.5" y1="296.2" x2="478.8" y2="296.2"/>
<line class="st12" x1="473.7" y1="296.7" x2="475.9" y2="296.7"/>
<line class="st12" x1="473.7" y1="296.2" x2="475.9" y2="296.2"/>
<line class="st12" x1="470.8" y1="296.7" x2="473.1" y2="296.7"/>
<line class="st12" x1="470.8" y1="296.2" x2="473.1" y2="296.2"/>
<line class="st12" x1="468" y1="296.7" x2="470.3" y2="296.7"/>
<line class="st12" x1="468" y1="296.2" x2="470.3" y2="296.2"/>
<line class="st12" x1="465.2" y1="296.7" x2="467.4" y2="296.7"/>
<line class="st12" x1="465.2" y1="296.2" x2="467.4" y2="296.2"/>
<line class="st12" x1="462.3" y1="296.7" x2="464.6" y2="296.7"/>
<line class="st12" x1="462.3" y1="296.2" x2="464.6" y2="296.2"/>
<line class="st12" x1="459.5" y1="296.7" x2="461.8" y2="296.7"/>
<line class="st12" x1="459.5" y1="296.2" x2="461.8" y2="296.2"/>
<line class="st12" x1="456.7" y1="296.7" x2="458.9" y2="296.7"/>
<line class="st12" x1="456.7" y1="296.2" x2="458.9" y2="296.2"/>
<line class="st12" x1="453.8" y1="296.7" x2="456.1" y2="296.7"/>
<line class="st12" x1="453.8" y1="296.2" x2="456.1" y2="296.2"/>
<line class="st12" x1="451" y1="296.7" x2="453.3" y2="296.7"/>
<line class="st12" x1="451" y1="296.2" x2="453.3" y2="296.2"/>
<line class="st12" x1="448.2" y1="296.7" x2="450.4" y2="296.7"/>
<line class="st12" x1="448.2" y1="296.2" x2="450.4" y2="296.2"/>
<line class="st12" x1="445.3" y1="296.7" x2="447.6" y2="296.7"/>
<line class="st12" x1="445.3" y1="296.2" x2="447.6" y2="296.2"/>
<line class="st12" x1="442.5" y1="296.7" x2="444.8" y2="296.7"/>
<line class="st12" x1="442.5" y1="296.2" x2="444.8" y2="296.2"/>
<line class="st12" x1="439.7" y1="296.7" x2="441.9" y2="296.7"/>
<line class="st12" x1="439.7" y1="296.2" x2="441.9" y2="296.2"/>
<line class="st12" x1="436.8" y1="296.7" x2="439.1" y2="296.7"/>
<line class="st12" x1="436.8" y1="296.2" x2="439.1" y2="296.2"/>
<line class="st12" x1="434" y1="296.7" x2="436.3" y2="296.7"/>
<line class="st12" x1="434" y1="296.2" x2="436.3" y2="296.2"/>
<line class="st12" x1="431.2" y1="296.7" x2="433.4" y2="296.7"/>
<line class="st12" x1="431.2" y1="296.2" x2="433.4" y2="296.2"/>
<line class="st12" x1="428.3" y1="296.7" x2="430.6" y2="296.7"/>
<line class="st12" x1="428.3" y1="296.2" x2="430.6" y2="296.2"/>
<line class="st12" x1="425.5" y1="296.7" x2="427.8" y2="296.7"/>
<line class="st12" x1="425.5" y1="296.2" x2="427.8" y2="296.2"/>
<line class="st12" x1="422.7" y1="296.7" x2="424.9" y2="296.7"/>
<line class="st12" x1="422.7" y1="296.2" x2="424.9" y2="296.2"/>
<line class="st12" x1="419.8" y1="296.7" x2="422.1" y2="296.7"/>
<line class="st12" x1="419.8" y1="296.2" x2="422.1" y2="296.2"/>
<line class="st12" x1="417" y1="296.7" x2="419.3" y2="296.7"/>
<line class="st12" x1="417" y1="296.2" x2="419.3" y2="296.2"/>
<line class="st12" x1="414.2" y1="296.7" x2="416.4" y2="296.7"/>
<line class="st12" x1="414.2" y1="296.2" x2="416.4" y2="296.2"/>
<line class="st12" x1="411.3" y1="296.7" x2="413.6" y2="296.7"/>
<line class="st12" x1="411.3" y1="296.2" x2="413.6" y2="296.2"/>
<line class="st12" x1="408.5" y1="296.7" x2="410.7" y2="296.7"/>
<line class="st12" x1="408.5" y1="296.2" x2="410.7" y2="296.2"/>
<line class="st12" x1="405.6" y1="296.7" x2="407.9" y2="296.7"/>
<line class="st12" x1="405.6" y1="296.2" x2="407.9" y2="296.2"/>
<line class="st12" x1="402.8" y1="296.7" x2="405.1" y2="296.7"/>
<line class="st12" x1="402.8" y1="296.2" x2="405.1" y2="296.2"/>
<line class="st12" x1="400" y1="296.7" x2="402.2" y2="296.7"/>
<line class="st12" x1="400" y1="296.2" x2="402.2" y2="296.2"/>
<line class="st12" x1="397.1" y1="296.7" x2="399.4" y2="296.7"/>
<line class="st12" x1="397.1" y1="296.2" x2="399.4" y2="296.2"/>
<line class="st12" x1="394.3" y1="296.7" x2="396.6" y2="296.7"/>
<line class="st12" x1="394.3" y1="296.2" x2="396.6" y2="296.2"/>
<line class="st12" x1="391.5" y1="296.7" x2="393.7" y2="296.7"/>
<line class="st12" x1="391.5" y1="296.2" x2="393.7" y2="296.2"/>
<polyline class="st12" points="506,324.8 506.3,326.9 507.2,328.8 508.7,330.4 510.5,331.4 512.5,331.9 514.7,331.7 516.6,330.9 
	518.3,329.6 519.5,327.9 520.1,325.9 520.1,323.8 519.5,321.7 518.3,320 516.6,318.7 514.7,317.9 512.5,317.7 510.5,318.2 
	508.7,319.3 507.2,320.8 506.3,322.7 506,324.8 "/>
<polyline class="st11" points="498.9,324.8 499.2,327.8 500.1,330.6 501.6,333.1 503.6,335.3 506,337.1 508.7,338.3 511.6,338.9 
	514.6,338.9 517.5,338.3 520.2,337.1 522.6,335.3 524.5,333.1 526,330.6 526.9,327.8 527.3,324.8 526.9,321.9 526,319 524.5,316.5 
	522.6,314.3 520.2,312.5 517.5,311.3 514.6,310.7 511.6,310.7 508.7,311.3 506,312.5 503.6,314.3 501.6,316.5 500.1,319 
	499.2,321.9 498.9,324.8 "/>
<polyline class="st11" points="768.2,356.7 768.5,359.6 769.4,362.5 770.9,365 772.9,367.2 775.3,369 778,370.2 780.9,370.8 
	783.9,370.8 786.8,370.2 789.5,369 791.9,367.2 793.8,365 795.3,362.5 796.2,359.6 796.5,356.7 796.2,353.8 795.3,350.9 
	793.8,348.4 791.9,346.2 789.5,344.4 786.8,343.2 783.9,342.6 780.9,342.6 778,343.2 775.3,344.4 772.9,346.2 770.9,348.4 
	769.4,350.9 768.5,353.8 768.2,356.7 "/>
<polyline class="st12" points="775.3,356.7 775.6,358.8 776.5,360.7 778,362.2 779.8,363.3 781.8,363.8 783.9,363.6 785.9,362.8 
	787.6,361.5 788.8,359.8 789.4,357.8 789.4,355.6 788.8,353.6 787.6,351.9 785.9,350.6 783.9,349.8 781.8,349.6 779.8,350.1 
	778,351.2 776.5,352.7 775.6,354.6 775.3,356.7 "/>
<polyline class="st11" points="796.5,236.2 796.2,233.3 795.3,230.5 793.8,227.9 791.9,225.7 789.5,224 786.8,222.8 783.9,222.1 
	780.9,222.1 778,222.8 775.3,224 772.9,225.7 770.9,227.9 769.4,230.5 768.5,233.3 768.2,236.2 768.5,239.2 769.4,242 770.9,244.6 
	772.9,246.8 775.3,248.5 778,249.7 780.9,250.3 783.9,250.3 786.8,249.7 789.5,248.5 791.9,246.8 793.8,244.6 795.3,242 
	796.2,239.2 796.5,236.2 "/>
<polyline class="st12" points="789.5,236.2 789.1,234.1 788.2,232.2 786.8,230.7 785,229.6 782.9,229.2 780.8,229.3 778.8,230.1 
	777.2,231.4 776,233.2 775.4,235.2 775.4,237.3 776,239.3 777.2,241.1 778.8,242.4 780.8,243.1 782.9,243.3 785,242.8 786.8,241.8 
	788.2,240.2 789.1,238.3 789.5,236.2 "/>
<polyline class="st11" points="527.3,268.1 526.9,265.2 526,262.4 524.5,259.8 522.6,257.6 520.2,255.8 517.5,254.6 514.6,254 
	511.6,254 508.7,254.6 506,255.8 503.6,257.6 501.6,259.8 500.1,262.4 499.2,265.2 498.9,268.1 499.2,271.1 500.1,273.9 
	501.6,276.5 503.6,278.7 506,280.4 508.7,281.6 511.6,282.2 514.6,282.2 517.5,281.6 520.2,280.4 522.6,278.7 524.5,276.5 
	526,273.9 526.9,271.1 527.3,268.1 "/>
<polyline class="st12" points="520.2,268.1 519.9,266 518.9,264.1 517.5,262.6 515.7,261.5 513.6,261.1 511.5,261.2 509.5,262 
	507.9,263.3 506.7,265 506.1,267.1 506.1,269.2 506.7,271.2 507.9,272.9 509.5,274.3 511.5,275 513.6,275.2 515.7,274.7 
	517.5,273.7 518.9,272.1 519.9,270.2 520.2,268.1 "/>
</svg>
